<?xml version="1.0" encoding="UTF-8"?>
<svg width="200px" height="64px" viewBox="0 0 200 64" version="1.1" xmlns="http://www.w3.org/2000/svg" xmlns:xlink="http://www.w3.org/1999/xlink">
    <!-- Generator: Sketch 59.1 (86144) - https://sketch.com -->
    <title>Logo/Footer</title>
    <desc>Created with Sketch.</desc>
    <g id="Logo/Footer" stroke="none" stroke-width="1" fill="none" fill-rule="evenodd">
        <g id="Footer_Logo">
            <g transform="translate(8.593750, 3.125000)" fill-rule="nonzero" id="Gogojii_Logo">
                <g>
                    <path d="M70.6296875,28.8105469 C70.6296875,38.3566406 63.0386719,46.0949219 53.6746094,46.0949219 C44.3105469,46.0949219 36.7195313,38.35625 36.7195313,28.8105469 C36.7195313,19.2644531 44.3105469,11.5261719 53.6746094,11.5261719 C63.0386719,11.5261719 70.6296875,19.2648437 70.6296875,28.8105469 Z M53.6742187,19.609375 C48.6894531,19.609375 44.6484375,23.7289062 44.6484375,28.8105469 C44.6484375,33.8921875 48.6894531,38.0117187 53.6742187,38.0117187 C58.6589844,38.0117187 62.7,33.8921875 62.7,28.8105469 C62.7003906,23.7289062 58.659375,19.609375 53.6742187,19.609375 Z" id="Shape" fill="#F6B123"></path>
                    <path d="M142.682813,57.2980469 C140.983203,57.2980469 139.954297,56.2957031 139.391016,55.6996094 C138.670703,54.9378906 138.274219,53.9121094 138.274219,52.8109375 C138.274219,50.8617188 139.589844,48.9195313 142.479297,48.7820313 C144.974609,48.6914063 146.921094,46.5054688 146.921094,44.0839844 L146.921094,15.8480469 C146.921094,13.4207031 148.775391,11.5195313 151.142969,11.5195313 C153.525391,11.5195313 155.391406,13.4207031 155.391406,15.8480469 L155.364844,44.3515625 C155.364453,52.3640625 149.515625,57.6527344 142.682813,57.2980469 Z" id="Path" fill="#00A5D6"></path>
                    <path d="M164.725781,46.1019531 C162.358203,46.1019531 160.503906,44.2710937 160.503906,41.9335938 L160.503906,15.6878906 C160.503906,13.3503906 162.358203,11.5195313 164.725781,11.5195313 C167.053516,11.5195313 168.947656,13.3894531 168.947656,15.6878906 L168.947656,41.9335938 C168.947266,44.2320312 167.053516,46.1019531 164.725781,46.1019531 Z" id="Path" fill="#00A5D6"></path>
                    <path d="M178.282422,46.1019531 C175.914844,46.1019531 174.060547,44.2710937 174.060547,41.9335938 L174.060547,15.6878906 C174.060547,13.3503906 175.914844,11.5195313 178.282422,11.5195313 C180.610156,11.5195313 182.504297,13.3894531 182.504297,15.6878906 L182.504297,41.9335938 C182.504297,44.2320312 180.610156,46.1019531 178.282422,46.1019531 Z" id="Path" fill="#00A5D6"></path>
                    <path d="M75.85625,1.83632812 C73.7351563,-0.30859375 70.2769531,-0.327734375 68.1320313,1.79335937 C67.1800781,2.73476562 66.7769531,3.64960937 66.4394531,5.23164062 C66.0765625,6.93320312 65.5382812,11.3367187 65.5382812,11.3367187 C65.5074219,11.5296875 65.4984375,11.7632812 65.6566406,11.9226562 C65.8144531,12.0824219 66.0480469,12.0761719 66.2414063,12.0472656 C66.2414063,12.0472656 70.6507813,11.5585937 72.35625,11.2144531 C73.9417969,10.8945312 74.8609375,10.5019531 75.8132813,9.56054687 C77.9578125,7.43945312 77.9773438,3.98125 75.85625,1.83632812 Z" id="Path" fill="#F6B123"></path>
                    <path d="M103.529297,26.2523438 L92.7207031,26.2523438 C91.1375,26.2523438 89.8539063,27.5710938 89.8539063,29.1976563 C89.8539063,30.8242188 91.1375,32.1429688 92.7207031,32.1429688 L92.7207031,32.1429688 L99.146875,32.1429688 C98.8308594,33.8402344 98.0285156,35.3125 96.7410156,36.5359375 C95.1125,38.0589844 93.0476563,38.8324219 90.5941406,38.8324219 C87.8480469,38.8324219 85.5644531,37.8832031 83.7664063,36.0113281 C81.9683594,34.1398438 81.0699219,31.7433594 81.0699219,28.8480469 C81.0699219,25.9273438 81.9683594,23.50625 83.7910156,21.6089844 C85.5882813,19.7367188 87.7996094,18.7890625 90.4238281,18.7890625 C93.5972656,18.7890625 96.1835938,20.0679688 98.2320313,22.5960938 C98.2414063,22.6082031 98.2515625,22.6195313 98.2613281,22.63125 C98.2886719,22.665625 98.3171875,22.6972656 98.3445313,22.7320313 L98.3503906,22.7320313 C98.9988281,23.4683594 99.9332031,23.9335938 100.975781,23.9335938 C102.932813,23.9335938 104.519531,22.3039063 104.519531,20.2933594 C104.519531,19.4164063 104.217578,18.6121094 103.714844,17.9839844 L103.714844,17.9652344 C102.159766,15.99375 100.216016,14.4207031 97.8589844,13.2726563 C95.5019531,12.1492188 92.9511719,11.5753906 90.2296875,11.5753906 C85.41875,11.5753906 81.3855469,13.1984375 78.1050781,16.4675781 C74.8253906,19.7371094 73.1734375,23.8558594 73.1734375,28.7976563 C73.1734375,33.740625 74.8007813,37.859375 78.0328125,41.1289063 C81.2648438,44.3984375 85.2972656,46.0464844 90.18125,46.0464844 C94.9921875,46.0464844 99.0253906,44.3984375 102.28125,41.1289063 C105.401953,38.0203125 106.999609,34.1769531 107.083984,29.6023438 C106.926563,27.7257813 105.396484,26.2523438 103.529297,26.2523438 Z" id="Path" fill="#00A5D6"></path>
                    <path d="M30.621875,26.2523438 L19.8132812,26.2523438 C18.2300781,26.2523438 16.9464844,27.5710938 16.9464844,29.1976563 C16.9464844,30.8242188 18.2300781,32.1429688 19.8132812,32.1429688 L19.8132812,32.1429688 L26.2394531,32.1429688 C25.9234375,33.8402344 25.1210937,35.3125 23.8335937,36.5359375 C22.2050781,38.0589844 20.1402344,38.8324219 17.6867188,38.8324219 C14.940625,38.8324219 12.6570312,37.8832031 10.8589844,36.0113281 C9.0609375,34.1398438 8.1625,31.7433594 8.1625,28.8480469 C8.1625,25.9273438 9.0609375,23.50625 10.8835937,21.6089844 C12.6808594,19.7367188 14.8921875,18.7890625 17.5164062,18.7890625 C20.6898437,18.7890625 23.2761719,20.0679688 25.3246094,22.5960938 C25.3339844,22.6082031 25.3441406,22.6195313 25.3539062,22.63125 C25.38125,22.665625 25.4097656,22.6972656 25.4371094,22.7320313 L25.4429687,22.7320313 C26.0914062,23.4683594 27.0257813,23.9335938 28.0683594,23.9335938 C30.0253906,23.9335938 31.6121094,22.3039063 31.6121094,20.2933594 C31.6121094,19.4164063 31.3101562,18.6121094 30.8074219,17.9839844 L30.8074219,17.9652344 C29.2523437,15.99375 27.3085937,14.4207031 24.9515625,13.2726563 C22.5945312,12.1492188 20.04375,11.5753906 17.3222656,11.5753906 C12.5113281,11.5753906 8.478125,13.1984375 5.19765625,16.4675781 C1.91796875,19.7371094 0.266015625,23.8558594 0.266015625,28.7976563 C0.266015625,33.740625 1.89335937,37.859375 5.12539062,41.1289063 C8.35742187,44.3984375 12.3898437,46.0464844 17.2738281,46.0464844 C22.0847656,46.0464844 26.1179687,44.3984375 29.3738281,41.1289063 C32.4945313,38.0203125 34.0921875,34.1769531 34.1765625,29.6023438 C34.01875,27.7257813 32.4890625,26.2523438 30.621875,26.2523438 Z" id="Path" fill="#F6B123"></path>
                    <path d="M143.537109,28.8105469 C143.537109,38.3566406 135.946094,46.0949219 126.582031,46.0949219 C117.217969,46.0949219 109.626953,38.35625 109.626953,28.8105469 C109.626953,19.2644531 117.217969,11.5261719 126.582031,11.5261719 C135.946094,11.5261719 143.537109,19.2648437 143.537109,28.8105469 Z M126.581641,19.609375 C121.596875,19.609375 117.555859,23.7289062 117.555859,28.8105469 C117.555859,33.8921875 121.596875,38.0117187 126.581641,38.0117187 C131.566406,38.0117187 135.607422,33.8921875 135.607422,28.8105469 C135.607812,23.7289062 131.566797,19.609375 126.581641,19.609375 Z" id="Shape" fill="#00A5D6"></path>
                </g>
            </g>
            <rect x="0" y="0" width="200" height="64"></rect>
        </g>
    </g>
</svg>