<?xml version="1.0" encoding="UTF-8"?>
<svg width="12px" height="6px" viewBox="0 0 12 6" version="1.1" xmlns="http://www.w3.org/2000/svg" xmlns:xlink="http://www.w3.org/1999/xlink">
    <!-- Generator: Sketch 60 (88103) - https://sketch.com -->
    <title>Icons/Arrow/Drop/White</title>
    <desc>Created with Sketch.</desc>
    <g id="Style-Guide---Symbol" stroke="none" stroke-width="1" fill="none" fill-rule="evenodd">
        <g id="Icons/Arrow/Drop/White" transform="translate(-6.000000, -9.000000)" fill="#FFFFFF" fill-rule="nonzero">
            <g transform="translate(12.000000, 12.000000) rotate(-270.000000) translate(-12.000000, -12.000000) translate(9.000000, 6.000000)">
                <path d="M-3,3.36464088 C-3,3.32044177 -2.99012843,3.27440171 -2.970385,3.22651934 C-2.95064156,3.17863696 -2.92102685,3.13628011 -2.88153998,3.09944751 C-2.80256624,3.03314884 -2.70779917,3 -2.59723593,3 C-2.48667269,3 -2.39190563,3.03314884 -2.31293189,3.09944751 L3.04146101,8.09392265 L8.31293189,3.17679558 C8.39190563,3.10313039 8.48667269,3.06629834 8.59723593,3.06629834 C8.70779917,3.06629834 8.80256624,3.10313039 8.88153998,3.17679558 C8.96051372,3.25046077 9,3.33885768 9,3.44198895 C9,3.54512022 8.96051372,3.63351713 8.88153998,3.70718232 L3.32576505,8.88950276 C3.24679131,8.96316796 3.15202424,9 3.04146101,9 C2.93089777,9 2.8361307,8.96316796 2.75715696,8.88950276 L-2.88153998,3.64088398 C-2.92102685,3.60405138 -2.95064156,3.56169453 -2.970385,3.51381215 C-2.99012843,3.46592978 -3,3.41620652 -3,3.36464088 Z" transform="translate(3.000000, 6.000000) rotate(-90.000000) translate(-3.000000, -6.000000) "></path>
            </g>
        </g>
    </g>
</svg>