<?xml version="1.0" encoding="UTF-8"?>
<svg width="24px" height="24px" viewBox="0 0 24 24" version="1.1" xmlns="http://www.w3.org/2000/svg" xmlns:xlink="http://www.w3.org/1999/xlink">
    <!-- Generator: sketchtool 60.1 (101010) - https://sketch.com -->
    <title>0114D949-B16C-43EA-A4BE-2601760D4466</title>
    <desc>Created with sketchtool.</desc>
    <g id="Asset-Artboard-Page" stroke="none" stroke-width="1" fill="none" fill-rule="evenodd">
        <g id="Icon/Pin-Copy-2-Icons/Contact/Phone">
            <g id="Group">
                <path d="M15.4894034,13.1871974 C15.8356335,12.8309944 16.3984186,12.8257729 16.75161,13.1782446 L19.7388045,16.1576459 C20.0838722,16.5041585 20.0966685,17.0683723 19.7195297,17.4589162 L18.6005692,18.3694935 C17.9964037,18.8733995 16.7886866,19.0985331 15.3778386,18.7891738 C13.4720691,18.3712922 11.3215629,17.0572133 8.99064132,14.678309 C4.98473188,10.590178 4.30547716,7.15085286 5.58752526,5.36457176 L6.28719617,4.48410291 L6.53046243,4.19901397 C6.88029427,3.84457577 7.44366947,3.83912036 7.79252959,4.19332929 L10.775161,7.16966675 C11.1256827,7.51374608 11.1400222,8.08381406 10.7590717,8.47201987 L10.4523293,8.71855509 L9.68874381,9.38045739 C9.46547974,9.64849039 9.64529989,10.0850289 10.2641214,10.851647 L12.7859368,13.3641605 C13.9588252,14.3167347 14.3834004,14.5375199 14.6372924,14.3692628 L15.4894034,13.1871974 Z" id="Path" stroke="#FFFFFF" stroke-width="1.2" fill-rule="nonzero"></path>
                <rect id="Rectangle" x="0" y="0" width="24" height="24"></rect>
            </g>
        </g>
    </g>
</svg>