<?xml version="1.0" encoding="UTF-8"?>
<svg width="24px" height="24px" viewBox="0 0 24 24" version="1.1" xmlns="http://www.w3.org/2000/svg" xmlns:xlink="http://www.w3.org/1999/xlink">
    <!-- Generator: Sketch 60 (88103) - https://sketch.com -->
    <title>Icons/Menu/Currentcy/Inactive</title>
    <desc>Created with Sketch.</desc>
    <g id="Icons/Menu/Currentcy/Inactive" stroke="none" stroke-width="1" fill="none" fill-rule="evenodd">
        <path d="M20,5.5 C20.2761424,5.5 20.5,5.72385763 20.5,6 L20.5,9 C20.5,9.27614237 20.2761424,9.5 20,9.5 L18.5,9.5 L18.5,11.5 L21,11.5 C21.2761424,11.5 21.5,11.7238576 21.5,12 L21.5,15 C21.5,15.2761424 21.2761424,15.5 21,15.5 L17.5,15.5 L17.5,18 C17.5,18.2761424 17.2761424,18.5 17,18.5 L3,18.5 C2.72385763,18.5 2.5,18.2761424 2.5,18 L2.5,15 C2.5,14.7238576 2.72385763,14.5 3,14.5 L6.5,14.5 L6.5,12.5 L4,12.5 C3.72385763,12.5 3.5,12.2761424 3.5,12 L3.5,9 C3.5,8.72385763 3.72385763,8.5 4,8.5 L5.5,8.5 L5.5,6 C5.5,5.72385763 5.72385763,5.5 6,5.5 L20,5.5 Z M16.5,15.5 L3.5,15.5 L3.5,17.5 L16.5,17.5 L16.5,15.5 Z M20.5,12.5 L7.5,12.5 L7.5,14.5 L20.5,14.5 L20.5,12.5 Z M17.5,9.5 L4.5,9.5 L4.5,11.5 L17.5,11.5 L17.5,9.5 Z M19.5,6.5 L6.5,6.5 L6.5,8.5 L19.5,8.5 L19.5,6.5 Z" id="Icons/Menu/Currentcy" fill="#121216"></path>
        <rect id="Rectangle" x="0" y="0" width="24" height="24"></rect>
    </g>
</svg>