<?xml version="1.0" encoding="UTF-8"?>
<svg width="24px" height="24px" viewBox="0 0 24 24" version="1.1" xmlns="http://www.w3.org/2000/svg" xmlns:xlink="http://www.w3.org/1999/xlink">
    <!-- Generator: Sketch 59.1 (86144) - https://sketch.com -->
    <title>Icons/Info/Search/Date@1x</title>
    <desc>Created with Sketch.</desc>
    <g id="Icons/Info/Search/Date" stroke="none" stroke-width="1" fill="none" fill-rule="evenodd">
        <path d="M16.5,5.35 C16.8589851,5.35 17.15,5.64101491 17.15,6 L17.15,6 L17.149,6.35 L18,6.35 C18.9112698,6.35 19.65,7.08873016 19.65,8 L19.65,18 C19.65,18.9112698 18.9112698,19.65 18,19.65 L6,19.65 C5.08873016,19.65 4.35,18.9112698 4.35,18 L4.35,8 C4.35,7.08873016 5.08873016,6.35 6,6.35 L6.849,6.35 L6.85,6 C6.85,5.67364992 7.09050819,5.40347354 7.40394776,5.35704767 L7.5,5.35 C7.85898509,5.35 8.15,5.64101491 8.15,6 L8.15,6 L8.149,6.35 L15.85,6.35 L15.85,6 C15.85,5.67364992 16.0905082,5.40347354 16.4039478,5.35704767 Z M18.35,11.65 L5.649,11.65 L5.65,18 C5.65,18.1932997 5.80670034,18.35 6,18.35 L18,18.35 C18.1932997,18.35 18.35,18.1932997 18.35,18 L18.35,11.65 Z M6.849,7.65 L6,7.65 C5.80670034,7.65 5.65,7.80670034 5.65,8 L5.649,10.35 L18.35,10.35 L18.35,8 C18.35,7.80670034 18.1932997,7.65 18,7.65 L17.149,7.65 L17.15,8 C17.15,8.32635008 16.9094918,8.59652646 16.5960522,8.64295233 L16.5,8.65 C16.1410149,8.65 15.85,8.35898509 15.85,8 L15.85,8 L15.85,7.65 L8.149,7.65 L8.15,8 C8.15,8.32635008 7.90949181,8.59652646 7.59605224,8.64295233 L7.5,8.65 C7.14101491,8.65 6.85,8.35898509 6.85,8 L6.85,8 L6.849,7.65 Z" id="Combined-Shape" fill="#0393CD"></path>
        <rect id="Rectangle" x="0" y="0" width="24" height="24"></rect>
    </g>
</svg>