<?xml version="1.0" encoding="UTF-8"?>
<svg width="18px" height="11px" viewBox="0 0 18 11" version="1.1" xmlns="http://www.w3.org/2000/svg" xmlns:xlink="http://www.w3.org/1999/xlink">
    <!-- Generator: Sketch 60 (88103) - https://sketch.com -->
    <title>Group 2</title>
    <desc>Created with Sketch.</desc>
    <g id="Style-Guide---Symbol" stroke="none" stroke-width="1" fill="none" fill-rule="evenodd">
        <g id="Icons/Language/EN-Copy" transform="translate(-3.000000, -7.000000)">
            <g id="Group-2" transform="translate(3.000000, 7.000000)">
                <polygon id="Fill-1173" fill="#ACB7B6" points="6 4.9505 16 4.9505 16 4.0495 6 4.0495"></polygon>
                <polygon id="Fill-1174" fill="#ACB7B6" points="6 4.864 16 4.864 16 4.136 6 4.136"></polygon>
                <polygon id="Fill-1176" fill="#ACB7B6" points="6 2.9485 16 2.9485 16 2.0515 6 2.0515"></polygon>
                <polygon id="Fill-1177" fill="#ACB7B6" points="6 2.864 16 2.864 16 2.136 6 2.136"></polygon>
                <polygon id="Fill-1179" fill="#ACB7B6" points="6 1.951 16 1.951 16 1.049 6 1.049"></polygon>
                <polygon id="Fill-1195" fill="#ACB7B6" points="6 3 16 3 16 2 6 2"></polygon>
                <polygon id="Fill-2063" fill="#CE3938" points="0 3 18 3 18 2 0 2"></polygon>
                <polygon id="Fill-2064" fill="#CE3938" points="0 3 18 3 18 2 0 2"></polygon>
                <polygon id="Fill-2065" fill="#CE3938" points="0 1 18 1 18 0 0 0"></polygon>
                <polygon id="Fill-2066" fill="#CE3938" points="0 5 18 5 18 4 0 4"></polygon>
                <polygon id="Fill-2067" fill="#CE3938" points="0 7 18 7 18 6 0 6"></polygon>
                <polygon id="Fill-2068" fill="#CE3938" points="0 9 18 9 18 8 0 8"></polygon>
                <polygon id="Fill-2068-Copy" fill="#CE3938" points="0 11 18 11 18 10 0 10"></polygon>
                <polygon id="Fill-2071" fill="#FFFFFE" points="0 2 18 2 18 1 0 1"></polygon>
                <polygon id="Fill-2071-Copy" fill="#FFFFFE" points="0 4 18 4 18 3 0 3"></polygon>
                <polygon id="Fill-2075" fill="#FFFFFE" points="0 10 18 10 18 9 0 9"></polygon>
                <polygon id="Fill-2075-Copy" fill="#FFFFFE" points="0 8 18 8 18 7 0 7"></polygon>
                <polygon id="Fill-2075-Copy-2" fill="#FFFFFE" points="0 6 18 6 18 5 0 5"></polygon>
                <polygon id="Fill-2076" fill="#314589" points="0 6 9 6 9 0 0 0"></polygon>
                <polyline id="Fill-2077" fill="#FFFFFE" points="5.68072867 1.614 5.81112176 1.997 5.50047939 1.756 5.49952061 1.755 5.49856184 1.756 5.18887824 1.997 5.31831256 1.614 5.32214765 1.612 5.32023011 1.612 5 1.387 5.38542665 1.387 5.49089166 1.003 5.60977948 1.387 6 1.387 5.67785235 1.612 5.67689358 1.612 5.68072867 1.614"></polyline>
                <polyline id="Fill-2080" fill="#FFFFFE" points="5.68072867 3.616 5.81112176 3.997 5.50047939 3.759 5.49952061 3.757 5.49856184 3.759 5.18887824 3.997 5.31831256 3.616 5.32214765 3.614 5.32023011 3.614 5 3.388 5.38542665 3.388 5.49089166 3.003 5.60977948 3.388 5.60977948 3.39 5.61073826 3.388 6 3.388 5.67785235 3.614 5.67689358 3.614 5.68072867 3.616"></polyline>
                <polyline id="Fill-2082" fill="#FFFFFE" points="4.6820365 2.616 4.81268012 2.997 4.50048031 2.759 4.50048031 2.757 4.49951969 2.759 4.18731988 2.997 4.31892411 2.616 4.32180596 2.614 4.32084534 2.614 4 2.388 4.38520653 2.388 4.49183477 2.003 4.61095101 2.388 4.60999039 2.389 4.61191162 2.388 5 2.388 4.67915466 2.614 4.67723343 2.614 4.6820365 2.616"></polyline>
                <polyline id="Fill-2083" fill="#FFFFFE" points="4.6820365 2.616 4.81268012 2.997 4.50048031 2.757 4.50048031 2.755 4.49951969 2.757 4.18731988 2.997 4.31892411 2.616 4.32180596 2.612 4.32084534 2.612 4 2.388 4.38520653 2.388 4.49183477 2.003 4.61095101 2.388 4.60999039 2.388 5 2.388 4.67915466 2.612 4.67723343 2.612 4.6820365 2.616"></polyline>
                <polyline id="Fill-2085" fill="#FFFFFE" points="3.68168744 1.614 3.81303931 1.997 3.50047939 1.756 3.49952061 1.755 3.49952061 1.756 3.18887824 1.997 3.31831256 1.614 3.32310642 1.612 3.32023011 1.612 3 1.387 3.38542665 1.387 3.49089166 1.003 3.61073826 1.387 3.60977948 1.387 4 1.387 3.67881112 1.612 3.67785235 1.612 3.68168744 1.614"></polyline>
                <polyline id="Fill-2088" fill="#FFFFFE" points="3.68168744 3.616 3.81303931 3.997 3.50047939 3.759 3.49952061 3.757 3.49952061 3.759 3.18887824 3.997 3.31831256 3.616 3.32310642 3.614 3.32023011 3.614 3 3.388 3.38542665 3.388 3.49089166 3.003 3.61073826 3.388 3.60977948 3.39 3.61169703 3.388 4 3.388 3.67881112 3.614 3.67785235 3.614 3.68168744 3.616"></polyline>
                <polyline id="Fill-2097-Copy" fill="#FFFFFE" points="7.68168744 1.616 7.81112176 1.997 7.50047939 1.759 7.50047939 1.757 7.50047939 1.759 7.18983701 1.997 7.31927133 1.616 7.32310642 1.612 7.32023011 1.612 7 1.387 7.38638543 1.387 7.49089166 1.003 7.60977948 1.387 7.60977948 1.389 7.61073826 1.387 8 1.387 7.67976989 1.612 7.67881112 1.612 7.68168744 1.616"></polyline>
                <polyline id="Fill-2098" fill="#FFFFFE" points="6.68168744 2.616 6.81112176 2.997 6.50047939 2.757 6.18983701 2.997 6.31927133 2.616 6.32310642 2.612 6.32023011 2.612 6 2.388 6.38638543 2.388 6.49089166 2.003 6.60977948 2.388 7 2.388 6.67976989 2.612 6.67881112 2.612 6.68168744 2.616"></polyline>
                <polyline id="Fill-2098-Copy" fill="#FFFFFE" points="8.68168744 2.616 8.81112176 2.997 8.50047939 2.757 8.18983701 2.997 8.31927133 2.616 8.32310642 2.612 8.32023011 2.612 8 2.388 8.38638543 2.388 8.49089166 2.003 8.60977948 2.388 9 2.388 8.67976989 2.612 8.67881112 2.612 8.68168744 2.616"></polyline>
                <polyline id="Fill-2099-Copy" fill="#FFFFFE" points="7.68168744 3.614 7.81112176 3.997 7.50047939 3.757 7.50047939 3.755 7.50047939 3.757 7.18983701 3.997 7.31927133 3.614 7.32310642 3.612 7.32023011 3.612 7 3.386 7.38638543 3.388 7.49089166 3.003 7.60977948 3.386 7.60977948 3.388 7.61073826 3.388 8 3.386 7.67976989 3.612 7.67881112 3.612 7.68168744 3.614"></polyline>
                <polyline id="Fill-2100" fill="#FFFFFE" points="6.68168744 4.614 6.81112176 4.997 6.50047939 4.757 6.50047939 4.755 6.50047939 4.757 6.18983701 4.997 6.31927133 4.614 6.32310642 4.612 6.32023011 4.612 6 4.388 6.38638543 4.388 6.49089166 4.003 6.60977948 4.388 6.60977948 4.39 6.61073826 4.388 7 4.388 6.67976989 4.612 6.67881112 4.612 6.68168744 4.614"></polyline>
                <polyline id="Fill-2100-Copy-2" fill="#FFFFFE" points="8.68168744 4.614 8.81112176 4.997 8.50047939 4.757 8.50047939 4.755 8.50047939 4.757 8.18983701 4.997 8.31927133 4.614 8.32310642 4.612 8.32023011 4.612 8 4.388 8.38638543 4.388 8.49089166 4.003 8.60977948 4.388 8.60977948 4.39 8.61073826 4.388 9 4.388 8.67976989 4.612 8.67881112 4.612 8.68168744 4.614"></polyline>
                <polyline id="Fill-2100-Copy" fill="#FFFFFE" points="5.68168744 5.614 5.81112176 5.997 5.50047939 5.757 5.50047939 5.755 5.50047939 5.757 5.18983701 5.997 5.31927133 5.614 5.32310642 5.612 5.32023011 5.612 5 5.388 5.38638543 5.388 5.49089166 5.003 5.60977948 5.388 5.60977948 5.39 5.61073826 5.388 6 5.388 5.67976989 5.612 5.67881112 5.612 5.68168744 5.614"></polyline>
                <polyline id="Fill-2100-Copy-3" fill="#FFFFFE" points="7.68168744 5.614 7.81112176 5.997 7.50047939 5.757 7.50047939 5.755 7.50047939 5.757 7.18983701 5.997 7.31927133 5.614 7.32310642 5.612 7.32023011 5.612 7 5.388 7.38638543 5.388 7.49089166 5.003 7.60977948 5.388 7.60977948 5.39 7.61073826 5.388 8 5.388 7.67976989 5.612 7.67881112 5.612 7.68168744 5.614"></polyline>
                <polygon id="Fill-2101" fill="#FFFFFE" points="6.81112176 0.997 6.50047939 0.759 6.18983701 0.997 6.31927133 0.617 6.32310642 0.613 6 0.388 6.38638543 0.388 6.49089166 0.003 6.60977948 0.388 7 0.388 6.67976989 0.613 6.68168744 0.617"></polygon>
                <polyline id="Fill-2101-Copy" fill="#FFFFFE" points="8.68168744 0.617 8.81112176 0.997 8.50047939 0.759 8.50047939 0.757 8.50047939 0.759 8.18983701 0.997 8.31927133 0.617 8.32310642 0.613 8.32023011 0.613 8 0.388 8.38638543 0.388 8.49089166 0.003 8.60977948 0.388 8.60977948 0.39 8.61073826 0.388 9 0.388 8.67976989 0.613 8.67881112 0.613 8.68168744 0.617"></polyline>
                <polyline id="Fill-2103" fill="#FFFFFE" points="4.68138196 2.616 4.81190019 2.997 4.50095969 2.757 4.1890595 2.997 4.31861804 2.616 4.32245681 2.612 4.32053743 2.612 4 2.388 4.38675624 2.388 4.49136276 2.003 4.61036468 2.388 5 2.388 4.67946257 2.612 4.67850288 2.612 4.68138196 2.616"></polyline>
                <polyline id="Fill-2105" fill="#FFFFFE" points="4.68138196 4.614 4.81190019 4.997 4.50095969 4.757 4.50095969 4.755 4.50095969 4.757 4.1890595 4.997 4.31861804 4.614 4.32245681 4.612 4.32053743 4.612 4 4.388 4.38675624 4.388 4.49136276 4.003 4.61036468 4.388 4.61036468 4.39 4.61132438 4.388 5 4.388 4.67946257 4.612 4.67850288 4.612 4.68138196 4.614"></polyline>
                <polyline id="Fill-2105-Copy" fill="#FFFFFE" points="3.68138196 5.614 3.81190019 5.997 3.50095969 5.757 3.50095969 5.755 3.50095969 5.757 3.1890595 5.997 3.31861804 5.614 3.32245681 5.612 3.32053743 5.612 3 5.388 3.38675624 5.388 3.49136276 5.003 3.61036468 5.388 3.61036468 5.39 3.61132438 5.388 4 5.388 3.67946257 5.612 3.67850288 5.612 3.68138196 5.614"></polyline>
                <polyline id="Fill-2106" fill="#FFFFFE" points="4.68138196 0.617 4.81190019 0.997 4.50095969 0.759 4.50095969 0.757 4.50095969 0.759 4.1890595 0.997 4.31861804 0.617 4.32245681 0.613 4.32053743 0.613 4 0.388 4.38675624 0.388 4.49136276 0.003 4.61036468 0.388 4.61036468 0.39 4.61132438 0.388 5 0.388 4.67946257 0.613 4.67850288 0.613 4.68138196 0.617"></polyline>
                <polyline id="Fill-2107" fill="#FFFFFE" points="3.68107589 1.616 3.81268012 1.997 3.49951969 1.759 3.49855908 1.757 3.49855908 1.759 3.1882805 1.997 3.31892411 1.616 3.32180596 1.612 3.31988473 1.612 3 1.387 3.38424592 1.387 3.49183477 1.003 3.60999039 1.387 3.60999039 1.389 3.61191162 1.387 4 1.387 3.67915466 1.612 3.67723343 1.612 3.68107589 1.616"></polyline>
                <polyline id="Fill-2109" fill="#FFFFFE" points="3.68107589 3.614 3.81268012 3.997 3.49951969 3.757 3.49855908 3.755 3.49855908 3.757 3.1882805 3.997 3.31892411 3.614 3.32180596 3.612 3.31988473 3.612 3 3.386 3.38424592 3.388 3.49183477 3.003 3.60999039 3.386 3.60999039 3.388 3.61191162 3.388 4 3.386 3.67915466 3.612 3.67723343 3.612 3.68107589 3.614"></polyline>
                <polyline id="Fill-2115" fill="#FFFFFE" points="2.68011527 4.614 2.80979827 4.997 2.50048031 4.757 2.49855908 4.755 2.49855908 4.757 2.18731988 4.997 2.3179635 4.614 2.31988473 4.612 2.31892411 4.612 2 4.388 2.38424592 4.388 2.48895293 4.003 2.60902978 4.388 2.60902978 4.39 2.60902978 4.388 3 4.388 2.67819404 4.612 2.67723343 4.612 2.68011527 4.614"></polyline>
                <polyline id="Fill-2116" fill="#FFFFFE" points="2.68011527 0.617 2.80979827 0.997 2.50048031 0.759 2.49855908 0.757 2.49855908 0.759 2.18731988 0.997 2.3179635 0.617 2.31988473 0.613 2.31892411 0.613 2 0.388 2.38424592 0.388 2.48895293 0.003 2.60902978 0.388 2.60902978 0.39 2.60902978 0.388 3 0.388 2.67819404 0.613 2.67723343 0.613 2.68011527 0.617"></polyline>
                <polyline id="Fill-2093" fill="#FFFFFE" points="1.68072867 1.614 1.81112176 1.997 1.49952061 1.756 1.49952061 1.755 1.49952061 1.756 1.18887824 1.997 1.31831256 1.614 1.32214765 1.612 1.32023011 1.612 1 1.387 1.38542665 1.387 1.49089166 1.003 1.61073826 1.387 2 1.387 1.67785235 1.612 1.67689358 1.612 1.68072867 1.614"></polyline>
                <polyline id="Fill-2094-Copy" fill="#FFFFFE" points="2.68072867 2.616 2.81112176 2.997 2.49952061 2.759 2.49952061 2.757 2.49952061 2.759 2.18887824 2.997 2.31831256 2.616 2.32214765 2.614 2.32023011 2.614 2 2.388 2.38542665 2.388 2.49089166 2.003 2.61073826 2.388 2.61073826 2.389 2.61073826 2.388 3 2.388 2.67785235 2.614 2.67689358 2.614 2.68072867 2.616"></polyline>
                <polyline id="Fill-2096" fill="#FFFFFE" points="1.68072867 3.616 1.81112176 3.997 1.49952061 3.759 1.49952061 3.757 1.49952061 3.759 1.18887824 3.997 1.31831256 3.616 1.32214765 3.614 1.32023011 3.614 1 3.388 1.38542665 3.388 1.49089166 3.003 1.61073826 3.388 1.61073826 3.39 1.61073826 3.388 2 3.388 1.67785235 3.614 1.67689358 3.614 1.68072867 3.616"></polyline>
                <polyline id="Fill-2096-Copy-2" fill="#FFFFFE" points="1.68072867 5.616 1.81112176 5.997 1.49952061 5.759 1.49952061 5.757 1.49952061 5.759 1.18887824 5.997 1.31831256 5.616 1.32214765 5.614 1.32023011 5.614 1 5.388 1.38542665 5.388 1.49089166 5.003 1.61073826 5.388 1.61073826 5.39 1.61073826 5.388 2 5.388 1.67785235 5.614 1.67689358 5.614 1.68072867 5.616"></polyline>
                <polyline id="Fill-2120" fill="#FFFFFE" points="2.68138196 4.614 2.81190019 4.997 2.50095969 4.757 2.5 4.755 2.49904031 4.757 2.18809981 4.997 2.31861804 4.614 2.32245681 4.612 2.32053743 4.612 2 4.388 2.38387716 4.388 2.49136276 4.003 2.61036468 4.388 2.61036468 4.39 2.61132438 4.388 3 4.388 2.67850288 4.612 2.67754319 4.612 2.68138196 4.614"></polyline>
                <polyline id="Fill-2121" fill="#FFFFFE" points="2.68138196 0.617 2.81190019 0.997 2.50095969 0.759 2.5 0.757 2.49904031 0.759 2.18809981 0.997 2.31861804 0.617 2.32245681 0.613 2.32053743 0.613 2 0.388 2.38387716 0.388 2.49136276 0.003 2.61036468 0.388 2.61036468 0.39 2.61132438 0.388 3 0.388 2.67850288 0.613 2.67754319 0.613 2.68138196 0.617"></polyline>
                <polyline id="Fill-2123" fill="#FFFFFE" points="0.68168744 2.616 0.812080537 2.997 0.502396932 2.757 0.500479386 2.757 0.189837009 2.997 0.320230105 2.616 0.323106424 2.612 0.322147651 2.612 0 2.388 0.386385427 2.388 0.490891659 2.003 0.610738255 2.388 1 2.388 0.679769895 2.612 0.677852349 2.612 0.68168744 2.616"></polyline>
                <polyline id="Fill-2125" fill="#FFFFFE" points="0.68168744 4.614 0.812080537 4.997 0.502396932 4.757 0.500479386 4.755 0.500479386 4.757 0.189837009 4.997 0.320230105 4.614 0.323106424 4.612 0.322147651 4.612 0 4.388 0.386385427 4.388 0.490891659 4.003 0.610738255 4.388 0.610738255 4.39 0.610738255 4.388 1 4.388 0.679769895 4.612 0.677852349 4.612 0.68168744 4.614"></polyline>
                <polyline id="Fill-2126" fill="#FFFFFE" points="0.68168744 0.617 0.812080537 0.997 0.502396932 0.759 0.500479386 0.757 0.500479386 0.759 0.189837009 0.997 0.320230105 0.617 0.323106424 0.613 0.322147651 0.613 0 0.388 0.386385427 0.388 0.490891659 0.003 0.610738255 0.388 0.610738255 0.39 0.610738255 0.388 1 0.388 0.679769895 0.613 0.677852349 0.613 0.68168744 0.617"></polyline>
            </g>
        </g>
    </g>
</svg>