<?xml version="1.0" encoding="UTF-8"?>
<svg width="256px" height="104px" viewBox="0 0 256 104" version="1.1" xmlns="http://www.w3.org/2000/svg" xmlns:xlink="http://www.w3.org/1999/xlink">
    <!-- Generator: sketchtool 61 (101010) - https://sketch.com -->
    <title>86C59D98-A1BA-4241-B5AD-0571884FC9D7</title>
    <desc>Created with sketchtool.</desc>
    <g id="Asset-Artboard-Page" stroke="none" stroke-width="1" fill="none" fill-rule="evenodd">
        <g id="Logo/Header/Tagline/White/02">
            <g id="Header_Logo">
                <g transform="translate(11.000000, 4.000000)">
                    <g id="Gogojii_Logo">
                        <path d="M90.406,36.8775 C90.406,49.0965 80.6895,59.0015 68.7035,59.0015 C56.7175,59.0015 47.001,49.096 47.001,36.8775 C47.001,24.6585 56.7175,14.7535 68.7035,14.7535 C80.6895,14.7535 90.406,24.659 90.406,36.8775 Z M68.703,25.1 C62.3225,25.1 57.15,30.373 57.15,36.8775 C57.15,43.382 62.3225,48.655 68.703,48.655 C75.0835,48.655 80.256,43.382 80.256,36.8775 C80.2565,30.373 75.084,25.1 68.703,25.1 Z" id="Shape" fill="#FAA90D"></path>
                        <path d="M97.096,2.3505 C94.381,-0.395 89.9545,-0.4195 87.209,2.2955 C85.9905,3.5005 85.4745,4.6715 85.0425,6.6965 C84.578,8.8745 83.889,14.511 83.889,14.511 C83.8495,14.758 83.838,15.057 84.0405,15.261 C84.2425,15.4655 84.5415,15.4575 84.789,15.4205 C84.789,15.4205 90.433,14.795 92.616,14.3545 C94.6455,13.945 95.822,13.4425 97.041,12.2375 C99.786,9.5225 99.811,5.096 97.096,2.3505 Z" id="Path" fill="#FAA90D"></path>
                        <path d="M39.196,33.603 L25.361,33.603 C23.3345,33.603 21.6915,35.291 21.6915,37.373 C21.6915,39.455 23.3345,41.143 25.361,41.143 L25.361,41.143 L33.5865,41.143 C33.182,43.3155 32.155,45.2 30.507,46.766 C28.4225,48.7155 25.7795,49.7055 22.639,49.7055 C19.124,49.7055 16.201,48.4905 13.8995,46.0945 C11.598,43.699 10.448,40.6315 10.448,36.9255 C10.448,33.187 11.598,30.088 13.931,27.6595 C16.2315,25.263 19.062,24.05 22.421,24.05 C26.483,24.05 29.7935,25.687 32.4155,28.923 C32.4275,28.9385 32.4405,28.953 32.453,28.968 C32.488,29.012 32.5245,29.0525 32.5595,29.097 L32.567,29.097 C33.397,30.0395 34.593,30.635 35.9275,30.635 C38.4325,30.635 40.4635,28.549 40.4635,25.9755 C40.4635,24.853 40.077,23.8235 39.4335,23.0195 L39.4335,22.9955 C37.443,20.472 34.955,18.4585 31.938,16.989 C28.921,15.551 25.656,14.8165 22.1725,14.8165 C16.0145,14.8165 10.852,16.894 6.653,21.0785 C2.455,25.2635 0.3405,30.5355 0.3405,36.861 C0.3405,43.188 2.4235,48.46 6.5605,52.645 C10.6975,56.83 15.859,58.9395 22.1105,58.9395 C28.2685,58.9395 33.431,56.83 37.5985,52.645 C41.593,48.666 43.638,43.7465 43.746,37.891 C43.544,35.489 41.586,33.603 39.196,33.603 Z" id="Path" fill="#FAA90D"></path>
                        <path d="M182.634,73.3415 C180.4585,73.3415 179.1415,72.0585 178.4205,71.2955 C177.4985,70.3205 176.991,69.0075 176.991,67.598 C176.991,65.103 178.675,62.617 182.3735,62.441 C185.5675,62.325 188.059,59.527 188.059,56.4275 L188.059,20.2855 C188.059,17.1785 190.4325,14.745 193.463,14.745 C196.5125,14.745 198.901,17.1785 198.901,20.2855 L198.867,56.77 C198.8665,67.026 191.38,73.7955 182.634,73.3415 Z" id="Path" fill="#FFFFFF"></path>
                        <path d="M210.849,59.0105 C207.8185,59.0105 205.445,56.667 205.445,53.675 L205.445,20.0805 C205.445,17.0885 207.8185,14.745 210.849,14.745 C213.8285,14.745 216.253,17.1385 216.253,20.0805 L216.253,53.675 C216.2525,56.617 213.8285,59.0105 210.849,59.0105 Z" id="Path" fill="#FFFFFF"></path>
                        <path d="M228.2015,59.0105 C225.171,59.0105 222.7975,56.667 222.7975,53.675 L222.7975,20.0805 C222.7975,17.0885 225.171,14.745 228.2015,14.745 C231.181,14.745 233.6055,17.1385 233.6055,20.0805 L233.6055,53.675 C233.6055,56.617 231.181,59.0105 228.2015,59.0105 Z" id="Path" fill="#FFFFFF"></path>
                        <path d="M132.5175,33.603 L118.6825,33.603 C116.656,33.603 115.013,35.291 115.013,37.373 C115.013,39.455 116.656,41.143 118.6825,41.143 L118.6825,41.143 L126.908,41.143 C126.5035,43.3155 125.4765,45.2 123.8285,46.766 C121.744,48.7155 119.101,49.7055 115.9605,49.7055 C112.4455,49.7055 109.5225,48.4905 107.221,46.0945 C104.9195,43.699 103.7695,40.6315 103.7695,36.9255 C103.7695,33.187 104.9195,30.088 107.2525,27.6595 C109.553,25.263 112.3835,24.05 115.7425,24.05 C119.8045,24.05 123.115,25.687 125.737,28.923 C125.749,28.9385 125.762,28.953 125.7745,28.968 C125.8095,29.012 125.846,29.0525 125.881,29.097 L125.8885,29.097 C126.7185,30.0395 127.9145,30.635 129.249,30.635 C131.754,30.635 133.785,28.549 133.785,25.9755 C133.785,24.853 133.3985,23.8235 132.755,23.0195 L132.755,22.9955 C130.7645,20.472 128.2765,18.4585 125.2595,16.989 C122.2425,15.551 118.9775,14.8165 115.494,14.8165 C109.336,14.8165 104.1735,16.894 99.9745,21.0785 C95.7765,25.2635 93.662,30.5355 93.662,36.861 C93.662,43.188 95.745,48.46 99.882,52.645 C104.019,56.83 109.1805,58.9395 115.432,58.9395 C121.59,58.9395 126.7525,56.83 130.92,52.645 C134.9145,48.666 136.9595,43.7465 137.0675,37.891 C136.866,35.489 134.9075,33.603 132.5175,33.603 Z" id="Path" fill="#FFFFFF"></path>
                        <path d="M183.7275,36.8775 C183.7275,49.0965 174.011,59.0015 162.025,59.0015 C150.039,59.0015 140.3225,49.096 140.3225,36.8775 C140.3225,24.6585 150.039,14.7535 162.025,14.7535 C174.011,14.7535 183.7275,24.659 183.7275,36.8775 Z M162.0245,25.1 C155.644,25.1 150.4715,30.373 150.4715,36.8775 C150.4715,43.382 155.644,48.655 162.0245,48.655 C168.405,48.655 173.5775,43.382 173.5775,36.8775 C173.578,30.373 168.4055,25.1 162.0245,25.1 Z" id="Shape" fill="#FFFFFF"></path>
                    </g>
                    <path d="M71.67,91.14 C72.762,91.14 73.7653333,90.8553333 74.68,90.286 C74.9693333,90.1086667 75.114,89.8566667 75.114,89.53 L75.114,89.53 L75.114,86.562 C75.114,86.3193333 75.0346667,86.1163333 74.876,85.953 C74.7173333,85.7896667 74.5166667,85.708 74.274,85.708 L74.274,85.708 L71.978,85.708 C71.7353333,85.708 71.5323333,85.7873333 71.369,85.946 C71.2056667,86.1046667 71.124,86.3053333 71.124,86.548 C71.124,86.7906667 71.2056667,86.9913333 71.369,87.15 C71.5323333,87.3086667 71.7353333,87.388 71.978,87.388 L71.978,87.388 L73.294,87.388 L73.294,89.208 C73.07,89.2826667 72.8086667,89.3433333 72.51,89.39 C72.2113333,89.4366667 71.9313333,89.46 71.67,89.46 C71.0726667,89.46 70.522,89.3083333 70.018,89.005 C69.514,88.7016667 69.115,88.2933333 68.821,87.78 C68.527,87.2666667 68.38,86.7066667 68.38,86.1 C68.38,85.4933333 68.527,84.9333333 68.821,84.42 C69.115,83.9066667 69.514,83.4983333 70.018,83.195 C70.522,82.8916667 71.0726667,82.74 71.67,82.74 C72.2113333,82.74 72.734,82.8473333 73.238,83.062 C73.406,83.1366667 73.56,83.174 73.7,83.174 C73.924,83.174 74.113,83.0876667 74.267,82.915 C74.421,82.7423333 74.498,82.5393333 74.498,82.306 C74.498,82.166 74.463,82.0353333 74.393,81.914 C74.323,81.7926667 74.218,81.6946667 74.078,81.62 C73.3966667,81.2466667 72.594,81.06 71.67,81.06 C70.746,81.06 69.892,81.2863333 69.108,81.739 C68.324,82.1916667 67.7033333,82.803 67.246,83.573 C66.7886667,84.343 66.56,85.1853333 66.56,86.1 C66.56,87.0146667 66.7886667,87.857 67.246,88.627 C67.7033333,89.397 68.324,90.0083333 69.108,90.461 C69.892,90.9136667 70.746,91.14 71.67,91.14 Z M80.112,91.14 C80.56,91.14 81.0033333,91.0653333 81.442,90.916 C81.8806667,90.7666667 82.2306667,90.5846667 82.492,90.37 C82.7533333,90.1646667 82.884,89.936 82.884,89.684 C82.884,89.4973333 82.814,89.334 82.674,89.194 C82.534,89.054 82.366,88.984 82.17,88.984 C82.0206667,88.984 81.862,89.026 81.694,89.11 C81.6473333,89.138 81.561,89.1916667 81.435,89.271 C81.309,89.3503333 81.1386667,89.425 80.924,89.495 C80.7093333,89.565 80.4106667,89.6 80.028,89.6 C79.524,89.6 79.0713333,89.4436667 78.67,89.131 C78.2686667,88.8183333 78.012,88.3866667 77.9,87.836 L77.9,87.836 L82.52,87.836 C82.744,87.836 82.94,87.766 83.108,87.626 C83.276,87.486 83.3646667,87.304 83.374,87.08 C83.374,86.4173333 83.2106667,85.8013333 82.884,85.232 C82.5573333,84.6626667 82.121,84.21 81.575,83.874 C81.029,83.538 80.448,83.37 79.832,83.37 C79.2066667,83.37 78.6186667,83.531 78.068,83.853 C77.5173333,84.175 77.074,84.6393333 76.738,85.246 C76.402,85.8526667 76.234,86.5573333 76.234,87.36 C76.234,88.0786667 76.3926667,88.725 76.71,89.299 C77.0273333,89.873 77.4776667,90.3233333 78.061,90.65 C78.6443333,90.9766667 79.328,91.14 80.112,91.14 Z M81.582,86.436 L77.914,86.436 C78.11,85.4186667 78.7493333,84.91 79.832,84.91 C80.2706667,84.91 80.6626667,85.05 81.008,85.33 C81.3533333,85.61 81.5446667,85.946 81.582,86.338 L81.582,86.338 L81.582,86.436 Z M87.56,91 C87.9053333,91 88.2156667,90.9136667 88.491,90.741 C88.7663333,90.5683333 88.904,90.356 88.904,90.104 C88.904,89.8986667 88.8503333,89.733 88.743,89.607 C88.6356667,89.481 88.5166667,89.418 88.386,89.418 C88.2833333,89.418 88.176,89.4413333 88.064,89.488 C87.9333333,89.5253333 87.8306667,89.544 87.756,89.544 C87.5786667,89.544 87.4386667,89.4996667 87.336,89.411 C87.2333333,89.3223333 87.182,89.18 87.182,88.984 L87.182,88.984 L87.182,85.19 L88.176,85.19 C88.4,85.19 88.5866667,85.1176667 88.736,84.973 C88.8853333,84.8283333 88.96,84.6486667 88.96,84.434 C88.96,84.21 88.8853333,84.0233333 88.736,83.874 C88.5866667,83.7246667 88.4,83.65 88.176,83.65 L88.176,83.65 L87.182,83.65 L87.182,82.754 C87.182,82.5113333 87.1026667,82.3083333 86.944,82.145 C86.7853333,81.9816667 86.5893333,81.9 86.356,81.9 C86.1133333,81.9 85.9103333,81.9816667 85.747,82.145 C85.5836667,82.3083333 85.502,82.5113333 85.502,82.754 L85.502,82.754 L85.502,83.65 L84.858,83.65 C84.634,83.65 84.4473333,83.7223333 84.298,83.867 C84.1486667,84.0116667 84.074,84.1913333 84.074,84.406 C84.074,84.63 84.1486667,84.8166667 84.298,84.966 C84.4473333,85.1153333 84.634,85.19 84.858,85.19 L84.858,85.19 L85.502,85.19 L85.502,89.054 C85.502,89.8566667 85.7003333,90.3816667 86.097,90.629 C86.4936667,90.8763333 86.9813333,91 87.56,91 Z M93.09,91.14 C93.538,91.14 93.9743333,91.0513333 94.399,90.874 C94.8236667,90.6966667 95.1713333,90.4376667 95.442,90.097 C95.7126667,89.7563333 95.848,89.3573333 95.848,88.9 C95.848,88.396 95.7313333,87.99 95.498,87.682 C95.2646667,87.374 94.98,87.1453333 94.644,86.996 C94.308,86.8466667 93.888,86.702 93.384,86.562 C93.02,86.4593333 92.7376667,86.373 92.537,86.303 C92.3363333,86.233 92.1706667,86.135 92.04,86.009 C91.9093333,85.883 91.844,85.7173333 91.844,85.512 C91.844,84.9986667 92.1986667,84.742 92.908,84.742 C93.244,84.742 93.545,84.8026667 93.811,84.924 C94.077,85.0453333 94.294,85.2086667 94.462,85.414 C94.5926667,85.5446667 94.7606667,85.61 94.966,85.61 C95.134,85.61 95.2833333,85.5586667 95.414,85.456 C95.5913333,85.316 95.68,85.1386667 95.68,84.924 C95.68,84.7373333 95.6193333,84.5693333 95.498,84.42 C95.2273333,84.0746667 94.854,83.8133333 94.378,83.636 C93.902,83.4586667 93.426,83.37 92.95,83.37 C92.4833333,83.37 92.0423333,83.461 91.627,83.643 C91.2116667,83.825 90.8756667,84.0816667 90.619,84.413 C90.3623333,84.7443333 90.234,85.134 90.234,85.582 C90.234,86.0953333 90.3576667,86.5036667 90.605,86.807 C90.8523333,87.1103333 91.1463333,87.3366667 91.487,87.486 C91.8276667,87.6353333 92.2686667,87.7846667 92.81,87.934 C93.3326667,88.074 93.7176667,88.214 93.965,88.354 C94.2123333,88.494 94.336,88.6993333 94.336,88.97 C94.336,89.4926667 93.972,89.768 93.244,89.796 C92.8146667,89.796 92.4483333,89.726 92.145,89.586 C91.8416667,89.446 91.55,89.2313333 91.27,88.942 C91.0926667,88.7646667 90.906,88.676 90.71,88.676 C90.57,88.676 90.4346667,88.718 90.304,88.802 C90.0613333,88.97 89.94,89.1753333 89.94,89.418 C89.94,89.586 89.982,89.726 90.066,89.838 C90.402,90.2953333 90.836,90.6266667 91.368,90.832 C91.9,91.0373333 92.474,91.14 93.09,91.14 Z M104.5,91 C104.724,91 104.915333,90.9183333 105.074,90.755 C105.232667,90.5916667 105.312,90.3886667 105.312,90.146 L105.312,90.146 L105.312,86.73 L108.238,82.544 C108.340667,82.3853333 108.392,82.2126667 108.392,82.026 C108.392,81.7833333 108.308,81.578 108.14,81.41 C107.972,81.242 107.776,81.158 107.552,81.158 C107.281333,81.158 107.048,81.298 106.852,81.578 L106.852,81.578 L104.542,84.952 L102.078,81.55 C101.882,81.2886667 101.653333,81.158 101.392,81.158 C101.177333,81.158 100.974333,81.2396667 100.783,81.403 C100.591667,81.5663333 100.496,81.7693333 100.496,82.012 C100.496,82.2266667 100.58,82.446 100.748,82.67 L100.748,82.67 L103.66,86.534 L103.66,90.146 C103.66,90.3886667 103.741667,90.5916667 103.905,90.755 C104.068333,90.9183333 104.266667,91 104.5,91 Z M112.9,91.14 C113.6,91.14 114.241667,90.9766667 114.825,90.65 C115.408333,90.3233333 115.868,89.8636667 116.204,89.271 C116.54,88.6783333 116.708,88.0086667 116.708,87.262 C116.708,86.5153333 116.54,85.8456667 116.204,85.253 C115.868,84.6603333 115.408333,84.1983333 114.825,83.867 C114.241667,83.5356667 113.6,83.37 112.9,83.37 C112.190667,83.37 111.546667,83.5356667 110.968,83.867 C110.389333,84.1983333 109.932,84.6603333 109.596,85.253 C109.26,85.8456667 109.092,86.5153333 109.092,87.262 C109.092,88.0086667 109.26,88.6783333 109.596,89.271 C109.932,89.8636667 110.389333,90.3233333 110.968,90.65 C111.546667,90.9766667 112.190667,91.14 112.9,91.14 Z M112.9,89.6 C112.508,89.6 112.151,89.502 111.829,89.306 C111.507,89.11 111.250333,88.8346667 111.059,88.48 C110.867667,88.1253333 110.772,87.7193333 110.772,87.262 C110.772,86.8046667 110.867667,86.3963333 111.059,86.037 C111.250333,85.6776667 111.507,85.4 111.829,85.204 C112.151,85.008 112.508,84.91 112.9,84.91 C113.292,84.91 113.649,85.008 113.971,85.204 C114.293,85.4 114.549667,85.6776667 114.741,86.037 C114.932333,86.3963333 115.028,86.8046667 115.028,87.262 C115.028,87.7193333 114.932333,88.1253333 114.741,88.48 C114.549667,88.8346667 114.293,89.11 113.971,89.306 C113.649,89.502 113.292,89.6 112.9,89.6 Z M121.3,91.14 C122.326667,91.14 123.117667,90.8553333 123.673,90.286 C124.228333,89.7166667 124.506,88.928 124.506,87.92 L124.506,87.92 L124.506,84.364 C124.506,84.1213333 124.426667,83.9183333 124.268,83.755 C124.109333,83.5916667 123.908667,83.51 123.666,83.51 C123.423333,83.51 123.222667,83.5916667 123.064,83.755 C122.905333,83.9183333 122.826,84.1213333 122.826,84.364 L122.826,84.364 L122.826,87.92 C122.826,88.4893333 122.7,88.9116667 122.448,89.187 C122.196,89.4623333 121.813333,89.6 121.3,89.6 C120.796,89.6 120.418,89.4623333 120.166,89.187 C119.914,88.9116667 119.788,88.4893333 119.788,87.92 L119.788,87.92 L119.788,84.364 C119.788,84.1213333 119.708667,83.9183333 119.55,83.755 C119.391333,83.5916667 119.190667,83.51 118.948,83.51 C118.705333,83.51 118.504667,83.5916667 118.346,83.755 C118.187333,83.9183333 118.108,84.1213333 118.108,84.364 L118.108,84.364 L118.108,87.92 C118.108,88.928 118.383333,89.7166667 118.934,90.286 C119.484667,90.8553333 120.273333,91.14 121.3,91.14 Z M135.006,91.14 C136.098,91.14 137.101333,90.8553333 138.016,90.286 C138.305333,90.1086667 138.45,89.8566667 138.45,89.53 L138.45,89.53 L138.45,86.562 C138.45,86.3193333 138.370667,86.1163333 138.212,85.953 C138.053333,85.7896667 137.852667,85.708 137.61,85.708 L137.61,85.708 L135.314,85.708 C135.071333,85.708 134.868333,85.7873333 134.705,85.946 C134.541667,86.1046667 134.46,86.3053333 134.46,86.548 C134.46,86.7906667 134.541667,86.9913333 134.705,87.15 C134.868333,87.3086667 135.071333,87.388 135.314,87.388 L135.314,87.388 L136.63,87.388 L136.63,89.208 C136.406,89.2826667 136.144667,89.3433333 135.846,89.39 C135.547333,89.4366667 135.267333,89.46 135.006,89.46 C134.408667,89.46 133.858,89.3083333 133.354,89.005 C132.85,88.7016667 132.451,88.2933333 132.157,87.78 C131.863,87.2666667 131.716,86.7066667 131.716,86.1 C131.716,85.4933333 131.863,84.9333333 132.157,84.42 C132.451,83.9066667 132.85,83.4983333 133.354,83.195 C133.858,82.8916667 134.408667,82.74 135.006,82.74 C135.547333,82.74 136.07,82.8473333 136.574,83.062 C136.742,83.1366667 136.896,83.174 137.036,83.174 C137.26,83.174 137.449,83.0876667 137.603,82.915 C137.757,82.7423333 137.834,82.5393333 137.834,82.306 C137.834,82.166 137.799,82.0353333 137.729,81.914 C137.659,81.7926667 137.554,81.6946667 137.414,81.62 C136.732667,81.2466667 135.93,81.06 135.006,81.06 C134.082,81.06 133.228,81.2863333 132.444,81.739 C131.66,82.1916667 131.039333,82.803 130.582,83.573 C130.124667,84.343 129.896,85.1853333 129.896,86.1 C129.896,87.0146667 130.124667,87.857 130.582,88.627 C131.039333,89.397 131.66,90.0083333 132.444,90.461 C133.228,90.9136667 134.082,91.14 135.006,91.14 Z M143.378,91.14 C144.078,91.14 144.719667,90.9766667 145.303,90.65 C145.886333,90.3233333 146.346,89.8636667 146.682,89.271 C147.018,88.6783333 147.186,88.0086667 147.186,87.262 C147.186,86.5153333 147.018,85.8456667 146.682,85.253 C146.346,84.6603333 145.886333,84.1983333 145.303,83.867 C144.719667,83.5356667 144.078,83.37 143.378,83.37 C142.668667,83.37 142.024667,83.5356667 141.446,83.867 C140.867333,84.1983333 140.41,84.6603333 140.074,85.253 C139.738,85.8456667 139.57,86.5153333 139.57,87.262 C139.57,88.0086667 139.738,88.6783333 140.074,89.271 C140.41,89.8636667 140.867333,90.3233333 141.446,90.65 C142.024667,90.9766667 142.668667,91.14 143.378,91.14 Z M143.378,89.6 C142.986,89.6 142.629,89.502 142.307,89.306 C141.985,89.11 141.728333,88.8346667 141.537,88.48 C141.345667,88.1253333 141.25,87.7193333 141.25,87.262 C141.25,86.8046667 141.345667,86.3963333 141.537,86.037 C141.728333,85.6776667 141.985,85.4 142.307,85.204 C142.629,85.008 142.986,84.91 143.378,84.91 C143.77,84.91 144.127,85.008 144.449,85.204 C144.771,85.4 145.027667,85.6776667 145.219,86.037 C145.410333,86.3963333 145.506,86.8046667 145.506,87.262 C145.506,87.7193333 145.410333,88.1253333 145.219,88.48 C145.027667,88.8346667 144.771,89.11 144.449,89.306 C144.127,89.502 143.77,89.6 143.378,89.6 Z M149.314,82.6 C149.640667,82.6 149.871667,82.551 150.007,82.453 C150.142333,82.355 150.21,82.1706667 150.21,81.9 L150.21,81.9 L150.21,81.634 C150.21,81.3726667 150.144667,81.1906667 150.014,81.088 C149.883333,80.9853333 149.654667,80.934 149.328,80.934 C149.02,80.934 148.796,80.9853333 148.656,81.088 C148.516,81.1906667 148.446,81.3726667 148.446,81.634 L148.446,81.634 L148.446,81.9 C148.446,82.1613333 148.511333,82.3433333 148.642,82.446 C148.772667,82.5486667 148.996667,82.6 149.314,82.6 Z M149.328,91 C149.570667,91 149.771333,90.9183333 149.93,90.755 C150.088667,90.5916667 150.168,90.3886667 150.168,90.146 L150.168,90.146 L150.168,84.364 C150.168,84.1213333 150.088667,83.9183333 149.93,83.755 C149.771333,83.5916667 149.570667,83.51 149.328,83.51 C149.085333,83.51 148.884667,83.5916667 148.726,83.755 C148.567333,83.9183333 148.488,84.1213333 148.488,84.364 L148.488,84.364 L148.488,90.146 C148.488,90.3886667 148.567333,90.5916667 148.726,90.755 C148.884667,90.9183333 149.085333,91 149.328,91 Z M157.574,91 C157.816667,91 158.017333,90.9183333 158.176,90.755 C158.334667,90.5916667 158.414,90.3886667 158.414,90.146 L158.414,90.146 L158.414,86.562 C158.414,85.5633333 158.232,84.7816667 157.868,84.217 C157.504,83.6523333 156.846,83.37 155.894,83.37 C155.408667,83.37 154.963,83.4913333 154.557,83.734 C154.151,83.9766667 153.822,84.266 153.57,84.602 L153.57,84.602 L153.57,84.364 C153.57,84.1213333 153.490667,83.9183333 153.332,83.755 C153.173333,83.5916667 152.972667,83.51 152.73,83.51 C152.487333,83.51 152.286667,83.5916667 152.128,83.755 C151.969333,83.9183333 151.89,84.1213333 151.89,84.364 L151.89,84.364 L151.89,90.146 C151.89,90.3886667 151.969333,90.5916667 152.128,90.755 C152.286667,90.9183333 152.487333,91 152.73,91 C152.972667,91 153.173333,90.9183333 153.332,90.755 C153.490667,90.5916667 153.57,90.3886667 153.57,90.146 L153.57,90.146 L153.57,86.562 C153.57,86.086 153.724,85.6916667 154.032,85.379 C154.34,85.0663333 154.764667,84.91 155.306,84.91 C155.828667,84.91 156.197333,85.057 156.412,85.351 C156.626667,85.645 156.734,86.0486667 156.734,86.562 L156.734,86.562 L156.734,90.146 C156.734,90.3886667 156.813333,90.5916667 156.972,90.755 C157.130667,90.9183333 157.331333,91 157.574,91 Z M163.538,93.8 C164.620667,93.8 165.514333,93.527 166.219,92.981 C166.923667,92.435 167.276,91.5926667 167.276,90.454 L167.276,90.454 L167.276,84.224 C167.276,83.972 167.196667,83.7666667 167.038,83.608 C166.879333,83.4493333 166.678667,83.37 166.436,83.37 C166.193333,83.37 165.992667,83.4516667 165.834,83.615 C165.675333,83.7783333 165.596,83.9813333 165.596,84.224 L165.596,84.224 L165.596,84.378 C165.344,84.098 165.012667,83.86 164.602,83.664 C164.191333,83.468 163.748,83.37 163.272,83.37 C162.628,83.37 162.042333,83.5356667 161.515,83.867 C160.987667,84.1983333 160.572333,84.6603333 160.269,85.253 C159.965667,85.8456667 159.814,86.5153333 159.814,87.262 C159.814,88.0086667 159.968,88.676 160.276,89.264 C160.584,89.852 161.006333,90.3116667 161.543,90.643 C162.079667,90.9743333 162.674667,91.14 163.328,91.14 C163.804,91.14 164.249667,91.0233333 164.665,90.79 C165.080333,90.5566667 165.390667,90.2953333 165.596,90.006 L165.596,90.006 L165.596,90.678 C165.596,91.182 165.425667,91.5716667 165.085,91.847 C164.744333,92.1223333 164.228667,92.26 163.538,92.26 C163.192667,92.26 162.807667,92.1783333 162.383,92.015 C161.958333,91.8516667 161.727333,91.7653333 161.69,91.756 C161.606,91.728 161.517333,91.714 161.424,91.714 C161.265333,91.714 161.118333,91.7676667 160.983,91.875 C160.847667,91.9823333 160.752,92.1386667 160.696,92.344 C160.668,92.428 160.654,92.5026667 160.654,92.568 C160.654,92.9133333 160.882667,93.184 161.34,93.38 C161.545333,93.4733333 161.893,93.5666667 162.383,93.66 C162.873,93.7533333 163.258,93.8 163.538,93.8 Z M163.538,89.6 C162.912667,89.6 162.404,89.3783333 162.012,88.935 C161.62,88.4916667 161.424,87.934 161.424,87.262 C161.424,86.59 161.62,86.03 162.012,85.582 C162.404,85.134 162.912667,84.91 163.538,84.91 C164.163333,84.91 164.674333,85.134 165.071,85.582 C165.467667,86.03 165.666,86.59 165.666,87.262 C165.666,87.934 165.467667,88.4916667 165.071,88.935 C164.674333,89.3783333 164.163333,89.6 163.538,89.6 Z" id="GetsYouGoing" fill="#FFFFFF"></path>
                </g>
                <rect x="0" y="0" width="256" height="104"></rect>
            </g>
        </g>
    </g>
</svg>