<?xml version="1.0" encoding="UTF-8"?>
<svg width="24px" height="24px" viewBox="0 0 24 24" version="1.1" xmlns="http://www.w3.org/2000/svg" xmlns:xlink="http://www.w3.org/1999/xlink">
    <!-- Generator: Sketch 60 (88103) - https://sketch.com -->
    <title>Icons/Menu/Favorite/Inactive</title>
    <desc>Created with Sketch.</desc>
    <g id="Icons/Menu/Favorite/Inactive" stroke="none" stroke-width="1" fill="none" fill-rule="evenodd">
        <path d="M12.1857457,5.97238801 C13.2489215,5.17941627 14.6120769,4.84423904 15.9512714,5.06803583 C17.5306885,5.33197695 18.8768052,6.34016618 19.5403798,7.75969503 C20.3267193,9.41880201 20.0958762,11.1308196 18.9108755,12.6830327 C18.7619846,12.8738691 18.5984907,13.0544165 18.4292391,13.2155376 L12.9431565,18.5376126 L12.7503792,18.7102646 C12.3240438,19.0820341 11.6969583,19.0942557 11.2580814,18.7571668 L11.1525082,18.6656232 L5.54545429,13.2170642 C4.52127772,12.217662 3.99013273,11.0152839 4.00028155,9.67359868 C4.00397778,7.55634149 5.47077508,5.71317121 7.56780967,5.17603638 C9.10677052,4.78665942 10.5478073,5.06145041 11.7647951,5.97012754 L11.9772062,6.1370563 L12.1857457,5.97238801 Z M15.8137187,6.0542771 C14.5621655,5.84443131 13.285895,6.25100771 12.4083654,7.13625511 L12.3623046,7.18287959 C12.1761037,7.37135882 11.8874122,7.39301515 11.6776641,7.24736507 L11.6030635,7.18490286 L11.4978717,7.08323054 C10.4469399,6.10697219 9.19115939,5.78915871 7.78854618,6.14521481 C6.14353802,6.56796948 5.00308979,8.00581315 5.00022216,9.64857161 C4.9928901,10.6219787 5.34305852,11.4934641 6.04829994,12.2594617 L6.23200624,12.4487614 L11.8931863,17.9681965 C11.9350019,18.009159 12.0090617,18.0112066 12.0555606,17.9705305 L12.1937519,17.8480552 L17.7489221,12.4412995 C17.8848304,12.3114642 18.0141131,12.168222 18.1282395,12.021507 C19.0804132,10.7700861 19.254735,9.47295524 18.6406234,8.17291024 C18.1218509,7.05947098 17.062905,6.26372604 15.8137187,6.0542771 Z" id="Icons/Menu/Favorite" fill="#121216"></path>
        <rect id="Rectangle" x="0" y="0" width="24" height="24"></rect>
    </g>
</svg>