<?xml version="1.0" encoding="UTF-8"?>
<svg width="24px" height="24px" viewBox="0 0 24 24" version="1.1" xmlns="http://www.w3.org/2000/svg" xmlns:xlink="http://www.w3.org/1999/xlink">
    <!-- Generator: Sketch 59.1 (86144) - https://sketch.com -->
    <title>Icons/Info/Search/Passenger@1x</title>
    <desc>Created with Sketch.</desc>
    <g id="Icons/Info/Search/Passenger" stroke="none" stroke-width="1" fill="none" fill-rule="evenodd">
        <path d="M6.2,18.5 C6.2,16.4859317 7.83272495,14.8532068 9.84679324,14.8532068 L14.1532068,14.8532068 C16.1672751,14.8532068 17.8,16.4859317 17.8,18.5 C17.8,18.8865993 18.1134007,19.2 18.5,19.2 C18.8865993,19.2 19.2,18.8865993 19.2,18.5 C19.2,15.7127331 16.9404737,13.4532068 14.1532068,13.4532068 L9.84679324,13.4532068 C7.0595263,13.4532068 4.8,15.7127331 4.8,18.5 C4.8,18.8865993 5.11340068,19.2 5.5,19.2 C5.88659932,19.2 6.2,18.8865993 6.2,18.5 Z" fill="#0393CD" fill-rule="nonzero"></path>
        <path d="M12,4.3 C14.0434536,4.3 15.7,5.95654643 15.7,8 L15.7,9 C15.7,11.0434536 14.0434536,12.7 12,12.7 C9.95654643,12.7 8.3,11.0434536 8.3,9 L8.3,8 C8.3,5.95654643 9.95654643,4.3 12,4.3 Z M12,5.7 C10.7297451,5.7 9.7,6.72974508 9.7,8 L9.7,9 C9.7,10.2702549 10.7297451,11.3 12,11.3 C13.2702549,11.3 14.3,10.2702549 14.3,9 L14.3,8 C14.3,6.72974508 13.2702549,5.7 12,5.7 Z" fill="#0393CD" fill-rule="nonzero"></path>
        <rect id="Rectangle" x="0" y="0" width="24" height="24"></rect>
    </g>
</svg>