<?xml version="1.0" encoding="UTF-8"?>
<svg width="24px" height="24px" viewBox="0 0 24 24" version="1.1" xmlns="http://www.w3.org/2000/svg" xmlns:xlink="http://www.w3.org/1999/xlink">
    <!-- Generator: Sketch 59.1 (86144) - https://sketch.com -->
    <title>Icons/Menu/Point/Active</title>
    <desc>Created with Sketch.</desc>
    <g id="Icons/Menu/Point/Active" stroke="none" stroke-width="1" fill="none" fill-rule="evenodd">
        <path d="M12,3.5 C16.6944204,3.5 20.5,7.30557963 20.5,12 C20.5,16.6944204 16.6944204,20.5 12,20.5 C7.30557963,20.5 3.5,16.6944204 3.5,12 C3.5,7.30557963 7.30557963,3.5 12,3.5 Z M12,4.5 C7.85786438,4.5 4.5,7.85786438 4.5,12 C4.5,16.1421356 7.85786438,19.5 12,19.5 C16.1421356,19.5 19.5,16.1421356 19.5,12 C19.5,7.85786438 16.1421356,4.5 12,4.5 Z M12.0530191,8 C13.0191506,8 13.8301391,8.22623789 14.4860088,8.67872045 C15.1418786,9.131203 15.5837004,9.74686676 15.8114875,10.5257302 L14.6804124,10.5257302 C14.4840442,10.0509944 14.1561142,9.66898615 13.6966127,9.37969402 C13.2371111,9.09040189 12.6931794,8.945758 12.0648012,8.945758 C11.4992608,8.945758 10.9926385,9.07000339 10.544919,9.31849791 C10.0971995,9.56699243 9.74570574,9.92118453 9.4904271,10.3810848 C9.23514845,10.8409851 9.10751105,11.3824725 9.10751105,12.0055633 C9.10751105,12.6434895 9.23711211,13.194249 9.49631811,13.6578581 C9.75552412,14.1214673 10.1148725,14.4775138 10.5743741,14.7260083 C11.0338756,14.9745029 11.5620981,15.0987483 12.1590574,15.0987483 C12.6696147,15.0987483 13.136964,14.9949014 13.5611193,14.7872045 C13.9852746,14.5795075 14.3328411,14.2772389 14.6038292,13.8803894 C14.8748173,13.48354 15.0378004,13.0180833 15.0927835,12.4840056 L11.8291605,12.4840056 L11.8291605,11.7273992 L16,11.7273992 L16,12.6620306 C15.9293075,13.2851213 15.7250876,13.8488616 15.3873343,14.3532684 C15.049581,14.8576752 14.5940137,15.2582275 14.0206186,15.5549374 C13.4472234,15.8516473 12.7952908,16 12.0648012,16 C11.263619,16 10.5567041,15.8312488 9.94403535,15.4937413 C9.3313666,15.1562338 8.85419906,14.685214 8.51251841,14.0806676 C8.17083776,13.4761212 8,12.7844267 8,12.0055633 C8,11.2266999 8.17083776,10.5350053 8.51251841,9.93045897 C8.85419906,9.3259126 9.3313666,8.85303833 9.94403535,8.51182197 C10.5567041,8.17060562 11.2596917,8 12.0530191,8 Z" fill="#0393CD"></path>
        <rect id="Rectangle" x="0" y="0" width="24" height="24"></rect>
    </g>
</svg>