<?xml version="1.0" encoding="UTF-8"?>
<svg width="24px" height="24px" viewBox="0 0 24 24" version="1.1" xmlns="http://www.w3.org/2000/svg" xmlns:xlink="http://www.w3.org/1999/xlink">
    <!-- Generator: Sketch 60 (88103) - https://sketch.com -->
    <title>Icons/Menu/Promotion/Inactive</title>
    <desc>Created with Sketch.</desc>
    <g id="Icons/Menu/Promotion/Inactive" stroke="none" stroke-width="1" fill="none" fill-rule="evenodd">
        <path d="M12.7559279,3.48836454 L12.8254396,3.54823721 L21.2470323,12.2690517 C21.417543,12.4456208 21.4321231,12.7153407 21.2937467,12.9078232 L21.2346915,12.9760508 L14.0412935,19.9226345 C13.8647245,20.0931453 13.5950045,20.1077254 13.4025221,19.969349 L13.3342945,19.9102938 L4.91270178,11.1894793 C4.82680669,11.1005323 4.77768368,10.9838053 4.77277462,10.8623474 L4.77749922,10.7707271 L5.68125697,4.50881293 C5.70977591,4.31121217 5.85218023,4.15243638 6.03929364,4.0992883 L6.12202071,4.08317232 L12.411661,3.39850277 C12.5345857,3.3851216 12.6569331,3.41782276 12.7559279,3.48836454 Z M12.2763018,4.41914497 L6.6156256,5.03534756 L5.80224363,10.6710703 L13.7063051,18.8559655 L20.1803633,12.6040402 L12.2763018,4.41914497 Z M12.8830833,7.32666208 L12.9065123,7.41380337 L14.2972247,15.3601174 C14.3448298,15.6321254 14.1629153,15.891223 13.8909073,15.9388281 C13.6491223,15.9811437 13.4175382,15.8421105 13.3356255,15.6196519 L13.3121965,15.5325106 L11.9214841,7.58619663 C11.873879,7.3141886 12.0557935,7.05509098 12.3278015,7.0074859 C12.5695865,6.96517027 12.8011706,7.10420347 12.8830833,7.32666208 Z M15.3053416,11.2806602 C15.702622,10.897011 16.3356906,10.9080612 16.7193398,11.3053416 C17.102989,11.702622 17.0919388,12.3356906 16.6946584,12.7193398 C16.297378,13.102989 15.6643094,13.0919388 15.2806602,12.6946584 C14.897011,12.297378 14.9080612,11.6643094 15.3053416,11.2806602 Z M9.30534163,10.2806602 C9.70262203,9.89701098 10.3356906,9.90806123 10.7193398,10.3053416 C11.102989,10.702622 11.0919388,11.3356906 10.6946584,11.7193398 C10.297378,12.102989 9.66430942,12.0919388 9.2806602,11.6946584 C8.89701098,11.297378 8.90806123,10.6643094 9.30534163,10.2806602 Z" fill="#121216"></path>
        <rect id="Rectangle" x="0" y="0" width="24" height="24"></rect>
    </g>
</svg>