<?xml version="1.0" encoding="UTF-8"?>
<svg width="24px" height="24px" viewBox="0 0 24 24" version="1.1" xmlns="http://www.w3.org/2000/svg" xmlns:xlink="http://www.w3.org/1999/xlink">
    <!-- Generator: Sketch 59.1 (86144) - https://sketch.com -->
    <title>Icons/Info/Search/Seat@1x</title>
    <desc>Created with Sketch.</desc>
    <g id="Icons/Info/Search/Seat" stroke="none" stroke-width="1" fill="none" fill-rule="evenodd">
        <path d="M15,4.4 C16.4359403,4.4 17.6,5.56405965 17.6,7 L17.6002586,9.45034047 C17.7280287,9.41747761 17.8619733,9.4 18,9.4 C18.8836556,9.4 19.6,10.1163444 19.6,11 L19.6,18 C19.6,18.8836556 18.8836556,19.6 18,19.6 C17.1782279,19.6 16.5011536,18.9804754 16.4103511,18.1830004 C16.0054695,18.4469912 15.5206033,18.6 15,18.6 L9,18.6 C8.4793967,18.6 7.99453051,18.4469912 7.58791852,18.1834908 C7.49884638,18.9804754 6.82177205,19.6 6,19.6 C5.1163444,19.6 4.4,18.8836556 4.4,18 L4.4,11 C4.4,10.1163444 5.1163444,9.4 6,9.4 C6.13838246,9.4 6.27266173,9.41756782 6.40072923,9.45059487 L6.4,7 C6.4,5.56405965 7.56405965,4.4 9,4.4 L15,4.4 Z M6,10.6 C5.7790861,10.6 5.6,10.7790861 5.6,11 L5.6,18 C5.6,18.2209139 5.7790861,18.4 6,18.4 C6.2209139,18.4 6.4,18.2209139 6.4,18 L6.4,11 C6.4,10.7790861 6.2209139,10.6 6,10.6 Z M18,10.6 C17.7790861,10.6 17.6,10.7790861 17.6,11 L17.6,18 C17.6,18.2209139 17.7790861,18.4 18,18.4 C18.2209139,18.4 18.4,18.2209139 18.4,18 L18.4,11 C18.4,10.7790861 18.2209139,10.6 18,10.6 Z M9.45034047,5.60025856 L9,5.6 C8.22680135,5.6 7.6,6.22680135 7.6,7 L7.6,16 C7.6,16.7731986 8.22680135,17.4 9,17.4 L15,17.4 C15.7731986,17.4 16.4,16.7731986 16.4,16 L16.4,7 C16.4,6.22680135 15.7731986,5.6 15,5.6 L14.5496595,5.60025856 C14.5825224,5.72802868 14.6,5.86197328 14.6,6 L14.6,7 C14.6,7.8836556 13.8836556,8.6 13,8.6 L11,8.6 C10.1163444,8.6 9.4,7.8836556 9.4,7 L9.4,6 C9.4,5.86197328 9.41747761,5.72802868 9.45034047,5.60025856 Z M15.5,12.9 C15.8313708,12.9 16.1,13.1686292 16.1,13.5 C16.1,13.8313708 15.8313708,14.1 15.5,14.1 L15.5,14.1 L8.5,14.1 C8.16862915,14.1 7.9,13.8313708 7.9,13.5 C7.9,13.1686292 8.16862915,12.9 8.5,12.9 L8.5,12.9 Z M13,5.6 L11,5.6 C10.7790861,5.6 10.6,5.7790861 10.6,6 L10.6,7 C10.6,7.2209139 10.7790861,7.4 11,7.4 L13,7.4 C13.2209139,7.4 13.4,7.2209139 13.4,7 L13.4,6 C13.4,5.7790861 13.2209139,5.6 13,5.6 Z" fill="#0393CD" fill-rule="nonzero"></path>
        <rect id="Rectangle" x="0" y="0" width="24" height="24"></rect>
    </g>
</svg>