<?xml version="1.0" encoding="UTF-8"?>
<svg width="1110px" height="857px" viewBox="0 0 1110 857" version="1.1" xmlns="http://www.w3.org/2000/svg" xmlns:xlink="http://www.w3.org/1999/xlink">
    <!-- Generator: Sketch 61 (89581) - https://sketch.com -->
    <title>Element/BG</title>
    <desc>Created with Sketch.</desc>
    <g id="Desktop---Login" stroke="none" stroke-width="1" fill="none" fill-rule="evenodd">
        <g id="Desktop_02_Register" transform="translate(-165.000000, 0.000000)" fill="#0393CD">
            <g id="Element/BG" transform="translate(165.000000, -32.000000)">
                <path d="M925,778.425571 C925,816.51463 920.525269,853.543324 912.079966,889.000302 L684.895351,888.99935 C700.869832,855.921519 709.836957,818.735804 709.836957,779.428003 C709.847617,641.575392 599.560264,529.822479 463.505435,529.822479 C327.461267,529.822479 217.173913,641.575392 217.173913,779.428003 C217.173913,818.735804 226.141038,855.921519 242.115518,888.99935 L12.9209148,889.000596 C4.4750415,853.543239 0,816.514395 0,778.425571 C0,528.078415 193.308844,323.53915 436.775933,310.000846 L488.224067,310.000881 C731.691156,323.539843 925,528.088659 925,778.425571 Z"></path>
                <path d="M1066.94957,43.7886922 C1009.09039,-14.1412869 914.757542,-14.6582363 856.248375,42.6281937 C830.281003,68.0536625 819.284561,92.7617323 810.078238,135.48918 C800.179309,181.444924 785.496076,300.374928 785.496076,300.374928 C784.654294,305.586622 784.409218,311.895514 788.724683,316.199909 C793.029491,320.514854 799.40146,320.346054 804.675916,319.565355 C804.675916,319.565355 924.954824,306.367321 971.476591,297.072782 C1014.72713,288.432343 1039.79944,277.829606 1065.77747,252.404137 C1124.27598,195.117707 1124.80876,101.718671 1066.94957,43.7886922 Z"></path>
            </g>
        </g>
    </g>
</svg>