<?xml version="1.0" encoding="UTF-8"?>
<svg width="18px" height="14px" viewBox="0 0 18 14" version="1.1" xmlns="http://www.w3.org/2000/svg" xmlns:xlink="http://www.w3.org/1999/xlink">
    <!-- Generator: sketchtool 55.2 (78181) - https://sketchapp.com -->
    <title>0D4A27B4-EC22-4CA7-8DA5-A2BFCDBC23AC</title>
    <desc>Created with sketchtool.</desc>
    <g id="Desktop---Booking-Flight" stroke="none" stroke-width="1" fill="none" fill-rule="evenodd">
        <g id="Desktop_Flight_01_List" transform="translate(-683.000000, -758.000000)" fill="#0393CD" fill-rule="nonzero">
            <g id="Card/Flight/Depart/Direct" transform="translate(445.000000, 650.000000)">
                <g id="Icon/Flight/Baggage" transform="translate(238.000000, 106.000000)">
                    <g id="Group" transform="translate(0.600000, 1.800000)">
                        <path d="M12.24,2.76000003 L4.26000003,2.76000003 L4.26000003,11.6400001 L12.24,11.6400001 L12.24,2.76000003 Z M12.96,2.76000003 L12.96,11.6400001 L14.9999996,11.6400001 C15.4639188,11.6400001 15.8399996,11.2639193 15.8399996,10.8000001 L15.8399996,3.60000004 C15.8399996,3.13608085 15.4639188,2.76000003 14.9999996,2.76000003 L12.96,2.76000003 Z M3.54,2.76000003 L1.80000001,2.76000003 C1.33608083,2.76000003 0.960000032,3.13608085 0.960000032,3.60000004 L0.960000032,10.8000001 C0.960000032,11.2639193 1.33608083,11.6400001 1.80000001,11.6400001 L3.54,11.6400001 L3.54,2.76000003 Z M5.64,2.04 L5.64,1.79999993 C5.64,0.938435762 6.33843578,0.240000004 7.19999997,0.240000004 L9.59999992,0.240000004 C10.4615641,0.240000004 11.1599999,0.938435762 11.1599999,1.79999993 L11.1599999,2.04 L15.0000004,2.04 C15.8615647,2.04 16.5600005,2.73843582 16.5600005,3.60000007 L16.5600005,10.8000004 C16.5600005,11.6615646 15.8615647,12.3600005 15.0000004,12.3600005 L1.80000005,12.3600005 C0.938435813,12.3600005 0.240000004,11.6615646 0.240000004,10.8000004 L0.240000004,3.60000007 C0.240000004,2.73843582 0.938435813,2.04 1.80000005,2.04 L5.64,2.04 Z M6.36000003,2.03999986 L10.4400001,2.03999986 L10.4400001,1.79999987 C10.4400001,1.33608069 10.0639193,0.959999889 9.60000012,0.959999889 L7.20000006,0.959999889 C6.73608085,0.959999889 6.36000003,1.33608069 6.36000003,1.79999987 L6.36000003,2.03999986 Z M2.25000001,13.56 C2.0511775,13.56 1.89,13.3988225 1.89,13.2 C1.89,13.0011775 2.0511775,12.84 2.25000001,12.84 L3.75000003,12.84 C3.94882254,12.84 4.11000003,13.0011775 4.11000003,13.2 C4.11000003,13.3988225 3.94882254,13.56 3.75000003,13.56 L2.25000001,13.56 Z M13.05,13.56 C12.8511775,13.56 12.69,13.3988225 12.69,13.2 C12.69,13.0011775 12.8511775,12.84 13.05,12.84 L14.55,12.84 C14.7488225,12.84 14.91,13.0011775 14.91,13.2 C14.91,13.3988225 14.7488225,13.56 14.55,13.56 L13.05,13.56 Z" id="Combined-Shape"></path>
                    </g>
                </g>
            </g>
        </g>
    </g>
</svg>