<?xml version="1.0" encoding="UTF-8"?>
<svg width="20px" height="20px" viewBox="0 0 20 20" version="1.1" xmlns="http://www.w3.org/2000/svg" xmlns:xlink="http://www.w3.org/1999/xlink">
    <!-- Generator: sketchtool 55.2 (78181) - https://sketchapp.com -->
    <title>62B19B00-D497-4D8E-9361-BE8F243CAB0E</title>
    <desc>Created with sketchtool.</desc>
    <g id="Desktop---Booking-Flight" stroke="none" stroke-width="1" fill="none" fill-rule="evenodd">
        <g id="Desktop_Flight_01" transform="translate(-131.000000, -291.000000)" stroke="#0393CD" stroke-width="1.3">
            <g id="Group-9" transform="translate(116.000000, 282.000000)">
                <g id="Icon/Info/Pin-Copy-8" transform="translate(14.000000, 8.000000)">
                    <g id="Group" transform="translate(1.833333, 1.833333)">
                        <g id="Group-2">
                            <path d="M2.2586867,7.03920948 C2.35419393,6.97718637 2.48701556,6.93777384 2.64671239,6.97459404 C2.69994467,6.98686744 2.72656081,6.99300414 2.75317695,6.99914084 L4.74024339,7.86349558 L8.09891422,5.68234942 L3.68567269,1.70928696 C3.54163467,1.59203355 3.45578948,1.39014645 3.46571057,1.19633225 C3.45971379,1.01285524 3.54426369,0.864262214 3.7034424,0.760890358 L4.73810403,0.0889732921 C4.84952913,0.0166129927 4.98235076,-0.0227995362 5.14204759,0.0140206615 C5.19527987,0.0262940607 5.22189601,0.0324307603 5.22189601,0.0324307603 L11.5794493,3.37522081 L14.9592576,1.15692639 C15.3146704,0.902697231 15.7877641,0.829680814 16.2402385,0.934004707 C16.6927128,1.0383286 17.0713355,1.30771941 17.3280939,1.70309265 C17.8416108,2.49383914 17.6594427,3.57241868 16.9222601,4.14483631 L13.5158357,6.35699404 L13.9835176,13.4544467 C13.9735965,13.6482609 13.883827,13.823665 13.7246483,13.9270369 L12.6899867,14.598954 C12.5785616,14.6713143 12.4457399,14.7107268 12.2860431,14.6739066 C12.2701252,14.6842438 12.2221126,14.6451593 12.1954964,14.6390226 C12.0303209,14.5589174 11.8648864,14.4087163 11.8322735,14.2191026 L10.0191236,8.6043638 L6.67637066,10.7751728 L6.6311692,12.9358762 C6.63716598,13.1193532 6.54739647,13.2947573 6.38821776,13.3981292 L5.35355613,14.0700462 C5.24213104,14.1424065 5.1093094,14.1818191 4.94961257,14.1449989 C4.92299644,14.1388622 4.88568203,14.1162516 4.83244975,14.1039782 C4.66205466,14.0506841 4.52845585,13.8798086 4.49062333,13.7170059 L3.66559991,10.669305 L1.15328214,8.71734578 C0.998545862,8.58361849 0.907481063,8.40854245 0.917402154,8.21472825 C0.911405374,8.03125124 1.00117488,7.85584715 1.16035359,7.75247529 L2.2586867,7.03920948 Z" id="Path" fill-rule="nonzero"></path>
                            <path d="M1.6283271e-15,17.875 L17.762819,17.875" id="Path-2" stroke-linecap="round" stroke-linejoin="round"></path>
                        </g>
                    </g>
                </g>
            </g>
        </g>
    </g>
</svg>