<?xml version="1.0" encoding="UTF-8"?>
<svg width="28px" height="28px" viewBox="0 0 28 28" version="1.1" xmlns="http://www.w3.org/2000/svg" xmlns:xlink="http://www.w3.org/1999/xlink">
    <!-- Generator: Sketch 60.1 (88133) - https://sketch.com -->
    <title>Icons/Fac/Flight/DutyFree</title>
    <desc>Created with Sketch.</desc>
    <g id="Icons/Fac/Flight/DutyFree" stroke="none" stroke-width="1" fill="none" fill-rule="evenodd">
        <path d="M14,1.5 C16.4142733,1.5 18.3844891,3.40123652 18.495102,5.7881643 L18.5,6 L18.5,6.5 L20,6.5 C21.3254834,6.5 22.4100387,7.53153594 22.4946823,8.83562431 L22.5,9 L22.5,23 C22.5,24.3807119 21.3807119,25.5 20,25.5 L20,25.5 L8,25.5 C6.61928813,25.5 5.5,24.3807119 5.5,23 L5.5,23 L5.5,9 C5.5,7.61928813 6.61928813,6.5 8,6.5 L8,6.5 L9.5,6.5 L9.5,6 C9.5,3.51471863 11.5147186,1.5 14,1.5 Z M9.5,7.5 L8,7.5 C7.17157288,7.5 6.5,8.17157288 6.5,9 L6.5,9 L6.5,23 C6.5,23.8284271 7.17157288,24.5 8,24.5 L8,24.5 L20,24.5 C20.8284271,24.5 21.5,23.8284271 21.5,23 L21.5,23 L21.5,9 C21.5,8.17157288 20.8284271,7.5 20,7.5 L20,7.5 L18.5,7.5 L18.5,8 C18.5,8.27614237 18.2761424,8.5 18,8.5 C17.7545401,8.5 17.5503916,8.32312484 17.5080557,8.08987563 L17.5,8 L17.5,7.5 L10.5,7.5 L10.5,8 C10.5,8.27614237 10.2761424,8.5 10,8.5 C9.75454011,8.5 9.55039163,8.32312484 9.50805567,8.08987563 L9.5,8 L9.5,7.5 Z M10.7402726,11.1809004 C10.9870398,11.0163734 11.277058,10.9597984 11.5687005,11.028834 L11.5687005,11.028834 L11.6819318,11.0600917 L11.7982558,11.109006 L15.4135433,13.0600356 L17.2655567,11.81466 C17.5978105,11.6123828 17.9962225,11.536669 18.3912829,11.5920687 L18.3912829,11.5920687 L18.5601866,11.623852 C19.0330021,11.7357737 19.4341339,12.0268681 19.699553,12.4464796 C20.2298473,13.2848426 20.0410338,14.4131615 19.2278145,15.0576795 L19.2278145,15.0576795 L17.4405433,16.2480356 L17.7087411,20.4899822 C17.6928818,20.8080664 17.5542645,21.1018887 17.3197339,21.3038029 L17.3197339,21.3038029 L17.2134269,21.3845133 L16.5616249,21.8190891 C16.3805677,21.9398053 16.1744824,22.0036616 15.9286338,21.9984554 L15.9286338,21.9984554 L15.749893,21.9790023 L15.6418888,21.947651 L15.5804245,21.9212839 L15.5184514,21.8915061 C15.2353883,21.7505672 15.0092164,21.5109145 14.9339346,21.2752107 L14.9339346,21.2752107 L14.9111832,21.1747359 L14.0645433,18.4840356 L13.0965433,19.1300356 L13.0745177,20.2175431 C13.050865,20.5101053 12.912462,20.779894 12.6914208,20.9673217 L12.6914208,20.9673217 L12.5917229,21.0424316 L11.939921,21.4770074 C11.6931538,21.6415345 11.4031356,21.6981095 11.0870652,21.6226357 L11.0870652,21.6226357 L11.013276,21.5964005 L10.9825844,21.5871996 C10.6277008,21.4732428 10.353158,21.1581254 10.2763094,20.8157935 L10.2763094,20.8157935 L9.81954327,19.0850356 L8.40132268,17.9528536 C8.16893342,17.7466594 8.02250673,17.4667694 8.0016836,17.2004533 L8.0016836,17.2004533 L8.00056499,17.0874034 C7.98846318,16.7072609 8.17142671,16.3474326 8.48641045,16.1374236 L8.48641045,16.1374236 L9.17832329,15.6761046 C9.41810916,15.5162322 9.70967902,15.4627768 9.99673785,15.5307274 L9.99673785,15.5307274 L10.1070375,15.5590088 L10.1936439,15.590541 L11.0775433,15.9850356 L12.0615433,15.3280356 L9.9239003,13.3507823 C9.73998078,13.1577966 9.62589161,12.8976095 9.60719435,12.6629113 L9.60719435,12.6629113 L9.60591339,12.5481155 C9.59380742,12.1678421 9.77321305,11.8256679 10.0884707,11.6154762 L10.0884707,11.6154762 Z M11.3383529,12.0019424 C11.3220538,11.9980842 11.3152922,11.9994032 11.2950092,12.0129265 L11.2950092,12.0129265 L10.6432072,12.4475023 C10.6132178,12.4674971 10.6043895,12.484335 10.6049166,12.5594657 C10.6044453,12.5680976 10.6061478,12.5791945 10.6087627,12.5903495 L10.6087627,12.5903495 L10.6253104,12.6387243 L13.206808,15.0257738 C13.4443504,15.2454236 13.4139058,15.6294212 13.1447194,15.8088958 L13.1447194,15.8088958 L11.4028046,16.9702823 C11.2599788,17.0655085 11.0782881,17.0808092 10.9215482,17.0108103 L10.9215482,17.0108103 L9.83249265,16.5194852 L9.76637587,16.5038324 C9.75051664,16.5000783 9.74309704,16.5014386 9.73305986,16.5081307 L9.73305986,16.5081307 L9.04114702,16.9694496 C9.01534722,16.9866511 8.99889425,17.0190086 8.99956751,17.0987659 C8.99838176,17.1204728 9.01814674,17.1632627 9.04502619,17.1880247 L9.04502619,17.1880247 L10.5733137,18.4075166 C10.6573426,18.4745672 10.7175236,18.5669147 10.7449319,18.6708638 L10.7449319,18.6708638 L11.2475425,20.5783461 C11.2492706,20.5860109 11.2534218,20.594563 11.2580839,20.6025313 L11.2580839,20.6025313 L11.2768932,20.631564 L11.3375683,20.6540586 C11.3581398,20.6598237 11.3649015,20.6585046 11.3851844,20.6449814 L11.3851844,20.6449814 L12.0369864,20.2104056 C12.044526,20.2053787 12.051288,20.199039 12.0569911,20.1927614 L12.0569911,20.1927614 L12.0762522,20.1668395 L12.1037265,18.8477261 C12.1071308,18.684277 12.1902264,18.5328156 12.3262498,18.4421248 L12.3262498,18.4421248 L14.0647307,17.2830277 C14.3419882,17.0981718 14.7190771,17.2311402 14.8190615,17.5490184 L14.8190615,17.5490184 L15.882,20.948 L15.8837098,20.9457101 L15.8886743,20.9481355 L15.9116119,20.9738154 L15.9785433,20.9990356 L15.9881052,20.9975934 L16.0068883,20.987063 L16.6586903,20.5524872 C16.6679653,20.5463033 16.67645,20.5379015 16.6837573,20.5295032 L16.6837573,20.5295032 L16.7103764,20.4969265 L16.4249764,16.0246271 C16.4136082,15.8464851 16.4980728,15.6757942 16.6465931,15.5767713 L16.6465931,15.5767713 L18.6392191,14.2503383 C19.0183855,13.9487836 19.1121462,13.3884851 18.8544293,12.9810503 C18.7272139,12.7799305 18.5453903,12.6479843 18.3298391,12.5969605 C18.1314514,12.5499995 17.935183,12.5777333 17.8048955,12.6564361 L17.8048955,12.6564361 L15.7221562,14.0593273 C15.5679714,14.163183 15.368897,14.1729232 15.2053102,14.0846152 L15.2053102,14.0846152 L11.3826382,12.0161948 L11.3886547,12.0138495 Z M14,2.5 C12.1314366,2.5 10.6048736,3.9642776 10.5051789,5.8079648 L10.5,6 L10.5,6.5 L17.5,6.5 L17.5,6 C17.5,4.06700338 15.9329966,2.5 14,2.5 Z" fill="#0393CD"></path>
        <rect id="Rectangle" x="0" y="0" width="28" height="28"></rect>
    </g>
</svg>