<?xml version="1.0" encoding="UTF-8"?>
<svg width="77px" height="24px" viewBox="0 0 77 24" version="1.1" xmlns="http://www.w3.org/2000/svg" xmlns:xlink="http://www.w3.org/1999/xlink">
    <!-- Generator: sketchtool 57.1 (101010) - https://sketch.com -->
    <title>52BF3CD8-53F2-472F-A0A2-32198697B9DF</title>
    <desc>Created with sketchtool.</desc>
    <g id="Desktop---Booking-Flight" stroke="none" stroke-width="1" fill="none" fill-rule="evenodd">
        <g id="Desktop_Flight_07" transform="translate(-437.000000, -301.000000)" fill-rule="nonzero">
            <g id="Logo/White-Logo/Blue" transform="translate(435.000000, 300.000000)">
                <path d="M32,13 C32,16.866073 28.8660062,20 25,20 C21.1339938,20 18,16.8659148 18,13 C18,9.13392696 21.1339938,6 25,6 C28.8660062,6 32,9.13408516 32,13 Z M24.9998387,9.27361689 C22.94185,9.27361689 21.2734938,10.9419861 21.2734938,13 C21.2734938,15.0580139 22.94185,16.7263831 24.9998387,16.7263831 C27.0578274,16.7263831 28.7261836,15.0580139 28.7261836,13 C28.7263449,10.9419861 27.0579887,9.27361689 24.9998387,9.27361689 Z" id="Shape" fill="#FFFFFF"></path>
                <path d="M61.8028754,24.9930253 C61.1078275,24.9930253 60.6870607,24.5771634 60.4567093,24.3298504 C60.1621406,24.0138213 60,23.5882354 60,23.1313708 C60,22.3226604 60.5380192,21.5168672 61.7196486,21.4598199 C62.7400958,21.4222205 63.5361022,20.515298 63.5361022,19.5106496 L63.5361022,7.79585567 C63.5361022,6.78877624 64.2944089,6 65.2626198,6 C66.236901,6 67,6.78877624 67,7.79585567 L66.9891374,19.6216649 C66.9889776,22.945967 64.5971246,25.1401814 61.8028754,24.9930253 Z" id="Path" fill="#429BBF"></path>
                <path d="M71,20 C69.8784234,20 69,19.2588133 69,18.3125233 L69,7.6874767 C69,6.7411867 69.8784234,6 71,6 C72.1027017,6 73,6.75700037 73,7.6874767 L73,18.3125233 C72.999815,19.2429996 72.1027017,20 71,20 Z" id="Path" fill="#429BBF"></path>
                <path d="M77,20 C75.8784234,20 75,19.2588133 75,18.3125233 L75,7.6874767 C75,6.7411867 75.8784234,6 77,6 C78.1027017,6 79,6.75700037 79,7.6874767 L79,18.3125233 C79,19.2429996 78.1027017,20 77,20 Z" id="Path" fill="#429BBF"></path>
                <path d="M34.3376857,1.68419832 C33.4475444,0.779042392 31.9962699,0.770965059 31.0961288,1.66606553 C30.6966308,2.06333848 30.5274548,2.44940207 30.385819,3.11701844 C30.2335278,3.83507693 30.0076319,5.69335825 30.0076319,5.69335825 C29.9946814,5.77479097 29.9909111,5.87336741 30.0573028,5.94062358 C30.1235306,6.00804459 30.2215609,6.00540709 30.3027064,5.99320867 C30.3027064,5.99320867 32.1531511,5.78698939 32.8688706,5.64176222 C33.5342635,5.50675536 33.9199914,5.34108759 34.3196534,4.94381464 C35.2196305,4.04871417 35.227827,2.58935424 34.3376857,1.68419832 Z" id="Path" fill="#FFFFFF"></path>
                <path d="M45.532444,11.9608594 L41.0701063,11.9608594 C40.4164795,11.9608594 39.8865466,12.4964531 39.8865466,13.1570609 C39.8865466,13.8176688 40.4164795,14.3532625 41.0701063,14.3532625 L41.0701063,14.3532625 L43.7231572,14.3532625 C43.5926899,15.0425855 43.2614415,15.6405276 42.729896,16.1374113 C42.0575618,16.7559776 41.2050892,17.0700995 40.1921531,17.0700995 C39.0584258,17.0700995 38.115642,16.6845863 37.3733167,15.9243478 C36.6309915,15.1642681 36.2600707,14.1909662 36.2600707,13.0150715 C36.2600707,11.8288648 36.6309915,10.8455681 37.3834767,10.0750176 C38.1254795,9.31462049 39.0384283,8.92974186 40.1218394,8.92974186 C41.4319959,8.92974186 42.4997639,9.4491535 43.3454631,10.4759196 C43.3493336,10.4808377 43.3535266,10.4854384 43.3575584,10.4901979 C43.3688473,10.5041588 43.38062,10.5170093 43.3919089,10.5311289 L43.3943279,10.5311289 C43.6620359,10.8301793 44.0477935,11.0191283 44.4782228,11.0191283 C45.2861849,11.0191283 45.9412632,10.3572513 45.9412632,9.54069306 C45.9412632,9.18452961 45.8166016,8.85787458 45.6090472,8.60276953 L45.6090472,8.59515445 C44.9670318,7.79446094 44.1645529,7.15558779 43.1914504,6.68932303 C42.2183479,6.23305306 41.1652556,6 40.0416883,6 C38.0554884,6 36.3903768,6.65918002 35.0360323,7.98690026 C33.6820103,9.31477914 33,10.9875575 33,12.994606 C33,15.0021304 33.6718503,16.6749088 35.0061974,18.0027877 C36.3405444,19.3306665 38.0053334,20 40.0216908,20 C42.0078907,20 43.6730023,19.3306665 45.0171868,18.0027877 C46.3055719,16.7402715 46.9651657,15.1793396 47,13.3214197 C46.9350082,12.5592775 46.3033141,11.9608594 45.532444,11.9608594 Z" id="Path" fill="#429BBF"></path>
                <path d="M14.532444,11.9608594 L10.0701063,11.9608594 C9.41647948,11.9608594 8.88654664,12.4964531 8.88654664,13.1570609 C8.88654664,13.8176688 9.41647948,14.3532625 10.0701063,14.3532625 L10.0701063,14.3532625 L12.7231572,14.3532625 C12.5926899,15.0425855 12.2614415,15.6405276 11.729896,16.1374113 C11.0575618,16.7559776 10.2050892,17.0700995 9.19215307,17.0700995 C8.05842578,17.0700995 7.11564203,16.6845863 6.37331675,15.9243478 C5.63099146,15.1642681 5.26007073,14.1909662 5.26007073,13.0150715 C5.26007073,11.8288648 5.63099146,10.8455681 6.38347675,10.0750176 C7.12547949,9.31462049 8.03842831,8.92974186 9.1218394,8.92974186 C10.4319959,8.92974186 11.4997639,9.4491535 12.3454631,10.4759196 C12.3493336,10.4808377 12.3535266,10.4854384 12.3575584,10.4901979 C12.3688473,10.5041588 12.38062,10.5170093 12.3919089,10.5311289 L12.3943279,10.5311289 C12.6620359,10.8301793 13.0477935,11.0191283 13.4782228,11.0191283 C14.2861849,11.0191283 14.9412632,10.3572513 14.9412632,9.54069306 C14.9412632,9.18452961 14.8166016,8.85787458 14.6090472,8.60276953 L14.6090472,8.59515445 C13.9670318,7.79446094 13.1645529,7.15558779 12.1914504,6.68932303 C11.2183479,6.23305306 10.1652556,6 9.04168827,6 C7.05548836,6 5.3903768,6.65918002 4.0360323,7.98690026 C2.68201034,9.31477914 2,10.9875575 2,12.994606 C2,15.0021304 2.67185034,16.6749088 4.00619737,18.0027877 C5.3405444,19.3306665 7.00533343,20 9.0216908,20 C11.0078907,20 12.6730023,19.3306665 14.0171868,18.0027877 C15.3055719,16.7402715 15.9651657,15.1793396 16,13.3214197 C15.934847,12.5592775 15.3033141,11.9608594 14.532444,11.9608594 Z" id="Path" fill="#FFFFFF"></path>
                <path d="M62,13 C62,16.866073 58.8660062,20 55,20 C51.1339938,20 48,16.8659148 48,13 C48,9.13392696 51.1339938,6 55,6 C58.8660062,6 62,9.13408516 62,13 Z M54.9998387,9.27361689 C52.94185,9.27361689 51.2734938,10.9419861 51.2734938,13 C51.2734938,15.0580139 52.94185,16.7263831 54.9998387,16.7263831 C57.0578274,16.7263831 58.7261836,15.0580139 58.7261836,13 C58.7263449,10.9419861 57.0579887,9.27361689 54.9998387,9.27361689 Z" id="Shape" fill="#429BBF"></path>
            </g>
        </g>
    </g>
</svg>