<?xml version="1.0" encoding="UTF-8"?>
<svg width="28px" height="28px" viewBox="0 0 28 28" version="1.1" xmlns="http://www.w3.org/2000/svg" xmlns:xlink="http://www.w3.org/1999/xlink">
    <!-- Generator: Sketch 60.1 (88133) - https://sketch.com -->
    <title>Icons/Fac/Flight/Power</title>
    <desc>Created with Sketch.</desc>
    <g id="Icons/Fac/Flight/Power" stroke="none" stroke-width="1" fill="none" fill-rule="evenodd">
        <g transform="translate(7.909576, 18.840855) scale(-1, -1) rotate(-125.000000) translate(-7.909576, -18.840855) translate(2.409576, 11.340855)" fill="#0393CD" id="Combined-Shape">
            <path d="M7.858437,0.4 C8.15667076,0.4 8.40408375,0.617589612 8.45058401,0.902676883 L8.458437,1 L8.458,2.799 L9.92999082,2.8 C10.2613617,2.8 10.5299908,3.06862915 10.5299908,3.4 C10.5299908,3.69823376 10.3124012,3.94564675 10.0273139,3.99214701 L9.92999082,4 L9.658,3.999 L9.658437,7 C9.658437,9.11595941 8.0937007,10.8664551 6.05821692,11.1574982 L6.058437,11.8 C6.058437,12.7444069 6.78575042,13.5189407 7.71080901,13.5940331 L7.858437,13.6 L9.058437,13.6 C9.38980785,13.6 9.658437,13.8686292 9.658437,14.2 C9.658437,14.4982338 9.44084739,14.7456468 9.15576011,14.792147 L9.058437,14.8 L7.858437,14.8 C6.26075611,14.8 4.95477612,13.55108 4.86352969,11.9762728 L4.858437,11.8 L4.85865708,11.1574982 C2.8231733,10.8664551 1.258437,9.11595941 1.258437,7 L1.258437,7 L1.258,3.999 L1,4 C0.66862915,4 0.4,3.73137085 0.4,3.4 C0.4,3.10176624 0.617589612,2.85435325 0.902676883,2.80785299 L1,2.8 L2.458,2.799 L2.458437,1 C2.458437,0.66862915 2.72706615,0.4 3.058437,0.4 C3.35667076,0.4 3.60408375,0.617589612 3.65058401,0.902676883 L3.658437,1 L3.658,2.799 L7.258,2.799 L7.258437,1 C7.258437,0.66862915 7.52706615,0.4 7.858437,0.4 Z M8.458,4 L2.458,4 L2.458437,7 C2.458437,8.59768088 3.70735696,9.90366088 5.28216421,9.99490731 L5.28216421,9.99490731 L5.458437,10 C7.11529125,10 8.458437,8.65685425 8.458437,7 L8.458437,7 L8.458,4 Z"></path>
        </g>
        <g transform="translate(20.500000, 8.127643) rotate(-125.000000) translate(-20.500000, -8.127643) translate(15.000000, 2.127643)" fill="#0393CD" id="Combined-Shape">
            <path d="M9.92999082,2.2759572e-14 C10.2613617,2.2759572e-14 10.5299908,0.26862915 10.5299908,0.6 C10.5299908,0.898233765 10.3124012,1.14564675 10.0273139,1.19214701 L9.92999082,1.2 L9.658,1.2 L9.658437,4.2 C9.658437,6.31595941 8.0937007,8.06645507 6.05821692,8.35749816 L6.058437,9 C6.058437,9.94440692 6.78575042,10.7189407 7.71080901,10.7940331 L7.858437,10.8 L9.058437,10.8 C9.38980785,10.8 9.658437,11.0686292 9.658437,11.4 C9.658437,11.6982338 9.44084739,11.9456468 9.15576011,11.992147 L9.058437,12 L7.858437,12 C6.26075611,12 4.95477612,10.75108 4.86352969,9.17627279 L4.858437,9 L4.85865708,8.35749816 C2.8231733,8.06645507 1.258437,6.31595941 1.258437,4.2 L1.258437,4.2 L1.258,1.2 L1,1.2 C0.66862915,1.2 0.4,0.93137085 0.4,0.6 C0.4,0.301766235 0.617589612,0.054353247 0.902676883,0.00785298705 L1,2.2759572e-14 L9.92999082,2.2759572e-14 Z M8.458,1.2 L2.458,1.2 L2.458437,4.2 C2.458437,5.79768088 3.70735696,7.10366088 5.28216421,7.19490731 L5.28216421,7.19490731 L5.458437,7.2 C7.11529125,7.2 8.458437,5.85685425 8.458437,4.2 L8.458437,4.2 L8.458,1.2 Z"></path>
        </g>
        <rect id="Rectangle" x="0" y="0" width="28" height="28"></rect>
    </g>
</svg>