<?xml version="1.0" encoding="UTF-8"?>
<svg width="28px" height="28px" viewBox="0 0 28 28" version="1.1" xmlns="http://www.w3.org/2000/svg" xmlns:xlink="http://www.w3.org/1999/xlink">
    <!-- Generator: Sketch 60.1 (88133) - https://sketch.com -->
    <title>Icons/Fac/Flight/Wifi</title>
    <desc>Created with Sketch.</desc>
    <g id="Icons/Fac/Flight/Wifi" stroke="none" stroke-width="1" fill="none" fill-rule="evenodd">
        <g transform="translate(1.000000, 4.000000)" fill="#0393CD" id="Path">
            <path d="M13.0218139,0.636390276 L13.5032988,0.649861178 C17.9050604,0.821287561 21.7379705,2.28928403 24.9829785,5.10956992 L25.1803429,5.28497544 L25.8131373,5.87740704 C25.8805761,5.9460215 25.9193942,6.00101155 25.9565388,6.08921555 C26.0506451,6.3126815 25.9869832,6.54888743 25.7973305,6.71977786 C25.506003,6.97758978 25.2245069,6.90988353 24.983809,6.69673334 L24.5390494,6.26624822 C24.0323344,5.79195673 23.4925956,5.35326027 22.9223402,4.95245438 C20.7742153,3.41600245 18.2915025,2.41242041 15.6776505,2.02431487 C12.5761827,1.55222035 9.58420473,1.87080997 6.70389597,2.99195593 C4.81557276,3.72323771 3.08017533,4.79718795 1.58378533,6.15910214 L1.24274648,6.47847692 L1.01424823,6.70051706 C0.757722841,6.92487013 0.489088905,6.98959781 0.187828119,6.70148036 C0.0201768108,6.53657743 -0.0461054008,6.3198368 0.0336206739,6.10476605 C0.0692312267,6.00870227 0.114039788,5.94511773 0.183348263,5.87732585 L0.289812946,5.78256397 L0.64774085,5.44388411 C3.13160808,3.14163387 6.08370812,1.6581135 9.4825884,0.984416978 C10.6483682,0.754692732 11.8336167,0.638142341 13.0218139,0.636390276 Z"></path>
            <path d="M13.0317833,6.25880906 C16.3037771,6.29088191 19.1299951,7.3583723 21.4854496,9.48602086 L21.8704144,9.84361646 C22.1030385,10.0787397 22.1780197,10.3406621 21.901819,10.6468123 C21.622261,10.9566838 21.3419588,10.9014209 21.0893785,10.6860466 L20.6741335,10.3036399 C19.3375054,9.11823744 17.8853633,8.30480985 16.286962,7.87940081 C12.2482753,6.81409472 8.68152615,7.5695528 5.56335512,10.1846019 L5.28112013,10.4274575 L5.08883627,10.5909703 L4.97880422,10.6911453 C4.90669326,10.7527225 4.84692968,10.7886987 4.75582165,10.8184765 C4.53788844,10.8897059 4.32000734,10.8179812 4.16258392,10.6392795 C3.89125165,10.3287859 3.9895917,10.070532 4.23711477,9.81707961 L4.55913312,9.50204637 C4.86312477,9.21798255 5.18445389,8.95340484 5.52036808,8.71056119 C7.40543554,7.32899519 9.49544847,6.52562295 11.7863035,6.31538469 L12.1764564,6.27764134 L12.4210879,6.26088478 L12.5647839,6.25654176 L13.0317833,6.25880906 Z"></path>
            <path d="M13.206562,16.0059998 C13.4514335,16.0318832 13.6817276,16.1401923 13.858491,16.3151266 C14.065059,16.5195571 14.1814053,16.7980344 14.1816558,17.0855559 C14.1859384,17.6879811 13.7010481,18.179815 13.0986228,18.1840976 C12.4961976,18.1883803 12.0043637,17.7034899 12.0001264,17.1051255 C11.9956962,16.8142778 12.1078554,16.5337553 12.3115846,16.3261344 C12.485919,16.1484698 12.7148949,16.0368354 12.9596054,16.0076474 L13.0830916,16 L13.206562,16.0059998 Z"></path>
            <path d="M13.053469,11.7977553 L13.3745117,11.8083054 C14.9507686,11.8914576 16.3488753,12.4330882 17.5569798,13.4339145 L17.7960639,13.6402026 L17.9906405,13.834994 C18.1770007,14.0649449 18.1960157,14.3601562 17.9546512,14.6081153 C17.6847128,14.885429 17.3703494,14.8347253 17.112253,14.599813 C16.8163059,14.3181386 16.4936109,14.0659781 16.1537287,13.8500224 C13.9583308,12.5002968 11.2391213,12.7011265 9.25541619,14.3372123 L9.05288064,14.5115776 L8.97312411,14.5871307 C8.73185545,14.8268015 8.42542637,14.8990414 8.13172682,14.6214203 C7.82934549,14.3260711 7.90554886,13.9944453 8.16591994,13.7461412 C8.6384466,13.2865116 9.17567235,12.8984818 9.76036556,12.5944643 C10.7770158,12.0652383 11.9073355,11.7917772 13.053469,11.7977553 Z"></path>
        </g>
        <rect id="Rectangle" x="0" y="0" width="28" height="28"></rect>
    </g>
</svg>