<?xml version="1.0" encoding="UTF-8"?>
<svg width="40px" height="32px" viewBox="0 0 40 32" version="1.1" xmlns="http://www.w3.org/2000/svg" xmlns:xlink="http://www.w3.org/1999/xlink">
    <!-- Generator: Sketch 60.1 (88133) - https://sketch.com -->
    <title>Icons/Home/Trans</title>
    <desc>Created with Sketch.</desc>
    <g id="Icons/Home/Trans" stroke="none" stroke-width="1" fill="none" fill-rule="evenodd">
        <path d="M6.632,10.35 L27.032,10.35 C31.4469643,10.35 35.026,13.9290357 35.026,18.344 L35.026,24.056 C35.026,25.3163138 34.0043138,26.338 32.744,26.338 L6.632,26.338 C5.3716862,26.338 4.35,25.3163138 4.35,24.056 L4.35,12.632 C4.35,11.3716862 5.3716862,10.35 6.632,10.35 Z M6.632,11.65 C6.08965638,11.65 5.65,12.0896564 5.65,12.632 L5.65,24.056 C5.65,24.5983436 6.08965638,25.038 6.632,25.038 L32.744,25.038 C33.2863436,25.038 33.726,24.5983436 33.726,24.056 L33.726,18.344 C33.726,14.6470059 30.7289941,11.65 27.032,11.65 L6.632,11.65 Z" id="Combined-Shape" fill="#404040" fill-rule="nonzero"></path>
        <polygon id="Path-46" fill="#404040" fill-rule="nonzero" points="5 18.586 34.376 18.586 34.376 17.286 5 17.286"></polygon>
        <path d="M5,21.85 L9.08,21.85 C9.43898509,21.85 9.73,21.5589851 9.73,21.2 C9.73,20.8410149 9.43898509,20.55 9.08,20.55 L5,20.55 C4.64101491,20.55 4.35,20.8410149 4.35,21.2 C4.35,21.5589851 4.64101491,21.85 5,21.85 Z" id="Path-46-Copy" fill="#404040" fill-rule="nonzero"></path>
        <path d="M32.336,21.85 L34.376,21.85 C34.7349851,21.85 35.026,21.5589851 35.026,21.2 C35.026,20.8410149 34.7349851,20.55 34.376,20.55 L32.336,20.55 C31.9770149,20.55 31.686,20.8410149 31.686,21.2 C31.686,21.5589851 31.9770149,21.85 32.336,21.85 Z" id="Path-46-Copy-2" fill="#404040" fill-rule="nonzero"></path>
        <path d="M14.452,21.85 L25.0939801,21.85 C25.4529652,21.85 25.7439801,21.5589851 25.7439801,21.2 C25.7439801,20.8410149 25.4529652,20.55 25.0939801,20.55 L14.452,20.55 C14.0930149,20.55 13.802,20.8410149 13.802,21.2 C13.802,21.5589851 14.0930149,21.85 14.452,21.85 Z" id="Path-46-Copy-3" fill="#404040" fill-rule="nonzero"></path>
        <polygon id="Path-47" fill="#404040" fill-rule="nonzero" points="12.102 11 12.102 18.344 13.402 18.344 13.402 11"></polygon>
        <polygon id="Path-47-Copy" fill="#404040" fill-rule="nonzero" points="19.038 11 19.038 18.344 20.338 18.344 20.338 11"></polygon>
        <polygon id="Path-47-Copy-2" fill="#404040" fill-rule="nonzero" points="25.566 11 25.566 18.344 26.866 18.344 26.866 11"></polygon>
        <path d="M11.528,29.602 C13.2389782,29.602 14.626,28.2149782 14.626,26.504 C14.626,24.7930218 13.2389782,23.406 11.528,23.406 C9.81702185,23.406 8.43,24.7930218 8.43,26.504 C8.43,28.2149782 9.81702185,29.602 11.528,29.602 Z" id="Oval-Copy" fill="#404040" fill-rule="nonzero"></path>
        <path d="M28.098,29.602 C29.8089782,29.602 31.196,28.2149782 31.196,26.504 C31.196,24.7930218 29.8089782,23.406 28.098,23.406 C26.3870218,23.406 25,24.7930218 25,26.504 C25,28.2149782 26.3870218,29.602 28.098,29.602 Z" id="Oval-Copy-2" fill="#404040" fill-rule="nonzero"></path>
        <path d="M11.528,28.302 C10.534992,28.302 9.73,27.497008 9.73,26.504 C9.73,25.510992 10.534992,24.706 11.528,24.706 C12.521008,24.706 13.326,25.510992 13.326,26.504 C13.326,27.497008 12.521008,28.302 11.528,28.302 Z" id="Path" fill="#FAA90D" fill-rule="nonzero"></path>
        <path d="M28.098,28.302 C27.104992,28.302 26.3,27.497008 26.3,26.504 C26.3,25.510992 27.104992,24.706 28.098,24.706 C29.091008,24.706 29.896,25.510992 29.896,26.504 C29.896,27.497008 29.091008,28.302 28.098,28.302 Z" id="Path-Copy" fill="#FAA90D" fill-rule="nonzero"></path>
        <path d="M2.12088876,30.2 L38.1208888,30.2 C38.4522596,30.2 38.7208888,29.9313708 38.7208888,29.6 C38.7208888,29.2686292 38.4522596,29 38.1208888,29 L2.12088876,29 C1.78951791,29 1.52088876,29.2686292 1.52088876,29.6 C1.52088876,29.9313708 1.78951791,30.2 2.12088876,30.2 Z" id="Path-25" fill="#404040" fill-rule="nonzero"></path>
        <rect id="Rectangle" x="0" y="0" width="40" height="32"></rect>
    </g>
</svg>