<?xml version="1.0" encoding="UTF-8"?>
<svg width="160px" height="49px" viewBox="0 0 160 49" version="1.1" xmlns="http://www.w3.org/2000/svg" xmlns:xlink="http://www.w3.org/1999/xlink">
    <!-- Generator: sketchtool 60 (101010) - https://sketch.com -->
    <title>8AED3D0B-D297-49A0-A4EC-92EEA85E19DB</title>
    <desc>Created with sketchtool.</desc>
    <defs>
        <linearGradient x1="50%" y1="0%" x2="50%" y2="100%" id="linearGradient-1">
            <stop stop-color="#1E79AF" offset="0%"></stop>
            <stop stop-color="#63FFD3" offset="100%"></stop>
        </linearGradient>
        <linearGradient x1="84.7178118%" y1="28.6817001%" x2="5.24419544%" y2="77.9185938%" id="linearGradient-2">
            <stop stop-color="#DC4057" offset="0%"></stop>
            <stop stop-color="#9E36BB" offset="100%"></stop>
        </linearGradient>
        <linearGradient x1="50%" y1="0%" x2="50%" y2="97.8256537%" id="linearGradient-3">
            <stop stop-color="#FF9676" offset="0%"></stop>
            <stop stop-color="#FFD074" offset="100%"></stop>
        </linearGradient>
        <linearGradient x1="17.4435371%" y1="20.0211437%" x2="100%" y2="79.9788563%" id="linearGradient-4">
            <stop stop-color="#51C6AD" offset="0%"></stop>
            <stop stop-color="#D5FFA1" offset="100%"></stop>
        </linearGradient>
    </defs>
    <g id="Desktop---Home" stroke="none" stroke-width="1" fill="none" fill-rule="evenodd">
        <g id="Desktop_Home_Phase_03_Flight_Hotel_01_Default" transform="translate(-1115.000000, -2928.000000)">
            <g id="Donwload" transform="translate(0.000000, 2862.000000)">
                <g id="Appstore_Androind_Donwload" transform="translate(925.000000, 66.368715)">
                    <g id="Androind" transform="translate(190.000000, 0.000000)">
                        <g id="google-play">
                            <rect id="bg" fill="#000000" x="0" y="0" width="160" height="48.2681564" rx="5"></rect>
                            <g transform="translate(19.000000, 18.832027)">
                                <path d="M0.885967031,0.860481804 C0.487022812,0.986903572 0.228846276,1.39606171 0.228846276,2.01509244 L0.2313051,21.4977457 C0.2313051,22.109926 0.481490458,22.5128564 0.869369968,22.6473742 L11.6297992,11.7452093 L0.885967031,0.860481804" id="left" fill="url(#linearGradient-1)"></path>
                                <path d="M0.869369968,22.6473742 C1.14844651,22.7432804 1.49821424,22.6984411 1.87933199,22.4867002 L15.0106824,15.1704296 L11.6297992,11.7452093 L0.869369968,22.6473742" id="bottom" fill="url(#linearGradient-2)"></path>
                                <path d="M15.0125265,15.1704296 L19.4900453,12.6762464 C20.3979661,12.168691 20.3979661,11.3429016 19.4900453,10.8365917 L14.9959294,8.33306704 L11.6297992,11.743341 L15.0125265,15.1704296" id="right" fill="url(#linearGradient-3)"></path>
                                <path d="M14.9953147,8.33306704 L1.87933199,1.02676068 C1.50743483,0.820624694 1.16442887,0.77267161 0.886581737,0.860481804 L11.6297992,11.743341 L14.9953147,8.33306704" id="top" fill="url(#linearGradient-4)"></path>
                            </g>
                            <path d="M90.3927496,26.2807641 L89.0637551,27.0405403 L87.7753312,27.0405403 C88.2517284,27.4372431 89.2457081,28.2792245 89.2457081,29.876 C89.2457081,31.4322955 88.3795873,32.1659154 87.50609,32.860301 C87.2380782,33.1336959 86.9245781,33.4301331 86.9245781,33.8884899 C86.9245781,34.3536971 87.2380782,34.6059179 87.4636753,34.7939936 L88.2130019,35.3800177 C89.1239963,36.1590996 89.9544641,36.8734137 89.9544641,38.3244616 C89.9544641,40.3011251 88.0660872,42.2946034 84.4977187,42.2946034 C81.4918061,42.2946034 80.0386411,40.8441782 80.0386411,39.2891282 C80.0386411,38.5324659 80.4105382,37.4606833 81.6374915,36.7264406 C82.9234565,35.9299212 84.6655334,35.823428 85.5986572,35.7611513 C85.3072865,35.3800177 84.9747305,34.9808238 84.9747305,34.3294092 C84.9747305,33.9731862 85.08046,33.7608226 85.1825012,33.5104701 C84.9556747,33.532267 84.727004,33.5546866 84.5192334,33.5546866 C82.3192005,33.5546866 81.0756501,31.8918978 81.0756501,30.253397 C81.0756501,29.2868621 81.510862,28.2144567 82.4046446,27.4372431 C83.587339,26.4507796 84.9974747,26.2807641 86.1180838,26.2807641 L90.3927496,26.2807641 Z M85.9652429,36.3481484 L85.8279425,36.3477981 C85.6398425,36.3477981 84.5192334,36.3889007 83.6512684,36.6840924 C83.192083,36.8541079 81.8649327,37.3566812 81.8649327,38.8494545 C81.8649327,40.3391139 83.2978125,41.4133876 85.5144424,41.4133876 C87.50609,41.4133876 88.5633844,40.4462299 88.5633844,39.1440234 C88.5633844,38.0722408 87.8792166,37.5067681 86.3055691,36.3702177 C86.1778639,36.353403 86.0885395,36.3491993 85.9652429,36.3481484 Z M131.756319,26.211637 L135.301943,34.8270003 L138.813144,26.211637 L140.000142,26.211637 L134.958937,38.2397652 C134.435822,39.4790722 133.612731,40.0750606 132.482287,40.0750606 C132.142969,40.0750606 131.695463,40.0140294 131.433598,39.9324469 L131.613707,38.9515883 C131.838075,39.0530994 132.221037,39.1153761 132.463845,39.1153761 C133.105599,39.1153761 133.55249,38.8494545 133.953893,37.9103213 L134.719202,36.1534947 L130.585919,26.211637 L131.756319,26.211637 Z M113.003482,25.9656439 C115.605532,25.9656439 117.358059,27.9653498 117.358059,31.1308761 C117.358059,34.2752284 115.605532,36.3166597 113.003482,36.3166597 C111.633917,36.3166597 110.406963,35.6011001 109.62014,34.4794961 L109.62014,39.8321813 L108.570837,39.8321813 L108.570837,26.211637 L109.62014,26.211637 L109.62014,27.7629504 C110.303693,26.760295 111.552775,25.9656439 113.003482,25.9656439 Z M51.9539516,21.8279777 C53.0032548,21.8279777 54.0126021,21.9842923 54.9322024,22.2383814 C56.3896704,22.6531444 57.0713794,23.1644364 57.4973707,23.4639875 L55.8819232,25.0184148 L55.2008289,25.1728611 L55.6864467,24.388797 C55.0287112,23.7380051 53.8195844,22.5366869 51.5248868,22.5366869 C48.456889,22.5366869 46.1425207,24.8994662 46.1425207,28.3489745 C46.1425207,32.0538173 48.785142,35.5388233 53.0235401,35.5388233 C54.2689345,35.5388233 54.9100729,35.285357 55.4921996,35.0487054 L55.4921996,31.872592 L52.5557488,32.0326432 L54.1121845,31.1856797 L58.2331738,31.1856797 L57.7291148,31.6770431 C57.5932648,31.7941233 57.5748236,31.8339805 57.5367118,31.9909178 C57.5164265,32.1702748 57.4973707,32.7407297 57.4973707,32.9412608 L57.4973707,35.3432744 L54.7164405,35.9884613 C53.5896844,36.1684411 52.5778782,36.326624 51.5064456,36.326624 C46.1425207,36.326624 44.0986231,32.3265894 44.0986231,29.195938 C44.0986231,25.3727694 46.9945033,21.8279777 51.9539516,21.8279777 Z M125.675032,25.9612845 C126.819,25.9612845 127.744747,26.2402843 128.442439,26.7970383 C129.139515,27.3481874 129.489283,28.1447068 129.489283,29.1859738 L129.489283,34.0497866 C129.489283,34.3991591 129.50588,34.736699 129.548909,35.0655201 C129.593168,35.3949641 129.663859,35.7237852 129.75791,36.0420193 L128.548783,36.0420193 C128.478706,35.7001201 128.425842,35.3987007 128.387115,35.1471027 C128.35515,34.8961274 128.336709,34.6395473 128.336709,34.3786078 C127.977106,34.9135649 127.467515,35.3588436 126.816541,35.7094616 C126.164953,36.0625706 125.545944,36.2357 124.697035,36.2357 C123.674779,36.2357 122.881193,35.9809881 122.315049,35.4640912 C121.750749,34.9478171 121.466754,34.2484494 121.466754,33.363497 C121.466754,32.4797902 121.877993,31.7623622 122.698011,31.2137042 C123.518029,30.6625551 124.577782,30.3885375 125.889564,30.3885375 L128.336709,30.3885375 L128.336709,29.1635541 C128.336709,28.4579587 128.099433,27.903073 127.625494,27.5007653 C127.149712,27.0978349 126.482141,26.89419 125.616635,26.89419 C124.825508,26.89419 124.183755,27.0803974 123.695064,27.442848 C123.210675,27.8127718 122.966637,28.2711285 122.966637,28.8235232 L121.892746,28.8235232 L121.870616,28.7705879 C121.83189,28.0257582 122.168134,27.3724753 122.883037,26.8082481 C123.594867,26.2446436 124.527376,25.9612845 125.675032,25.9612845 Z M99.8278725,26.0092376 C100.574126,26.0092376 101.340664,26.1985589 101.963976,26.5977527 C103.00037,27.2921383 103.268382,28.1945282 103.417141,28.6777956 L98.5406781,30.6737649 L96.9436718,30.7995639 C97.4606396,33.4712358 99.2445165,35.0250403 101.215879,35.0250403 C102.200638,35.0250403 102.931523,34.699333 103.602168,34.3636614 C103.602168,34.3636614 103.736788,34.2926659 103.640894,34.3898176 L102.648759,35.3382922 C102.419473,35.4659595 102.191417,35.6141782 101.963976,35.7194258 C101.274891,36.0364144 100.574126,36.1161286 99.9514284,36.1161286 C99.2887753,36.1161286 98.2499221,36.0725349 97.1901689,35.2959441 C95.717948,34.2453356 95.0743507,32.4393103 95.0743507,30.8655773 C95.0743507,27.6072586 97.6923838,26.0092376 99.8278725,26.0092376 Z M64.1878312,26.0092376 C67.2355437,26.0092376 69.1435912,28.4280659 69.1435912,30.9677111 C69.1435912,33.4481934 67.2582878,36.0725349 63.8749458,36.0725349 C60.5770479,36.0725349 58.8159151,33.4712358 58.8159151,31.1159297 C58.8159151,28.3639209 61.0343892,26.0092376 64.1878312,26.0092376 Z M75.2254928,26.0092376 C78.2750494,26.0092376 80.1849411,28.4280659 80.1849411,30.9677111 C80.1849411,33.4481934 78.2971788,36.0725349 74.9144515,36.0725349 C71.6171683,36.0725349 69.852962,33.4712358 69.852962,31.1159297 C69.852962,28.3639209 72.0708214,26.0092376 75.2254928,26.0092376 Z M119.839628,22.450745 L119.839628,36.0712894 L118.790939,36.0712894 L118.790939,22.450745 L119.839628,22.450745 Z M94.3674388,20.965445 C93.7244563,21.342842 93.5320533,21.5726431 93.4496827,22.3081313 L93.444765,34.2272753 C93.444765,35.0437233 93.5886062,35.1707678 94.2703152,35.2349129 C94.6256153,35.277261 94.979686,35.2959441 95.3300684,35.3382922 L94.5629153,35.8010084 L90.9072585,35.8010084 C91.3867292,35.1707678 91.4690998,35.1078683 91.4690998,34.6881231 L91.4690998,34.2191793 L91.4611086,21.7239756 L89.8468906,21.7239756 L91.4008675,20.965445 L94.3674388,20.965445 Z M63.648734,26.661275 C62.9621073,26.661275 62.2803983,26.9321788 61.7824864,27.3743436 C60.9710745,28.1098318 60.8272333,29.0340185 60.8272333,29.9407678 C60.8272333,32.0170741 61.8445718,35.4416716 64.3544165,35.4416716 C65.1639844,35.4416716 65.990764,35.0437233 66.46962,34.3723801 C66.9675319,33.6997914 67.0917025,32.860301 67.0917025,32.0419847 C67.0917025,30.1911202 66.2188199,26.661275 63.648734,26.661275 Z M74.6888544,26.661275 C74.0046866,26.661275 73.3156011,26.9321788 72.8189186,27.3743436 C72.0087361,28.1098318 71.8642802,29.0340185 71.8642802,29.9407678 C71.8642802,32.0170741 72.8773157,35.4416716 75.3914634,35.4416716 C76.2028754,35.4416716 77.0308844,35.0437233 77.508511,34.3723801 C78.0101111,33.6997914 78.1318229,32.860301 78.1318229,32.0419847 C78.1318229,30.1911202 77.2613992,26.661275 74.6888544,26.661275 Z M112.826446,26.9253283 C111.474708,26.9253283 110.181981,28.0014703 109.62014,28.9399807 L109.62014,33.2999748 C110.181981,34.2403534 111.474708,35.3557297 112.826446,35.3557297 C115.00312,35.3557297 116.230688,33.5204344 116.230688,31.1308761 C116.230688,28.7450545 115.00312,26.9253283 112.826446,26.9253283 Z M128.336709,31.2323872 L125.877885,31.2323872 C124.938614,31.2323872 124.161011,31.4428826 123.549379,31.8676099 C122.936517,32.2910917 122.62609,32.8036292 122.62609,33.3996175 C122.62609,33.9619764 122.822796,34.4116144 123.213749,34.7522682 C123.605931,35.0966585 124.141955,35.2672968 124.825508,35.2672968 C125.716832,35.2672968 126.357356,35.0655201 127.012018,34.6663263 C127.662377,34.2696235 128.104965,33.7521038 128.336709,33.1255999 L128.336709,31.2323872 Z M84.8093746,26.9757725 C84.2715068,26.9757725 83.6887655,27.2491673 83.3580537,27.6720264 C83.0070565,28.1098318 82.9019418,28.6777956 82.9019418,29.2239626 C82.9019418,30.6314167 83.7121243,32.9655487 85.4941571,32.9655487 C86.0141984,32.9655487 86.5735809,32.7095913 86.901834,32.3770336 C87.3813047,31.8918978 87.4231047,31.2218002 87.4231047,30.8412893 C87.4231047,29.329833 86.533625,26.9757725 84.8093746,26.9757725 Z M99.2445165,26.7023776 C98.4158928,26.7023776 96.8600718,27.3562833 96.8600718,29.626893 C96.8600718,29.9812476 96.9018718,30.3586446 96.9227718,30.7360416 L100.698911,29.0757439 C101.094782,28.9300164 101.300708,28.8042174 101.300708,28.5115167 C101.300708,27.6720264 100.363281,26.7023776 99.2445165,26.7023776 Z" id="logotype" fill="#FFFFFF"></path>
                            <path d="M47.5301991,7.74459924 C48.8337682,7.74459924 49.6856922,8.36951676 50.2175183,9.13477325 L49.2647415,9.68920662 C48.9039266,9.18511908 48.2718741,8.79305099 47.5301991,8.79305099 C46.2072112,8.79305099 45.2237401,9.79996743 45.2237401,11.2203489 C45.2237401,12.6199628 46.2072112,13.6476469 47.5301991,13.6476469 C48.2123647,13.6476469 48.8137229,13.3355028 49.114402,13.043497 L49.114402,12.0057438 L47.1092484,12.0057438 L47.1092484,10.9679905 L50.2776541,10.9679905 L50.2776541,13.4764711 C49.6261828,14.2121494 48.6834286,14.7055385 47.5301991,14.7055385 C45.584555,14.7055385 44.0203974,13.326063 44.0203974,11.2203489 C44.0203974,9.10519508 45.584555,7.74459924 47.5301991,7.74459924 Z M81.6773186,7.74459924 C83.671823,7.74459924 85.0962901,9.21532657 85.0962901,11.2203489 C85.0962901,13.224742 83.671823,14.6954693 81.6773186,14.6954693 C79.6709122,14.6954693 78.2577206,13.224742 78.2577206,11.2203489 C78.2577206,9.21532657 79.6709122,7.74459924 81.6773186,7.74459924 Z M56.3106543,7.85536004 L56.3106543,8.89374263 L52.901079,8.89374263 L52.901079,10.6256389 L56.2404959,10.6256389 L56.2404959,11.6633922 L52.901079,11.6633922 L52.901079,13.5368861 L56.3106543,13.5368861 L56.3106543,14.5746394 L51.7284306,14.5746394 L51.7284306,7.85536004 L56.3106543,7.85536004 Z M62.755209,7.85536004 L62.755209,8.89374263 L60.7300102,8.89374263 L60.7300102,14.5746394 L59.5567354,14.5746394 L59.5567354,8.89374263 L57.5315366,8.89374263 L57.5315366,7.85536004 L62.755209,7.85536004 Z M68.0051908,7.85536004 L68.0051908,14.5746394 L66.8325424,14.5746394 L66.8325424,7.85536004 L68.0051908,7.85536004 Z M74.4710436,7.85536004 L74.4710436,8.89374263 L72.4458448,8.89374263 L72.4458448,14.5746394 L71.27257,14.5746394 L71.27257,8.89374263 L69.2473712,8.89374263 L69.2473712,7.85536004 L74.4710436,7.85536004 Z M87.6696018,7.85536004 L91.0885734,12.5098313 L91.0885734,7.85536004 L92.2618481,7.85536004 L92.2618481,14.5746394 L91.1286639,14.5746394 L87.6389075,9.76975994 L87.6389075,14.5746394 L86.4662591,14.5746394 L86.4662591,7.85536004 L87.6696018,7.85536004 Z M81.6773186,8.79305099 C80.3230099,8.79305099 79.4610633,9.83017492 79.4610633,11.2203489 C79.4610633,12.5998245 80.3230099,13.6476469 81.6773186,13.6476469 C83.0203517,13.6476469 83.8929474,12.5998245 83.8929474,11.2203489 C83.8929474,9.83017492 83.0203517,8.79305099 81.6773186,8.79305099 Z" id="get-it-on" fill="#FFFFFF"></path>
                        </g>
                    </g>
                </g>
            </g>
        </g>
    </g>
</svg>