<?xml version="1.0" encoding="UTF-8"?>
<svg width="160px" height="49px" viewBox="0 0 160 49" version="1.1" xmlns="http://www.w3.org/2000/svg" xmlns:xlink="http://www.w3.org/1999/xlink">
    <!-- Generator: sketchtool 60 (101010) - https://sketch.com -->
    <title>65781F20-372E-4463-84B7-8CCAD904BB61</title>
    <desc>Created with sketchtool.</desc>
    <g id="Desktop---Home" stroke="none" stroke-width="1" fill="none" fill-rule="evenodd">
        <g id="Desktop_Home_Phase_03_Flight_Hotel_01_Default" transform="translate(-925.000000, -2928.000000)">
            <g id="Donwload" transform="translate(0.000000, 2862.000000)">
                <g id="Appstore_Androind_Donwload" transform="translate(925.000000, 66.368715)">
                    <g id="Appstore">
                        <rect id="bg" fill="#000000" x="0" y="0" width="160" height="48.2681564" rx="5"></rect>
                        <path d="M65.7944647,35.2908307 L63.3854435,35.2908307 L62.0658388,31.1200047 L57.4790455,31.1200047 L56.2220265,35.2908307 L53.8766519,35.2908307 L58.4210142,21.0914569 L61.2278262,21.0914569 L65.7944647,35.2908307 L65.7944647,35.2908307 Z M73.2708105,24.8418926 C74.4716084,24.8418926 75.4740412,25.3188328 76.2759875,26.2737802 C77.0800554,27.2297945 77.4810285,28.4866973 77.4810285,30.0455555 C77.4810285,31.7868674 77.0132265,33.163272 76.0776225,34.1737023 C75.2396099,35.0731667 74.1989891,35.5223654 72.956821,35.5223654 C71.6160007,35.5223654 70.6528166,35.0379564 70.0662077,34.0691383 L70.0237767,34.0691383 L70.0237767,39.4627237 L67.7622033,39.4627237 L67.7622033,28.4226785 C67.7622033,27.3279567 67.7335624,26.2044265 67.678402,25.0520877 L69.6673561,25.0520877 L69.7935884,26.6749648 L69.8360194,26.6749648 C70.5902308,25.4522054 71.7348076,24.8418926 73.2708105,24.8418926 Z M84.9796506,24.8418926 C86.1793877,24.8418926 87.1818205,25.3188328 87.9858884,26.2737802 C88.7867739,27.2297945 89.1888078,28.4866973 89.1888078,30.0455555 C89.1888078,31.7868674 88.7210058,33.163272 87.784341,34.1737023 C86.9473891,35.0731667 85.9067684,35.5223654 84.6646002,35.5223654 C83.32378,35.5223654 82.3605958,35.0379564 81.7750478,34.0691383 L81.7326167,34.0691383 L81.7326167,39.4627237 L79.4710434,39.4627237 L79.4710434,28.4226785 C79.4710434,27.3279567 79.4424024,26.2044265 79.3872421,25.0520877 L81.3761962,25.0520877 L81.5024285,26.6749648 L81.5448595,26.6749648 C82.2980101,25.4522054 83.4425869,24.8418926 84.9796506,24.8418926 Z M116.100682,24.8429596 C117.594254,24.8429596 118.796113,25.3412394 119.703076,26.338866 C120.57079,27.3066171 121.003587,28.556051 121.003587,30.0871678 C121.003587,31.6609637 120.55594,32.9530769 119.662767,33.9635072 C118.726102,35.003813 117.482873,35.5223654 115.93308,35.5223654 C114.439508,35.5223654 113.250379,35.0240856 112.36357,34.027526 C111.476762,33.0309664 111.033358,31.7729966 111.033358,30.2568176 C111.033358,28.6702179 111.489491,27.3706359 112.404941,26.3602056 C113.318268,25.3487083 114.550889,24.8429596 116.100682,24.8429596 Z M98.5310577,20.8833957 C99.8156568,20.8833957 100.882797,21.1085286 101.7346,21.5577273 L101.169206,23.412139 C100.373625,22.9768111 99.4740871,22.7591471 98.4674112,22.7591471 C97.6718295,22.7591471 97.0502151,22.9565384 96.6046894,23.3491872 C96.2281141,23.7002237 96.039296,24.1280828 96.039296,24.6348984 C96.039296,25.1961301 96.2546335,25.6602665 96.6874299,26.0251738 C97.0640052,26.3623395 97.7482054,26.7272468 98.7410912,27.1209625 C99.9556792,27.6128405 100.847791,28.1879428 101.421671,28.8473367 C101.993429,29.5045965 102.278778,30.3272383 102.278778,31.3088602 C102.278778,32.5166819 101.861893,33.4993708 101.024941,34.2579938 C100.105249,35.0870375 98.8248925,35.5010258 97.1796297,35.5010258 C95.6605992,35.5010258 94.4428289,35.2065393 93.521015,34.6164991 L94.0450381,32.7204752 C95.0379239,33.324386 96.1273404,33.6274084 97.3143482,33.6274084 C98.1661509,33.6274084 98.8291356,33.433218 99.3054238,33.0469711 C99.7795905,32.6607243 100.016143,32.1421718 100.016143,31.4955818 C100.016143,30.9194124 99.8209607,30.4339364 99.4295346,30.0402206 C99.0402299,29.6465049 98.3899746,29.2805307 97.4819507,28.9422979 C95.0103438,28.015092 93.7756011,26.6568261 93.7756011,24.8707011 C93.7756011,23.7034246 94.2083975,22.7463433 95.0750511,22.0015911 C95.9385224,21.2557718 97.0905246,20.8833957 98.5310577,20.8833957 Z M107.263362,22.5009378 L107.263362,25.0499538 L109.756184,25.0499538 L109.756184,26.7592562 L107.263362,26.7592562 L107.263362,31.7303174 C107.263362,32.9946891 107.702523,33.6263414 108.582966,33.6263414 C108.987122,33.6263414 109.322327,33.5911311 109.587521,33.5207104 L109.650107,35.2481515 C109.204581,35.4156674 108.617972,35.4999588 107.891341,35.4999588 C106.998168,35.4999588 106.300178,35.2257449 105.796309,34.678384 C105.294562,34.1299561 105.042098,33.2102191 105.042098,31.918106 L105.042098,26.7571223 L103.557012,26.7571223 L103.557012,25.0499538 L105.042098,25.0499538 L105.042098,23.1752694 L107.263362,22.5009378 Z M134.239944,24.822687 C135.706996,24.822687 136.817628,25.3700479 137.57184,26.4647697 C138.169056,27.3343586 138.469256,28.4098747 138.469256,29.6870502 C138.469256,30.0946366 138.442736,30.4382043 138.386515,30.7188201 L131.601795,30.7188201 C131.628314,31.7303174 131.956094,32.5038782 132.586195,33.0373683 C133.157953,33.5143085 133.897313,33.7533121 134.805337,33.7533121 C135.809891,33.7533121 136.726401,33.5921981 137.550624,33.268903 L137.904923,34.8480339 C136.941739,35.2705581 135.804588,35.4807532 134.492408,35.4807532 C132.913974,35.4807532 131.674988,35.0134158 130.773329,34.0798081 C129.873792,33.1462003 129.422962,31.8924984 129.422962,30.3197695 C129.422962,28.775849 129.841968,27.4901377 130.681042,26.4647697 C131.559364,25.3700479 132.746372,24.822687 134.239944,24.822687 Z M127.789368,24.8418926 C127.998341,24.8418926 128.187159,24.8568303 128.354761,24.8835049 L128.354761,27.0526758 C128.130937,27.0110636 127.892263,26.989724 127.64192,26.989724 C126.846338,26.989724 126.231089,27.2916794 125.798292,27.8966572 C125.421717,28.4301474 125.232899,29.1044789 125.232899,29.9185849 L125.232899,35.2908307 L122.972386,35.2908307 L122.993602,28.2765022 C122.993602,27.096422 122.964961,26.0219728 122.90874,25.0531547 L124.8786,25.0531547 L124.96134,27.0121305 L125.023926,27.0121305 C125.262601,26.338866 125.639176,25.79684 126.154713,25.3903205 C126.658581,25.0243463 127.202759,24.8418926 127.789368,24.8418926 Z M116.020064,26.5063819 C115.110979,26.5063819 114.420414,26.9150353 113.946247,27.7312753 C113.53997,28.4077408 113.339484,29.2303826 113.339484,30.2034686 C113.339484,31.1477462 113.53997,31.9575842 113.946247,32.6319158 C114.435265,33.4492227 115.118404,33.8568092 115.999909,33.8568092 C116.86338,33.8568092 117.541216,33.4406869 118.030233,32.6105762 C118.447118,31.9223739 118.657151,31.104 118.657151,30.1607894 C118.657151,29.2165118 118.456665,28.4066738 118.050388,27.7312753 C117.576221,26.9139684 116.898386,26.5063819 116.020064,26.5063819 Z M72.5378146,26.6525582 C71.9798467,26.6525582 71.472796,26.8403467 71.0198449,27.2105889 C70.565833,27.584032 70.2688158,28.071642 70.1298542,28.6755528 C70.059843,28.9572356 70.0248375,29.1877034 70.0248375,29.36909 L70.0248375,31.0762585 C70.0248375,31.8210108 70.2518434,32.4494622 70.7058553,32.9626797 C71.1598672,33.4758972 71.7496584,33.7319725 72.4752289,33.7319725 C73.3270316,33.7319725 73.9900163,33.4012086 74.464183,32.7418148 C74.9394104,32.081354 75.1770241,31.210698 75.1770241,30.12878 C75.1770241,29.1322204 74.9542612,28.3106456 74.506614,27.6640555 C74.0175965,26.989724 73.3609764,26.6525582 72.5378146,26.6525582 Z M84.2455939,26.6525582 C83.6865652,26.6525582 83.1805753,26.8403467 82.7265634,27.2105889 C82.2725515,27.584032 81.9765951,28.071642 81.8376335,28.6755528 C81.7686831,28.9572356 81.7326167,29.1877034 81.7326167,29.36909 L81.7326167,31.0762585 C81.7326167,31.8210108 81.9596227,32.4494622 82.4115131,32.9626797 C82.865525,33.4748302 83.4553162,33.7319725 84.1830082,33.7319725 C85.0348109,33.7319725 85.6977956,33.4012086 86.1719622,32.7418148 C86.6471897,32.081354 86.8848034,31.210698 86.8848034,30.12878 C86.8848034,29.1322204 86.6609798,28.3106456 86.2133325,27.6640555 C85.724315,26.989724 85.0698165,26.6525582 84.2455939,26.6525582 Z M59.7628952,22.9874809 C60.1118903,24.3916269 60.3484433,25.2836225 60.4746756,25.6624005 L60.4746756,25.6624005 L61.668048,29.370157 L57.8778971,29.370157 L59.050054,25.6624005 C59.3576789,24.4833872 59.5815026,23.5913917 59.7204642,22.9874809 L59.7204642,22.9874809 Z M134.07128,26.3996839 C133.33192,26.3996839 132.73046,26.7080412 132.271144,27.3268897 C131.894569,27.8187677 131.670745,28.4088078 131.601795,29.0959431 L136.312699,29.0959431 C136.32755,28.4226785 136.180102,27.8401073 135.873538,27.3482293 C135.482112,26.71551 134.880652,26.3996839 134.07128,26.3996839 Z" id="app-store" fill="#FFFFFF"></path>
                        <path d="M64.7273246,10.8772545 C65.4613812,10.8772545 66.0511724,11.1215929 66.4977589,11.6113369 C66.9220691,12.0872101 67.135285,12.7017908 67.135285,13.4529449 C67.135285,14.2265056 66.9157044,14.8602919 66.4765434,15.3575047 C66.0161668,15.8685883 65.4062209,16.1235966 64.6445841,16.1235966 C63.9105274,16.1235966 63.3260401,15.8792581 62.8900614,15.3884472 C62.4551434,14.8987032 62.2376844,14.2809216 62.2376844,13.5361694 C62.2376844,12.7572737 62.4615081,12.1181525 62.9112769,11.6220067 C63.3610457,11.1258609 63.9656877,10.8772545 64.7273246,10.8772545 Z M88.4335356,10.8772545 C89.1686531,10.8772545 89.7573835,11.1215929 90.2050307,11.6113369 C90.6293409,12.0872101 90.8425568,12.7017908 90.8425568,13.4529449 C90.8425568,14.2265056 90.6229763,14.8602919 90.1838152,15.3575047 C89.7234386,15.8685883 89.112432,16.1235966 88.3518559,16.1235966 C87.6167385,16.1235966 87.0322512,15.8792581 86.5973332,15.3884472 C86.1624153,14.8987032 85.9449563,14.2809216 85.9449563,13.5361694 C85.9449563,12.7572737 86.1687799,12.1181525 86.6185487,11.6220067 C87.0683176,11.1258609 87.6729596,10.8772545 88.4335356,10.8772545 Z M94.1882428,10.8772545 C95.4951182,10.8772545 96.1506775,11.5707916 96.1506775,12.957866 L96.1506775,14.8101438 C96.1506775,15.3126916 96.1750753,15.7128092 96.2228102,16.0094297 L95.2246204,16.0094297 L95.1418799,15.4300594 L95.1111175,15.4300594 C94.7695477,15.8920619 94.2826518,16.1235966 93.6504296,16.1235966 C93.1783845,16.1235966 92.7965053,15.9710184 92.5090351,15.667996 C92.2480844,15.3927151 92.117609,15.0502144 92.117609,14.6436949 C92.117609,14.0291143 92.3721951,13.5607099 92.8845497,13.2363479 C93.3958435,12.9119859 94.1150493,12.7530058 95.0411063,12.7604747 L95.0411063,12.6665804 C95.0411063,12.0039857 94.6952935,11.6732218 94.002607,11.6732218 C93.5093464,11.6732218 93.0744285,11.7980585 92.6989139,12.0455979 L92.4729688,11.3115154 C92.9375884,11.0223638 93.511468,10.8772545 94.1882428,10.8772545 Z M102.50048,8.67180617 L102.50048,14.6543647 C102.50048,15.1441087 102.513209,15.5954413 102.539728,16.0094297 L101.553207,16.0094297 L101.501229,15.2017256 L101.470467,15.2017256 C101.155416,15.8163063 100.618664,16.1235966 99.8644525,16.1235966 C99.261932,16.1235966 98.7601852,15.88566 98.3623944,15.4097868 C97.9646036,14.9339136 97.7662386,14.316132 97.7662386,13.557509 C97.7662386,12.743403 97.981576,12.0840092 98.4143724,11.5803945 C98.8333787,11.1109231 99.3467941,10.8761875 99.9578008,10.8761875 C100.629272,10.8761875 101.099195,11.1034543 101.366511,11.5590549 L101.387726,11.5590549 L101.387726,8.67180617 L102.50048,8.67180617 Z M109.64056,10.8772545 C110.373555,10.8772545 110.964407,11.1215929 111.409933,11.6113369 C111.834243,12.0872101 112.047459,12.7017908 112.047459,13.4529449 C112.047459,14.2265056 111.827879,14.8602919 111.388718,15.3575047 C110.928341,15.8685883 110.319456,16.1235966 109.556758,16.1235966 C108.823762,16.1235966 108.239275,15.8792581 107.802236,15.3884472 C107.367318,14.8987032 107.149859,14.2809216 107.149859,13.5361694 C107.149859,12.7572737 107.373682,12.1181525 107.823451,11.6220067 C108.27322,11.1258609 108.877862,10.8772545 109.64056,10.8772545 Z M124.281383,9.72704969 L124.281383,10.9786176 L125.505518,10.9786176 L125.505518,11.8172641 L124.282444,11.8172641 L124.282444,14.260649 C124.282444,14.8816315 124.499903,15.1921228 124.930578,15.1921228 C125.130004,15.1921228 125.295485,15.1750511 125.42596,15.1398408 L125.454601,15.9880901 C125.23502,16.0713146 124.946489,16.1129268 124.59113,16.1129268 C124.151969,16.1129268 123.810399,15.9784873 123.563238,15.7096082 C123.315017,15.4407292 123.191967,14.9883296 123.191967,14.3534763 L123.191967,11.8172641 L122.461092,11.8172641 L122.461092,10.9796846 L123.191967,10.9796846 L123.191967,10.0578136 L124.281383,9.72704969 Z M135.382399,10.8676516 C136.101605,10.8676516 136.647904,11.1365307 137.017054,11.6742887 C137.315132,12.1010809 137.46258,12.6292361 137.46258,13.2566205 C137.46258,13.4572128 137.447729,13.6257957 137.421209,13.7634362 L134.087192,13.7634362 C134.102043,14.260649 134.261159,14.639427 134.569845,14.9019041 C134.852011,15.1366398 135.215857,15.2540076 135.661383,15.2540076 C136.154643,15.2540076 136.604412,15.1750511 137.009628,15.016071 L137.183596,15.7928327 C136.709429,15.9998269 136.151461,16.103324 135.505449,16.103324 C134.731083,16.103324 134.121137,15.8739232 133.679854,15.4151217 C133.23645,14.9563201 133.016869,14.3406725 133.016869,13.5681788 C133.016869,12.8095558 133.221599,12.1779034 133.634241,11.6742887 C134.064916,11.1365307 134.647281,10.8676516 135.382399,10.8676516 Z M57.1342935,8.98123046 C58.3488814,8.98123046 59.2643307,9.24690856 59.881702,9.77826475 C60.5733277,10.3789747 60.9202013,11.2378938 60.9202013,12.3560892 C60.9202013,13.611925 60.5457475,14.5572695 59.7979008,15.1921228 C59.1052144,15.777895 58.1208147,16.0713146 56.8457625,16.0713146 C56.2135403,16.0713146 55.6725448,16.0435731 55.2195937,15.9880901 L55.2195937,9.12633978 C55.8104456,9.03031156 56.4469109,8.98123046 57.1342935,8.98123046 Z M79.4922589,10.8740535 C79.9590001,10.8740535 80.3472439,11.0255647 80.6559296,11.3296541 C81.0399303,11.7020302 81.2319307,12.257927 81.2319307,12.9962773 L81.2319307,16.0094297 L80.120238,16.0094297 L80.120238,13.1285829 C80.120238,12.2408553 79.7850329,11.7969915 79.1125012,11.7969915 C78.7826001,11.7969915 78.5163454,11.9186272 78.3094942,12.1629657 C78.1047645,12.4073042 78.0008085,12.6953889 78.0008085,13.0250858 L78.0008085,16.0083627 L76.8891158,16.0083627 L76.8891158,12.416907 C76.8891158,11.9751772 76.8753257,11.496103 76.8488063,10.9775506 L77.8257805,10.9775506 L77.8777585,11.7639151 L77.908521,11.7639151 C78.0379356,11.5195766 78.2309968,11.3179173 78.4845221,11.1568033 C78.7857824,10.9690148 79.123109,10.8740535 79.4922589,10.8740535 Z M69.3660959,10.9796846 L69.9314892,13.3707874 C70.0683293,13.936287 70.1807715,14.475112 70.2709374,14.9851286 L70.2910921,14.9851286 C70.3738326,14.5647384 70.5106726,14.0291143 70.7037338,13.3814572 L71.4133926,10.9807515 L72.3192949,10.9807515 L72.999252,13.3302422 C73.1636722,13.9032106 73.2973299,14.4548394 73.4002251,14.9861956 L73.4309876,14.9861956 C73.5063027,14.4687101 73.6198057,13.9170813 73.7704358,13.3302422 L74.3771994,10.9807515 L75.4687374,10.9807515 L75.4687374,10.9796846 L73.9040935,16.0094297 L72.885749,16.0094297 L72.2376152,13.825321 C72.073195,13.2800941 71.9395372,12.7380681 71.8355812,12.20031 L71.8154265,12.20031 C71.7188959,12.7530058 71.5852382,13.2939648 71.4133926,13.825321 L70.7249493,16.0094297 L69.6949363,16.0094297 L68.2236406,10.9796846 L69.3660959,10.9796846 Z M84.2975719,8.67180617 L84.2975719,16.0094297 L83.18694,16.0094297 L83.18694,8.67180617 L84.2975719,8.67180617 Z M116.286318,10.8740535 C116.751999,10.8740535 117.140242,11.0255647 117.448928,11.3296541 C117.83399,11.7020302 118.024929,12.257927 118.024929,12.9962773 L118.024929,16.0094297 L116.914297,16.0094297 L116.914297,13.1285829 C116.914297,12.2408553 116.579092,11.7969915 115.9055,11.7969915 C115.575599,11.7969915 115.309344,11.9186272 115.103553,12.1629657 C114.897763,12.4073042 114.794868,12.6953889 114.794868,13.0250858 L114.794868,16.0083627 L113.682114,16.0083627 L113.682114,12.416907 C113.682114,11.9751772 113.669385,11.496103 113.642866,10.9775506 L114.618779,10.9775506 L114.670757,11.7639151 L114.70152,11.7639151 C114.831995,11.5195766 115.025056,11.3179173 115.277521,11.1568033 C115.579842,10.9690148 115.916108,10.8740535 116.286318,10.8740535 Z M128.159578,8.67180617 L128.159578,11.7030972 L128.180794,11.7030972 C128.53085,11.1514684 129.032597,10.8761875 129.682852,10.8761875 C130.143229,10.8761875 130.524047,11.0276987 130.826368,11.3317881 C131.202943,11.7105661 131.391761,12.2739317 131.391761,13.0186839 L131.391761,16.0094297 L130.279008,16.0094297 L130.279008,13.1499225 C130.279008,12.2483241 129.943803,11.7969915 129.272332,11.7969915 C128.756795,11.7969915 128.404618,12.0584016 128.211556,12.581222 C128.178672,12.691121 128.159578,12.8255605 128.159578,12.9834736 L128.159578,16.0083627 L127.048946,16.0083627 L127.048946,8.67180617 L128.159578,8.67180617 Z M109.599189,11.6934944 C109.153664,11.6934944 108.814215,11.8940867 108.579784,12.2952713 C108.380358,12.6271021 108.281706,13.0314877 108.281706,13.5094949 C108.281706,13.9736313 108.381419,14.3716149 108.579784,14.7034458 C108.82058,15.1046304 109.155785,15.3052227 109.588582,15.3052227 C110.012892,15.3052227 110.347036,15.1014295 110.586771,14.692776 C110.791501,14.3545433 110.895457,13.9533587 110.895457,13.4892222 C110.895457,13.0250858 110.795744,12.6271021 110.597379,12.2952713 C110.362948,11.8940867 110.031986,11.6934944 109.599189,11.6934944 Z M95.0686864,13.5052269 C93.8424299,13.4838873 93.2293017,13.8221201 93.2293017,14.5188582 C93.2293017,14.7813354 93.2993129,14.9776597 93.4425176,15.1088983 C93.5857223,15.2401369 93.7681757,15.3052227 93.9856346,15.3052227 C94.229613,15.3052227 94.4576797,15.2273331 94.6655917,15.072621 C94.8745645,14.9168419 95.0029184,14.7194505 95.0506533,14.477246 C95.0623218,14.42283 95.0686864,14.3566772 95.0686864,14.2809216 L95.0686864,13.5052269 Z M88.3942869,11.6934944 C87.9466397,11.6934944 87.6071915,11.8940867 87.3748817,12.2952713 C87.1754559,12.6271021 87.0768038,13.0314877 87.0768038,13.5094949 C87.0768038,13.9736313 87.1765167,14.3716149 87.3748817,14.7034458 C87.6156777,15.1046304 87.9508828,15.3052227 88.3836792,15.3052227 C88.8079894,15.3052227 89.1400121,15.1014295 89.3797474,14.692776 C89.5865986,14.3545433 89.6884331,13.9533587 89.6884331,13.4892222 C89.6884331,13.0250858 89.5887202,12.6271021 89.3903551,12.2952713 C89.1580453,11.8940867 88.8249618,11.6934944 88.3942869,11.6934944 Z M64.6870151,11.6934944 C64.2404286,11.6934944 63.9009804,11.8940867 63.6676098,12.2952713 C63.468184,12.6271021 63.3695319,13.0314877 63.3695319,13.5094949 C63.3695319,13.9736313 63.4692448,14.3716149 63.6676098,14.7034458 C63.9084059,15.1046304 64.2436109,15.3052227 64.6764073,15.3052227 C65.1007175,15.3052227 65.4338011,15.1014295 65.6735363,14.692776 C65.8793268,14.3545433 65.982222,13.9533587 65.982222,13.4892222 C65.982222,13.0250858 65.8825091,12.6271021 65.6841441,12.2952713 C65.4507735,11.8940867 65.1187507,11.6934944 64.6870151,11.6934944 Z M100.211326,11.7457764 C99.7965629,11.7457764 99.4719656,11.9111584 99.2332911,12.2429892 C98.9967381,12.5748201 98.8768705,12.9984113 98.8768705,13.5158967 C98.8768705,14.0131096 98.9903735,14.4164281 99.2184402,14.7269194 C99.4592363,15.0576833 99.7838336,15.2230652 100.190111,15.2230652 C100.555017,15.2230652 100.846731,15.0854248 101.068433,14.8090769 C101.282709,14.5540686 101.387726,14.2467782 101.387726,13.8882729 L101.387726,13.0496263 C101.387726,12.904517 101.377118,12.7871492 101.356964,12.6975228 C101.294378,12.4286438 101.159659,12.202444 100.95493,12.0199904 C100.748079,11.8375367 100.498796,11.7457764 100.211326,11.7457764 Z M57.2265809,9.86148921 C56.876525,9.86148921 56.5784471,9.88496278 56.3312864,9.93404387 L56.3312864,15.1505106 C56.4681265,15.1718502 56.7184695,15.181453 57.0823155,15.181453 C57.9330574,15.181453 58.5896775,14.9435164 59.0521756,14.4676432 C59.5146737,13.99177 59.7480443,13.2982328 59.7480443,12.3870316 C59.7480443,11.5729256 59.5337677,10.9487421 59.1052144,10.5134142 C58.6766611,10.0791532 58.0508035,9.86148921 57.2265809,9.86148921 Z M135.30178,11.6422793 C134.938995,11.6422793 134.643038,11.7937905 134.417093,12.0978799 C134.232518,12.3400844 134.123258,12.6292361 134.087192,12.9674689 L136.401804,12.9674689 C136.41029,12.635638 136.337097,12.3496873 136.186467,12.1085497 C135.993406,11.7980585 135.699571,11.6422793 135.30178,11.6422793 Z" id="download-on-the" fill="#FFFFFF"></path>
                        <path d="M38.2115246,15.2583655 L38.4980068,15.2784176 C39.3784799,15.3042286 41.8840303,15.6279417 43.5005489,17.9971774 C43.3700292,18.0756859 40.515713,19.7620053 40.5467382,23.2282089 C40.5820427,27.3827062 44.1617061,28.7560671 44.2055692,28.7711235 C44.1841726,28.8679148 43.6449764,30.7531941 42.3023352,32.6675107 C41.1811496,34.3527546 40.0064722,36.0003575 38.1406824,36.0304703 C36.3283842,36.0724132 35.718579,34.9582379 33.6398923,34.9582379 C31.5419485,34.9582379 30.8925595,36.0003575 29.1540798,36.0724132 C27.3770862,36.1380162 26.0194673,34.2731707 24.857628,32.6029832 C22.5350191,29.1927034 20.7270003,22.9926835 23.1512433,18.7736586 C24.3259206,16.7044759 26.4677276,15.3719825 28.7571716,15.3364924 C30.5363049,15.2999268 32.1870582,16.5442326 33.2804282,16.5442326 C34.3524015,16.5442326 36.393644,15.0557976 38.4980068,15.2784176 Z M38.5204733,8.63745957 C38.6980657,10.2603269 38.0583052,11.8595341 37.1232706,13.0350106 C36.1475823,14.1922042 34.586695,15.0773068 33.0664614,14.9633082 C32.8674724,13.401742 33.6377526,11.7412336 34.5000385,10.7281515 C35.474657,9.57848601 37.1671338,8.69768526 38.5204733,8.63745957 Z" id="apple" fill="#FFFFFF"></path>
                    </g>
                </g>
            </g>
        </g>
    </g>
</svg>