<?xml version="1.0" encoding="UTF-8"?>
<svg width="28px" height="28px" viewBox="0 0 28 28" version="1.1" xmlns="http://www.w3.org/2000/svg" xmlns:xlink="http://www.w3.org/1999/xlink">
    <!-- Generator: sketchtool 60.1 (101010) - https://sketch.com -->
    <title>C6F6D956-42A8-4F5B-BEF7-446F79B1F85B</title>
    <desc>Created with sketchtool.</desc>
    <g id="Asset-Artboard-Page" stroke="none" stroke-width="1" fill="none" fill-rule="evenodd">
        <g id="Icons/Inbox/Chat">
            <circle fill="#E99900" cx="18.6666667" cy="11.6666667" r="1.16666667"></circle>
            <circle fill="#E99900" cx="14" cy="11.6666667" r="1.16666667"></circle>
            <circle fill="#E99900" cx="9.33333333" cy="11.6666667" r="1.16666667"></circle>
            <path d="M5.83333333,19.1015829 C4.79420715,19.1015829 3.92439391,18.3217796 3.80096806,17.2463682 L3.79166667,17.0599163 L3.79166667,6.99999996 C3.79166667,5.87241862 4.70575197,4.95833333 5.83333333,4.95833333 L22.1666667,4.95833333 C23.294248,4.95833333 24.2083333,5.87241862 24.2083333,6.99999996 L24.2083333,17.0599163 C24.2083333,18.1874976 23.294248,19.1015829 22.1663516,19.1015829 L20.4961561,19.1009815 L20.4968139,22.7892634 C20.496937,23.4794225 19.7353364,23.898048 19.1527325,23.5280585 L12.181195,19.1007017 L5.83333333,19.1015829 Z M18.7459997,18.225823 C18.7459135,17.7423899 19.1378816,17.3504929 19.6213147,17.350667 L22.1666663,17.3515835 C22.3277493,17.3515835 22.4583329,17.2209999 22.4583329,17.0599168 L22.4583329,7.00000001 C22.4583329,6.83891695 22.3277493,6.70833333 22.1666663,6.70833333 L5.83333331,6.70833333 C5.67225027,6.70833333 5.54166665,6.83891695 5.54166665,7.00000001 L5.54021428,17.0095229 L5.54367265,17.0950236 C5.56049779,17.2398825 5.68509201,17.3515835 5.83321184,17.3515835 L12.4353783,17.3506669 C12.6015548,17.3506439 12.7643019,17.3979419 12.9045812,17.4870279 L18.7465296,21.1970261 L18.7459997,18.225823 Z" fill="#0393CD"></path>
            <rect id="Rectangle" x="0" y="0" width="28" height="28"></rect>
        </g>
    </g>
</svg>