<?xml version="1.0" encoding="UTF-8"?>
<svg width="40px" height="32px" viewBox="0 0 40 32" version="1.1" xmlns="http://www.w3.org/2000/svg" xmlns:xlink="http://www.w3.org/1999/xlink">
    <!-- Generator: Sketch 59.1 (86144) - https://sketch.com -->
    <title>Icons/Home/Flight</title>
    <desc>Created with Sketch.</desc>
    <g id="Icons/Home/Flight" stroke="none" stroke-width="1" fill="none" fill-rule="evenodd">
        <g transform="translate(4.000000, 4.000000)">
            <g transform="translate(17.500000, 12.500000) rotate(-18.000000) translate(-17.500000, -12.500000) translate(3.000000, 5.000000)">
                <g id="Group-2" transform="translate(9.499184, 5.669492)" fill="#FAA90D" fill-rule="nonzero">
                    <g id="Group" transform="translate(6.055644, 1.887450) rotate(-6.000000) translate(-6.055644, -1.887450) translate(0.555644, 0.887450)">
                        <path d="M4.80389672,0.252954526 C5.05940964,0.252954526 5.26654378,0.499197914 5.26654378,0.802954526 C5.26654378,1.10671114 5.05940964,1.35295453 4.80389672,1.35295453 L4.80389672,1.35295453 L3.73624967,1.35295453 C3.48073675,1.35295453 3.27360261,1.10671114 3.27360261,0.802954526 C3.27360261,0.499197914 3.48073675,0.252954526 3.73624967,0.252954526 L3.73624967,0.252954526 Z M10.4980144,0.252954526 C10.7535273,0.252954526 10.9606614,0.499197914 10.9606614,0.802954526 C10.9606614,1.10671114 10.7535273,1.35295453 10.4980144,1.35295453 L10.4980144,1.35295453 L9.43036731,1.35295453 C9.1748544,1.35295453 8.96772025,1.10671114 8.96772025,0.802954526 C8.96772025,0.499197914 9.1748544,0.252954526 9.43036731,0.252954526 L9.43036731,0.252954526 Z M1.9568379,0.252954526 C2.21235082,0.252954526 2.41948496,0.499197914 2.41948496,0.802954526 C2.41948496,1.10671114 2.21235082,1.35295453 1.9568379,1.35295453 L1.9568379,1.35295453 L0.889190842,1.35295453 C0.633677927,1.35295453 0.426543784,1.10671114 0.426543784,0.802954526 C0.426543784,0.499197914 0.633677927,0.252954526 0.889190842,0.252954526 L0.889190842,0.252954526 Z M7.65095555,0.252954526 C7.90646846,0.252954526 8.11360261,0.499197914 8.11360261,0.802954526 C8.11360261,1.10671114 7.90646846,1.35295453 7.65095555,1.35295453 L7.65095555,1.35295453 L6.58330849,1.35295453 C6.32779557,1.35295453 6.12066143,1.10671114 6.12066143,0.802954526 C6.12066143,0.499197914 6.32779557,0.252954526 6.58330849,0.252954526 L6.58330849,0.252954526 Z" id="Combined-Shape"></path>
                    </g>
                </g>
                <path d="M9.84819344,0.87126649 L9.97036279,0.878778132 L13.5725234,1.31250584 C13.7129677,1.33071073 13.8500202,1.37650375 13.9742495,1.44769021 L13.9742495,1.44769021 L17.8493737,3.68168463 C17.8626268,3.68923985 17.87563,3.69705639 17.8883924,3.70512841 C19.897885,3.52147926 21.1380392,3.42908306 21.5115764,3.4444704 C21.5966572,3.44844928 21.6631027,3.44992759 21.8028979,3.45032187 L22.3288239,3.45121123 L22.3288239,3.45121123 L22.3927604,3.45187694 C23.3452891,3.46326299 24.036861,3.56303186 24.7053941,3.86068199 C25.4544361,4.19417699 26.0217829,4.74320306 26.3827817,5.48084385 C27.7569719,6.7475858 28.3243303,7.90537283 27.9385623,8.9385316 C27.6013278,9.8440631 26.606538,10.3834067 24.8867313,10.3882931 L24.8867313,10.3882931 L18.2840729,10.4076945 L15.1920483,12.9326242 C15.0577735,13.0436925 14.8962741,13.1182812 14.7254214,13.1485336 L14.7254214,13.1485336 L9.6395377,14.0787861 C9.42806796,14.1181726 9.21012271,14.0908262 9.01503332,14.0039668 C8.8289081,13.9210985 8.66935855,13.7869284 8.55556436,13.6130847 C8.31987185,13.2489457 8.33555291,12.7832127 8.5988599,12.4440493 L8.5988599,12.4440493 L10.1638757,10.432535 L4.66297556,10.4486668 C4.27435336,10.4518072 3.91369815,10.239974 3.724217,9.898455 L3.724217,9.898455 L0.718945446,4.41370295 C0.536238257,4.07763575 0.55345134,3.6719183 0.767720421,3.36133327 C0.98075653,3.05007642 1.35230183,2.8850345 1.73261797,2.92813957 L1.73261797,2.92813957 L5.17739873,3.31994895 C5.42193266,3.34698965 5.65147687,3.45946786 5.82321392,3.63610454 L5.82321392,3.63610454 L6.95449101,4.79963389 C7.90510819,4.69974581 9.17528077,4.56774148 10.4954321,4.43215442 L10.4954321,4.43215442 L9.03070297,2.49080213 C8.78427826,2.16183755 8.75395196,1.72335806 8.95921228,1.37112349 C9.16442095,1.02147125 9.56131848,0.829985121 9.97036279,0.878778132 Z M1.67215932,3.9723962 L4.64740018,9.40330658 L11.2352605,9.38398021 C11.6750004,9.38269018 11.9275118,9.88460486 11.660063,10.2283567 L11.660063,10.2283567 L9.46836988,13.0453386 L14.5196806,12.1214154 L17.7533381,9.48081566 C17.8463381,9.40487204 17.9631545,9.36322448 18.0841648,9.3628689 L18.0841648,9.3628689 L24.8739371,9.34291771 C26.1935159,9.33916844 26.78103,9.02058008 26.9496003,8.56772058 C27.1314623,8.08088913 26.8208964,7.37842892 25.9269622,6.49003806 L25.8629256,6.49520229 L23.1458599,6.49397466 C22.8541866,6.49384288 22.6178414,6.24776749 22.617968,5.9443499 C22.6180948,5.6409323 22.8546453,5.39507057 23.1463186,5.39520229 L23.1463186,5.39520229 L25.0818117,5.39492771 C24.8649533,5.14821472 24.5984509,4.95500672 24.2810811,4.81370457 C23.7756698,4.58868097 23.2093206,4.50697721 22.389778,4.49718081 C22.3481398,4.49668309 22.3100068,4.49634663 22.2676351,4.49612491 L21.7991164,4.49568168 C21.6489996,4.49522156 21.5747931,4.49351159 21.4745868,4.48881941 C21.1818349,4.47676619 19.9867858,4.56521215 18.137122,4.7331436 C18.0936316,4.75170553 18.0472524,4.76277378 17.9986877,4.76748583 L17.9986877,4.76748583 L11.3567472,5.41192841 C11.3153794,5.41594218 11.2746583,5.41512741 11.2351573,5.40994904 C9.75551265,5.55966524 8.28462653,5.71225892 7.19661765,5.82644639 C7.14181839,5.8567011 7.07723325,5.8764143 7.00819645,5.88328763 L7.00819645,5.88328763 L4.69414132,6.11367578 C4.40393873,6.14256845 4.14496838,5.93363692 4.11571485,5.64701415 C4.08646132,5.36039137 4.29800233,5.10461556 4.58820491,5.07572289 L4.58820491,5.07572289 L5.6614387,4.96826649 L5.0684899,4.35869232 L1.67215932,3.9723962 Z M9.91360831,1.92383745 L11.7264387,4.32726649 L16.1384387,3.89926649 L13.4520202,2.35094169 C13.4515635,2.35068 13.4505651,2.35029187 13.4499529,2.35000165 L9.91360831,1.92383745 Z" id="Combined-Shape" stroke="#404040" stroke-width="0.2" fill="#404040" fill-rule="nonzero"></path>
                <path d="" id="Path-2" stroke="#979797" stroke-width="1.1"></path>
            </g>
            <path d="M0.65,26.3 L31.46,26.3 C31.8189851,26.3 32.11,26.0089851 32.11,25.65 C32.11,25.2910149 31.8189851,25 31.46,25 L0.65,25 C0.291014913,25 -1.13686838e-13,25.2910149 -1.13686838e-13,25.65 C-1.13686838e-13,26.0089851 0.291014913,26.3 0.65,26.3 Z" fill="#404040" fill-rule="nonzero"></path>
        </g>
        <rect id="Rectangle" x="0" y="0" width="40" height="32"></rect>
    </g>
</svg>