<?xml version="1.0" encoding="UTF-8"?>
<svg width="60px" height="50px" viewBox="0 0 60 50" version="1.1" xmlns="http://www.w3.org/2000/svg" xmlns:xlink="http://www.w3.org/1999/xlink">
    <!-- Generator: Sketch 59.1 (86144) - https://sketch.com -->
    <title>Icons/Bundle/HotelFlightCar</title>
    <desc>Created with Sketch.</desc>
    <g id="Icons/Bundle/HotelFlightCar" stroke="none" stroke-width="1" fill="none" fill-rule="evenodd">
        <g id="Group-4">
            <path d="M7,35.2 L24,35.2 C25.5463973,35.2 26.8,36.4536027 26.8,38 L26.8,40 C26.8,41.5463973 25.5463973,42.8 24,42.8 L7,42.8 C5.4536027,42.8 4.2,41.5463973 4.2,40 L4.2,38 C4.2,36.4536027 5.4536027,35.2 7,35.2 Z M7,36.8 C6.3372583,36.8 5.8,37.3372583 5.8,38 L5.8,40 C5.8,40.6627417 6.3372583,41.2 7,41.2 L24,41.2 C24.6627417,41.2 25.2,40.6627417 25.2,40 L25.2,38 C25.2,37.3372583 24.6627417,36.8 24,36.8 L7,36.8 Z" id="Rectangle" fill="#404040" fill-rule="nonzero"></path>
            <path d="M10.8516412,28.2 L20.1483588,28.2 C21.3410086,28.2 22.4027592,28.9554727 22.7936773,30.0822364 L24.7558053,35.7377818 C24.9361316,36.257546 24.5501567,36.8 24,36.8 L7,36.8 C6.44984333,36.8 6.06386837,36.257546 6.24419471,35.7377818 L8.20632271,30.0822364 C8.59724075,28.9554727 9.65899143,28.2 10.8516412,28.2 Z M21.2820667,30.6066728 C21.1145304,30.123774 20.6594944,29.8 20.1483588,29.8 L10.8516412,29.8 C10.3405056,29.8 9.88546959,30.123774 9.71793329,30.6066728 L8.12432996,35.2 L22.87567,35.2 L21.2820667,30.6066728 Z" id="Rectangle-Copy" fill="#404040" fill-rule="nonzero"></path>
            <rect id="Rectangle-Copy-4" fill="#404040" transform="translate(26.000000, 33.500000) scale(-1, 1) translate(-26.000000, -33.500000) " x="25" y="32" width="2" height="3" rx="1"></rect>
            <path d="M10.5471529,36.5836298 C11.0427,36.1190544 12.3598744,35.1311735 14.4601414,33.6544233 C14.8215694,33.4002942 14.9085524,32.9012866 14.6544233,32.5398586 C14.4002942,32.1784306 13.9012866,32.0914476 13.5398586,32.3455767 C11.3734589,33.8688265 10.0239667,34.8809456 9.4528471,35.4163702 C9.13051728,35.7185544 9.11418603,36.2248231 9.41637024,36.5471529 C9.71855444,36.8694827 10.2248231,36.885814 10.5471529,36.5836298 Z" id="Path-43-Copy-2" fill="#404040" fill-rule="nonzero"></path>
            <path d="M17.5471529,36.5836298 C18.0427,36.1190544 19.3598744,35.1311735 21.4601414,33.6544233 C21.8215694,33.4002942 21.9085524,32.9012866 21.6544233,32.5398586 C21.4002942,32.1784306 20.9012866,32.0914476 20.5398586,32.3455767 C18.3734589,33.8688265 17.0239667,34.8809456 16.4528471,35.4163702 C16.1305173,35.7185544 16.114186,36.2248231 16.4163702,36.5471529 C16.7185544,36.8694827 17.2248231,36.885814 17.5471529,36.5836298 Z" id="Path-43-Copy-3" fill="#404040" fill-rule="nonzero"></path>
            <circle id="Oval-Copy" fill="#FAA90D" cx="21" cy="39" r="1"></circle>
            <circle id="Oval-Copy-2" fill="#FAA90D" cx="10" cy="39" r="1"></circle>
            <rect id="Rectangle-Copy-5" fill="#404040" x="4" y="32" width="2" height="3" rx="1"></rect>
            <path d="M6.2,42 C6.2,41.5581722 6.5581722,41.2 7,41.2 L10,41.2 C10.4418278,41.2 10.8,41.5581722 10.8,42 L10.8,45 C10.8,45.4418278 10.4418278,45.8 10,45.8 L7,45.8 C6.5581722,45.8 6.2,45.4418278 6.2,45 L6.2,42 Z M7.8,44.2 L9.2,44.2 L9.2,42.8 L7.8,42.8 L7.8,44.2 Z" id="Rectangle" fill="#404040" fill-rule="nonzero"></path>
            <path d="M20.2,42 C20.2,41.5581722 20.5581722,41.2 21,41.2 L24,41.2 C24.4418278,41.2 24.8,41.5581722 24.8,42 L24.8,45 C24.8,45.4418278 24.4418278,45.8 24,45.8 L21,45.8 C20.5581722,45.8 20.2,45.4418278 20.2,45 L20.2,42 Z M21.8,44.2 L23.2,44.2 L23.2,42.8 L21.8,42.8 L21.8,44.2 Z" id="Rectangle-Copy-2" fill="#404040" fill-rule="nonzero"></path>
            <path d="M40.2,36 C40.2,35.5581722 40.5581722,35.2 41,35.2 L47,35.2 C47.4418278,35.2 47.8,35.5581722 47.8,36 L47.8,45 C47.8,45.4418278 47.4418278,45.8 47,45.8 L41,45.8 C40.5581722,45.8 40.2,45.4418278 40.2,45 L40.2,36 Z M41.8,44.2 L46.2,44.2 L46.2,36.8 L41.8,36.8 L41.8,44.2 Z" id="Rectangle" fill="#404040" fill-rule="nonzero"></path>
            <path d="M40,36.8 L48,36.8 C48.4418278,36.8 48.8,36.4418278 48.8,36 C48.8,35.5581722 48.4418278,35.2 48,35.2 L40,35.2 C39.5581722,35.2 39.2,35.5581722 39.2,36 C39.2,36.4418278 39.5581722,36.8 40,36.8 Z" id="Path-25-Copy-2" fill="#404040" fill-rule="nonzero"></path>
            <path d="M40.5,23.2 C41.7702549,23.2 42.8,24.2297451 42.8,25.5 C42.8,26.7702549 41.7702549,27.8 40.5,27.8 C39.2297451,27.8 38.2,26.7702549 38.2,25.5 C38.2,24.2297451 39.2297451,23.2 40.5,23.2 Z M40.5,24.8 C40.1134007,24.8 39.8,25.1134007 39.8,25.5 C39.8,25.8865993 40.1134007,26.2 40.5,26.2 C40.8865993,26.2 41.2,25.8865993 41.2,25.5 C41.2,25.1134007 40.8865993,24.8 40.5,24.8 Z" id="Rectangle-Copy-4" fill="#FAA90D" fill-rule="nonzero"></path>
            <path d="M46.5,28.15 C47.7978692,28.15 48.85,29.2021308 48.85,30.5 C48.85,31.7978692 47.7978692,32.85 46.5,32.85 C45.2021308,32.85 44.15,31.7978692 44.15,30.5 C44.15,29.2021308 45.2021308,28.15 46.5,28.15 Z M46.5,29.85 C46.1410149,29.85 45.85,30.1410149 45.85,30.5 C45.85,30.8589851 46.1410149,31.15 46.5,31.15 C46.8589851,31.15 47.15,30.8589851 47.15,30.5 C47.15,30.1410149 46.8589851,29.85 46.5,29.85 Z" id="Rectangle-Copy-5" fill="#404040" fill-rule="nonzero"></path>
            <path d="M35.2,21 C35.2,20.5581722 35.5581722,20.2 36,20.2 L51,20.2 C51.4418278,20.2 51.8,20.5581722 51.8,21 L51.8,45 C51.8,45.4418278 51.4418278,45.8 51,45.8 L36,45.8 C35.5581722,45.8 35.2,45.4418278 35.2,45 L35.2,21 Z M36.8,44.2 L50.2,44.2 L50.2,21.8 L36.8,21.8 L36.8,44.2 Z" id="Rectangle" fill="#404040" fill-rule="nonzero"></path>
            <path d="M35,21.8 L52,21.8 C52.4418278,21.8 52.8,21.4418278 52.8,21 C52.8,20.5581722 52.4418278,20.2 52,20.2 L35,20.2 C34.5581722,20.2 34.2,20.5581722 34.2,21 C34.2,21.4418278 34.5581722,21.8 35,21.8 Z" id="Path-25-Copy" fill="#404040" fill-rule="nonzero"></path>
            <g id="Group-3" transform="translate(3.000000, 5.000000)" fill-rule="nonzero">
                <path d="M11.4937442,0.00878815909 L15.9000641,0.528555509 C16.0721808,0.550454878 16.2399953,0.606373003 16.3919988,0.693649432 L21.1252973,3.42797169 C21.1412784,3.43709997 21.1569613,3.44654224 21.1723568,3.45629157 C23.6317733,3.22247942 25.1493554,3.10397014 25.6065779,3.12145942 L25.712283,3.12520632 C25.8192698,3.12796817 25.9445753,3.12795291 26.2184611,3.12676272 L26.6064983,3.12656851 C26.6321927,3.12671237 26.6578654,3.12690123 26.6847451,3.12713881 C27.8506653,3.13744397 28.6968787,3.257583 29.5141567,3.62145862 C30.4297682,4.02911513 31.1223026,4.70286724 31.56163,5.60979682 C33.2394414,7.16465898 33.9299538,8.589168 33.4523873,9.86615141 C33.0347376,10.9857931 31.8125626,11.6549516 29.7058905,11.6676784 L21.6278734,11.7172688 L17.8361446,14.8352903 C17.6704279,14.9733164 17.4714871,15.066221 17.2613921,15.1042826 L11.0341579,16.2689758 C10.7744711,16.3184175 10.5072966,16.2855395 10.2684457,16.1791962 C10.040577,16.0777425 9.84544428,15.9128885 9.70647698,15.6987715 C9.41803315,15.2492855 9.43918026,14.6721166 9.76507093,14.2506239 L11.6797878,11.7795453 L4.95774916,11.8207718 C4.4811261,11.8261627 4.03982086,11.5663924 3.80862746,11.145624 L0.152420158,4.40711594 C-0.071032371,3.99202693 -0.048231692,3.48918803 0.217115941,3.1032951 C0.48071167,2.71691803 0.938302848,2.51132274 1.40516661,2.56307281 L5.61902891,3.03185942 C5.91874557,3.06424946 6.1996729,3.2020155 6.40957713,3.41918891 L7.78853394,4.84587199 C8.94879025,4.71960638 10.4975897,4.55284381 12.1080912,4.381406 L10.331402,2.00872542 C10.0297443,1.60295464 9.99411633,1.05998624 10.2484957,0.622538914 C10.502641,0.18856662 10.9915985,-0.0498774881 11.4937442,0.00878815909 Z M1.33646184,3.86344922 L4.94863462,10.520812 L14.3443629,10.4631775 L13.5258817,11.5194858 L10.8427694,14.9822329 L17.0144104,13.8279443 L21.1585316,10.4201255 L21.3892127,10.4187094 L29.6979736,10.3677026 C31.3106452,10.3579601 32.028086,9.96508067 32.2344273,9.41164772 C32.4597598,8.80940482 32.0741261,7.93762889 30.9617659,6.83493687 L30.9425914,6.8391895 L30.8465392,6.84623717 L28.0638668,6.84623717 C27.7048817,6.84623717 27.4138668,6.55522225 27.4138668,6.19623717 C27.4138668,5.86988709 27.654375,5.5997107 27.9678145,5.55328483 L28.0638668,5.54623717 L29.9842559,5.54628079 C29.716228,5.23149091 29.3838236,4.98645776 28.9853991,4.80906771 C28.368151,4.53425115 27.6757461,4.4359487 26.6732553,4.42708803 C26.5458962,4.42596235 26.4453327,4.42599154 26.2235176,4.42675276 C25.8343021,4.4284444 25.7249698,4.42790136 25.5532672,4.42036074 C25.1725419,4.40580581 23.5421589,4.53512802 21.0274185,4.77603116 L20.958,4.782 L13.461,5.545 L13.3821761,5.55344884 C11.2401707,5.78021964 9.07220739,6.01348027 7.63328128,6.17048381 L5.30694853,6.51877628 C4.95192728,6.57197597 4.62099882,6.32730126 4.56779912,5.97228002 C4.51459943,5.61725877 4.75927413,5.28633031 5.11429538,5.23313061 L6.198,5.07 L5.47610887,4.32397636 L1.33646184,3.86344922 Z M11.4327065,1.31060037 L13.613,4.223 L18.962,3.679 L15.7432125,1.82018096 C15.7423524,1.81968717 15.7388683,1.8185262 15.7418806,1.81888208 L11.4327065,1.31060037 Z" id="Shape" stroke="#404040" stroke-width="0.3" fill="#404040" stroke-linejoin="round"></path>
                <g id="Group-2" transform="translate(10.563867, 7.196237)" fill="#FAA90D">
                    <g id="Group">
                        <path d="M2.53061684,0.306611547 L1.21811684,0.306611547 C0.859131754,0.306611547 0.568116841,0.597626459 0.568116841,0.956611547 C0.568116841,1.31559663 0.859131754,1.60661155 1.21811684,1.60661155 L2.53061684,1.60661155 C2.88960193,1.60661155 3.18061684,1.31559663 3.18061684,0.956611547 C3.18061684,0.597626459 2.88960193,0.306611547 2.53061684,0.306611547 Z" id="Path-41-Copy"></path>
                        <path d="M6.03061684,0.306611547 L4.71811684,0.306611547 C4.35913175,0.306611547 4.06811684,0.597626459 4.06811684,0.956611547 C4.06811684,1.31559663 4.35913175,1.60661155 4.71811684,1.60661155 L6.03061684,1.60661155 C6.38960193,1.60661155 6.68061684,1.31559663 6.68061684,0.956611547 C6.68061684,0.597626459 6.38960193,0.306611547 6.03061684,0.306611547 Z" id="Path-41-Copy-2"></path>
                        <path d="M9.53061684,0.306611547 L8.21811684,0.306611547 C7.85913175,0.306611547 7.56811684,0.597626459 7.56811684,0.956611547 C7.56811684,1.31559663 7.85913175,1.60661155 8.21811684,1.60661155 L9.53061684,1.60661155 C9.88960193,1.60661155 10.1806168,1.31559663 10.1806168,0.956611547 C10.1806168,0.597626459 9.88960193,0.306611547 9.53061684,0.306611547 Z" id="Path-41-Copy-3"></path>
                        <path d="M13.0306168,0.306611547 L11.7181168,0.306611547 C11.3591318,0.306611547 11.0681168,0.597626459 11.0681168,0.956611547 C11.0681168,1.31559663 11.3591318,1.60661155 11.7181168,1.60661155 L13.0306168,1.60661155 C13.3896019,1.60661155 13.6806168,1.31559663 13.6806168,0.956611547 C13.6806168,0.597626459 13.3896019,0.306611547 13.0306168,0.306611547 Z" id="Path-41-Copy-4"></path>
                    </g>
                </g>
            </g>
            <path d="M3,45.8 L57,45.8 C57.4418278,45.8 57.8,45.4418278 57.8,45 C57.8,44.5581722 57.4418278,44.2 57,44.2 L3,44.2 C2.5581722,44.2 2.2,44.5581722 2.2,45 C2.2,45.4418278 2.5581722,45.8 3,45.8 Z" id="Path-25" fill="#404040" fill-rule="nonzero"></path>
            <rect id="Rectangle" x="0" y="0" width="60" height="50"></rect>
        </g>
    </g>
</svg>