<?xml version="1.0" encoding="UTF-8"?>
<svg width="60px" height="50px" viewBox="0 0 60 50" version="1.1" xmlns="http://www.w3.org/2000/svg" xmlns:xlink="http://www.w3.org/1999/xlink">
    <!-- Generator: Sketch 59.1 (86144) - https://sketch.com -->
    <title>Icons/Bundle/HotelFlight</title>
    <desc>Created with Sketch.</desc>
    <g id="Icons/Bundle/HotelFlight" stroke="none" stroke-width="1" fill="none" fill-rule="evenodd">
        <g id="Group-4">
            <path d="M33.7,36 C33.7,35.5581722 34.0581722,35.2 34.5,35.2 L41.5,35.2 C41.9418278,35.2 42.3,35.5581722 42.3,36 L42.3,45 C42.3,45.4418278 41.9418278,45.8 41.5,45.8 L34.5,45.8 C34.0581722,45.8 33.7,45.4418278 33.7,45 L33.7,36 Z M35.3,44.2 L40.7,44.2 L40.7,36.8 L35.3,36.8 L35.3,44.2 Z" id="Rectangle" fill="#404040" fill-rule="nonzero"></path>
            <path d="M33.5,36.8 L42.5,36.8 C42.9418278,36.8 43.3,36.4418278 43.3,36 C43.3,35.5581722 42.9418278,35.2 42.5,35.2 L33.5,35.2 C33.0581722,35.2 32.7,35.5581722 32.7,36 C32.7,36.4418278 33.0581722,36.8 33.5,36.8 Z" id="Path-25-Copy-2" fill="#404040" fill-rule="nonzero"></path>
            <path d="M35,21.2 C36.2702549,21.2 37.3,22.2297451 37.3,23.5 C37.3,24.7702549 36.2702549,25.8 35,25.8 C33.7297451,25.8 32.7,24.7702549 32.7,23.5 C32.7,22.2297451 33.7297451,21.2 35,21.2 Z M35,22.8 C34.6134007,22.8 34.3,23.1134007 34.3,23.5 C34.3,23.8865993 34.6134007,24.2 35,24.2 C35.3865993,24.2 35.7,23.8865993 35.7,23.5 C35.7,23.1134007 35.3865993,22.8 35,22.8 Z" id="Rectangle-Copy" fill="#404040" fill-rule="nonzero"></path>
            <path d="M35,27.2 C36.2702549,27.2 37.3,28.2297451 37.3,29.5 C37.3,30.7702549 36.2702549,31.8 35,31.8 C33.7297451,31.8 32.7,30.7702549 32.7,29.5 C32.7,28.2297451 33.7297451,27.2 35,27.2 Z M35,28.8 C34.6134007,28.8 34.3,29.1134007 34.3,29.5 C34.3,29.8865993 34.6134007,30.2 35,30.2 C35.3865993,30.2 35.7,29.8865993 35.7,29.5 C35.7,29.1134007 35.3865993,28.8 35,28.8 Z" id="Rectangle-Copy-4" fill="#FAA90D" fill-rule="nonzero"></path>
            <path d="M41,21.2 C42.2702549,21.2 43.3,22.2297451 43.3,23.5 C43.3,24.7702549 42.2702549,25.8 41,25.8 C39.7297451,25.8 38.7,24.7702549 38.7,23.5 C38.7,22.2297451 39.7297451,21.2 41,21.2 Z M41,22.8 C40.6134007,22.8 40.3,23.1134007 40.3,23.5 C40.3,23.8865993 40.6134007,24.2 41,24.2 C41.3865993,24.2 41.7,23.8865993 41.7,23.5 C41.7,23.1134007 41.3865993,22.8 41,22.8 Z" id="Rectangle-Copy-2" fill="#FAA90D" fill-rule="nonzero"></path>
            <path d="M41,27.2 C42.2702549,27.2 43.3,28.2297451 43.3,29.5 C43.3,30.7702549 42.2702549,31.8 41,31.8 C39.7297451,31.8 38.7,30.7702549 38.7,29.5 C38.7,28.2297451 39.7297451,27.2 41,27.2 Z M41,28.8 C40.6134007,28.8 40.3,29.1134007 40.3,29.5 C40.3,29.8865993 40.6134007,30.2 41,30.2 C41.3865993,30.2 41.7,29.8865993 41.7,29.5 C41.7,29.1134007 41.3865993,28.8 41,28.8 Z" id="Rectangle-Copy-5" fill="#404040" fill-rule="nonzero"></path>
            <path d="M47,32.8 L56.5,32.8 C56.9418278,32.8 57.3,32.4418278 57.3,32 C57.3,31.5581722 56.9418278,31.2 56.5,31.2 L47,31.2 C46.5581722,31.2 46.2,31.5581722 46.2,32 C46.2,32.4418278 46.5581722,32.8 47,32.8 Z" id="Path-25-Copy-4" fill="#404040" fill-rule="nonzero"></path>
            <path d="M45.7,32 C45.7,31.5581722 46.0581722,31.2 46.5,31.2 L55.5,31.2 C55.9418278,31.2 56.3,31.5581722 56.3,32 L56.3,45 C56.3,45.4418278 55.9418278,45.8 55.5,45.8 L46.5,45.8 C46.0581722,45.8 45.7,45.4418278 45.7,45 L45.7,32 Z M47.3,44.2 L54.7,44.2 L54.7,32.8 L47.3,32.8 L47.3,44.2 Z" id="Rectangle-Copy-8" fill="#404040" fill-rule="nonzero"></path>
            <path d="M51,35.2 C52.2702549,35.2 53.3,36.2297451 53.3,37.5 C53.3,38.7702549 52.2702549,39.8 51,39.8 C49.7297451,39.8 48.7,38.7702549 48.7,37.5 C48.7,36.2297451 49.7297451,35.2 51,35.2 Z M51,36.8 C50.6134007,36.8 50.3,37.1134007 50.3,37.5 C50.3,37.8865993 50.6134007,38.2 51,38.2 C51.3865993,38.2 51.7,37.8865993 51.7,37.5 C51.7,37.1134007 51.3865993,36.8 51,36.8 Z" id="Rectangle-Copy-9" fill="#404040" fill-rule="nonzero"></path>
            <path d="M3,45.8 L57,45.8 C57.4418278,45.8 57.8,45.4418278 57.8,45 C57.8,44.5581722 57.4418278,44.2 57,44.2 L3,44.2 C2.5581722,44.2 2.2,44.5581722 2.2,45 C2.2,45.4418278 2.5581722,45.8 3,45.8 Z" id="Path-25" fill="#404040" fill-rule="nonzero"></path>
            <path d="M28.7,19 C28.7,18.5581722 29.0581722,18.2 29.5,18.2 L46.5,18.2 C46.9418278,18.2 47.3,18.5581722 47.3,19 L47.3,45 C47.3,45.4418278 46.9418278,45.8 46.5,45.8 L29.5,45.8 C29.0581722,45.8 28.7,45.4418278 28.7,45 L28.7,19 Z M30.3,19.8 L30.3,44.2 L45.7,44.2 L45.7,19.8 L30.3,19.8 Z" id="Rectangle" fill="#404040" fill-rule="nonzero"></path>
            <path d="M28.5,19.8 L47.5,19.8 C47.9418278,19.8 48.3,19.4418278 48.3,19 C48.3,18.5581722 47.9418278,18.2 47.5,18.2 L28.5,18.2 C28.0581722,18.2 27.7,18.5581722 27.7,19 C27.7,19.4418278 28.0581722,19.8 28.5,19.8 Z" id="Path-25-Copy" fill="#404040" fill-rule="nonzero"></path>
            <polygon id="Path-26-Copy" fill="#404040" fill-rule="nonzero" points="17.1333333 45.2333333 17.1333333 40.6333333 15.5333333 40.6333333 15.5333333 45.2333333"></polygon>
            <path d="M16.3333333,41.4666667 C18.6161103,41.4666667 20.4666667,39.6161103 20.4666667,37.3333333 C20.4666667,35.0505564 18.6161103,33.2 16.3333333,33.2 C14.0505564,33.2 12.2,35.0505564 12.2,37.3333333 C12.2,39.6161103 14.0505564,41.4666667 16.3333333,41.4666667 Z M16.3333333,39.8666667 C14.934212,39.8666667 13.8,38.7324547 13.8,37.3333333 C13.8,35.934212 14.934212,34.8 16.3333333,34.8 C17.7324547,34.8 18.8666667,35.934212 18.8666667,37.3333333 C18.8666667,38.7324547 17.7324547,39.8666667 16.3333333,39.8666667 Z" id="Oval-Copy" fill="#404040" fill-rule="nonzero"></path>
            <g id="Group-3" transform="translate(3.000000, 5.000000)" fill-rule="nonzero">
                <path d="M11.4937442,0.00878815909 L15.9000641,0.528555509 C16.0721808,0.550454878 16.2399953,0.606373003 16.3919988,0.693649432 L21.1252973,3.42797169 C21.1412784,3.43709997 21.1569613,3.44654224 21.1723568,3.45629157 C23.6317733,3.22247942 25.1493554,3.10397014 25.6065779,3.12145942 L25.712283,3.12520632 C25.8192698,3.12796817 25.9445753,3.12795291 26.2184611,3.12676272 L26.6064983,3.12656851 C26.6321927,3.12671237 26.6578654,3.12690123 26.6847451,3.12713881 C27.8506653,3.13744397 28.6968787,3.257583 29.5141567,3.62145862 C30.4297682,4.02911513 31.1223026,4.70286724 31.56163,5.60979682 C33.2394414,7.16465898 33.9299538,8.589168 33.4523873,9.86615141 C33.0347376,10.9857931 31.8125626,11.6549516 29.7058905,11.6676784 L21.6278734,11.7172688 L17.8361446,14.8352903 C17.6704279,14.9733164 17.4714871,15.066221 17.2613921,15.1042826 L11.0341579,16.2689758 C10.7744711,16.3184175 10.5072966,16.2855395 10.2684457,16.1791962 C10.040577,16.0777425 9.84544428,15.9128885 9.70647698,15.6987715 C9.41803315,15.2492855 9.43918026,14.6721166 9.76507093,14.2506239 L11.6797878,11.7795453 L4.95774916,11.8207718 C4.4811261,11.8261627 4.03982086,11.5663924 3.80862746,11.145624 L0.152420158,4.40711594 C-0.071032371,3.99202693 -0.048231692,3.48918803 0.217115941,3.1032951 C0.48071167,2.71691803 0.938302848,2.51132274 1.40516661,2.56307281 L5.61902891,3.03185942 C5.91874557,3.06424946 6.1996729,3.2020155 6.40957713,3.41918891 L7.78853394,4.84587199 C8.94879025,4.71960638 10.4975897,4.55284381 12.1080912,4.381406 L10.331402,2.00872542 C10.0297443,1.60295464 9.99411633,1.05998624 10.2484957,0.622538914 C10.502641,0.18856662 10.9915985,-0.0498774881 11.4937442,0.00878815909 Z M1.33646184,3.86344922 L4.94863462,10.520812 L14.3443629,10.4631775 L13.5258817,11.5194858 L10.8427694,14.9822329 L17.0144104,13.8279443 L21.1585316,10.4201255 L21.3892127,10.4187094 L29.6979736,10.3677026 C31.3106452,10.3579601 32.028086,9.96508067 32.2344273,9.41164772 C32.4597598,8.80940482 32.0741261,7.93762889 30.9617659,6.83493687 L30.9425914,6.8391895 L30.8465392,6.84623717 L28.0638668,6.84623717 C27.7048817,6.84623717 27.4138668,6.55522225 27.4138668,6.19623717 C27.4138668,5.86988709 27.654375,5.5997107 27.9678145,5.55328483 L28.0638668,5.54623717 L29.9842559,5.54628079 C29.716228,5.23149091 29.3838236,4.98645776 28.9853991,4.80906771 C28.368151,4.53425115 27.6757461,4.4359487 26.6732553,4.42708803 C26.5458962,4.42596235 26.4453327,4.42599154 26.2235176,4.42675276 C25.8343021,4.4284444 25.7249698,4.42790136 25.5532672,4.42036074 C25.1725419,4.40580581 23.5421589,4.53512802 21.0274185,4.77603116 L20.958,4.782 L13.461,5.545 L13.3821761,5.55344884 C11.2401707,5.78021964 9.07220739,6.01348027 7.63328128,6.17048381 L5.30694853,6.51877628 C4.95192728,6.57197597 4.62099882,6.32730126 4.56779912,5.97228002 C4.51459943,5.61725877 4.75927413,5.28633031 5.11429538,5.23313061 L6.198,5.07 L5.47610887,4.32397636 L1.33646184,3.86344922 Z M11.4327065,1.31060037 L13.613,4.223 L18.962,3.679 L15.7432125,1.82018096 C15.7423524,1.81968717 15.7388683,1.8185262 15.7418806,1.81888208 L11.4327065,1.31060037 Z" id="Shape" stroke="#404040" stroke-width="0.3" fill="#404040" stroke-linejoin="round"></path>
                <g id="Group-2" transform="translate(10.563867, 7.196237)" fill="#FAA90D">
                    <g id="Group">
                        <path d="M2.53061684,0.306611547 L1.21811684,0.306611547 C0.859131754,0.306611547 0.568116841,0.597626459 0.568116841,0.956611547 C0.568116841,1.31559663 0.859131754,1.60661155 1.21811684,1.60661155 L2.53061684,1.60661155 C2.88960193,1.60661155 3.18061684,1.31559663 3.18061684,0.956611547 C3.18061684,0.597626459 2.88960193,0.306611547 2.53061684,0.306611547 Z" id="Path-41-Copy"></path>
                        <path d="M6.03061684,0.306611547 L4.71811684,0.306611547 C4.35913175,0.306611547 4.06811684,0.597626459 4.06811684,0.956611547 C4.06811684,1.31559663 4.35913175,1.60661155 4.71811684,1.60661155 L6.03061684,1.60661155 C6.38960193,1.60661155 6.68061684,1.31559663 6.68061684,0.956611547 C6.68061684,0.597626459 6.38960193,0.306611547 6.03061684,0.306611547 Z" id="Path-41-Copy-2"></path>
                        <path d="M9.53061684,0.306611547 L8.21811684,0.306611547 C7.85913175,0.306611547 7.56811684,0.597626459 7.56811684,0.956611547 C7.56811684,1.31559663 7.85913175,1.60661155 8.21811684,1.60661155 L9.53061684,1.60661155 C9.88960193,1.60661155 10.1806168,1.31559663 10.1806168,0.956611547 C10.1806168,0.597626459 9.88960193,0.306611547 9.53061684,0.306611547 Z" id="Path-41-Copy-3"></path>
                        <path d="M13.0306168,0.306611547 L11.7181168,0.306611547 C11.3591318,0.306611547 11.0681168,0.597626459 11.0681168,0.956611547 C11.0681168,1.31559663 11.3591318,1.60661155 11.7181168,1.60661155 L13.0306168,1.60661155 C13.3896019,1.60661155 13.6806168,1.31559663 13.6806168,0.956611547 C13.6806168,0.597626459 13.3896019,0.306611547 13.0306168,0.306611547 Z" id="Path-41-Copy-4"></path>
                    </g>
                </g>
            </g>
            <rect id="Rectangle" x="0" y="0" width="60" height="50"></rect>
        </g>
    </g>
</svg>