<?xml version="1.0" encoding="UTF-8"?>
<svg width="40px" height="32px" viewBox="0 0 40 32" version="1.1" xmlns="http://www.w3.org/2000/svg" xmlns:xlink="http://www.w3.org/1999/xlink">
    <!-- Generator: Sketch 59.1 (86144) - https://sketch.com -->
    <title>Icons/Home/Hotel</title>
    <desc>Created with Sketch.</desc>
    <g id="Icons/Home/Hotel" stroke="none" stroke-width="1" fill="none" fill-rule="evenodd">
        <g transform="translate(3.000000, 3.000000)" fill-rule="nonzero">
            <path d="M12.87,19.37 C12.87,19.0110149 13.1610149,18.72 13.52,18.72 L18.98,18.72 C19.3389851,18.72 19.63,19.0110149 19.63,19.37 L19.63,26.39 C19.63,26.7489851 19.3389851,27.04 18.98,27.04 L13.52,27.04 C13.1610149,27.04 12.87,26.7489851 12.87,26.39 L12.87,19.37 Z M14.17,25.74 L18.33,25.74 L18.33,20.02 L14.17,20.02 L14.17,25.74 Z" id="Rectangle" fill="#404040"></path>
            <path d="M1.43,16.9 L9.62,16.9 C9.97898509,16.9 10.27,16.6089851 10.27,16.25 C10.27,15.8910149 9.97898509,15.6 9.62,15.6 L1.43,15.6 C1.07101491,15.6 0.78,15.8910149 0.78,16.25 C0.78,16.6089851 1.07101491,16.9 1.43,16.9 Z" id="Path-25-Copy-3" fill="#404040"></path>
            <path d="M1.95,16.25 C1.95,15.8910149 2.24101491,15.6 2.6,15.6 L9.62,15.6 C9.97898509,15.6 10.27,15.8910149 10.27,16.25 L10.27,26.39 C10.27,26.7489851 9.97898509,27.04 9.62,27.04 L2.6,27.04 C2.24101491,27.04 1.95,26.7489851 1.95,26.39 L1.95,16.25 Z M3.25,25.74 L8.97,25.74 L8.97,16.9 L3.25,16.9 L3.25,25.74 Z" id="Rectangle" fill="#404040" transform="translate(6.110000, 21.320000) scale(-1, 1) translate(-6.110000, -21.320000) "></path>
            <path d="M6.11,18.72 C7.11515824,18.72 7.93,19.5348418 7.93,20.54 C7.93,21.5451582 7.11515824,22.36 6.11,22.36 C5.10484176,22.36 4.29,21.5451582 4.29,20.54 C4.29,19.5348418 5.10484176,18.72 6.11,18.72 Z M6.11,20.02 C5.82281193,20.02 5.59,20.2528119 5.59,20.54 C5.59,20.8271881 5.82281193,21.06 6.11,21.06 C6.39718807,21.06 6.63,20.8271881 6.63,20.54 C6.63,20.2528119 6.39718807,20.02 6.11,20.02 Z" id="Rectangle-Copy-7" fill="#404040"></path>
            <path d="M12.74,20.02 L19.76,20.02 C20.1189851,20.02 20.41,19.7289851 20.41,19.37 C20.41,19.0110149 20.1189851,18.72 19.76,18.72 L12.74,18.72 C12.3810149,18.72 12.09,19.0110149 12.09,19.37 C12.09,19.7289851 12.3810149,20.02 12.74,20.02 Z" id="Path-25-Copy-2" fill="#404040"></path>
            <path d="M13.91,7.8 C14.9151582,7.8 15.73,8.61484176 15.73,9.62 C15.73,10.6251582 14.9151582,11.44 13.91,11.44 C12.9048418,11.44 12.09,10.6251582 12.09,9.62 C12.09,8.61484176 12.9048418,7.8 13.91,7.8 Z M13.91,9.1 C13.6228119,9.1 13.39,9.33281193 13.39,9.62 C13.39,9.90718807 13.6228119,10.14 13.91,10.14 C14.1971881,10.14 14.43,9.90718807 14.43,9.62 C14.43,9.33281193 14.1971881,9.1 13.91,9.1 Z" id="Rectangle-Copy" fill="#FAA90D"></path>
            <path d="M13.91,3.12 C14.9151582,3.12 15.73,3.93484176 15.73,4.94 C15.73,5.94515824 14.9151582,6.76 13.91,6.76 C12.9048418,6.76 12.09,5.94515824 12.09,4.94 C12.09,3.93484176 12.9048418,3.12 13.91,3.12 Z M13.91,4.42 C13.6228119,4.42 13.39,4.65281193 13.39,4.94 C13.39,5.22718807 13.6228119,5.46 13.91,5.46 C14.1971881,5.46 14.43,5.22718807 14.43,4.94 C14.43,4.65281193 14.1971881,4.42 13.91,4.42 Z" id="Rectangle-Copy-3" fill="#404040"></path>
            <path d="M13.91,12.48 C14.9151582,12.48 15.73,13.2948418 15.73,14.3 C15.73,15.3051582 14.9151582,16.12 13.91,16.12 C12.9048418,16.12 12.09,15.3051582 12.09,14.3 C12.09,13.2948418 12.9048418,12.48 13.91,12.48 Z M13.91,13.78 C13.6228119,13.78 13.39,14.0128119 13.39,14.3 C13.39,14.5871881 13.6228119,14.82 13.91,14.82 C14.1971881,14.82 14.43,14.5871881 14.43,14.3 C14.43,14.0128119 14.1971881,13.78 13.91,13.78 Z" id="Rectangle-Copy-4" fill="#404040"></path>
            <path d="M18.59,7.8 C19.5951582,7.8 20.41,8.61484176 20.41,9.62 C20.41,10.6251582 19.5951582,11.44 18.59,11.44 C17.5848418,11.44 16.77,10.6251582 16.77,9.62 C16.77,8.61484176 17.5848418,7.8 18.59,7.8 Z M18.59,9.1 C18.3028119,9.1 18.07,9.33281193 18.07,9.62 C18.07,9.90718807 18.3028119,10.14 18.59,10.14 C18.8771881,10.14 19.11,9.90718807 19.11,9.62 C19.11,9.33281193 18.8771881,9.1 18.59,9.1 Z" id="Rectangle-Copy-2" fill="#404040"></path>
            <path d="M18.59,3.12 C19.5951582,3.12 20.41,3.93484176 20.41,4.94 C20.41,5.94515824 19.5951582,6.76 18.59,6.76 C17.5848418,6.76 16.77,5.94515824 16.77,4.94 C16.77,3.93484176 17.5848418,3.12 18.59,3.12 Z M18.59,4.42 C18.3028119,4.42 18.07,4.65281193 18.07,4.94 C18.07,5.22718807 18.3028119,5.46 18.59,5.46 C18.8771881,5.46 19.11,5.22718807 19.11,4.94 C19.11,4.65281193 18.8771881,4.42 18.59,4.42 Z" id="Rectangle-Copy-6" fill="#FAA90D"></path>
            <path d="M18.59,12.48 C19.5951582,12.48 20.41,13.2948418 20.41,14.3 C20.41,15.3051582 19.5951582,16.12 18.59,16.12 C17.5848418,16.12 16.77,15.3051582 16.77,14.3 C16.77,13.2948418 17.5848418,12.48 18.59,12.48 Z M18.59,13.78 C18.3028119,13.78 18.07,14.0128119 18.07,14.3 C18.07,14.5871881 18.3028119,14.82 18.59,14.82 C18.8771881,14.82 19.11,14.5871881 19.11,14.3 C19.11,14.0128119 18.8771881,13.78 18.59,13.78 Z" id="Rectangle-Copy-5" fill="#FAA90D"></path>
            <path d="M12.87,19.37 C12.87,19.0110149 13.1610149,18.72 13.52,18.72 L18.98,18.72 C19.3389851,18.72 19.63,19.0110149 19.63,19.37 L19.63,26.39 C19.63,26.7489851 19.3389851,27.04 18.98,27.04 L13.52,27.04 C13.1610149,27.04 12.87,26.7489851 12.87,26.39 L12.87,19.37 Z M14.17,25.74 L18.33,25.74 L18.33,20.02 L14.17,20.02 L14.17,25.74 Z" id="Rectangle" fill="#404040"></path>
            <path d="M6.11,18.72 C7.11515824,18.72 7.93,19.5348418 7.93,20.54 C7.93,21.5451582 7.11515824,22.36 6.11,22.36 C5.10484176,22.36 4.29,21.5451582 4.29,20.54 C4.29,19.5348418 5.10484176,18.72 6.11,18.72 Z M6.11,20.02 C5.82281193,20.02 5.59,20.2528119 5.59,20.54 C5.59,20.8271881 5.82281193,21.06 6.11,21.06 C6.39718807,21.06 6.63,20.8271881 6.63,20.54 C6.63,20.2528119 6.39718807,20.02 6.11,20.02 Z" id="Rectangle-Copy-7" fill="#404040"></path>
            <path d="M12.74,20.02 L19.76,20.02 C20.1189851,20.02 20.41,19.7289851 20.41,19.37 C20.41,19.0110149 20.1189851,18.72 19.76,18.72 L12.74,18.72 C12.3810149,18.72 12.09,19.0110149 12.09,19.37 C12.09,19.7289851 12.3810149,20.02 12.74,20.02 Z" id="Path-25-Copy-2" fill="#404040"></path>
            <path d="M13.91,3.12 C14.9151582,3.12 15.73,3.93484176 15.73,4.94 C15.73,5.94515824 14.9151582,6.76 13.91,6.76 C12.9048418,6.76 12.09,5.94515824 12.09,4.94 C12.09,3.93484176 12.9048418,3.12 13.91,3.12 Z M13.91,4.42 C13.6228119,4.42 13.39,4.65281193 13.39,4.94 C13.39,5.22718807 13.6228119,5.46 13.91,5.46 C14.1971881,5.46 14.43,5.22718807 14.43,4.94 C14.43,4.65281193 14.1971881,4.42 13.91,4.42 Z" id="Rectangle-Copy-3" fill="#404040"></path>
            <path d="M13.91,12.48 C14.9151582,12.48 15.73,13.2948418 15.73,14.3 C15.73,15.3051582 14.9151582,16.12 13.91,16.12 C12.9048418,16.12 12.09,15.3051582 12.09,14.3 C12.09,13.2948418 12.9048418,12.48 13.91,12.48 Z M13.91,13.78 C13.6228119,13.78 13.39,14.0128119 13.39,14.3 C13.39,14.5871881 13.6228119,14.82 13.91,14.82 C14.1971881,14.82 14.43,14.5871881 14.43,14.3 C14.43,14.0128119 14.1971881,13.78 13.91,13.78 Z" id="Rectangle-Copy-4" fill="#404040"></path>
            <path d="M18.59,7.8 C19.5951582,7.8 20.41,8.61484176 20.41,9.62 C20.41,10.6251582 19.5951582,11.44 18.59,11.44 C17.5848418,11.44 16.77,10.6251582 16.77,9.62 C16.77,8.61484176 17.5848418,7.8 18.59,7.8 Z M18.59,9.1 C18.3028119,9.1 18.07,9.33281193 18.07,9.62 C18.07,9.90718807 18.3028119,10.14 18.59,10.14 C18.8771881,10.14 19.11,9.90718807 19.11,9.62 C19.11,9.33281193 18.8771881,9.1 18.59,9.1 Z" id="Rectangle-Copy-2" fill="#404040"></path>
            <path d="M27.82,17.16 C29.6149254,17.16 31.07,18.6150746 31.07,20.41 C31.07,21.9823181 29.9534626,23.2938549 28.4700128,23.5949856 L28.469,25.739 L31.46,25.74 C31.7863501,25.74 32.0565265,25.9805082 32.1029523,26.2939478 L32.11,26.39 C32.11,26.7489851 31.8189851,27.04 31.46,27.04 L31.46,27.04 L0.65,27.04 C0.291014913,27.04 -2.34479103e-13,26.7489851 -2.34479103e-13,26.39 C-2.34479103e-13,26.0310149 0.291014913,25.74 0.65,25.74 L0.65,25.74 L27.169,25.739 L27.1689918,23.5947834 C25.7444272,23.30514 24.6584537,22.0836623 24.5751448,20.5944239 L24.57,20.41 C24.57,18.6150746 26.0250746,17.16 27.82,17.16 Z M27.82,18.46 C26.7430447,18.46 25.87,19.3330447 25.87,20.41 C25.87,21.4869553 26.7430447,22.36 27.82,22.36 C28.8969553,22.36 29.77,21.4869553 29.77,20.41 C29.77,19.3330447 28.8969553,18.46 27.82,18.46 Z" id="Combined-Shape" fill="#404040"></path>
            <path d="M22.91,-3.55271368e-15 C23.2689851,-3.55271368e-15 23.56,0.291014913 23.56,0.65 L23.56,26.39 C23.56,26.7489851 23.2689851,27.04 22.91,27.04 L9.65,27.04 C9.29101491,27.04 9,26.7489851 9,26.39 L9,0.65 C9,0.291014913 9.29101491,-3.55271368e-15 9.65,-3.55271368e-15 L22.91,-3.55271368e-15 Z M22.26,1.3 L10.3,1.3 L10.3,25.74 L22.26,25.74 L22.26,1.3 Z" id="Combined-Shape" fill="#404040"></path>
            <path d="M8.65,1.3 L24.64,1.3 C24.9989851,1.3 25.29,1.00898509 25.29,0.65 C25.29,0.291014913 24.9989851,0 24.64,0 L8.65,0 C8.29101491,0 8,0.291014913 8,0.65 C8,1.00898509 8.29101491,1.3 8.65,1.3 Z" id="Path-25-Copy" fill="#404040"></path>
        </g>
        <rect id="Rectangle" x="0" y="0" width="40" height="32"></rect>
    </g>
</svg>