<?xml version="1.0" encoding="UTF-8"?>
<svg width="60px" height="50px" viewBox="0 0 60 50" version="1.1" xmlns="http://www.w3.org/2000/svg" xmlns:xlink="http://www.w3.org/1999/xlink">
    <!-- Generator: Sketch 59.1 (86144) - https://sketch.com -->
    <title>Icons/Bundle/HotelFlightTrans</title>
    <desc>Created with Sketch.</desc>
    <g id="Icons/Bundle/HotelFlightTrans" stroke="none" stroke-width="1" fill="none" fill-rule="evenodd">
        <g id="Group-4">
            <path d="M40.2,36 C40.2,35.5581722 40.5581722,35.2 41,35.2 L47,35.2 C47.4418278,35.2 47.8,35.5581722 47.8,36 L47.8,45 C47.8,45.4418278 47.4418278,45.8 47,45.8 L41,45.8 C40.5581722,45.8 40.2,45.4418278 40.2,45 L40.2,36 Z M41.8,44.2 L46.2,44.2 L46.2,36.8 L41.8,36.8 L41.8,44.2 Z" id="Rectangle" fill="#404040" fill-rule="nonzero"></path>
            <path d="M40.5,36.8 L47.5,36.8 C47.9418278,36.8 48.3,36.4418278 48.3,36 C48.3,35.5581722 47.9418278,35.2 47.5,35.2 L40.5,35.2 C40.0581722,35.2 39.7,35.5581722 39.7,36 C39.7,36.4418278 40.0581722,36.8 40.5,36.8 Z" id="Path-25-Copy-2" fill="#404040" fill-rule="nonzero"></path>
            <path d="M40.5,23.2 C41.7702549,23.2 42.8,24.2297451 42.8,25.5 C42.8,26.7702549 41.7702549,27.8 40.5,27.8 C39.2297451,27.8 38.2,26.7702549 38.2,25.5 C38.2,24.2297451 39.2297451,23.2 40.5,23.2 Z M40.5,24.8 C40.1134007,24.8 39.8,25.1134007 39.8,25.5 C39.8,25.8865993 40.1134007,26.2 40.5,26.2 C40.8865993,26.2 41.2,25.8865993 41.2,25.5 C41.2,25.1134007 40.8865993,24.8 40.5,24.8 Z" id="Rectangle-Copy-4" fill="#FAA90D" fill-rule="nonzero"></path>
            <path d="M46.5,28.2 C47.7702549,28.2 48.8,29.2297451 48.8,30.5 C48.8,31.7702549 47.7702549,32.8 46.5,32.8 C45.2297451,32.8 44.2,31.7702549 44.2,30.5 C44.2,29.2297451 45.2297451,28.2 46.5,28.2 Z M46.5,29.8 C46.1134007,29.8 45.8,30.1134007 45.8,30.5 C45.8,30.8865993 46.1134007,31.2 46.5,31.2 C46.8865993,31.2 47.2,30.8865993 47.2,30.5 C47.2,30.1134007 46.8865993,29.8 46.5,29.8 Z" id="Rectangle-Copy-5" fill="#404040" fill-rule="nonzero"></path>
            <path d="M35,21.75 L52,21.75 C52.4142136,21.75 52.75,21.4142136 52.75,21 C52.75,20.5857864 52.4142136,20.25 52,20.25 L35,20.25 C34.5857864,20.25 34.25,20.5857864 34.25,21 C34.25,21.4142136 34.5857864,21.75 35,21.75 Z" id="Path-25-Copy" fill="#404040" fill-rule="nonzero"></path>
            <path d="M7,29.2 L24.90625,29.2 C28.713563,29.2 31.8,32.286437 31.8,36.09375 L31.8,40.1875 C31.8,41.7338973 30.5463973,42.9875 29,42.9875 L7,42.9875 C5.4536027,42.9875 4.2,41.7338973 4.2,40.1875 L4.2,32 C4.2,30.4536027 5.4536027,29.2 7,29.2 Z M7,30.8 C6.3372583,30.8 5.8,31.3372583 5.8,32 L5.8,40.1875 C5.8,40.8502417 6.3372583,41.3875 7,41.3875 L29,41.3875 C29.6627417,41.3875 30.2,40.8502417 30.2,40.1875 L30.2,36.09375 C30.2,33.1700926 27.8299074,30.8 24.90625,30.8 L7,30.8 Z" id="Combined-Shape" fill="#404040" fill-rule="nonzero"></path>
            <polygon id="Path-46" fill="#404040" fill-rule="nonzero" points="5 37.3 31 37.3 31 35.7 5 35.7"></polygon>
            <path d="M5,39.3 L8,39.3 C8.4418278,39.3 8.8,38.9418278 8.8,38.5 C8.8,38.0581722 8.4418278,37.7 8,37.7 L5,37.7 C4.5581722,37.7 4.2,38.0581722 4.2,38.5 C4.2,38.9418278 4.5581722,39.3 5,39.3 Z" id="Path-46-Copy" fill="#404040" fill-rule="nonzero"></path>
            <path d="M13.4166667,39.3 L22.7321254,39.3 C23.1739532,39.3 23.5321254,38.9418278 23.5321254,38.5 C23.5321254,38.0581722 23.1739532,37.7 22.7321254,37.7 L13.4166667,37.7 C12.9748389,37.7 12.6166667,38.0581722 12.6166667,38.5 C12.6166667,38.9418278 12.9748389,39.3 13.4166667,39.3 Z" id="Path-46-Copy-3" fill="#404040" fill-rule="nonzero"></path>
            <path d="M29.5,39.3 L30.3898548,39.3 C30.8316826,39.3 31.1898548,38.9418278 31.1898548,38.5 C31.1898548,38.0581722 30.8316826,37.7 30.3898548,37.7 L29.5,37.7 C29.0581722,37.7 28.7,38.0581722 28.7,38.5 C28.7,38.9418278 29.0581722,39.3 29.5,39.3 Z" id="Path-46-Copy-4" fill="#404040" fill-rule="nonzero"></path>
            <polygon id="Path-47" fill="#404040" fill-rule="nonzero" points="10.2 30 10.2 37 11.8 37 11.8 30"></polygon>
            <polygon id="Path-47-Copy" fill="#404040" fill-rule="nonzero" points="16.2 30 16.2 37 17.8 37 17.8 30"></polygon>
            <polygon id="Path-47-Copy-2" fill="#404040" fill-rule="nonzero" points="22.2 30 22.2 37 23.8 37 23.8 30"></polygon>
            <path d="M10,44.8 C11.5463973,44.8 12.8,43.5463973 12.8,42 C12.8,40.4536027 11.5463973,39.2 10,39.2 C8.4536027,39.2 7.2,40.4536027 7.2,42 C7.2,43.5463973 8.4536027,44.8 10,44.8 Z M10,43.2 C9.3372583,43.2 8.8,42.6627417 8.8,42 C8.8,41.3372583 9.3372583,40.8 10,40.8 C10.6627417,40.8 11.2,41.3372583 11.2,42 C11.2,42.6627417 10.6627417,43.2 10,43.2 Z" id="Oval-Copy" fill="#404040" fill-rule="nonzero"></path>
            <path d="M25.8,44.8 C27.3463973,44.8 28.6,43.5463973 28.6,42 C28.6,40.4536027 27.3463973,39.2 25.8,39.2 C24.2536027,39.2 23,40.4536027 23,42 C23,43.5463973 24.2536027,44.8 25.8,44.8 Z M25.8,43.2 C25.1372583,43.2 24.6,42.6627417 24.6,42 C24.6,41.3372583 25.1372583,40.8 25.8,40.8 C26.4627417,40.8 27,41.3372583 27,42 C27,42.6627417 26.4627417,43.2 25.8,43.2 Z" id="Oval-Copy-2" fill="#404040" fill-rule="nonzero"></path>
            <polygon id="Path-50" fill="#404040" fill-rule="nonzero" points="35.7 21 35.7 45.5 37.3 45.5 37.3 21"></polygon>
            <polygon id="Path-50-Copy" fill="#404040" fill-rule="nonzero" points="50.2 21 50.2 45.1166667 51.8 45.1166667 51.8 21"></polygon>
            <path d="M3,45.8 L57,45.8 C57.4418278,45.8 57.8,45.4418278 57.8,45 C57.8,44.5581722 57.4418278,44.2 57,44.2 L3,44.2 C2.5581722,44.2 2.2,44.5581722 2.2,45 C2.2,45.4418278 2.5581722,45.8 3,45.8 Z" id="Path-25" fill="#404040" fill-rule="nonzero"></path>
            <g id="Group-3" transform="translate(3.000000, 5.000000)" fill-rule="nonzero">
                <path d="M11.4937442,0.00878815909 L15.9000641,0.528555509 C16.0721808,0.550454878 16.2399953,0.606373003 16.3919988,0.693649432 L21.1252973,3.42797169 C21.1412784,3.43709997 21.1569613,3.44654224 21.1723568,3.45629157 C23.6317733,3.22247942 25.1493554,3.10397014 25.6065779,3.12145942 L25.712283,3.12520632 C25.8192698,3.12796817 25.9445753,3.12795291 26.2184611,3.12676272 L26.6064983,3.12656851 C26.6321927,3.12671237 26.6578654,3.12690123 26.6847451,3.12713881 C27.8506653,3.13744397 28.6968787,3.257583 29.5141567,3.62145862 C30.4297682,4.02911513 31.1223026,4.70286724 31.56163,5.60979682 C33.2394414,7.16465898 33.9299538,8.589168 33.4523873,9.86615141 C33.0347376,10.9857931 31.8125626,11.6549516 29.7058905,11.6676784 L21.6278734,11.7172688 L17.8361446,14.8352903 C17.6704279,14.9733164 17.4714871,15.066221 17.2613921,15.1042826 L11.0341579,16.2689758 C10.7744711,16.3184175 10.5072966,16.2855395 10.2684457,16.1791962 C10.040577,16.0777425 9.84544428,15.9128885 9.70647698,15.6987715 C9.41803315,15.2492855 9.43918026,14.6721166 9.76507093,14.2506239 L11.6797878,11.7795453 L4.95774916,11.8207718 C4.4811261,11.8261627 4.03982086,11.5663924 3.80862746,11.145624 L0.152420158,4.40711594 C-0.071032371,3.99202693 -0.048231692,3.48918803 0.217115941,3.1032951 C0.48071167,2.71691803 0.938302848,2.51132274 1.40516661,2.56307281 L5.61902891,3.03185942 C5.91874557,3.06424946 6.1996729,3.2020155 6.40957713,3.41918891 L7.78853394,4.84587199 C8.94879025,4.71960638 10.4975897,4.55284381 12.1080912,4.381406 L10.331402,2.00872542 C10.0297443,1.60295464 9.99411633,1.05998624 10.2484957,0.622538914 C10.502641,0.18856662 10.9915985,-0.0498774881 11.4937442,0.00878815909 Z M1.33646184,3.86344922 L4.94863462,10.520812 L14.3443629,10.4631775 L13.5258817,11.5194858 L10.8427694,14.9822329 L17.0144104,13.8279443 L21.1585316,10.4201255 L21.3892127,10.4187094 L29.6979736,10.3677026 C31.3106452,10.3579601 32.028086,9.96508067 32.2344273,9.41164772 C32.4597598,8.80940482 32.0741261,7.93762889 30.9617659,6.83493687 L30.9425914,6.8391895 L30.8465392,6.84623717 L28.0638668,6.84623717 C27.7048817,6.84623717 27.4138668,6.55522225 27.4138668,6.19623717 C27.4138668,5.86988709 27.654375,5.5997107 27.9678145,5.55328483 L28.0638668,5.54623717 L29.9842559,5.54628079 C29.716228,5.23149091 29.3838236,4.98645776 28.9853991,4.80906771 C28.368151,4.53425115 27.6757461,4.4359487 26.6732553,4.42708803 C26.5458962,4.42596235 26.4453327,4.42599154 26.2235176,4.42675276 C25.8343021,4.4284444 25.7249698,4.42790136 25.5532672,4.42036074 C25.1725419,4.40580581 23.5421589,4.53512802 21.0274185,4.77603116 L20.958,4.782 L13.461,5.545 L13.3821761,5.55344884 C11.2401707,5.78021964 9.07220739,6.01348027 7.63328128,6.17048381 L5.30694853,6.51877628 C4.95192728,6.57197597 4.62099882,6.32730126 4.56779912,5.97228002 C4.51459943,5.61725877 4.75927413,5.28633031 5.11429538,5.23313061 L6.198,5.07 L5.47610887,4.32397636 L1.33646184,3.86344922 Z M11.4327065,1.31060037 L13.613,4.223 L18.962,3.679 L15.7432125,1.82018096 C15.7423524,1.81968717 15.7388683,1.8185262 15.7418806,1.81888208 L11.4327065,1.31060037 Z" id="Shape" stroke="#404040" stroke-width="0.3" fill="#404040" stroke-linejoin="round"></path>
                <g id="Group-2" transform="translate(10.563867, 7.196237)" fill="#FAA90D">
                    <g id="Group">
                        <path d="M2.53061684,0.306611547 L1.21811684,0.306611547 C0.859131754,0.306611547 0.568116841,0.597626459 0.568116841,0.956611547 C0.568116841,1.31559663 0.859131754,1.60661155 1.21811684,1.60661155 L2.53061684,1.60661155 C2.88960193,1.60661155 3.18061684,1.31559663 3.18061684,0.956611547 C3.18061684,0.597626459 2.88960193,0.306611547 2.53061684,0.306611547 Z" id="Path-41-Copy"></path>
                        <path d="M6.03061684,0.306611547 L4.71811684,0.306611547 C4.35913175,0.306611547 4.06811684,0.597626459 4.06811684,0.956611547 C4.06811684,1.31559663 4.35913175,1.60661155 4.71811684,1.60661155 L6.03061684,1.60661155 C6.38960193,1.60661155 6.68061684,1.31559663 6.68061684,0.956611547 C6.68061684,0.597626459 6.38960193,0.306611547 6.03061684,0.306611547 Z" id="Path-41-Copy-2"></path>
                        <path d="M9.53061684,0.306611547 L8.21811684,0.306611547 C7.85913175,0.306611547 7.56811684,0.597626459 7.56811684,0.956611547 C7.56811684,1.31559663 7.85913175,1.60661155 8.21811684,1.60661155 L9.53061684,1.60661155 C9.88960193,1.60661155 10.1806168,1.31559663 10.1806168,0.956611547 C10.1806168,0.597626459 9.88960193,0.306611547 9.53061684,0.306611547 Z" id="Path-41-Copy-3"></path>
                        <path d="M13.0306168,0.306611547 L11.7181168,0.306611547 C11.3591318,0.306611547 11.0681168,0.597626459 11.0681168,0.956611547 C11.0681168,1.31559663 11.3591318,1.60661155 11.7181168,1.60661155 L13.0306168,1.60661155 C13.3896019,1.60661155 13.6806168,1.31559663 13.6806168,0.956611547 C13.6806168,0.597626459 13.3896019,0.306611547 13.0306168,0.306611547 Z" id="Path-41-Copy-4"></path>
                    </g>
                </g>
            </g>
            <path d="M10,43.2 C9.3372583,43.2 8.8,42.6627417 8.8,42 C8.8,41.3372583 9.3372583,40.8 10,40.8 C10.6627417,40.8 11.2,41.3372583 11.2,42 C11.2,42.6627417 10.6627417,43.2 10,43.2 Z" id="Path" fill="#FAA90D" fill-rule="nonzero"></path>
            <path d="M25.8,43.2 C25.1372583,43.2 24.6,42.6627417 24.6,42 C24.6,41.3372583 25.1372583,40.8 25.8,40.8 C26.4627417,40.8 27,41.3372583 27,42 C27,42.6627417 26.4627417,43.2 25.8,43.2 Z" id="Path-Copy" fill="#FAA90D" fill-rule="nonzero"></path>
            <rect id="Rectangle" x="0" y="0" width="60" height="50"></rect>
        </g>
    </g>
</svg>