<?xml version="1.0" encoding="UTF-8"?>
<svg width="24px" height="24px" viewBox="0 0 24 24" version="1.1" xmlns="http://www.w3.org/2000/svg" xmlns:xlink="http://www.w3.org/1999/xlink">
    <!-- Generator: Sketch 60 (88103) - https://sketch.com -->
    <title>Icons/Menu/Support/Inactive</title>
    <desc>Created with Sketch.</desc>
    <g id="Icons/Menu/Support/Inactive" stroke="none" stroke-width="1" fill="none" fill-rule="evenodd">
        <path d="M18,4.5 C19.3807119,4.5 20.5,5.61928813 20.5,7 L20.5,13.6227856 C20.5,15.0034975 19.3807119,16.1227856 17.9999338,16.1227856 L12.2173826,16.12202 L7.277388,19.4159999 C6.94516943,19.6375226 6.50011823,19.3994493 6.5,19.000148 L6.49914811,16.1223932 L6,16.1227856 C4.61928813,16.1227856 3.5,15.0034975 3.5,13.6227856 L3.5,7 C3.5,5.61928813 4.61928813,4.5 6,4.5 L18,4.5 Z M18,5.5 L6,5.5 C5.17157288,5.5 4.5,6.17157288 4.5,7 L4.5,13.6227856 C4.5,14.4512127 5.17157288,15.1227856 5.9996068,15.1227858 L6.9986068,15.1220002 C7.27484484,15.1217829 7.4989182,15.3456139 7.49899998,15.621852 L7.49972347,18.0658235 L11.788612,15.2060001 C11.8707724,15.1512157 11.9673156,15.1219869 12.0660662,15.122 L18,15.1227856 C18.8284271,15.1227856 19.5,14.4512127 19.5,13.6227856 L19.5,7 C19.5,6.17157288 18.8284271,5.5 18,5.5 Z M8,9 C8.55228475,9 9,9.44771525 9,10 C9,10.5522847 8.55228475,11 8,11 C7.44771525,11 7,10.5522847 7,10 C7,9.44771525 7.44771525,9 8,9 Z M12,9 C12.5522847,9 13,9.44771525 13,10 C13,10.5522847 12.5522847,11 12,11 C11.4477153,11 11,10.5522847 11,10 C11,9.44771525 11.4477153,9 12,9 Z M16,9 C16.5522847,9 17,9.44771525 17,10 C17,10.5522847 16.5522847,11 16,11 C15.4477153,11 15,10.5522847 15,10 C15,9.44771525 15.4477153,9 16,9 Z" fill="#121216"></path>
        <rect id="Rectangle" x="0" y="0" width="24" height="24"></rect>
    </g>
</svg>