<?xml version="1.0" encoding="UTF-8"?>
<svg width="24px" height="24px" viewBox="0 0 24 24" version="1.1" xmlns="http://www.w3.org/2000/svg" xmlns:xlink="http://www.w3.org/1999/xlink">
    <!-- Generator: Sketch 60 (88103) - https://sketch.com -->
    <title>Icons/Menu/Language/Active</title>
    <desc>Created with Sketch.</desc>
    <g id="Icons/Menu/Language/Active" stroke="none" stroke-width="1" fill="none" fill-rule="evenodd">
        <path d="M8.864,15.142 C8.90066685,15.2373338 8.919,15.3253329 8.919,15.406 C8.919,15.5966676 8.85666729,15.7524994 8.732,15.8735 C8.60733271,15.9945006 8.46433414,16.055 8.303,16.055 C8.17099934,16.055 8.05183386,16.0146671 7.9455,15.934 C7.83916613,15.8533329 7.75666696,15.743334 7.698,15.604 L7.126,14.273 L3.848,14.273 L3.276,15.615 C3.22466641,15.754334 3.14583386,15.8624996 3.0395,15.9395 C2.93316614,16.0165004 2.81766729,16.055 2.693,16.055 C2.50233238,16.055 2.3575005,16.0036672 2.2585,15.901 C2.1594995,15.7983328 2.11,15.6590009 2.11,15.483 C2.11,15.4169997 2.12099989,15.3473337 2.143,15.274 L4.882,8.696 C4.94066696,8.5493326 5.02866608,8.43566707 5.146,8.355 C5.26333392,8.27433293 5.3953326,8.24133326 5.542,8.256 C5.67400066,8.256 5.79683276,8.29449961 5.9105,8.3715 C6.02416723,8.44850039 6.10666641,8.55666597 6.158,8.696 L8.864,15.142 Z M4.387,13.008 L6.587,13.008 L5.476,10.434 L4.387,13.008 Z M12.791,10.005 C13.2970025,10.005 13.7553313,10.1351654 14.166,10.3955 C14.5766687,10.6558346 14.9011655,11.0169977 15.1395,11.479 C15.3778345,11.9410023 15.497,12.4653304 15.497,13.052 C15.497,13.6386696 15.3796678,14.164831 15.145,14.6305 C14.9103322,15.096169 14.589502,15.4591654 14.1825,15.7195 C13.775498,15.9798346 13.3263358,16.11 12.835,16.11 C12.4829982,16.11 12.1511682,16.0385007 11.8395,15.8955 C11.5278318,15.7524993 11.2693344,15.5783344 11.064,15.373 L11.064,15.439 C11.064,15.6296676 11.0016673,15.789166 10.877,15.9175 C10.7523327,16.045834 10.5946676,16.11 10.404,16.11 C10.2133324,16.11 10.0556673,16.0476673 9.931,15.923 C9.80633271,15.7983327 9.744,15.637001 9.744,15.439 L9.744,8.531 C9.744,8.34033238 9.80633271,8.18083398 9.931,8.0525 C10.0556673,7.92416602 10.2133324,7.86 10.404,7.86 C10.5946676,7.86 10.7523327,7.92416602 10.877,8.0525 C11.0016673,8.18083398 11.064,8.34033238 11.064,8.531 L11.064,10.83 C11.2400009,10.6099989 11.4856651,10.4175008 11.801,10.2525 C12.1163349,10.0874992 12.4463316,10.005 12.791,10.005 Z M12.626,14.9 C13.0953357,14.9 13.4803318,14.7240018 13.781,14.372 C14.0816682,14.0199982 14.232,13.5800026 14.232,13.052 C14.232,12.5239974 14.0835015,12.0858351 13.7865,11.7375 C13.4894985,11.3891649 13.102669,11.215 12.626,11.215 C12.1493309,11.215 11.7606682,11.3891649 11.46,11.7375 C11.1593318,12.0858351 11.009,12.5239974 11.009,13.052 C11.009,13.5800026 11.1593318,14.0199982 11.46,14.372 C11.7606682,14.7240018 12.1493309,14.9 12.626,14.9 Z M19.16,10.005 C19.7833364,10.005 20.2856648,10.1021657 20.667,10.2965 C21.0483352,10.4908343 21.239,10.7493317 21.239,11.072 C21.239,11.2333341 21.1913338,11.3744994 21.096,11.4955 C21.0006662,11.6165006 20.8760008,11.677 20.722,11.677 C20.6046661,11.677 20.5093337,11.6605002 20.436,11.6275 C20.3626663,11.5944998 20.291167,11.5505003 20.2215,11.4955 C20.151833,11.4404997 20.0840003,11.3946669 20.018,11.358 C19.9446663,11.3213332 19.8365007,11.2883335 19.6935,11.259 C19.5504993,11.2296665 19.4350004,11.215 19.347,11.215 C18.7969973,11.215 18.3661682,11.3854983 18.0545,11.7265 C17.7428318,12.0675017 17.587,12.5129973 17.587,13.063 C17.587,13.5910026 17.7446651,14.0291649 18.06,14.3775 C18.3753349,14.7258351 18.7786642,14.9 19.27,14.9 C19.6293351,14.9 19.8969991,14.8560004 20.073,14.768 C20.1170002,14.7459999 20.1774996,14.7075003 20.2545,14.6525 C20.3315004,14.5974997 20.4029997,14.5553335 20.469,14.526 C20.5350003,14.4966665 20.6156662,14.482 20.711,14.482 C20.8943342,14.482 21.0391661,14.5406661 21.1455,14.658 C21.2518339,14.7753339 21.305,14.9256658 21.305,15.109 C21.305,15.2850009 21.2023344,15.4499992 20.997,15.604 C20.7916656,15.7580008 20.520335,15.8808329 20.183,15.9725 C19.845665,16.0641671 19.4863352,16.11 19.105,16.11 C18.5403305,16.11 18.0435021,15.9780013 17.6145,15.714 C17.1854979,15.4499987 16.8536678,15.085169 16.619,14.6195 C16.3843322,14.153831 16.267,13.6350029 16.267,13.063 C16.267,12.468997 16.3898321,11.9410023 16.6355,11.479 C16.8811679,11.0169977 17.2239978,10.6558346 17.664,10.3955 C18.1040022,10.1351654 18.6026639,10.005 19.16,10.005 Z" id="Abc" fill="#0393CD"></path>
        <rect id="Rectangle" x="0" y="0" width="24" height="24"></rect>
    </g>
</svg>