<?xml version="1.0" encoding="UTF-8"?>
<svg width="16px" height="22px" viewBox="0 0 16 22" version="1.1" xmlns="http://www.w3.org/2000/svg" xmlns:xlink="http://www.w3.org/1999/xlink">
    <!-- Generator: sketchtool 59.1 (101010) - https://sketch.com -->
    <title>F1C8F8A8-9881-42E2-BC0B-166CBDD8E136</title>
    <desc>Created with sketchtool.</desc>
    <g id="Desktop---Home" stroke="none" stroke-width="1" fill="none" fill-rule="evenodd">
        <g id="Desktop_Home_Phase_01_Hotel_01_Default" transform="translate(-198.000000, -497.000000)">
            <g id="Search_Menu_Flight_Location" transform="translate(184.000000, 461.000000)">
                <g id="Icons/Info/Pin-Icons/Info/Search/Location" transform="translate(8.000000, 33.000000)">
                    <path d="M14.0729167,3.90833322 C15.2673929,3.90833322 16.3487451,4.11654359 17.3112533,4.53679359 C18.2706737,4.95569545 19.0852316,5.53167988 19.7480314,6.26280955 C20.4049098,6.98740727 20.905759,7.83005213 21.2488547,8.78533808 C21.5886424,9.73141372 21.7583334,10.7295962 21.7583334,11.7760412 C21.7583334,12.8423942 21.5495424,13.926119 21.1353058,15.0241747 C20.7364953,16.0813391 20.2338783,17.118184 19.6278965,18.134466 C19.0286914,19.1393828 18.3791641,20.0918147 17.6793213,20.9916124 C17.0002947,21.8646466 16.3619868,22.6434375 15.7640192,23.3282528 C15.7348274,23.3982218 15.7214478,23.4017832 15.6945173,23.4089516 C15.6485187,23.4546872 15.6485187,23.4546872 15.6056059,23.4936765 C15.5514633,23.5424049 15.4766157,23.6064411 15.3787024,23.6880356 C15.0592195,23.9542713 14.6745152,24.0916657 14.2552083,24.0916657 L14.2005208,24.0916657 C13.7679467,24.0916657 13.3757801,23.9535789 13.0582395,23.679837 C12.9634313,23.5981058 12.8909258,23.5339343 12.8384005,23.4850314 C12.7966756,23.4458152 12.7966756,23.4458152 12.751793,23.3996512 C12.7254967,23.3913891 12.7123293,23.3872521 12.684779,23.3200016 C12.0601138,22.5989998 11.3855629,21.8134145 10.6610794,20.9631943 C9.9052825,20.076226 9.20574893,19.1424737 8.56255362,18.1620693 C7.91105605,17.1690099 7.36625807,16.14593 6.9286568,15.0931502 C6.47179267,13.9940279 6.24166656,12.8867545 6.24166656,11.7760412 C6.24166656,10.7120577 6.45138945,9.69726955 6.87012696,8.73822563 C7.2840295,7.79025534 7.84719662,6.95556127 8.55761991,6.23843592 C9.26916684,5.52017632 10.0989114,4.95245641 11.0424111,4.53758422 C11.9960306,4.11826219 13.00843,3.90833322 14.0729167,3.90833322 Z M13.8973051,22.4033097 C13.9302666,22.4282358 13.9821721,22.4738932 14.048531,22.5310991 C14.0834228,22.5611782 14.1226755,22.5749996 14.2005206,22.5749996 L14.2552081,22.5749996 C14.3220148,22.5749996 14.3626534,22.5604858 14.4077557,22.5229006 C14.4771644,22.46506 14.5313432,22.4189807 14.5689786,22.3859147 C14.5677451,22.3888156 14.5664568,22.3919297 14.5651083,22.3952705 L14.5846666,22.3713332 L14.5790396,22.3770359 L14.5689786,22.3859147 C14.5872831,22.3428652 14.5934854,22.3467915 14.6082216,22.3506354 L14.6036666,22.3493332 L14.5959624,22.3600086 L14.5882373,22.3688372 C14.5891762,22.3679955 14.5901002,22.3671657 14.5910091,22.3663476 C14.604057,22.3543458 14.6084847,22.350273 14.6082216,22.3506354 L14.6036666,22.3493332 L14.8922545,22.0173956 C15.3921119,21.4328171 15.9221416,20.7804634 16.4821367,20.0604697 C17.1434119,19.2102587 17.7577608,18.3094106 18.3252282,17.3577204 C18.8859189,16.4173955 19.3494381,15.4612049 19.7162564,14.4888452 C20.0676486,13.5573769 20.2416663,12.6541426 20.2416663,11.7760414 C20.2416663,10.902338 20.1014646,10.0776221 19.8214576,9.29799471 C19.5447585,8.52757764 19.1463111,7.85721684 18.6243641,7.28146088 C18.1083386,6.71223687 17.4706541,6.26132187 16.7043715,5.92674777 C15.9411797,5.59352321 15.0659442,5.42499983 14.0729164,5.42499983 C13.2172545,5.42499983 12.4128319,5.59180319 11.6529011,5.92595714 C10.8828506,6.26456091 10.2117421,6.72374043 9.63508815,7.30583451 C9.05731055,7.88906284 8.59965454,8.56737443 8.2600811,9.34510716 C7.92534262,10.1117663 7.75833317,10.9198765 7.75833317,11.7760414 C7.75833317,12.6826993 7.94747369,13.5927667 8.32915542,14.5110155 C8.73010001,15.4756069 9.23043046,16.4151809 9.83067526,17.3301172 C10.4392223,18.2577083 11.1007863,19.140778 11.8154828,19.9795128 C12.4026225,20.6685528 12.9566694,21.3147794 13.4776196,21.9181895 L13.8616666,22.3623332 L13.8596666,22.3633332 L13.8623029,22.3658813 L13.8716666,22.3743332 L13.8621264,22.362719 L13.8621264,22.362719 C13.8743116,22.3582871 13.8810616,22.3641998 13.8940717,22.3953673 C13.8876802,22.3895632 13.8817786,22.3841579 13.8763738,22.3791582 L13.8763738,22.3791582 L13.8973051,22.4033097 Z M13.8581432,22.3619819 L13.8595149,22.3634489 L13.8596666,22.3633332 L13.8581432,22.3619819 Z M14,8.57499989 C14.8452582,8.57499989 15.5880406,8.88278267 16.1859623,9.48070436 C16.783884,10.0786261 17.0916668,10.8214085 17.0916668,11.6666667 C17.0916668,12.5084278 16.7896698,13.2511772 16.2021782,13.8545469 C15.6097997,14.4629357 14.8669991,14.7765626 14.0182292,14.7765626 C13.1722173,14.7765626 12.4266252,14.4652164 11.8231523,13.8617436 C11.2196794,13.2582707 10.9083332,12.5126785 10.9083332,11.6666667 C10.9083332,10.8214085 11.216116,10.0786261 11.8140377,9.48070436 C12.4119594,8.88278267 13.1547418,8.57499989 14,8.57499989 Z M13.9999999,10.0916665 C13.5570571,10.0916665 13.2000241,10.2396083 12.8864829,10.5531496 C12.5729417,10.8666908 12.4249998,11.2237238 12.4249998,11.6666665 C12.4249998,12.1088556 12.5754546,12.4691552 12.8955975,12.7892981 C13.2157404,13.1094409 13.57604,13.2598957 14.018229,13.2598957 C14.45766,13.2598957 14.8085986,13.1117217 15.1155301,12.7964947 C15.4273486,12.4762486 15.5749999,12.1131063 15.5749999,11.6666665 C15.5749999,11.2237238 15.427058,10.8666908 15.1135168,10.5531496 C14.7999756,10.2396083 14.4429426,10.0916665 13.9999999,10.0916665 Z" id="Icons/Info/Search/Location" fill="#0393CD" fill-rule="nonzero"></path>
                    <rect id="Rectangle" x="0" y="0" width="28" height="28"></rect>
                </g>
            </g>
        </g>
    </g>
</svg>