<?xml version="1.0" encoding="UTF-8"?>
<svg width="24px" height="24px" viewBox="0 0 24 24" version="1.1" xmlns="http://www.w3.org/2000/svg" xmlns:xlink="http://www.w3.org/1999/xlink">
    <!-- Generator: Sketch 60 (88103) - https://sketch.com -->
    <title>Icons/Menu/Logout/Active</title>
    <desc>Created with Sketch.</desc>
    <g id="Icons/Menu/Logout/Active" stroke="none" stroke-width="1" fill="none" fill-rule="evenodd">
        <path d="M14.5048622,4 C14.7783192,4 15,4.22829625 15,4.50991394 C15,4.76024077 14.8248448,4.96843709 14.5938638,5.01161248 L14.5048622,5.01982787 L6.98946883,5.01974836 L6.98946883,18.9791523 L14.0677566,18.9801721 C14.3108296,18.9801721 14.5129929,19.1605543 14.5549171,19.3984284 L14.5628945,19.4900861 C14.5628945,19.7404129 14.3877393,19.9486092 14.1567583,19.9917846 L14.0677566,20 L6.49513783,20 C6.25206488,20 6.0499016,19.8196178 6.00797733,19.5817437 L6,19.4900861 L6,4.50991394 C6,4.2595871 6.17515517,4.05139079 6.40613618,4.0082154 L6.49513783,4 L14.5048622,4 Z M15.623932,8.14644661 C15.7974984,8.32001296 15.8167835,8.58943736 15.6817875,8.7843055 L15.623932,8.85355339 L13.535,10.941 L18.9064066,10.9417787 C19.182549,10.9417787 19.4064066,11.1656364 19.4064066,11.4417787 C19.4064066,11.6872386 19.2295315,11.8913871 18.9962823,11.9337231 L18.9064066,11.9417787 L13.243,11.941 L15.623932,14.3218116 C15.7974984,14.4953779 15.8167835,14.7648023 15.6817875,14.9596705 L15.623932,15.0289184 C15.4503657,15.2024847 15.1809413,15.2217699 14.9860731,15.0867738 L14.9168252,15.0289184 L11.8291427,11.9412359 C11.6555764,11.7676695 11.6362912,11.4982451 11.7712873,11.303377 L11.8291427,11.2341291 L14.9168252,8.14644661 C15.1120874,7.95118446 15.4286699,7.95118446 15.623932,8.14644661 Z" id="Icons/Menu/Logout" fill="#0393CD"></path>
        <rect id="Rectangle" x="0" y="0" width="24" height="24"></rect>
    </g>
</svg>