<?xml version="1.0" encoding="UTF-8"?>
<svg width="24px" height="24px" viewBox="0 0 24 24" version="1.1" xmlns="http://www.w3.org/2000/svg" xmlns:xlink="http://www.w3.org/1999/xlink">
    <!-- Generator: Sketch 60 (88103) - https://sketch.com -->
    <title>Icons/Menu/Booking/Active</title>
    <desc>Created with Sketch.</desc>
    <g id="Icons/Menu/Booking/Active" stroke="none" stroke-width="1" fill="none" fill-rule="evenodd">
        <path d="M16.5,4 C16.7761424,4 17,4.22385763 17,4.5 L17,5 L17.8666667,5 C19.0448741,5 20,5.96430977 20,7.15384615 L20,16.8461538 C20,18.0356902 19.0448741,19 17.8666667,19 L6.13333333,19 C4.95512587,19 4,18.0356902 4,16.8461538 L4,7.15384615 C4,5.96430977 4.95512587,5 6.13333333,5 L7,5 L7,4.5 C7,4.22385763 7.22385763,4 7.5,4 C7.77614237,4 8,4.22385763 8,4.5 L8,5 L16,5 L16,4.5 C16,4.22385763 16.2238576,4 16.5,4 Z M5.066,9.499 L5.06666667,16.8461538 C5.06666667,17.440922 5.5442296,17.9230769 6.13333333,17.9230769 L17.8666667,17.9230769 C18.4557704,17.9230769 18.9333333,17.440922 18.9333333,16.8461538 L18.933,9.5 L5.066,9.499 Z M7,6.076 L6.13333333,6.07692308 C5.5442296,6.07692308 5.06666667,6.55907796 5.06666667,7.15384615 L5.066,8.499 L18.933,8.5 L18.9333333,7.15384615 C18.9333333,6.55907796 18.4557704,6.07692308 17.8666667,6.07692308 L17,6.076 L17,6.5 C17,6.77614237 16.7761424,7 16.5,7 C16.2238576,7 16,6.77614237 16,6.5 L16,6.076 L8,6.076 L8,6.5 C8,6.77614237 7.77614237,7 7.5,7 C7.22385763,7 7,6.77614237 7,6.5 L7,6.076 Z" fill="#0393CD"></path>
        <rect id="Rectangle" x="0" y="0" width="24" height="24"></rect>
    </g>
</svg>