<?xml version="1.0" encoding="UTF-8"?>
<svg width="24px" height="24px" viewBox="0 0 24 24" version="1.1" xmlns="http://www.w3.org/2000/svg" xmlns:xlink="http://www.w3.org/1999/xlink">
    <!-- Generator: Sketch 60 (88103) - https://sketch.com -->
    <title>Icons/Menu/Profile/Inactive</title>
    <desc>Created with Sketch.</desc>
    <g id="Icons/Menu/Profile/Inactive" stroke="none" stroke-width="1" fill="none" fill-rule="evenodd">
        <g id="Icons/Favorite/Inactive/Hotel" transform="translate(5.500000, 5.000000)" fill="#121216">
            <path d="M7,-0.5 C5.06700338,-0.5 3.5,1.06700338 3.5,3 L3.5,4 C3.5,5.93299662 5.06700338,7.5 7,7.5 C8.93299662,7.5 10.5,5.93299662 10.5,4 L10.5,3 C10.5,1.06700338 8.93299662,-0.5 7,-0.5 Z M7,0.5 C8.38071187,0.5 9.5,1.61928813 9.5,3 L9.5,4 C9.5,5.38071187 8.38071187,6.5 7,6.5 C5.61928813,6.5 4.5,5.38071187 4.5,4 L4.5,3 C4.5,1.61928813 5.61928813,0.5 7,0.5 Z"></path>
            <path d="M1,13.5 C1,11.3754748 2.722268,9.65320676 4.84679324,9.65320676 L9.15320676,9.65320676 C11.277732,9.65320676 13,11.3754748 13,13.5 C13,13.7761424 13.2238576,14 13.5,14 C13.7761424,14 14,13.7761424 14,13.5 C14,10.82319 11.8300168,8.65320676 9.15320676,8.65320676 L4.84679324,8.65320676 C2.16998325,8.65320676 0,10.82319 0,13.5 C0,13.7761424 0.223857625,14 0.5,14 C0.776142375,14 1,13.7761424 1,13.5 Z"></path>
        </g>
        <rect id="Rectangle" x="0" y="0" width="24" height="24"></rect>
    </g>
</svg>