<?xml version="1.0" encoding="UTF-8"?>
<svg width="24px" height="24px" viewBox="0 0 24 24" version="1.1" xmlns="http://www.w3.org/2000/svg" xmlns:xlink="http://www.w3.org/1999/xlink">
    <!-- Generator: Sketch 59.1 (86144) - https://sketch.com -->
    <title>Icons/Info/Search/Time@1x</title>
    <desc>Created with Sketch.</desc>
    <g id="Icons/Info/Search/Time" stroke="none" stroke-width="1" fill="none" fill-rule="evenodd">
        <path d="M12,4.4 C16.1973641,4.4 19.6,7.8026359 19.6,12 C19.6,16.1973641 16.1973641,19.6 12,19.6 C7.8026359,19.6 4.4,16.1973641 4.4,12 C4.4,7.8026359 7.8026359,4.4 12,4.4 Z M12,5.6 C8.4653776,5.6 5.6,8.4653776 5.6,12 C5.6,15.5346224 8.4653776,18.4 12,18.4 C15.5346224,18.4 18.4,15.5346224 18.4,12 C18.4,8.4653776 15.5346224,5.6 12,5.6 Z M11.9444268,7.42738681 C12.2757976,7.42738681 12.5444268,7.69601596 12.5444268,8.02738681 L12.5444268,8.02738681 L12.5444268,11.4273868 L15.9444268,11.4273868 C16.2757976,11.4273868 16.5444268,11.696016 16.5444268,12.0273868 C16.5444268,12.3587577 16.2757976,12.6273868 15.9444268,12.6273868 L15.9444268,12.6273868 L11.9444268,12.6273868 C11.6130559,12.6273868 11.3444268,12.3587577 11.3444268,12.0273868 L11.3444268,12.0273868 L11.3444268,8.02738681 C11.3444268,7.69601596 11.6130559,7.42738681 11.9444268,7.42738681 Z" id="Combined-Shape" fill="#0393CD"></path>
        <rect id="Rectangle" x="0" y="0" width="24" height="24"></rect>
    </g>
</svg>