<?xml version="1.0" encoding="UTF-8"?>
<svg width="28px" height="28px" viewBox="0 0 28 28" version="1.1" xmlns="http://www.w3.org/2000/svg" xmlns:xlink="http://www.w3.org/1999/xlink">
    <!-- Generator: Sketch 60.1 (88133) - https://sketch.com -->
    <title>Icons/Fac/Flight/Entertainment</title>
    <desc>Created with Sketch.</desc>
    <g id="Icons/Fac/Flight/Entertainment" stroke="none" stroke-width="1" fill="none" fill-rule="evenodd">
        <path d="M24,6.5 C24.2761424,6.5 24.5,6.72385763 24.5,7 L24.5,7 L24.5,22 C24.5,22.2761424 24.2761424,22.5 24,22.5 L24,22.5 L4,22.5 C3.72385763,22.5 3.5,22.2761424 3.5,22 L3.5,22 L3.5,7 C3.5,6.72385763 3.72385763,6.5 4,6.5 L4,6.5 Z M6.597,19.5 L4.5,19.5 L4.5,21.5 L6.597,21.5 L6.597,19.5 Z M20.5,7.5 L7.597,7.5 L7.597,21.5 L20.5,21.5 L20.5,7.5 Z M23.5,19.5 L21.5,19.5 L21.5,21.5 L23.5,21.5 L23.5,19.5 Z M23.5,16.5 L21.5,16.5 L21.5,18.5 L23.5,18.5 L23.5,16.5 Z M6.597,16.5 L4.5,16.5 L4.5,18.5 L6.597,18.5 L6.597,16.5 Z M11.867715,12 C11.867715,11.6148866 12.2847972,11.3743508 12.6181303,11.5672273 L12.6181303,11.5672273 L16.9386795,14.0672273 C17.2714591,14.2597836 17.2714591,14.7402164 16.9386795,14.9327727 L16.9386795,14.9327727 L12.6181303,17.4327727 C12.2847972,17.6256492 11.867715,17.3851134 11.867715,17 L11.867715,17 Z M12.867,12.866 L12.867,16.133 L15.69,14.5 L12.867,12.866 Z M23.5,13.5 L21.5,13.5 L21.5,15.5 L23.5,15.5 L23.5,13.5 Z M6.597,13.5 L4.5,13.5 L4.5,15.5 L6.597,15.5 L6.597,13.5 Z M23.5,10.5 L21.5,10.5 L21.5,12.5 L23.5,12.5 L23.5,10.5 Z M6.597,10.5 L4.5,10.5 L4.5,12.5 L6.597,12.5 L6.597,10.5 Z M23.5,7.5 L21.5,7.5 L21.5,9.5 L23.5,9.5 L23.5,7.5 Z M6.597,7.5 L4.5,7.5 L4.5,9.5 L6.597,9.5 L6.597,7.5 Z" id="Combined-Shape" fill="#0393CD"></path>
        <rect id="Rectangle" x="0" y="0" width="28" height="28"></rect>
    </g>
</svg>