<?xml version="1.0" encoding="UTF-8"?>
<svg width="12px" height="16px" viewBox="0 0 12 16" version="1.1" xmlns="http://www.w3.org/2000/svg" xmlns:xlink="http://www.w3.org/1999/xlink">
    <!-- Generator: sketchtool 57.1 (101010) - https://sketch.com -->
    <title>C65DAE7A-7C93-4B50-9AA9-8C59772EFFFF</title>
    <desc>Created with sketchtool.</desc>
    <g id="Desktop---Booking-Hotel" stroke="none" stroke-width="1" fill="none" fill-rule="evenodd">
        <g id="Desktop_Hotel_01_List_01_Default" transform="translate(-137.000000, -294.000000)">
            <g id="Icon/Info/Pin" transform="translate(132.000000, 291.000000)">
                <g id="icon-pin">
                    <rect id="Rectangle" x="0" y="0" width="22" height="22"></rect>
                    <path d="M11.0572917,3.66666667 C11.916671,3.66666667 12.6853265,3.81466866 13.3632812,4.11067708 C14.041236,4.40668551 14.6117598,4.81011029 15.0748698,5.32096354 C15.5379797,5.83181679 15.8912748,6.42621189 16.1347656,7.10416667 C16.3782564,7.78212145 16.5,8.49826012 16.5,9.25260417 C16.5,10.0164969 16.3496109,10.797088 16.0488281,11.594401 C15.7480454,12.3917141 15.3684919,13.1746923 14.9101562,13.9433594 C14.4518206,14.7120264 13.9552978,15.4401007 13.4205729,16.1276042 C12.885848,16.8151076 12.384551,17.4262126 11.9166667,17.9609375 C11.9166667,17.9704862 11.8450528,18.0349386 11.7018229,18.1542969 C11.558593,18.2736551 11.391494,18.3333333 11.2005208,18.3333333 L11.1575521,18.3333333 C10.9570302,18.3333333 10.7875441,18.2736551 10.6490885,18.1542969 C10.510633,18.0349386 10.4414062,17.9704862 10.4414062,17.9609375 C9.94487599,17.388018 9.40777199,16.7625902 8.83007812,16.0846354 C8.25238426,15.4066806 7.71766739,14.6929291 7.22591146,13.9433594 C6.73415553,13.1937897 6.32356936,12.422747 5.99414062,11.6302083 C5.66471189,10.8376696 5.5,10.0451429 5.5,9.25260417 C5.5,8.49826012 5.64800199,7.78212145 5.94401042,7.10416667 C6.24001884,6.42621189 6.6410565,5.83181679 7.14713542,5.32096354 C7.65321434,4.81011029 8.24283518,4.40668551 8.91601562,4.11067708 C9.58919607,3.81466866 10.3029476,3.66666667 11.0572917,3.66666667 Z M11.2291667,17.3450521 C11.9548647,16.5143188 12.589841,15.721792 13.1341146,14.9674479 C13.6783881,14.2131039 14.1319426,13.4993523 14.4947917,12.8261719 C14.8576407,12.1529914 15.1297734,11.5180151 15.3111979,10.921224 C15.4926224,10.3244328 15.5833333,9.76823174 15.5833333,9.25260417 C15.5833333,8.67013598 15.4950096,8.09961217 15.3183594,7.54101562 C15.1417092,6.98241908 14.8671894,6.48350914 14.4947917,6.04427083 C14.122394,5.60503253 13.6521296,5.25173745 13.0839844,4.984375 C12.5158392,4.71701255 11.8402817,4.58333333 11.0572917,4.58333333 C10.4270802,4.58333333 9.83029796,4.70746404 9.26692708,4.95572917 C8.70355621,5.2039943 8.21180766,5.54057947 7.79166667,5.96549479 C7.37152568,6.39041011 7.03732763,6.88693292 6.7890625,7.45507812 C6.54079737,8.02322333 6.41666667,8.62239268 6.41666667,9.25260417 C6.41666667,9.93055895 6.5598944,10.6180521 6.84635417,11.3151042 C7.13281393,12.0121563 7.49565753,12.6972623 7.93489583,13.3704427 C8.37413414,14.0436232 8.85633418,14.6929222 9.38151042,15.3183594 C9.90668665,15.9437965 10.4032095,16.5286431 10.8710938,17.0729167 L11.1145833,17.3450521 L11.171875,17.4023438 C11.1814237,17.3927951 11.1933593,17.3832466 11.2076823,17.3736979 C11.2220053,17.3641493 11.2291667,17.3546007 11.2291667,17.3450521 Z M11.0143229,6.43098958 C11.7782156,6.43098958 12.4275147,6.70073515 12.9622396,7.24023437 C13.4969645,7.7797336 13.7643229,8.42664553 13.7643229,9.18098958 C13.7643229,9.94488229 13.4969645,10.5941814 12.9622396,11.1289062 C12.4275147,11.6636311 11.7782156,11.9309896 11.0143229,11.9309896 C10.2599789,11.9309896 9.61306693,11.6636311 9.07356771,11.1289062 C8.53406848,10.5941814 8.26432292,9.94488229 8.26432292,9.18098958 C8.26432292,8.42664553 8.53406848,7.7797336 9.07356771,7.24023437 C9.61306693,6.70073515 10.2599789,6.43098958 11.0143229,6.43098958 Z M11.0143229,11.0143229 C11.5204018,11.0143229 11.950085,10.8329011 12.3033854,10.4700521 C12.6566858,10.107203 12.8333333,9.67274559 12.8333333,9.16666667 C12.8333333,8.66058775 12.6542987,8.22851742 12.296224,7.87044271 C11.9381493,7.512368 11.5060789,7.33333333 11,7.33333333 C10.4939211,7.33333333 10.0618507,7.512368 9.70377604,7.87044271 C9.34570133,8.22851742 9.16666667,8.66058775 9.16666667,9.16666667 C9.16666667,9.67274559 9.34808846,10.107203 9.7109375,10.4700521 C10.0737865,10.8329011 10.508244,11.0143229 11.0143229,11.0143229 Z" id="" stroke="#0393CD" stroke-width="0.3" fill="#0393CD"></path>
                </g>
            </g>
        </g>
    </g>
</svg>