<?xml version="1.0" encoding="UTF-8"?>
<svg width="24px" height="24px" viewBox="0 0 24 24" version="1.1" xmlns="http://www.w3.org/2000/svg" xmlns:xlink="http://www.w3.org/1999/xlink">
    <!-- Generator: sketchtool 60.1 (101010) - https://sketch.com -->
    <title>4BF195D1-BCB2-47BB-939B-30493263A2DC</title>
    <desc>Created with sketchtool.</desc>
    <g id="Asset-Artboard-Page" stroke="none" stroke-width="1" fill="none" fill-rule="evenodd">
        <g id="Icons/Info/Search/Passenger-Icons/Info/Search/Email">
            <g id="Icons/Info/Search/Email" transform="translate(3.350000, 6.350000)" fill="#0393CD">
                <path d="M14.65,-4.61852778e-14 C16.1135546,-4.61852778e-14 17.3,1.18644541 17.3,2.65 L17.3,9.65 C17.3,11.1135546 16.1135546,12.3 14.65,12.3 L2.65,12.3 C1.18644541,12.3 -3.55271368e-15,11.1135546 -3.55271368e-15,9.65 L-3.55271368e-15,2.65 C-3.55271368e-15,1.18644541 1.18644541,-4.61852778e-14 2.65,-4.61852778e-14 L14.65,-4.61852778e-14 Z M14.65,1.3 L2.65,1.3 C1.90441559,1.3 1.3,1.90441559 1.3,2.65 L1.3,9.65 C1.3,10.3955844 1.90441559,11 2.65,11 L14.65,11 C15.3955844,11 16,10.3955844 16,9.65 L16,2.65 C16,1.90441559 15.3955844,1.3 14.65,1.3 Z M14.2894449,2.10916731 C14.5881385,1.91003821 14.9917036,1.99075122 15.1908327,2.28944487 C15.3899618,2.58813852 15.3092488,2.99170359 15.0105551,3.19083269 L15.0105551,3.19083269 L9.01055513,7.19083269 C8.79222051,7.3363891 8.50777949,7.3363891 8.28944487,7.19083269 L8.28944487,7.19083269 L2.28944487,3.19083269 C1.99075122,2.99170359 1.91003821,2.58813852 2.10916731,2.28944487 C2.30829641,1.99075122 2.71186148,1.91003821 3.01055513,2.10916731 L3.01055513,2.10916731 L8.65,5.86879722 Z"></path>
            </g>
            <rect id="Rectangle" x="0" y="0" width="24" height="24"></rect>
        </g>
    </g>
</svg>