<?xml version="1.0" encoding="UTF-8"?>
<svg width="24px" height="24px" viewBox="0 0 24 24" version="1.1" xmlns="http://www.w3.org/2000/svg" xmlns:xlink="http://www.w3.org/1999/xlink">
    <!-- Generator: sketchtool 60.1 (101010) - https://sketch.com -->
    <title>6B70066B-A16E-4A66-8D0B-13F57B86B0FF</title>
    <desc>Created with sketchtool.</desc>
    <g id="Asset-Artboard-Page" stroke="none" stroke-width="1" fill="none" fill-rule="evenodd">
        <g id="Icons/Info/Search/Password">
            <path d="M12,3.4 C13.9882251,3.4 15.6,5.0117749 15.6,7 L15.6,8.4 L16,8.4 C17.4359403,8.4 18.6,9.56405965 18.6,11 L18.6,18 C18.6,19.4359403 17.4359403,20.6 16,20.6 L8,20.6 C6.56405965,20.6 5.4,19.4359403 5.4,18 L5.4,11 C5.4,9.56405965 6.56405965,8.4 8,8.4 L8.4,8.4 L8.4,7 C8.4,5.0117749 10.0117749,3.4 12,3.4 Z M16,9.6 L8,9.6 C7.22680135,9.6 6.6,10.2268014 6.6,11 L6.6,18 C6.6,18.7731986 7.22680135,19.4 8,19.4 L16,19.4 C16.7731986,19.4 17.4,18.7731986 17.4,18 L17.4,11 C17.4,10.2268014 16.7731986,9.6 16,9.6 Z M12,12.4 C12.8836556,12.4 13.6,13.1163444 13.6,14 C13.6,14.8836556 12.8836556,15.6 12,15.6 C11.1163444,15.6 10.4,14.8836556 10.4,14 C10.4,13.1163444 11.1163444,12.4 12,12.4 Z M12,13.6 C11.7790861,13.6 11.6,13.7790861 11.6,14 C11.6,14.2209139 11.7790861,14.4 12,14.4 C12.2209139,14.4 12.4,14.2209139 12.4,14 C12.4,13.7790861 12.2209139,13.6 12,13.6 Z M12,4.6 C10.6745166,4.6 9.6,5.6745166 9.6,7 L9.6,8.4 L14.4,8.4 L14.4,7 C14.4,5.6745166 13.3254834,4.6 12,4.6 Z" fill="#0393CD"></path>
            <rect id="Rectangle" x="0" y="0" width="24" height="24"></rect>
        </g>
    </g>
</svg>