<?xml version="1.0" encoding="UTF-8"?>
<svg width="16px" height="15px" viewBox="0 0 16 15" version="1.1" xmlns="http://www.w3.org/2000/svg" xmlns:xlink="http://www.w3.org/1999/xlink">
    <!-- Generator: sketchtool 59.1 (101010) - https://sketch.com -->
    <title>4DDFA90B-6351-46B6-8508-027DB10DCFCC</title>
    <desc>Created with sketchtool.</desc>
    <g id="Mobile---Search-Hotel" stroke="none" stroke-width="1" fill="none" fill-rule="evenodd">
        <g id="Design_Hotel_02_Detail_01" transform="translate(-158.000000, -4440.000000)">
            <g id="Icon/Fac/Pool-Copy-28-Icons/Fac/Shop" transform="translate(157.000000, 4438.000000)">
                <g id="Group-2">
                    <g id="Group" transform="translate(0.642857, 1.928571)" fill="#0393CD" fill-rule="nonzero">
                        <path d="M1.5429275,0.964285689 L3.84396059,10.6753907 C3.87830806,10.8203481 4.00775773,10.9227092 4.15672891,10.9227092 L13.3658258,10.9227092 C13.5433459,10.9227092 13.6872544,10.7788007 13.6872544,10.6012806 C13.6872544,10.4237605 13.5433459,10.2798521 13.3658258,10.2798521 L4.41089545,10.2798521 L2.10986236,0.568747104 C2.07551489,0.42378965 1.94606522,0.321428571 1.79709404,0.321428571 L0.642857135,0.321428571 C0.465337041,0.321428571 0.321428571,0.465337039 0.321428571,0.64285713 C0.321428571,0.820377221 0.465337041,0.964285689 0.642857135,0.964285689 L1.5429275,0.964285689 Z" id="Path-102"></path>
                        <path d="M5.43807793,14.5676228 C6.20141438,14.5676228 6.82022085,13.9488163 6.82022085,13.1854799 C6.82022085,12.4221434 6.20141438,11.803337 5.43807793,11.803337 C4.67474147,11.803337 4.05593501,12.4221434 4.05593501,13.1854799 C4.05593501,13.9488163 4.67474147,14.5676228 5.43807793,14.5676228 Z M5.43807785,13.9247655 C5.02978163,13.9247655 4.69879215,13.593776 4.69879215,13.1854798 C4.69879215,12.7771836 5.02978163,12.4461941 5.43807785,12.4461941 C5.84637407,12.4461941 6.17736355,12.7771836 6.17736355,13.1854798 C6.17736355,13.593776 5.84637407,13.9247655 5.43807785,13.9247655 Z" id="Oval"></path>
                        <path d="M11.8023637,14.5676228 C12.5657002,14.5676228 13.1845066,13.9488163 13.1845066,13.1854799 C13.1845066,12.4221434 12.5657002,11.803337 11.8023637,11.803337 C11.0390272,11.803337 10.4202208,12.4221434 10.4202208,13.1854799 C10.4202208,13.9488163 11.0390272,14.5676228 11.8023637,14.5676228 Z M11.8023636,13.9247655 C11.3940674,13.9247655 11.0630779,13.593776 11.0630779,13.1854798 C11.0630779,12.7771836 11.3940674,12.4461941 11.8023636,12.4461941 C12.2106598,12.4461941 12.5416493,12.7771836 12.5416493,13.1854798 C12.5416493,13.593776 12.2106598,13.9247655 11.8023636,13.9247655 Z" id="Oval-Copy"></path>
                        <path d="M2.22183184,3.71245508 C2.17451812,3.51074803 2.32758477,3.31762249 2.53476664,3.31762249 L15.69165,3.31762249 C15.9052003,3.31762249 16.0593781,3.5220205 16.0007113,3.72735427 L14.5864255,8.67735416 C14.5469998,8.81534395 14.4208758,8.91047951 14.2773642,8.91047951 L3.69587101,8.91047951 C3.54662877,8.91047951 3.41701838,8.80775346 3.38293622,8.66245497 L2.22183184,3.71245508 Z M2.94031592,3.96047963 L3.95062747,8.26762237 L14.0349096,8.26762237 L15.2655219,3.96047963 L2.94031592,3.96047963 Z" id="Rectangle"></path>
                    </g>
                    <rect id="Rectangle" x="0" y="0" width="18" height="18"></rect>
                </g>
            </g>
        </g>
    </g>
</svg>