<?xml version="1.0" encoding="UTF-8"?>
<svg width="26px" height="19px" viewBox="0 0 26 19" version="1.1" xmlns="http://www.w3.org/2000/svg" xmlns:xlink="http://www.w3.org/1999/xlink">
    <!-- Generator: sketchtool 59.1 (101010) - https://sketch.com -->
    <title>9DF89B91-5007-4F96-AD58-CFDEF839ADD5SVG</title>
    <desc>Created with sketchtool.</desc>
    <g id="Mobile---Search-Hotel" stroke="none" stroke-width="1" fill="none" fill-rule="evenodd">
        <g id="Design_Hotel_02_Detail_01" transform="translate(-219.000000, -670.000000)">
            <g id="Icon/Wifi-Copy-Icons/Fac/Wifi" transform="translate(218.000000, 666.000000)">
                <g id="Group">
                    <path d="M14.0218139,4.63639028 L14.5032988,4.64986118 C18.9050604,4.82128756 22.7379705,6.28928403 25.9829785,9.10956992 L26.1803429,9.28497544 L26.8131373,9.87740704 C26.8805761,9.9460215 26.9193942,10.0010116 26.9565388,10.0892156 C27.0506451,10.3126815 26.9869832,10.5488874 26.7973305,10.7197779 C26.506003,10.9775898 26.2245069,10.9098835 25.983809,10.6967333 L25.5390494,10.2662482 C25.0323344,9.79195673 24.4925956,9.35326027 23.9223402,8.95245438 C21.7742153,7.41600245 19.2915025,6.41242041 16.6776505,6.02431487 C13.5761827,5.55222035 10.5842047,5.87080997 7.70389597,6.99195593 C5.81557276,7.72323771 4.08017533,8.79718795 2.58378533,10.1591021 L2.24274648,10.4784769 L2.01424823,10.7005171 C1.75772284,10.9248701 1.4890889,10.9895978 1.18782812,10.7014804 C1.02017681,10.5365774 0.953894599,10.3198368 1.03362067,10.1047661 C1.06923123,10.0087023 1.11403979,9.94511773 1.18334826,9.87732585 L1.28981295,9.78256397 L1.64774085,9.44388411 C4.13160808,7.14163387 7.08370812,5.6581135 10.4825884,4.98441698 C11.6483682,4.75469273 12.8336167,4.63814234 14.0218139,4.63639028 Z" id="Path" fill="#0393CD" fill-rule="nonzero"></path>
                    <path d="M14.0317833,10.2588091 C17.3037771,10.2908819 20.1299951,11.3583723 22.4854496,13.4860209 L22.8704144,13.8436165 C23.1030385,14.0787397 23.1780197,14.3406621 22.901819,14.6468123 C22.622261,14.9566838 22.3419588,14.9014209 22.0893785,14.6860466 L21.6741335,14.3036399 C20.3375054,13.1182374 18.8853633,12.3048099 17.286962,11.8794008 C13.2482753,10.8140947 9.68152615,11.5695528 6.56335512,14.1846019 L6.28112013,14.4274575 L6.08883627,14.5909703 L5.97880422,14.6911453 C5.90669326,14.7527225 5.84692968,14.7886987 5.75582165,14.8184765 C5.53788844,14.8897059 5.32000734,14.8179812 5.16258392,14.6392795 C4.89125165,14.3287859 4.9895917,14.070532 5.23711477,13.8170796 L5.55913312,13.5020464 C5.86312477,13.2179825 6.18445389,12.9534048 6.52036808,12.7105612 C8.40543554,11.3289952 10.4954485,10.5256229 12.7863035,10.3153847 L13.1764564,10.2776413 L13.4210879,10.2608848 L13.5647839,10.2565418 L14.0317833,10.2588091 Z" id="Path" fill="#0393CD" fill-rule="nonzero"></path>
                    <path d="M14.206562,20.0059998 C14.4514335,20.0318832 14.6817276,20.1401923 14.858491,20.3151266 C15.065059,20.5195571 15.1814053,20.7980344 15.1816558,21.0855559 C15.1859384,21.6879811 14.7010481,22.179815 14.0986228,22.1840976 C13.4961976,22.1883803 13.0043637,21.7034899 13.0001264,21.1051255 C12.9956962,20.8142778 13.1078554,20.5337553 13.3115846,20.3261344 C13.485919,20.1484698 13.7148949,20.0368354 13.9596054,20.0076474 L14.0830916,20 L14.206562,20.0059998 Z" id="Path" fill="#0393CD" fill-rule="nonzero"></path>
                    <path d="M14.053469,15.7977553 L14.3745117,15.8083054 C15.9507686,15.8914576 17.3488753,16.4330882 18.5569798,17.4339145 L18.7960639,17.6402026 L18.9906405,17.834994 C19.1770007,18.0649449 19.1960157,18.3601562 18.9546512,18.6081153 C18.6847128,18.885429 18.3703494,18.8347253 18.112253,18.599813 C17.8163059,18.3181386 17.4936109,18.0659781 17.1537287,17.8500224 C14.9583308,16.5002968 12.2391213,16.7011265 10.2554162,18.3372123 L10.0528806,18.5115776 L9.97312411,18.5871307 C9.73185545,18.8268015 9.42542637,18.8990414 9.13172682,18.6214203 C8.82934549,18.3260711 8.90554886,17.9944453 9.16591994,17.7461412 C9.6384466,17.2865116 10.1756723,16.8984818 10.7603656,16.5944643 C11.7770158,16.0652383 12.9073355,15.7917772 14.053469,15.7977553 Z M13.7434351,16.6036326 C12.8327643,16.6434685 11.940478,16.8820491 11.1295928,17.3041622 C10.6140223,17.5722387 10.1404377,17.9142887 9.72104761,18.3221761 L9.73321101,18.3001673 C9.75314131,18.247369 9.76552193,18.1221961 9.6859574,18.0445452 C9.59233332,17.9560705 9.4370901,17.9924502 9.41113919,18.017774 L9.48690266,17.9450397 L9.72669882,17.7363264 C11.9739988,15.8689539 15.0772084,15.6342862 17.5777011,17.1716325 C17.9664435,17.4185747 18.3301933,17.7028163 18.6571805,18.0141745 C18.6265211,17.9862856 18.4683487,17.9607739 18.3813941,18.0501044 C18.3131571,18.1202057 18.3197824,18.2446772 18.352664,18.3118135 L18.375155,18.3443214 L18.3023988,18.2744978 L18.034405,18.0398281 C16.966831,17.1593094 15.7420957,16.6847152 14.3487463,16.6080712 L14.0475865,16.5977357 L13.7434351,16.6036326 Z" id="Path" fill="#0393CD" fill-rule="nonzero"></path>
                    <rect id="Rectangle" x="0" y="0" width="28" height="28"></rect>
                </g>
            </g>
        </g>
    </g>
</svg>