<?xml version="1.0" encoding="UTF-8"?>
<svg width="18px" height="18px" viewBox="0 0 18 18" version="1.1" xmlns="http://www.w3.org/2000/svg" xmlns:xlink="http://www.w3.org/1999/xlink">
    <!-- Generator: sketchtool 59.1 (101010) - https://sketch.com -->
    <title>783F4708-6A78-4B9C-8514-1D9FCB022475</title>
    <desc>Created with sketchtool.</desc>
    <g id="Mobile---Search-Hotel" stroke="none" stroke-width="1" fill="none" fill-rule="evenodd">
        <g id="Design_Hotel_02_Detail_01" transform="translate(-22.000000, -4389.000000)">
            <g id="Icon/Fac/Pool-Copy-11-Icons/Fac/CheckInHour" transform="translate(22.000000, 4389.000000)">
                <g id="Group-3">
                    <g id="Group" transform="translate(1.285714, 1.285714)" fill="#0393CD" fill-rule="nonzero">
                        <path d="M4.17857143,3.53571429 L4.17857143,1.92857143 C4.17857143,1.75105133 4.03466296,1.60714286 3.85714286,1.60714286 C3.67962276,1.60714286 3.53571429,1.75105133 3.53571429,1.92857143 L3.53571429,3.85714286 C3.53571429,4.03466296 3.67962276,4.17857143 3.85714286,4.17857143 L5.78571429,4.17857143 C5.96323438,4.17857143 6.10714286,4.03466296 6.10714286,3.85714286 C6.10714286,3.67962276 5.96323438,3.53571429 5.78571429,3.53571429 L4.17857143,3.53571429 Z" id="Path-97"></path>
                        <path d="M3.85714286,8.03571429 C6.16490413,8.03571429 8.03571429,6.16490413 8.03571429,3.85714286 C8.03571429,1.54938158 6.16490413,-0.321428571 3.85714286,-0.321428571 C1.54938158,-0.321428571 -0.321428571,1.54938158 -0.321428571,3.85714286 C-0.321428571,6.16490413 1.54938158,8.03571429 3.85714286,8.03571429 Z M3.85714286,7.39285714 C1.90442178,7.39285714 0.321428571,5.80986394 0.321428571,3.85714286 C0.321428571,1.90442178 1.90442178,0.321428571 3.85714286,0.321428571 C5.80986394,0.321428571 7.39285714,1.90442178 7.39285714,3.85714286 C7.39285714,5.80986394 5.80986394,7.39285714 3.85714286,7.39285714 Z" id="Oval"></path>
                    </g>
                    <path d="M14.7695859,4.17857143 L15.4285714,4.17857143 C16.2806679,4.17857143 16.977882,4.84170167 17.0322958,5.6800442 L17.0357143,5.78571429 L17.0357143,15.4285714 C17.0357143,16.2806679 16.372584,16.977882 15.5342415,17.0322958 L15.4285714,17.0357143 L5.78571429,17.0357143 C4.93361781,17.0357143 4.23640371,16.372584 4.18198994,15.5342415 L4.17857143,15.4285714 L4.17857143,8.98077227 L4.82142857,8.98077227 L4.82142857,15.4285714 C4.82142857,15.9298046 5.20385662,16.341717 5.69284714,16.3884429 L5.78571429,16.3928571 L15.4285714,16.3928571 C15.9298046,16.3928571 16.341717,16.0104291 16.3884429,15.5214386 L16.3928571,15.4285714 L16.3928571,5.78571429 C16.3928571,5.28448107 16.0104291,4.87256871 15.5214386,4.8258428 L15.4285714,4.82142857 L14.7695859,4.82142857 L14.7695859,4.17857143 L15.4285714,4.17857143 L14.7695859,4.17857143 Z M13.5039617,4.17857143 L13.5039617,4.82142857 L8.99968641,4.82142857 L8.99968641,4.17857143 L13.5039617,4.17857143 Z" id="Shape" fill="#0393CD" fill-rule="nonzero"></path>
                    <path d="M14.1428571,2.89285714 C14.6754174,2.89285714 15.1071429,3.32458256 15.1071429,3.85714286 L15.1071429,4.5 C15.1071429,5.03256029 14.6754174,5.46428571 14.1428571,5.46428571 C13.6102968,5.46428571 13.1785714,5.03256029 13.1785714,4.5 L13.1785714,3.85714286 C13.1785714,3.32458256 13.6102968,2.89285714 14.1428571,2.89285714 Z M14.1428571,3.53571429 C13.965337,3.53571429 13.8214286,3.67962276 13.8214286,3.85714286 L13.8214286,4.5 C13.8214286,4.6775201 13.965337,4.82142857 14.1428571,4.82142857 C14.3203772,4.82142857 14.4642857,4.6775201 14.4642857,4.5 L14.4642857,3.85714286 C14.4642857,3.67962276 14.3203772,3.53571429 14.1428571,3.53571429 Z" id="Rectangle" fill="#0393CD" fill-rule="nonzero"></path>
                    <polygon id="Path-98" fill="#0393CD" fill-rule="nonzero" points="8.58847128 7.39285714 16.7142857 7.39285714 16.7142857 6.75 8.58847128 6.75"></polygon>
                    <g id="Group-2" transform="translate(7.714286, 10.285714)" stroke="#0393CD" stroke-linecap="round" stroke-linejoin="round">
                        <path d="M4.5,0 L6.17600804,1.67600804 L4.5,3.35201607 M3.42583105e-15,1.67600804 L6.00819295,1.67600804" id="Combined-Shape"></path>
                    </g>
                    <rect id="Rectangle" x="0" y="0" width="18" height="18"></rect>
                </g>
            </g>
        </g>
    </g>
</svg>