<?xml version="1.0" encoding="UTF-8"?>
<svg width="16px" height="18px" viewBox="0 0 16 18" version="1.1" xmlns="http://www.w3.org/2000/svg" xmlns:xlink="http://www.w3.org/1999/xlink">
    <!-- Generator: sketchtool 59.1 (101010) - https://sketch.com -->
    <title>9BCA98A3-6215-4FAA-AFBA-8FFDA26EB0F3</title>
    <desc>Created with sketchtool.</desc>
    <g id="Mobile---Search-Hotel" stroke="none" stroke-width="1" fill="none" fill-rule="evenodd">
        <g id="Design_Hotel_02_Detail_01" transform="translate(-158.000000, -4342.000000)">
            <g id="Icon/Fac/Pool-Copy-17-Icons/Fac/Launderette" transform="translate(157.000000, 4342.000000)">
                <g id="Group">
                    <path d="M3.21428571,0.964285714 L14.7857143,0.964285714 C15.6733148,0.964285714 16.3928571,1.68382808 16.3928571,2.57142857 L16.3928571,15.4285714 C16.3928571,16.3161719 15.6733148,17.0357143 14.7857143,17.0357143 L3.21428571,17.0357143 C2.32668522,17.0357143 1.60714286,16.3161719 1.60714286,15.4285714 L1.60714286,2.57142857 C1.60714286,1.68382808 2.32668522,0.964285714 3.21428571,0.964285714 Z M3.21428571,1.60714286 C2.68172542,1.60714286 2.25,2.03886828 2.25,2.57142857 L2.25,15.4285714 C2.25,15.9611317 2.68172542,16.3928571 3.21428571,16.3928571 L14.7857143,16.3928571 C15.3182746,16.3928571 15.75,15.9611317 15.75,15.4285714 L15.75,2.57142857 C15.75,2.03886828 15.3182746,1.60714286 14.7857143,1.60714286 L3.21428571,1.60714286 Z" id="Rectangle" fill="#0393CD" fill-rule="nonzero"></path>
                    <path d="M9,13.8214286 C10.5976809,13.8214286 11.8928571,12.5262523 11.8928571,10.9285714 C11.8928571,9.33089055 10.5976809,8.03571429 9,8.03571429 C7.40231912,8.03571429 6.10714286,9.33089055 6.10714286,10.9285714 C6.10714286,12.5262523 7.40231912,13.8214286 9,13.8214286 Z M9,13.1785714 C7.75735931,13.1785714 6.75,12.1712121 6.75,10.9285714 C6.75,9.68593074 7.75735931,8.67857143 9,8.67857143 C10.2426407,8.67857143 11.25,9.68593074 11.25,10.9285714 C11.25,12.1712121 10.2426407,13.1785714 9,13.1785714 Z" id="Oval" fill="#0393CD" fill-rule="nonzero"></path>
                    <path d="M9,15.1071429 C11.3077613,15.1071429 13.1785714,13.2363327 13.1785714,10.9285714 C13.1785714,8.62081015 11.3077613,6.75 9,6.75 C6.69223872,6.75 4.82142857,8.62081015 4.82142857,10.9285714 C4.82142857,13.2363327 6.69223872,15.1071429 9,15.1071429 Z M9,14.4642857 C7.04727892,14.4642857 5.46428571,12.8812925 5.46428571,10.9285714 C5.46428571,8.97585035 7.04727892,7.39285714 9,7.39285714 C10.9527211,7.39285714 12.5357143,8.97585035 12.5357143,10.9285714 C12.5357143,12.8812925 10.9527211,14.4642857 9,14.4642857 Z" id="Oval" fill="#0393CD" fill-rule="nonzero"></path>
                    <path d="M1.92857143,4.83435161 L16.0714286,4.83435161 C16.2489487,4.83435161 16.3928571,4.69044313 16.3928571,4.51292304 C16.3928571,4.33540294 16.2489487,4.19149446 16.0714286,4.19149446 L1.92857143,4.19149446 C1.75105133,4.19149446 1.60714286,4.33540294 1.60714286,4.51292304 C1.60714286,4.69044313 1.75105133,4.83435161 1.92857143,4.83435161 Z" id="Path-95" fill="#0393CD" fill-rule="nonzero"></path>
                    <path d="M12.2142857,3.53571429 L14.7857143,3.53571429 C14.9632344,3.53571429 15.1071429,3.39180581 15.1071429,3.21428571 C15.1071429,3.03676562 14.9632344,2.89285714 14.7857143,2.89285714 L12.2142857,2.89285714 C12.0367656,2.89285714 11.8928571,3.03676562 11.8928571,3.21428571 C11.8928571,3.39180581 12.0367656,3.53571429 12.2142857,3.53571429 Z" id="Path-95-Copy" fill="#0393CD" fill-rule="nonzero"></path>
                    <path d="M8.67857143,1.2857143 L8.67857143,4.51292302 C8.67857143,4.69044313 8.8224799,4.83435161 9,4.83435161 C9.1775201,4.83435161 9.32142857,4.69044313 9.32142857,4.51292302 L9.32142857,1.2857143 C9.32142857,1.10819419 9.1775201,0.964285714 9,0.964285714 C8.8224799,0.964285714 8.67857143,1.10819419 8.67857143,1.2857143 Z" id="Path-96" fill="#0393CD" fill-rule="nonzero"></path>
                    <circle id="Oval" fill="#0393CD" transform="translate(3.535714, 2.892857) scale(-1, 1) translate(-3.535714, -2.892857) " cx="3.53571429" cy="2.89285714" r="1"></circle>
                    <circle id="Oval-Copy" fill="#0393CD" transform="translate(4.821429, 2.892857) scale(-1, 1) translate(-4.821429, -2.892857) " cx="4.82142857" cy="2.89285714" r="1"></circle>
                    <path d="M6.54576772,11.2499998 C7.08297867,10.7689933 7.58159713,10.5284901 8.04162309,10.5284901 C8.73166203,10.5284901 9.01999226,11.2499998 9.91889468,11.2499998 C10.518163,11.2499998 11.0571575,11.0094966 11.5358784,10.5284901" id="Path-2" stroke="#0393CD" stroke-linecap="round" stroke-linejoin="round"></path>
                    <rect id="Rectangle" x="0" y="0" width="18" height="18"></rect>
                </g>
            </g>
        </g>
    </g>
</svg>