<?xml version="1.0" encoding="UTF-8"?>
<svg width="16px" height="16px" viewBox="0 0 16 16" version="1.1" xmlns="http://www.w3.org/2000/svg" xmlns:xlink="http://www.w3.org/1999/xlink">
    <!-- Generator: sketchtool 59.1 (101010) - https://sketch.com -->
    <title>B94DF8C5-CD54-4590-889E-BDD9858DE5F2</title>
    <desc>Created with sketchtool.</desc>
    <g id="Mobile---Search-Hotel" stroke="none" stroke-width="1" fill="none" fill-rule="evenodd">
        <g id="Design_Hotel_02_Detail_01" transform="translate(-158.000000, -4295.000000)">
            <g id="Icon/Fac/Pool-Copy-12-Icons/Fac/CarPark" transform="translate(157.000000, 4294.000000)">
                <g id="Group">
                    <path d="M3.21428571,1.60714286 L14.7857143,1.60714286 C15.6733148,1.60714286 16.3928571,2.32668522 16.3928571,3.21428571 L16.3928571,14.7857143 C16.3928571,15.6733148 15.6733148,16.3928571 14.7857143,16.3928571 L3.21428571,16.3928571 C2.32668522,16.3928571 1.60714286,15.6733148 1.60714286,14.7857143 L1.60714286,3.21428571 C1.60714286,2.32668522 2.32668522,1.60714286 3.21428571,1.60714286 Z M3.21428571,2.25 C2.68172542,2.25 2.25,2.68172542 2.25,3.21428571 L2.25,14.7857143 C2.25,15.3182746 2.68172542,15.75 3.21428571,15.75 L14.7857143,15.75 C15.3182746,15.75 15.75,15.3182746 15.75,14.7857143 L15.75,3.21428571 C15.75,2.68172542 15.3182746,2.25 14.7857143,2.25 L3.21428571,2.25 Z" id="Rectangle" fill="#0393CD" fill-rule="nonzero"></path>
                    <path d="M2.89285714,3.21428571 C2.89285714,3.03676562 3.03676562,2.89285714 3.21428571,2.89285714 L14.7857143,2.89285714 C14.9632344,2.89285714 15.1071429,3.03676562 15.1071429,3.21428571 L15.1071429,14.7857143 C15.1071429,14.9632344 14.9632344,15.1071429 14.7857143,15.1071429 L3.21428571,15.1071429 C3.03676562,15.1071429 2.89285714,14.9632344 2.89285714,14.7857143 L2.89285714,3.21428571 Z M3.53571429,3.53571429 L3.53571429,14.4642857 L14.4642857,14.4642857 L14.4642857,3.53571429 L3.53571429,3.53571429 Z" id="Rectangle" fill="#0393CD" fill-rule="nonzero"></path>
                    <path d="M9.92892845,6.10714286 C10.2696444,6.10714286 10.5846413,6.19874908 10.8739284,6.38196429 C11.1632156,6.56517949 11.3930347,6.81428414 11.5633927,7.12928571 C11.7337507,7.44428729 11.8189284,7.79142668 11.8189284,8.17071429 C11.8189284,8.5500019 11.7337507,8.90035554 11.5633927,9.22178571 C11.3930347,9.54321589 11.1632156,9.79714193 10.8739284,9.98357143 C10.5846413,10.1700009 10.2696444,10.2632143 9.92892845,10.2632143 L8.11607134,10.2632143 L8.11607134,12.3942857 C8.11607134,12.5228578 8.07428604,12.6321424 7.9907142,12.7221429 C7.90714235,12.8121433 7.80107199,12.8571429 7.67249992,12.8571429 C7.53749925,12.8571429 7.42982175,12.8137504 7.34946421,12.7269643 C7.26910667,12.6401781 7.2289285,12.5292864 7.2289285,12.3942857 L7.2289285,6.57 C7.2289285,6.44142793 7.27392805,6.33214331 7.3639285,6.24214286 C7.45392894,6.15214241 7.56321356,6.10714286 7.69178563,6.10714286 L9.92892845,6.10714286 Z M9.92892857,6.99428571 L8.11607135,6.99428571 L8.11607135,9.3857143 L9.92892857,9.3857143 C10.1025009,9.3857143 10.2632136,9.32946486 10.4110714,9.2169643 C10.5589293,9.10446374 10.6762496,8.95500094 10.7630357,8.76857144 C10.8498219,8.58214193 10.8932143,8.38285821 10.8932143,8.17071429 C10.8932143,7.84285551 10.7983938,7.56482257 10.60875,7.33660714 C10.4191062,7.10839171 10.1925013,6.99428571 9.92892857,6.99428571 L9.92892857,6.99428571 Z" id="Combined-Shape" fill="#0393CD" fill-rule="nonzero"></path>
                    <rect id="Rectangle" x="0" y="0" width="18" height="18"></rect>
                </g>
            </g>
        </g>
    </g>
</svg>