<?xml version="1.0" encoding="UTF-8"?>
<svg width="18px" height="12px" viewBox="0 0 18 12" version="1.1" xmlns="http://www.w3.org/2000/svg" xmlns:xlink="http://www.w3.org/1999/xlink">
    <!-- Generator: sketchtool 59.1 (101010) - https://sketch.com -->
    <title>9A433896-8D91-4F18-8472-6EB95B9E4DF8</title>
    <desc>Created with sketchtool.</desc>
    <g id="Mobile---Search-Hotel" stroke="none" stroke-width="1" fill="none" fill-rule="evenodd">
        <g id="Design_Hotel_02_Detail_01" transform="translate(-22.000000, -4152.000000)">
            <g id="Icon/Fac/Pool-Copy-8-Icons/Fac/Gym" transform="translate(22.000000, 4149.000000)">
                <g id="Group-4">
                    <g id="Group-3" transform="translate(1.285714, 3.857143)" fill="#0393CD" fill-rule="nonzero">
                        <g id="Group-2">
                            <path d="M3.53571429,-0.321428571 C4.24579468,-0.321428571 4.82142857,0.254205322 4.82142857,0.964285714 L4.82142857,9.32142857 C4.82142857,10.031509 4.24579468,10.6071429 3.53571429,10.6071429 C2.82563389,10.6071429 2.25,10.031509 2.25,9.32142857 L2.25,0.964285714 C2.25,0.254205322 2.82563389,-0.321428571 3.53571429,-0.321428571 Z M3.53571429,0.321428571 C3.18067409,0.321428571 2.89285714,0.609245518 2.89285714,0.964285714 L2.89285714,9.32142857 C2.89285714,9.67646877 3.18067409,9.96428571 3.53571429,9.96428571 C3.89075448,9.96428571 4.17857143,9.67646877 4.17857143,9.32142857 L4.17857143,0.964285714 C4.17857143,0.609245518 3.89075448,0.321428571 3.53571429,0.321428571 Z" id="Rectangle"></path>
                            <path d="M1.92857143,1.60714286 C2.46113172,1.60714286 2.89285714,2.03886828 2.89285714,2.57142857 L2.89285714,7.71428571 C2.89285714,8.24684601 2.46113172,8.67857143 1.92857143,8.67857143 C1.39601113,8.67857143 0.964285714,8.24684601 0.964285714,7.71428571 L0.964285714,2.57142857 C0.964285714,2.03886828 1.39601113,1.60714286 1.92857143,1.60714286 Z M1.92857143,2.25 C1.75105133,2.25 1.60714286,2.39390847 1.60714286,2.57142857 L1.60714286,7.71428571 C1.60714286,7.89180581 1.75105133,8.03571429 1.92857143,8.03571429 C2.10609153,8.03571429 2.25,7.89180581 2.25,7.71428571 L2.25,2.57142857 C2.25,2.39390847 2.10609153,2.25 1.92857143,2.25 Z" id="Rectangle-Copy"></path>
                            <path d="M-0.321428571,4.5 C-0.321428571,4.3224799 -0.177520098,4.17857143 0,4.17857143 L1.28571429,4.17857143 C1.46323438,4.17857143 1.60714286,4.3224799 1.60714286,4.5 L1.60714286,6.42857143 C1.60714286,6.60609153 1.46323438,6.75 1.28571429,6.75 L0,6.75 C-0.177520098,6.75 -0.321428571,6.60609153 -0.321428571,6.42857143 L-0.321428571,4.5 Z M0.321428571,4.82142857 L0.321428571,6.10714286 L0.964285714,6.10714286 L0.964285714,4.82142857 L0.321428571,4.82142857 Z" id="Rectangle-Copy-2"></path>
                            <path d="M4.17857143,4.5 C4.17857143,4.3224799 4.3224799,4.17857143 4.5,4.17857143 L10.9285714,4.17857143 C11.1060915,4.17857143 11.25,4.3224799 11.25,4.5 L11.25,6.42857143 C11.25,6.60609153 11.1060915,6.75 10.9285714,6.75 L4.5,6.75 C4.3224799,6.75 4.17857143,6.60609153 4.17857143,6.42857143 L4.17857143,4.5 Z M4.82142857,4.82142857 L4.82142857,6.10714286 L10.6071429,6.10714286 L10.6071429,4.82142857 L4.82142857,4.82142857 Z" id="Rectangle-Copy-2"></path>
                        </g>
                        <g id="Group" transform="translate(13.178571, 5.142857) scale(-1, 1) translate(-13.178571, -5.142857) translate(10.928571, 0.000000)">
                            <path d="M3.53571429,-0.321428571 C4.24579468,-0.321428571 4.82142857,0.254205322 4.82142857,0.964285714 L4.82142857,9.32142857 C4.82142857,10.031509 4.24579468,10.6071429 3.53571429,10.6071429 C2.82563389,10.6071429 2.25,10.031509 2.25,9.32142857 L2.25,0.964285714 C2.25,0.254205322 2.82563389,-0.321428571 3.53571429,-0.321428571 Z M3.53571429,0.321428571 C3.18067409,0.321428571 2.89285714,0.609245518 2.89285714,0.964285714 L2.89285714,9.32142857 C2.89285714,9.67646877 3.18067409,9.96428571 3.53571429,9.96428571 C3.89075448,9.96428571 4.17857143,9.67646877 4.17857143,9.32142857 L4.17857143,0.964285714 C4.17857143,0.609245518 3.89075448,0.321428571 3.53571429,0.321428571 Z" id="Rectangle-Copy-3"></path>
                            <path d="M1.92857143,1.60714286 C2.46113172,1.60714286 2.89285714,2.03886828 2.89285714,2.57142857 L2.89285714,7.71428571 C2.89285714,8.24684601 2.46113172,8.67857143 1.92857143,8.67857143 C1.39601113,8.67857143 0.964285714,8.24684601 0.964285714,7.71428571 L0.964285714,2.57142857 C0.964285714,2.03886828 1.39601113,1.60714286 1.92857143,1.60714286 Z M1.92857143,2.25 C1.75105133,2.25 1.60714286,2.39390847 1.60714286,2.57142857 L1.60714286,7.71428571 C1.60714286,7.89180581 1.75105133,8.03571429 1.92857143,8.03571429 C2.10609153,8.03571429 2.25,7.89180581 2.25,7.71428571 L2.25,2.57142857 C2.25,2.39390847 2.10609153,2.25 1.92857143,2.25 Z" id="Rectangle-Copy-4"></path>
                            <path d="M-0.321428571,4.5 C-0.321428571,4.3224799 -0.177520098,4.17857143 0,4.17857143 L1.28571429,4.17857143 C1.46323438,4.17857143 1.60714286,4.3224799 1.60714286,4.5 L1.60714286,6.42857143 C1.60714286,6.60609153 1.46323438,6.75 1.28571429,6.75 L0,6.75 C-0.177520098,6.75 -0.321428571,6.60609153 -0.321428571,6.42857143 L-0.321428571,4.5 Z M0.321428571,4.82142857 L0.321428571,6.10714286 L0.964285714,6.10714286 L0.964285714,4.82142857 L0.321428571,4.82142857 Z" id="Rectangle-Copy-5"></path>
                        </g>
                    </g>
                    <rect id="Rectangle" x="0" y="0" width="18" height="18"></rect>
                </g>
            </g>
        </g>
    </g>
</svg>