<?xml version="1.0" encoding="UTF-8"?>
<svg width="14px" height="16px" viewBox="0 0 14 16" version="1.1" xmlns="http://www.w3.org/2000/svg" xmlns:xlink="http://www.w3.org/1999/xlink">
    <!-- Generator: sketchtool 59.1 (101010) - https://sketch.com -->
    <title>3F539B0C-7E88-4873-B62C-1DBE5CE6240A</title>
    <desc>Created with sketchtool.</desc>
    <g id="Mobile---Search-Hotel" stroke="none" stroke-width="1" fill="none" fill-rule="evenodd">
        <g id="Design_Hotel_02_Detail_01" transform="translate(-24.000000, -4102.000000)">
            <g id="Icon/Fac/Pool-Copy-2-Icons/Fac/Transfer" transform="translate(22.000000, 4101.000000)">
                <g id="Group">
                    <path d="M3.56142857,1.60714286 L14.4385714,1.60714286 C15.1628534,1.60714286 15.75,2.19428943 15.75,2.91857143 L15.75,13.7957143 C15.75,14.5199963 15.1628534,15.1071429 14.4385714,15.1071429 L3.56142857,15.1071429 C2.83714657,15.1071429 2.25,14.5199963 2.25,13.7957143 L2.25,2.91857143 C2.25,2.22721134 2.78498272,1.66080316 3.46355512,1.61073993 L3.56142857,1.60714286 Z M3.56142857,2.25 L3.48858035,2.25392309 C3.1536065,2.29022134 2.89285714,2.57394574 2.89285714,2.91857143 L2.89285714,13.7957143 C2.89285714,14.1649561 3.19218677,14.4642857 3.56142857,14.4642857 L14.4385714,14.4642857 C14.8078132,14.4642857 15.1071429,14.1649561 15.1071429,13.7957143 L15.1071429,2.91857143 C15.1071429,2.54932962 14.8078132,2.25 14.4385714,2.25 L3.56142857,2.25 Z" id="Rectangle" fill="#0393CD" fill-rule="nonzero"></path>
                    <path d="M5.04642866,11.5071426 C5.59674095,11.5071426 6.0428572,11.9532589 6.0428572,12.5035712 C6.0428572,13.0538834 5.59674095,13.4999997 5.04642866,13.4999997 C4.49611638,13.4999997 4.05000012,13.0538834 4.05000012,12.5035712 C4.05000012,11.9532589 4.49611638,11.5071426 5.04642866,11.5071426 Z M5.0464287,12.1499998 C4.85115659,12.1499998 4.69285727,12.3082991 4.69285727,12.5035712 C4.69285727,12.6988433 4.85115659,12.8571426 5.0464287,12.8571426 C5.24170081,12.8571426 5.40000014,12.6988433 5.40000014,12.5035712 C5.40000014,12.3082991 5.24170081,12.1499998 5.0464287,12.1499998 Z" id="Rectangle-Copy-2" fill="#0393CD" fill-rule="nonzero" transform="translate(5.046429, 12.503571) scale(-1, 1) translate(-5.046429, -12.503571) "></path>
                    <path d="M13.1464283,11.5071426 C13.6967406,11.5071426 14.1428568,11.9532589 14.1428568,12.5035712 C14.1428568,13.0538834 13.6967406,13.4999997 13.1464283,13.4999997 C12.596116,13.4999997 12.1499998,13.0538834 12.1499998,12.5035712 C12.1499998,11.9532589 12.596116,11.5071426 13.1464283,11.5071426 Z M13.1464283,12.1499998 C12.9511562,12.1499998 12.7928569,12.3082991 12.7928569,12.5035712 C12.7928569,12.6988433 12.9511562,12.8571426 13.1464283,12.8571426 C13.3417004,12.8571426 13.4999998,12.6988433 13.4999998,12.5035712 C13.4999998,12.3082991 13.3417004,12.1499998 13.1464283,12.1499998 Z" id="Rectangle-Copy-4" fill="#0393CD" fill-rule="nonzero" transform="translate(13.146428, 12.503571) scale(-1, 1) translate(-13.146428, -12.503571) "></path>
                    <path d="M7.69499987,1.60714286 L10.6011037,1.60714286 C11.0520048,1.60714286 11.4175323,1.97267038 11.4175323,2.42357143 L11.4175323,3.21428571 C11.4175323,3.39180581 11.2736238,3.53571429 11.0961037,3.53571429 L7.19999987,3.53571429 C7.02247978,3.53571429 6.87857131,3.39180581 6.87857131,3.21428571 L6.87857131,2.42357143 C6.87857131,1.97267038 7.24409883,1.60714286 7.69499987,1.60714286 Z M10.7746752,2.89285714 L10.7746752,2.42357143 C10.7746752,2.32771058 10.6969646,2.25 10.6011037,2.25 L7.69499988,2.25 C7.59913902,2.25 7.52142845,2.32771058 7.52142845,2.42357143 L7.52142845,2.89285714 L10.7746752,2.89285714 Z" id="Rectangle" fill="#0393CD" fill-rule="nonzero" transform="translate(9.148052, 2.571429) scale(-1, -1) translate(-9.148052, -2.571429) "></path>
                    <path d="M4.05642853,14.4642857 L5.04642851,14.4642857 C5.49732955,14.4642857 5.86285707,14.8298132 5.86285707,15.2807143 L5.86285707,16.0714286 C5.86285707,16.2489487 5.7189486,16.3928571 5.5414285,16.3928571 L3.56142854,16.3928571 C3.38390845,16.3928571 3.23999998,16.2489487 3.23999998,16.0714286 L3.23999998,15.2807143 C3.23999998,14.8298132 3.60552749,14.4642857 4.05642853,14.4642857 Z M5.21999993,15.2807143 C5.21999993,15.1848534 5.14228935,15.1071429 5.0464285,15.1071429 L4.05642854,15.1071429 C3.96056769,15.1071429 3.88285712,15.1848534 3.88285712,15.2807143 L3.88285712,15.75 L5.21999993,15.75 L5.21999993,15.2807143 Z" id="Rectangle" fill="#0393CD" fill-rule="nonzero" transform="translate(4.551429, 15.428571) scale(1, -1) translate(-4.551429, -15.428571) "></path>
                    <path d="M12.9664283,14.4642857 L13.9564283,14.4642857 C14.4073293,14.4642857 14.7728568,14.8298132 14.7728568,15.2807143 L14.7728568,16.0714286 C14.7728568,16.2489487 14.6289484,16.3928571 14.4514283,16.3928571 L12.4714283,16.3928571 C12.2939082,16.3928571 12.1499998,16.2489487 12.1499998,16.0714286 L12.1499998,15.2807143 C12.1499998,14.8298132 12.5155273,14.4642857 12.9664283,14.4642857 Z M14.1299997,15.2807143 C14.1299997,15.1848534 14.0522891,15.1071429 13.9564283,15.1071429 L12.9664283,15.1071429 C12.8705675,15.1071429 12.7928569,15.1848534 12.7928569,15.2807143 L12.7928569,15.75 L14.1299997,15.75 L14.1299997,15.2807143 Z" id="Rectangle-Copy" fill="#0393CD" fill-rule="nonzero" transform="translate(13.461428, 15.428571) scale(1, -1) translate(-13.461428, -15.428571) "></path>
                    <path d="M6.38182413,10.9077119 L8.83368011,8.45585589 C8.95920578,8.33033022 8.95920578,8.1268129 8.83368011,8.00128723 C8.70815444,7.87576156 8.50463712,7.87576156 8.37911145,8.00128723 L5.92725547,10.4531432 C5.8017298,10.5786689 5.8017298,10.7821862 5.92725547,10.9077119 C6.05278114,11.0332375 6.25629846,11.0332375 6.38182413,10.9077119 Z" id="Path-68" fill="#0393CD" fill-rule="nonzero"></path>
                    <path d="M10.223713,10.9077119 L12.675569,8.45585589 C12.8010947,8.33033022 12.8010947,8.1268129 12.675569,8.00128723 C12.5500433,7.87576156 12.346526,7.87576156 12.2210004,8.00128723 L9.76914438,10.4531432 C9.64361871,10.5786689 9.64361871,10.7821862 9.76914438,10.9077119 C9.89467004,11.0332375 10.0981874,11.0332375 10.223713,10.9077119 Z" id="Path-68-Copy" fill="#0393CD" fill-rule="nonzero"></path>
                    <path d="M2.57142856,11.0249998 L15.3543953,11.0249998 C15.5319154,11.0249998 15.6758239,10.8810913 15.6758239,10.7035712 C15.6758239,10.5260511 15.5319154,10.3821426 15.3543953,10.3821426 L2.57142856,10.3821426 C2.39390847,10.3821426 2.25,10.5260511 2.25,10.7035712 C2.25,10.8810913 2.39390847,11.0249998 2.57142856,11.0249998 Z" id="Path" fill="#0393CD" fill-rule="nonzero"></path>
                    <path d="M2.57142856,4.94999988 L15.3543953,4.94999988 C15.5319154,4.94999988 15.6758239,4.8060914 15.6758239,4.62857131 C15.6758239,4.45105121 15.5319154,4.30714273 15.3543953,4.30714273 L2.57142856,4.30714273 C2.39390847,4.30714273 2.25,4.45105121 2.25,4.62857131 C2.25,4.8060914 2.39390847,4.94999988 2.57142856,4.94999988 Z" id="Path-Copy-2" fill="#0393CD" fill-rule="nonzero"></path>
                    <rect id="Rectangle" x="0" y="0" width="18" height="18"></rect>
                </g>
            </g>
        </g>
    </g>
</svg>