<?xml version="1.0" encoding="UTF-8"?>
<svg width="14px" height="17px" viewBox="0 0 14 17" version="1.1" xmlns="http://www.w3.org/2000/svg" xmlns:xlink="http://www.w3.org/1999/xlink">
    <!-- Generator: sketchtool 59.1 (101010) - https://sketch.com -->
    <title>573126AE-80B7-4522-B8AF-9A1B45FED134</title>
    <desc>Created with sketchtool.</desc>
    <g id="Mobile---Search-Hotel" stroke="none" stroke-width="1" fill="none" fill-rule="evenodd">
        <g id="Design_Hotel_02_Detail_01" transform="translate(-159.000000, -4486.000000)">
            <g id="Icon/Fac/Pool-Copy-26-Icons/Fac/BabySeat" transform="translate(157.000000, 4486.000000)">
                <g id="Group-3">
                    <g id="Group" transform="translate(2.571429, 1.285714)" stroke="#0393CD">
                        <rect id="Rectangle" x="0" y="3.85714286" width="12.8571429" height="1.92857143" rx="0.964285714"></rect>
                        <rect id="Rectangle-Copy" x="0" y="10.2857143" width="12.8571429" height="2.57142857" rx="1.28571429"></rect>
                        <path d="M3.97142857,0 L8.88571429,0 C9.65891294,-8.28772643e-16 10.2857143,0.62680135 10.2857143,1.4 L10.2857143,3.85714286 L10.2857143,3.85714286 L2.57142857,3.85714286 L2.57142857,1.4 C2.57142857,0.62680135 3.19822992,1.42034288e-16 3.97142857,0 Z" id="Rectangle-Copy-3"></path>
                        <path d="M3.97142857,5.78571429 L6.42857143,5.78571429 L6.42857143,5.78571429 L8.88571429,5.78571429 C9.65891294,5.78571429 10.2857143,6.41251564 10.2857143,7.18571429 L10.2857143,7.71428571 L10.2857143,7.71428571 L6.45628299,7.71428571 L2.57142857,7.71428571 L2.57142857,7.18571429 C2.57142857,6.41251564 3.19822992,5.78571429 3.97142857,5.78571429 Z" id="Rectangle-Copy-4" transform="translate(6.428571, 6.750000) scale(1, -1) translate(-6.428571, -6.750000) "></path>
                        <circle id="Oval" stroke-linejoin="round" cx="2.9892857" cy="13.9178571" r="1.06071427"></circle>
                        <circle id="Oval-Copy" stroke-linejoin="round" cx="10.0607143" cy="13.9178571" r="1.06071427"></circle>
                        <rect id="Rectangle-Copy-2" x="1.28571429" y="5.78571429" width="10.2857143" height="4.5"></rect>
                        <line x1="6.42857143" y1="7.71428571" x2="6.42857143" y2="5.78571429" id="Path-103"></line>
                    </g>
                    <rect id="Rectangle" x="0" y="0" width="18" height="18"></rect>
                </g>
            </g>
        </g>
    </g>
</svg>