<?xml version="1.0" encoding="UTF-8"?>
<svg width="14px" height="17px" viewBox="0 0 14 17" version="1.1" xmlns="http://www.w3.org/2000/svg" xmlns:xlink="http://www.w3.org/1999/xlink">
    <!-- Generator: sketchtool 59.1 (101010) - https://sketch.com -->
    <title>D5D0A359-3B10-4ED1-B529-0DFF18DBE5DA</title>
    <desc>Created with sketchtool.</desc>
    <g id="Mobile---Search-Hotel" stroke="none" stroke-width="1" fill="none" fill-rule="evenodd">
        <g id="Design_Hotel_02_Detail_01" transform="translate(-159.000000, -4679.000000)">
            <g id="Icon/Fac/Pool-Copy-30-Icons/Fac/Kettle" transform="translate(157.000000, 4678.000000)">
                <g id="Group">
                    <path d="M4.17857138,7.27610943 L2.94234236,5.31421398 C2.80746984,5.1001713 2.96129384,4.82142857 3.21428566,4.82142857 L13.5,4.82142857 C13.6775201,4.82142857 13.8214286,4.96533704 13.8214286,5.14285714 L13.8214286,14.1428571 C13.8214286,15.0304576 13.1018862,15.75 12.2142857,15.75 L5.78571425,15.75 C4.89811375,15.75 4.17857138,15.0304576 4.17857138,14.1428571 L4.17857138,7.27610943 Z M13.1785717,5.46428571 L3.79674281,5.46428571 L4.77194331,7.01192888 C4.80427294,7.063236 4.82142858,7.12264229 4.82142858,7.18328571 L4.82142858,14.1428571 C4.82142858,14.6754174 5.25315401,15.1071429 5.78571432,15.1071429 L12.2142859,15.1071429 C12.7468462,15.1071429 13.1785717,14.6754174 13.1785717,14.1428571 L13.1785717,5.46428571 Z" id="Combined-Shape" fill="#0393CD" fill-rule="nonzero"></path>
                    <path d="M14.7857143,4.82142857 L15.4285714,4.82142857 C15.6060915,4.82142857 15.75,4.96533704 15.75,5.14285714 L15.75,11.25 C15.75,11.9600804 15.1743661,12.5357143 14.4642857,12.5357143 C13.7542053,12.5357143 13.1785714,11.9600804 13.1785714,11.25 L13.1785714,6.42857143 C13.1785714,5.54097094 13.8981138,4.82142857 14.7857143,4.82142857 Z M15.1071429,5.46428571 L14.7857143,5.46428571 C14.253154,5.46428571 13.8214286,5.89601113 13.8214286,6.42857143 L13.8214286,11.25 C13.8214286,11.6050402 14.1092455,11.8928571 14.4642857,11.8928571 C14.8193259,11.8928571 15.1071429,11.6050402 15.1071429,11.25 L15.1071429,5.46428571 Z" id="Rectangle" fill="#0393CD" fill-rule="nonzero" transform="translate(14.464286, 8.678571) scale(-1, 1) translate(-14.464286, -8.678571) "></path>
                    <path d="M2.89285714,15.4285714 C2.89285714,15.2510513 3.03676562,15.1071429 3.21428571,15.1071429 L14.7857143,15.1071429 C14.9632344,15.1071429 15.1071429,15.2510513 15.1071429,15.4285714 C15.1071429,16.3161719 14.3876005,17.0357143 13.5,17.0357143 L4.5,17.0357143 C3.61239951,17.0357143 2.89285714,16.3161719 2.89285714,15.4285714 Z M3.62504919,15.8344702 C3.77828222,16.1642201 4.11244059,16.3928571 4.50000002,16.3928571 L13.5,16.3928571 C13.919856,16.3928571 14.27704,16.1245261 14.409416,15.75 L3.59058401,15.75 L3.62504919,15.8344702 Z" id="Rectangle" fill="#0393CD" fill-rule="nonzero" transform="translate(9.000000, 16.071429) scale(1, -1) translate(-9.000000, -16.071429) "></path>
                    <path d="M9,6.75 C9.53256029,6.75 9.96428571,7.18172542 9.96428571,7.71428571 L9.96428571,13.5 C9.96428571,14.0325603 9.53256029,14.4642857 9,14.4642857 C8.46743971,14.4642857 8.03571429,14.0325603 8.03571429,13.5 L8.03571429,7.71428571 C8.03571429,7.18172542 8.46743971,6.75 9,6.75 Z M9,7.39285714 C8.8224799,7.39285714 8.67857143,7.53676562 8.67857143,7.71428571 L8.67857143,13.5 C8.67857143,13.6775201 8.8224799,13.8214286 9,13.8214286 C9.1775201,13.8214286 9.32142857,13.6775201 9.32142857,13.5 L9.32142857,7.71428571 C9.32142857,7.53676562 9.1775201,7.39285714 9,7.39285714 Z" id="Rectangle" fill="#0393CD" fill-rule="nonzero"></path>
                    <polygon id="Path-112" fill="#0393CD" fill-rule="nonzero" points="4.5 13.7713464 8.35714286 13.7713464 8.35714286 13.1284892 4.5 13.1284892"></polygon>
                    <polygon id="Path-112-Copy" fill="#0393CD" fill-rule="nonzero" points="9.64285714 13.7713464 13.5 13.7713464 13.5 13.1284892 9.64285714 13.1284892"></polygon>
                    <path d="M7.39285714,2.87834715 L7.39285714,1.28571429 C7.39285714,1.10819419 7.24894867,0.964285714 7.07142857,0.964285714 C6.89390847,0.964285714 6.75,1.10819419 6.75,1.28571429 L6.75,2.87834715 C6.75,3.05586725 6.89390847,3.19977573 7.07142857,3.19977573 C7.24894867,3.19977573 7.39285714,3.05586725 7.39285714,2.87834715 Z" id="Path-106" fill="#0393CD" fill-rule="nonzero"></path>
                    <path d="M9.32142857,3.52120429 L9.32142857,1.92857144 C9.32142857,1.75105133 9.1775201,1.60714286 9,1.60714286 C8.8224799,1.60714286 8.67857143,1.75105133 8.67857143,1.92857144 L8.67857143,3.52120429 C8.67857143,3.6987244 8.8224799,3.84263287 9,3.84263287 C9.1775201,3.84263287 9.32142857,3.6987244 9.32142857,3.52120429 Z" id="Path-106-Copy" fill="#0393CD" fill-rule="nonzero"></path>
                    <path d="M11.25,2.87834715 L11.25,1.28571429 C11.25,1.10819419 11.1060915,0.964285714 10.9285714,0.964285714 C10.7510513,0.964285714 10.6071429,1.10819419 10.6071429,1.28571429 L10.6071429,2.87834715 C10.6071429,3.05586725 10.7510513,3.19977573 10.9285714,3.19977573 C11.1060915,3.19977573 11.25,3.05586725 11.25,2.87834715 Z" id="Path-106-Copy-2" fill="#0393CD" fill-rule="nonzero"></path>
                    <rect id="Rectangle" x="0" y="0" width="18" height="18"></rect>
                </g>
            </g>
        </g>
    </g>
</svg>