<?xml version="1.0" encoding="UTF-8"?>
<svg width="18px" height="16px" viewBox="0 0 18 16" version="1.1" xmlns="http://www.w3.org/2000/svg" xmlns:xlink="http://www.w3.org/1999/xlink">
    <!-- Generator: sketchtool 59.1 (101010) - https://sketch.com -->
    <title>BB96A8E1-930B-4EBF-9B26-C9C0D4C29ADA</title>
    <desc>Created with sketchtool.</desc>
    <g id="Mobile---Search-Hotel" stroke="none" stroke-width="1" fill="none" fill-rule="evenodd">
        <g id="Design_Hotel_02_Detail_01" transform="translate(-157.000000, -4535.000000)">
            <g id="Icon/Fac/Pool-Copy-29-Icons/Fac/Currency" transform="translate(157.000000, 4534.000000)">
                <g id="Group">
                    <path d="M15.6045496,9.2615058 C15.6045496,5.21937313 12.3277538,1.94257716 8.28562125,1.94257716 C5.43655803,1.94257716 2.8837603,3.58543111 1.67755999,6.11125423 C1.60182598,6.26984373 1.66899362,6.45980047 1.82758312,6.53553448 C1.98617261,6.61126849 2.17612934,6.54410084 2.25186335,6.38551134 C3.35335577,4.07895 5.684089,2.57900574 8.28562125,2.57900574 C11.976264,2.57900574 14.9681211,5.57086292 14.9681211,9.2615058 C14.9681211,9.4372507 15.1105905,9.57972009 15.2863354,9.57972009 C15.4620802,9.57972009 15.6045496,9.4372507 15.6045496,9.2615058 Z" id="Shape" fill="#0393CD" fill-rule="nonzero" transform="translate(8.625487, 5.761149) scale(-1, -1) rotate(-555.000000) translate(-8.625487, -5.761149) "></path>
                    <path d="M14.6259381,5.95523543 C14.5140754,5.81968839 14.3135102,5.80048847 14.1779631,5.9123512 C14.0424161,6.02421393 14.0232162,6.22477917 14.1350789,6.3603262 L15.6966808,8.25256053 C15.823958,8.40678572 16.0602628,8.40678572 16.18754,8.25256053 L17.7491419,6.3603262 C17.8610046,6.22477917 17.8418047,6.02421393 17.7062576,5.9123512 C17.5707106,5.80048847 17.3701454,5.81968839 17.2582826,5.95523543 L15.9421104,7.55007618 L14.6259381,5.95523543 Z" id="Path-59" fill="#0393CD" fill-rule="nonzero" transform="translate(15.942110, 7.103894) scale(-1, -1) rotate(-195.000000) translate(-15.942110, -7.103894) "></path>
                    <path d="M16.5643542,16.2534944 C16.5643542,12.2113617 13.2875584,8.93456575 9.24542584,8.93456575 C6.39636261,8.93456575 3.84356489,10.5774197 2.63736457,13.1032428 C2.56163057,13.2618323 2.62879821,13.4517891 2.7873877,13.5275231 C2.9459772,13.6032571 3.13593393,13.5360894 3.21166793,13.3774999 C4.31316035,11.0709386 6.64389358,9.57099433 9.24542584,9.57099433 C12.9360686,9.57099433 15.9279257,12.5628515 15.9279257,16.2534944 C15.9279257,16.4292393 16.070395,16.5717087 16.2461399,16.5717087 C16.4218848,16.5717087 16.5643542,16.4292393 16.5643542,16.2534944 Z" id="Shape" fill="#0393CD" fill-rule="nonzero" transform="translate(9.585291, 12.753137) rotate(-555.000000) translate(-9.585291, -12.753137) "></path>
                    <path d="M2.26874136,11.856566 L0.952569122,10.2617252 C0.84070639,10.1261782 0.640141146,10.1069783 0.50459411,10.218841 C0.369047074,10.3307037 0.349847152,10.531269 0.461709883,10.666816 L2.02331174,12.5590503 C2.15058897,12.7132755 2.38689375,12.7132755 2.51417098,12.5590503 L4.07577284,10.666816 C4.18763557,10.531269 4.16843565,10.3307037 4.03288861,10.218841 C3.89734158,10.1069783 3.69677633,10.1261782 3.5849136,10.2617252 L2.26874136,11.856566 Z" id="Path-59" fill="#0393CD" fill-rule="nonzero" transform="translate(2.268741, 11.410383) rotate(-195.000000) translate(-2.268741, -11.410383) "></path>
                    <path d="M9.17357143,6.42214271 C9.28071482,6.42214271 9.37071393,6.45964234 9.44357143,6.53464271 C9.51642894,6.60964309 9.55285715,6.70285645 9.55285715,6.81428558 L9.55285715,7.05214273 C9.91714469,7.11642876 10.2171417,7.24928458 10.4528572,7.45071416 C10.5771435,7.54928609 10.6392857,7.66285638 10.6392857,7.79142846 C10.6392857,7.89000038 10.6028575,7.97678523 10.53,8.05178561 C10.4571425,8.12678598 10.3714291,8.16428561 10.2728572,8.16428561 C10.2085711,8.16428561 10.1507146,8.14500009 10.0992857,8.10642847 C9.97071366,7.99928507 9.78857262,7.90714313 9.55285715,7.82999989 L9.55285715,9.01928563 C9.96857352,9.11785756 10.2707134,9.26249897 10.4592857,9.45321421 C10.6478581,9.64392946 10.7421429,9.92356953 10.7421429,10.2921428 C10.7421429,10.6221445 10.6307154,10.9007131 10.4078572,11.1278571 C10.1849989,11.3550011 9.90000175,11.5071424 9.55285715,11.5842857 L9.55285715,11.9828571 C9.55285715,12.0942863 9.51535752,12.1874996 9.44035715,12.2625 C9.36535677,12.3375004 9.27214342,12.375 9.16071429,12.375 C9.05357089,12.375 8.96357179,12.3375004 8.89071428,12.2625 C8.81785677,12.1874996 8.78142857,12.0942863 8.78142857,11.9828571 L8.78142857,11.6228571 C8.54999884,11.6014284 8.33892951,11.5521432 8.14821427,11.475 C7.95749903,11.3978567 7.77214374,11.2821436 7.59214284,11.1278571 C7.47642797,11.0249995 7.4185714,10.9114292 7.4185714,10.7871428 C7.4185714,10.6885709 7.45499961,10.601786 7.52785712,10.5267857 C7.60071463,10.4517853 7.68857089,10.4142857 7.79142855,10.4142857 C7.87285753,10.4142857 7.94571395,10.4399997 8.00999998,10.4914285 C8.14285779,10.5985719 8.2692851,10.6832139 8.3892857,10.7453571 C8.50928631,10.8075003 8.63999929,10.8492856 8.78142857,10.8707142 L8.78142857,9.61714279 C7.91999568,9.45857056 7.48928569,9.02786057 7.48928569,8.3249999 C7.48928569,7.96928383 7.60928449,7.67678674 7.8492857,7.44749988 C8.0892869,7.21821301 8.39999808,7.07785727 8.78142857,7.02642844 L8.78142857,6.81428558 C8.78142857,6.70285645 8.81892819,6.60964309 8.89392857,6.53464271 C8.96892894,6.45964234 9.0621423,6.42214271 9.17357143,6.42214271 Z M9.55285711,9.80357143 L9.55285711,10.8128572 C9.67714344,10.7614283 9.77785672,10.693929 9.85499996,10.6103572 C9.93214321,10.5267853 9.97071425,10.4357148 9.97071425,10.3371429 C9.97071425,10.2171423 9.93642888,10.1132147 9.86785711,10.0253572 C9.79928533,9.93749957 9.69428638,9.86357173 9.55285711,9.80357143 L9.55285711,9.80357143 Z M8.78142857,7.77857121 C8.60571341,7.8128571 8.4728576,7.87499933 8.38285715,7.96499978 C8.2928567,8.05500023 8.24785715,8.16428485 8.24785715,8.29285692 C8.24785715,8.43428619 8.2928567,8.5489279 8.38285715,8.63678548 C8.4728576,8.72464306 8.60571341,8.79428522 8.78142857,8.84571405 L8.78142857,7.77857121 Z" id="$" fill="#0393CD" fill-rule="nonzero" transform="translate(9.080357, 9.398571) rotate(-360.000000) translate(-9.080357, -9.398571) "></path>
                    <rect id="Rectangle" x="0" y="0" width="18" height="18"></rect>
                </g>
            </g>
        </g>
    </g>
</svg>