<?xml version="1.0" encoding="UTF-8"?>
<svg width="18px" height="18px" viewBox="0 0 18 18" version="1.1" xmlns="http://www.w3.org/2000/svg" xmlns:xlink="http://www.w3.org/1999/xlink">
    <!-- Generator: sketchtool 59.1 (101010) - https://sketch.com -->
    <title>C06A3C6A-90FB-4C73-BFBD-577BFC5E7039</title>
    <desc>Created with sketchtool.</desc>
    <g id="Mobile---Search-Hotel" stroke="none" stroke-width="1" fill="none" fill-rule="evenodd">
        <g id="Design_Hotel_02_Detail_01" transform="translate(-22.000000, -4437.000000)">
            <g id="Icon/Fac/Pool-Copy-22-Icons/Fac/LateCheckOut" transform="translate(22.000000, 4437.000000)">
                <g id="Group">
                    <path d="M5.46428571,4.82142857 L5.46428571,3.21428571 C5.46428571,3.03676562 5.32037724,2.89285714 5.14285714,2.89285714 C4.96533704,2.89285714 4.82142857,3.03676562 4.82142857,3.21428571 L4.82142857,5.14285714 C4.82142857,5.32037724 4.96533704,5.46428571 5.14285714,5.46428571 L7.07142857,5.46428571 C7.24894867,5.46428571 7.39285714,5.32037724 7.39285714,5.14285714 C7.39285714,4.96533704 7.24894867,4.82142857 7.07142857,4.82142857 L5.46428571,4.82142857 Z" id="Path-97" fill="#0393CD" fill-rule="nonzero"></path>
                    <path d="M5.14285714,9.32142857 C7.45061842,9.32142857 9.32142857,7.45061842 9.32142857,5.14285714 C9.32142857,2.83509587 7.45061842,0.964285714 5.14285714,0.964285714 C2.83509587,0.964285714 0.964285714,2.83509587 0.964285714,5.14285714 C0.964285714,7.45061842 2.83509587,9.32142857 5.14285714,9.32142857 Z M5.14285714,8.67857143 C3.19013606,8.67857143 1.60714286,7.09557822 1.60714286,5.14285714 C1.60714286,3.19013606 3.19013606,1.60714286 5.14285714,1.60714286 C7.09557822,1.60714286 8.67857143,3.19013606 8.67857143,5.14285714 C8.67857143,7.09557822 7.09557822,8.67857143 5.14285714,8.67857143 Z" id="Oval" fill="#0393CD" fill-rule="nonzero"></path>
                    <path d="M14.7695859,4.17857143 L15.4285714,4.17857143 C16.2806679,4.17857143 16.977882,4.84170167 17.0322958,5.6800442 L17.0357143,5.78571429 L17.0357143,15.4285714 C17.0357143,16.2806679 16.372584,16.977882 15.5342415,17.0322958 L15.4285714,17.0357143 L5.78571429,17.0357143 C4.93361781,17.0357143 4.23640371,16.372584 4.18198994,15.5342415 L4.17857143,15.4285714 L4.17857143,8.98077227 L4.82142857,8.98077227 L4.82142857,15.4285714 C4.82142857,15.9298046 5.20385662,16.341717 5.69284714,16.3884429 L5.78571429,16.3928571 L15.4285714,16.3928571 C15.9298046,16.3928571 16.341717,16.0104291 16.3884429,15.5214386 L16.3928571,15.4285714 L16.3928571,5.78571429 C16.3928571,5.28448107 16.0104291,4.87256871 15.5214386,4.8258428 L15.4285714,4.82142857 L14.7695859,4.82142857 L14.7695859,4.17857143 L15.4285714,4.17857143 L14.7695859,4.17857143 Z M13.5039617,4.17857143 L13.5039617,4.82142857 L8.99968641,4.82142857 L8.99968641,4.17857143 L13.5039617,4.17857143 Z" id="Shape" fill="#0393CD" fill-rule="nonzero"></path>
                    <path d="M14.1428571,2.89285714 C14.6754174,2.89285714 15.1071429,3.32458256 15.1071429,3.85714286 L15.1071429,4.5 C15.1071429,5.03256029 14.6754174,5.46428571 14.1428571,5.46428571 C13.6102968,5.46428571 13.1785714,5.03256029 13.1785714,4.5 L13.1785714,3.85714286 C13.1785714,3.32458256 13.6102968,2.89285714 14.1428571,2.89285714 Z M14.1428571,3.53571429 C13.965337,3.53571429 13.8214286,3.67962276 13.8214286,3.85714286 L13.8214286,4.5 C13.8214286,4.6775201 13.965337,4.82142857 14.1428571,4.82142857 C14.3203772,4.82142857 14.4642857,4.6775201 14.4642857,4.5 L14.4642857,3.85714286 C14.4642857,3.67962276 14.3203772,3.53571429 14.1428571,3.53571429 Z" id="Rectangle" fill="#0393CD" fill-rule="nonzero"></path>
                    <polygon id="Path-98" fill="#0393CD" fill-rule="nonzero" points="8.58847128 7.39285714 16.7142857 7.39285714 16.7142857 6.75 8.58847128 6.75"></polygon>
                    <path d="M10.2857143,9 L10.2857143,13.2171428 C10.2857143,13.3946629 10.4296228,13.5385714 10.6071429,13.5385714 C10.784663,13.5385714 10.9285714,13.3946629 10.9285714,13.2171428 L10.9285714,9 C10.9285714,8.8224799 10.784663,8.67857143 10.6071429,8.67857143 C10.4296228,8.67857143 10.2857143,8.8224799 10.2857143,9 Z" id="Path-101" fill="#0393CD" fill-rule="nonzero"></path>
                    <path d="M10.641241,14.144625 C10.7133951,14.1522519 10.7812538,14.1841664 10.8333391,14.2357127 C10.8942066,14.2959503 10.9284893,14.3780067 10.9285631,14.4627281 C10.9298251,14.6402393 10.7869468,14.7851636 10.6094356,14.7864255 C10.4319244,14.7876874 10.2870001,14.6448092 10.2857515,14.4684945 C10.2844461,14.3827931 10.3174951,14.300134 10.3775261,14.2389562 C10.4288957,14.1866054 10.4963659,14.1537111 10.5684726,14.1451105 L10.6048591,14.1428571 L10.641241,14.144625 Z" id="Path" fill="#0393CD" fill-rule="nonzero"></path>
                    <rect id="Rectangle" x="0" y="0" width="18" height="18"></rect>
                </g>
            </g>
        </g>
    </g>
</svg>