<?xml version="1.0" encoding="UTF-8"?>
<svg width="17px" height="16px" viewBox="0 0 17 16" version="1.1" xmlns="http://www.w3.org/2000/svg" xmlns:xlink="http://www.w3.org/1999/xlink">
    <!-- Generator: sketchtool 59.1 (101010) - https://sketch.com -->
    <title>00E9FFE3-F135-4413-AB2A-2F2A6EDD43B2</title>
    <desc>Created with sketchtool.</desc>
    <g id="Mobile---Search-Hotel" stroke="none" stroke-width="1" fill="none" fill-rule="evenodd">
        <g id="Design_Hotel_02_Detail_01" transform="translate(-23.000000, -4198.000000)">
            <g id="Icon/Fac/Pool-Copy-6-Icons/Fac/PrivateBeach" transform="translate(22.000000, 4197.000000)">
                <g id="Group">
                    <path d="M15.4182975,14.0464288 C15.1268599,14.0464288 14.9196686,14.1062586 14.7004244,14.2255512 L14.5349444,14.3190689 C14.4060893,14.3889153 14.3046812,14.4167145 14.1336098,14.4167145 C13.9623171,14.4167145 13.876385,14.3955291 13.7324371,14.3186304 L13.5666829,14.2255053 C13.3474716,14.1062467 13.1402818,14.0464288 12.8488666,14.0464288 C12.5560413,14.0464288 12.3760751,14.0962841 12.1452624,14.2185019 L11.9654153,14.3190928 C11.8365787,14.3889203 11.7351657,14.4167145 11.5641048,14.4167145 C11.393041,14.4167145 11.2916364,14.3889241 11.1628138,14.3191042 L10.9971779,14.2255053 C10.7779665,14.1062467 10.5707768,14.0464288 10.2793615,14.0464288 C9.98653625,14.0464288 9.80657004,14.0962841 9.57575738,14.2185019 L9.39591821,14.3190884 C9.26707632,14.3889194 9.16565923,14.4167145 8.99458121,14.4167145 C8.82328845,14.4167145 8.73735641,14.3955291 8.59340849,14.3186304 L8.42764198,14.2255035 C8.20841119,14.1062457 8.00122038,14.0464288 7.70981943,14.0464288 C7.41700293,14.0464288 7.23705116,14.0962841 7.00623402,14.2185154 L6.8264333,14.3190822 C6.69757877,14.3889186 6.59616744,14.4167145 6.42509468,14.4167145 C6.25401666,14.4167145 6.15259957,14.3889194 6.02375768,14.3190884 L5.85814696,14.2255048 C5.63893392,14.1062486 5.43173061,14.0464288 5.14031438,14.0464288 C4.84890046,14.0464288 4.64170494,14.1062456 4.4224735,14.2255034 L4.33418972,14.2753723 C4.13901232,14.3878761 4.05534109,14.4167145 3.85549706,14.4167145 C3.68440346,14.4167145 3.58297067,14.3889181 3.45411005,14.3190859 L3.2884811,14.2255028 C3.06924734,14.1062474 2.86203351,14.0464288 2.57060568,14.0464288 C2.32081039,14.0464288 2.13288662,14.0903771 1.94623224,14.1780335 L1.82761593,14.2393393 L1.76444399,14.2753723 C1.56926666,14.3878761 1.4855905,14.4167145 1.2857143,14.4167145 L1.18928573,14.5131431 L1.18928573,14.9760002 L1.2857143,15.0724288 C1.57714213,15.0724288 1.78435596,15.0126102 2.00358972,14.8933548 L2.09187599,14.8434853 C2.28705331,14.7309815 2.37072948,14.7021431 2.57060568,14.7021431 C2.74170218,14.7021431 2.84312651,14.7299357 2.97197319,14.7997603 L3.13762164,14.8933548 C3.3568554,15.0126102 3.56406923,15.0724288 3.85549706,15.0724288 C4.14692626,15.0724288 4.35413428,15.0126091 4.57334797,14.8933529 L4.7389509,14.7997736 C4.86779814,14.729939 4.96921925,14.7021431 5.14031438,14.7021431 C5.31159713,14.7021431 5.39754646,14.7233343 5.54149084,14.8002297 L5.70725379,14.8933542 C5.92648523,15.012612 6.13368075,15.0724288 6.42509468,15.0724288 C6.71649793,15.0724288 6.92369654,15.0126089 7.14290892,14.8933528 L7.23118632,14.843483 C7.42634031,14.7309787 7.50999396,14.7021431 7.70981943,14.7021431 C7.88089745,14.7021431 7.98231454,14.7299382 8.11115643,14.7997692 L8.27676715,14.8933528 C8.49598018,15.012609 8.70318349,15.0724288 8.99459972,15.0724288 C9.28601595,15.0724288 9.49321927,15.012609 9.7124323,14.8933528 L9.87804302,14.7997692 C10.0068849,14.7299382 10.108302,14.7021431 10.27938,14.7021431 C10.4504528,14.7021431 10.5518641,14.729939 10.6807186,14.7997754 L10.7580144,14.8434652 C11.0422391,15.0073198 11.2294445,15.0724288 11.5641048,15.0724288 C11.856917,15.0724288 12.0368788,15.0225735 12.2676906,14.9003557 L12.4475296,14.7997692 C12.5763714,14.7299382 12.6777885,14.7021431 12.8488666,14.7021431 C13.0199393,14.7021431 13.1213506,14.729939 13.2502052,14.7997754 L13.3275009,14.8434652 C13.6117257,15.0073198 13.798931,15.0724288 14.1335913,15.0724288 C14.425029,15.0724288 14.6322203,15.012599 14.8514645,14.8933064 L15.0169444,14.7997887 C15.1457995,14.7299423 15.2472076,14.7021431 15.418279,14.7021431 C15.5895459,14.7021431 15.67548,14.7233323 15.8194053,14.8002272 L15.9851502,14.8933522 C16.2043609,15.0126108 16.4115459,15.0724288 16.7029482,15.0724288 L16.7993768,14.9760002 L16.7993768,14.5131431 L16.7029482,14.4167145 C16.5318911,14.4167145 16.4304954,14.3889199 16.3016596,14.3190847 L16.2243739,14.275395 C15.9401953,14.1115488 15.7529618,14.0464288 15.4182975,14.0464288 Z" id="Path" fill="#0393CD" fill-rule="nonzero"></path>
                    <path d="M15.4182975,15.9750002 C15.1268599,15.9750002 14.9196686,16.03483 14.7004244,16.1541226 L14.5349444,16.2476403 C14.4060893,16.3174867 14.3046812,16.3452859 14.1336098,16.3452859 C13.9623171,16.3452859 13.876385,16.3241006 13.7324371,16.2472018 L13.5666829,16.1540768 C13.3474716,16.0348182 13.1402818,15.9750002 12.8488666,15.9750002 C12.5560413,15.9750002 12.3760751,16.0248555 12.1452624,16.1470733 L11.9654153,16.2476642 C11.8365787,16.3174917 11.7351657,16.3452859 11.5641048,16.3452859 C11.393041,16.3452859 11.2916364,16.3174955 11.1628138,16.2476756 L10.9971779,16.1540768 C10.7779665,16.0348182 10.5707768,15.9750002 10.2793615,15.9750002 C9.98653625,15.9750002 9.80657004,16.0248555 9.57575738,16.1470733 L9.39591821,16.2476598 C9.26707632,16.3174909 9.16565923,16.3452859 8.99458121,16.3452859 C8.82328845,16.3452859 8.73735641,16.3241006 8.59340849,16.2472018 L8.42764198,16.1540749 C8.20841119,16.0348171 8.00122038,15.9750002 7.70981943,15.9750002 C7.41700293,15.9750002 7.23705116,16.0248555 7.00623402,16.1470869 L6.8264333,16.2476536 C6.69757877,16.31749 6.59616744,16.3452859 6.42509468,16.3452859 C6.25401666,16.3452859 6.15259957,16.3174909 6.02375768,16.2476598 L5.85814696,16.1540762 C5.63893392,16.03482 5.43173061,15.9750002 5.14031438,15.9750002 C4.84890046,15.9750002 4.64170494,16.034817 4.4224735,16.1540749 L4.33418972,16.2039438 C4.13901232,16.3164476 4.05534109,16.3452859 3.85549706,16.3452859 C3.68440346,16.3452859 3.58297067,16.3174896 3.45411005,16.2476574 L3.2884811,16.1540743 C3.06924734,16.0348188 2.86203351,15.9750002 2.57060568,15.9750002 C2.32081039,15.9750002 2.13288662,16.0189486 1.94623224,16.1066049 L1.82761593,16.1679107 L1.76444399,16.2039438 C1.56926666,16.3164475 1.4855905,16.3452859 1.2857143,16.3452859 L1.18928573,16.4417145 L1.18928573,16.9045716 L1.2857143,17.0010002 C1.57714213,17.0010002 1.78435596,16.9411817 2.00358972,16.8219262 L2.09187599,16.7720567 C2.28705331,16.659553 2.37072948,16.6307145 2.57060568,16.6307145 C2.74170218,16.6307145 2.84312651,16.6585071 2.97197319,16.7283317 L3.13762164,16.8219262 C3.3568554,16.9411817 3.56406923,17.0010002 3.85549706,17.0010002 C4.14692626,17.0010002 4.35413428,16.9411805 4.57334797,16.8219243 L4.7389509,16.728345 C4.86779814,16.6585104 4.96921925,16.6307145 5.14031438,16.6307145 C5.31159713,16.6307145 5.39754646,16.6519058 5.54149084,16.7288012 L5.70725379,16.8219256 C5.92648523,16.9411834 6.13368075,17.0010002 6.42509468,17.0010002 C6.71649793,17.0010002 6.92369654,16.9411804 7.14290892,16.8219242 L7.23118632,16.7720544 C7.42634031,16.6595502 7.50999396,16.6307145 7.70981943,16.6307145 C7.88089745,16.6307145 7.98231454,16.6585096 8.11115643,16.7283406 L8.27676715,16.8219242 C8.49598018,16.9411804 8.70318349,17.0010002 8.99459972,17.0010002 C9.28601595,17.0010002 9.49321927,16.9411804 9.7124323,16.8219242 L9.87804302,16.7283406 C10.0068849,16.6585096 10.108302,16.6307145 10.27938,16.6307145 C10.4504528,16.6307145 10.5518641,16.6585104 10.6807186,16.7283468 L10.7580144,16.7720366 C11.0422391,16.9358912 11.2294445,17.0010002 11.5641048,17.0010002 C11.856917,17.0010002 12.0368788,16.951145 12.2676906,16.8289271 L12.4475296,16.7283406 C12.5763714,16.6585096 12.6777885,16.6307145 12.8488666,16.6307145 C13.0199393,16.6307145 13.1213506,16.6585104 13.2502052,16.7283468 L13.3275009,16.7720366 C13.6117257,16.9358912 13.798931,17.0010002 14.1335913,17.0010002 C14.425029,17.0010002 14.6322203,16.9411705 14.8514645,16.8218779 L15.0169444,16.7283601 C15.1457995,16.6585138 15.2472076,16.6307145 15.418279,16.6307145 C15.5895459,16.6307145 15.67548,16.6519037 15.8194053,16.7287987 L15.9851502,16.8219237 C16.2043609,16.9411822 16.4115459,17.0010002 16.7029482,17.0010002 L16.7993768,16.9045716 L16.7993768,16.4417145 L16.7029482,16.3452859 C16.5318911,16.3452859 16.4304954,16.3174914 16.3016596,16.2476561 L16.2243739,16.2039664 C15.9401953,16.0401202 15.7529618,15.9750002 15.4182975,15.9750002 Z" id="Path" fill="#0393CD" fill-rule="nonzero"></path>
                    <path d="M17.3804004,6.36729618 C16.5154355,3.55964046 13.911723,1.60714286 10.9285715,1.60714286 C7.93820378,1.60714286 5.32972071,3.5690457 4.47093393,6.38625025 C4.40791997,6.59296419 4.56276126,6.80172081 4.77886611,6.801404 L17.0736905,6.78335901 C17.2897985,6.78304184 17.4440268,6.57382581 17.3804004,6.36729618 Z M5.22916496,6.15788504 C6.12501222,3.83417417 8.372717,2.25 10.9285718,2.25 C13.4157118,2.25 15.6115087,3.7501713 16.5532315,5.97310213 L16.6214943,6.14116497 L5.22916496,6.15788504 Z" id="Path" fill="#0393CD" fill-rule="nonzero"></path>
                    <path d="" id="Path-60" stroke="#979797"></path>
                    <path d="M10.7815239,1.69415511 C8.98698238,2.6174043 7.8564898,4.20009381 7.39948823,6.41502366 C7.3636165,6.58888165 7.47547647,6.75890118 7.64933447,6.79477291 C7.82319247,6.83064464 7.99321201,6.71878468 8.02908375,6.54492669 C8.44810773,4.51406113 9.46047231,3.09675082 11.0756195,2.26579575 C11.2334737,2.18458349 11.2956043,1.99078182 11.2143921,1.83292762 C11.1331798,1.67507341 10.9393781,1.61294284 10.7815239,1.69415511 Z" id="Path-62" fill="#0393CD" fill-rule="nonzero"></path>
                    <path d="M13.9958096,1.69415511 C12.2012681,2.6174043 11.0707755,4.20009381 10.6137739,6.41502366 C10.5779022,6.58888165 10.6897622,6.75890118 10.8636202,6.79477291 C11.0374782,6.83064464 11.2074977,6.71878468 11.2433695,6.54492669 C11.6623934,4.51406113 12.674758,3.09675082 14.2899052,2.26579575 C14.4477595,2.18458349 14.50989,1.99078182 14.4286778,1.83292762 C14.3474655,1.67507341 14.1536638,1.61294284 13.9958096,1.69415511 Z" id="Path-62" fill="#0393CD" fill-rule="nonzero" transform="translate(12.535716, 4.229974) scale(-1, 1) translate(-12.535716, -4.229974) "></path>
                    <path d="M10.6071429,6.54671553 L10.6071429,14.3928249 C10.6071429,14.570345 10.7510513,14.7142535 10.9285714,14.7142535 C11.1060915,14.7142535 11.25,14.570345 11.25,14.3928249 L11.25,6.54671553 C11.25,6.36919543 11.1060915,6.22528696 10.9285714,6.22528696 C10.7510513,6.22528696 10.6071429,6.36919543 10.6071429,6.54671553 Z" id="Path-61" fill="#0393CD" fill-rule="nonzero"></path>
                    <path d="M5.47886527,5.46428571 L16.3551572,5.46428571 C16.5326773,5.46428571 16.6765858,5.32037724 16.6765858,5.14285714 C16.6765858,4.96533704 16.5326773,4.82142857 16.3551572,4.82142857 L5.47886527,4.82142857 C5.30134518,4.82142857 5.15743671,4.96533704 5.15743671,5.14285714 C5.15743671,5.32037724 5.30134518,5.46428571 5.47886527,5.46428571 Z" id="Path-74" fill="#0393CD" fill-rule="nonzero"></path>
                    <path d="M0.99448787,7.71422375 L2.91915122,11.8348072 C2.99427716,11.9956471 3.18556528,12.065132 3.34640519,11.990006 C3.50724511,11.9148801 3.57673001,11.723592 3.50160407,11.5627521 L1.57694072,7.44216865 C1.50181478,7.28132873 1.31052666,7.21184382 1.14968675,7.28696976 C0.988846836,7.3620957 0.919361931,7.55338383 0.99448787,7.71422375 Z" id="Path-75" fill="#0393CD" fill-rule="nonzero"></path>
                    <path d="M1.51537369,12.0202078 L9.60978879,12.0202078 C9.78730889,12.0202078 9.93121737,11.8762993 9.93121737,11.6987792 C9.93121737,11.5212591 9.78730889,11.3773507 9.60978879,11.3773507 L1.51537369,11.3773507 C1.33785359,11.3773507 1.19394511,11.5212591 1.19394511,11.6987792 C1.19394511,11.8762993 1.33785359,12.0202078 1.51537369,12.0202078 Z" id="Path-76" fill="#0393CD" fill-rule="nonzero"></path>
                    <path d="M2.25053491,11.6987792 L2.25053491,14.3928249 C2.25053491,14.570345 2.39444338,14.7142535 2.57196348,14.7142535 C2.74948358,14.7142535 2.89339205,14.570345 2.89339205,14.3928249 L2.89339205,11.6987792 C2.89339205,11.5212591 2.74948358,11.3773507 2.57196348,11.3773507 C2.39444338,11.3773507 2.25053491,11.5212591 2.25053491,11.6987792 Z" id="Path-63" fill="#0393CD" fill-rule="nonzero"></path>
                    <path d="M8.18940333,11.6987792 L8.18940333,14.3928249 C8.18940333,14.570345 8.3333118,14.7142535 8.5108319,14.7142535 C8.688352,14.7142535 8.83226047,14.570345 8.83226047,14.3928249 L8.83226047,11.6987792 C8.83226047,11.5212591 8.688352,11.3773507 8.5108319,11.3773507 C8.3333118,11.3773507 8.18940333,11.5212591 8.18940333,11.6987792 Z" id="Path-63-Copy" fill="#0393CD" fill-rule="nonzero"></path>
                    <path d="M7.42659412,9.84215294 L7.42659412,11.6987795 C7.42659412,11.8762996 7.57050259,12.0202081 7.74802269,12.0202081 C7.92554279,12.0202081 8.06945126,11.8762996 8.06945126,11.6987795 L8.06945126,9.84215294 C8.06945126,9.66463284 7.92554279,9.52072436 7.74802269,9.52072436 C7.57050259,9.52072436 7.42659412,9.66463284 7.42659412,9.84215294 Z" id="Path-86" fill="#0393CD" fill-rule="nonzero"></path>
                    <path d="M2.37804131,9.95991693 L8.7033069,9.95991693 C8.88082701,9.95991693 9.02473548,9.81600846 9.02473548,9.63848836 C9.02473548,9.46096826 8.88082701,9.31705979 8.7033069,9.31705979 L2.37804131,9.31705979 C2.20052121,9.31705979 2.05661273,9.46096826 2.05661273,9.63848836 C2.05661273,9.81600846 2.20052121,9.95991693 2.37804131,9.95991693 Z" id="Path-87" fill="#0393CD" fill-rule="nonzero"></path>
                    <rect id="Rectangle" x="0" y="0" width="18" height="18"></rect>
                </g>
            </g>
        </g>
    </g>
</svg>