<?xml version="1.0" encoding="UTF-8"?>
<svg width="16px" height="16px" viewBox="0 0 16 16" version="1.1" xmlns="http://www.w3.org/2000/svg" xmlns:xlink="http://www.w3.org/1999/xlink">
    <!-- Generator: sketchtool 59.1 (101010) - https://sketch.com -->
    <title>108763F2-3A3F-4FA5-94AF-CC0DAD97CBC8</title>
    <desc>Created with sketchtool.</desc>
    <g id="Mobile---Search-Hotel" stroke="none" stroke-width="1" fill="none" fill-rule="evenodd">
        <g id="Design_Hotel_02_Detail_01" transform="translate(-158.000000, -4103.000000)">
            <g id="Icon/Fac/Pool-Copy-4-Icons/Fac/Airport" transform="translate(157.000000, 4102.000000)">
                <g id="Group" transform="translate(-1.928571, -1.285714)">
                    <path d="M5.26074688,12.9193939 L3.20663156,11.3514279 C2.99835487,11.1746455 2.88023384,10.9341779 2.89365777,10.6990929 C2.88474436,10.4312513 3.01870794,10.1790982 3.24777402,10.0329987 L4.17774876,9.43985634 C4.34113905,9.33564522 4.54139105,9.29636381 4.75012904,9.34363122 L4.83901357,9.36376123 L4.89556492,9.38195158 L6.42199167,10.0340694 L8.76323561,8.54081267 L5.29353906,5.47165543 C5.13021046,5.30771065 5.03935892,5.07273728 5.05134785,4.86268761 C5.04243797,4.59495202 5.1714582,4.36532055 5.40104459,4.21888923 L6.27710776,3.66013189 C6.4515803,3.54885246 6.65056472,3.50721358 6.86296592,3.55531051 L6.93057475,3.5706201 L7.00706947,3.59851567 L12.2248352,6.29299064 L15.0241689,4.48921836 C15.3819221,4.28086597 15.827554,4.2224399 16.2599668,4.32035707 C16.723112,4.42523339 17.1146448,4.6975416 17.3781984,5.09612758 C17.9056791,5.89386443 17.7209136,6.98027783 16.9393013,7.57493364 L14.2155771,9.31213816 L14.5991728,15.0624127 C14.5853176,15.3282463 14.4539769,15.568 14.2318365,15.7096822 L13.3557734,16.2684395 C13.2258436,16.3513094 13.0823201,16.395558 12.929785,16.3930006 L12.7886687,16.3825255 L12.7449254,16.3728687 L12.7071629,16.3582204 L12.645455,16.3290911 L12.693248,16.3442519 L12.6260161,16.3209525 C12.3806091,16.2040638 12.185725,15.9976496 12.1513435,15.7819586 L10.7453903,11.5059633 L8.40876167,12.9962763 L8.37183446,14.6923309 C8.35205915,14.9263217 8.22358757,15.1399834 8.01997328,15.2698495 L7.14391011,15.8286069 C6.96943757,15.9398863 6.77045316,15.9815252 6.55805195,15.9334283 L6.5194769,15.9226985 L6.46134725,15.900389 L6.43545301,15.8930833 C6.18438422,15.8159601 5.98683059,15.5882989 5.93053389,15.3494332 L5.26074688,12.9193939 Z M6.72098964,4.18229376 C6.68416617,4.17395532 6.65858056,4.17930928 6.62279794,4.20213161 L5.74673474,4.76088896 C5.70339376,4.78853204 5.69272507,4.80752027 5.69359157,4.86872692 C5.69048911,4.92825224 5.71991669,4.99581184 5.7717545,5.03776163 L9.50851094,8.34170782 C9.6685685,8.48322669 9.64857528,8.73862144 9.4684453,8.85350922 L6.62460937,10.6673215 C6.53508303,10.7244219 6.4231332,10.7336227 6.32548534,10.6919057 L4.69955834,9.9913101 L4.60815267,9.97061452 C4.57180868,9.96238465 4.54604353,9.96743874 4.52343886,9.9818561 L3.59346408,10.5749985 C3.55521858,10.5993917 3.53482999,10.6377681 3.53590139,10.7051322 C3.53331869,10.7546853 3.55928663,10.8075501 3.60962015,10.8508418 L5.73683651,12.4740653 C5.7926966,12.5166907 5.83305031,12.5764462 5.85172128,12.6441859 L6.55319944,15.1900136 C6.55753436,15.2083346 6.56939069,15.2286605 6.58018832,15.2445331 L6.60082504,15.2723328 L6.64688709,15.2846418 L6.71845834,15.3107875 L6.70175776,15.3068438 L6.73423287,15.3100663 C6.75524515,15.3091948 6.77449042,15.3017422 6.79822022,15.2866072 L7.67428342,14.7278499 C7.71252892,14.7034567 7.73291751,14.6650803 7.73148331,14.6076013 L7.76975605,12.8107889 C7.77204215,12.703462 7.82775774,12.6043611 7.91826671,12.546634 L10.7486247,10.741418 C10.9255012,10.6286053 11.1612882,10.7127256 11.2268163,10.9120195 L12.7733006,15.6261138 C12.7775325,15.6502788 12.8213411,15.6980104 12.8876742,15.7331374 L12.9370516,15.7555312 L12.8898708,15.731103 C12.8506673,15.711553 12.8277106,15.7049393 12.8015805,15.7116216 L12.7793422,15.7442911 C12.8191349,15.7365264 12.8603604,15.7362947 12.9008331,15.7439768 L12.7642366,16.0307603 L12.8352248,15.7172687 L12.8623942,15.7245056 L12.8876742,15.7331374 L12.9024567,15.7405681 L12.9457634,15.7499122 C12.9669056,15.7491059 12.9862287,15.7416548 13.0100837,15.7264399 L13.8861469,15.1676825 C13.9275743,15.14126 13.9538323,15.0933277 13.9574728,15.0671999 L13.5614797,9.16505214 C13.5536165,9.04785371 13.6103088,8.93569901 13.7093422,8.87253502 L16.5715415,7.04834749 C17.0623239,6.67406691 17.1827342,5.96605879 16.8419657,5.45069653 C16.669423,5.18975113 16.4188255,5.01546243 16.1179909,4.94734033 C15.8129884,4.87827442 15.5073741,4.9289148 15.2785039,5.08939049 L12.4167705,6.9340948 C12.3200513,6.99644107 12.1973819,7.00232715 12.0951376,6.94952778 L6.74857018,4.1885392 L6.72098964,4.18229376 Z" id="Path" fill="#0393CD" fill-rule="nonzero" transform="translate(10.284974, 9.964338) scale(1, -1) rotate(33.000000) translate(-10.284974, -9.964338) "></path>
                    <rect id="Rectangle" x="1.92857143" y="1.28571429" width="18" height="18"></rect>
                </g>
            </g>
        </g>
    </g>
</svg>