<?xml version="1.0" encoding="UTF-8"?>
<svg width="16px" height="17px" viewBox="0 0 16 17" version="1.1" xmlns="http://www.w3.org/2000/svg" xmlns:xlink="http://www.w3.org/1999/xlink">
    <!-- Generator: sketchtool 59.1 (101010) - https://sketch.com -->
    <title>363DB910-9D0E-4F96-BA85-8F97F99AF5BD</title>
    <desc>Created with sketchtool.</desc>
    <g id="Mobile---Search-Hotel" stroke="none" stroke-width="1" fill="none" fill-rule="evenodd">
        <g id="Design_Hotel_02_Detail_01" transform="translate(-23.000000, -4678.000000)">
            <g id="Icon/Fac/Pool-Copy-19-Icons/Fac/Dining" transform="translate(22.000000, 4677.000000)">
                <g id="Group-3">
                    <g id="Group-2" transform="translate(1.285714, 1.357143)">
                        <path d="M1.92857143,0.339285714 L13.5,0.339285714 C14.3876005,0.339285714 15.1071429,1.09880266 15.1071429,2.03571429 L15.1071429,14.25 C15.1071429,15.1869116 14.3876005,15.9464286 13.5,15.9464286 L1.92857143,15.9464286 C1.04097094,15.9464286 0.321428571,15.1869116 0.321428571,14.25 L0.321428571,2.03571429 C0.321428571,1.09880266 1.04097094,0.339285714 1.92857143,0.339285714 Z M1.92857143,1.01785714 C1.39601113,1.01785714 0.964285714,1.47356731 0.964285714,2.03571429 L0.964285714,14.25 C0.964285714,14.812147 1.39601113,15.2678571 1.92857143,15.2678571 L13.5,15.2678571 C14.0325603,15.2678571 14.4642857,14.812147 14.4642857,14.25 L14.4642857,2.03571429 C14.4642857,1.47356731 14.0325603,1.01785714 13.5,1.01785714 L1.92857143,1.01785714 Z" id="Rectangle" fill="#0393CD" fill-rule="nonzero"></path>
                        <path d="M7.07142857,3.39285714 L7.07142857,5.81632653 C7.07142857,6.16935357 6.82643594,6.44642857 6.53571429,6.44642857 L5.67857143,6.44642857 C5.38784977,6.44642857 5.14285714,6.16935357 5.14285714,5.81632653 L5.14285714,3.39285714 C5.14285714,3.20547482 4.99894867,3.05357143 4.82142857,3.05357143 C4.64390847,3.05357143 4.5,3.20547482 4.5,3.39285714 L4.5,5.81632653 C4.5,6.53405564 5.02251923,7.125 5.67857143,7.125 L6.53571429,7.125 C7.19176649,7.125 7.71428571,6.53405564 7.71428571,5.81632653 L7.71428571,3.39285714 C7.71428571,3.20547482 7.57037724,3.05357143 7.39285714,3.05357143 C7.21533704,3.05357143 7.07142857,3.20547482 7.07142857,3.39285714 Z" id="Path" fill="#0393CD" fill-rule="nonzero"></path>
                        <path d="M5.78571429,3.39285714 L5.78571429,13.4921097 C5.78571429,13.6794921 5.92962276,13.8313955 6.10714286,13.8313955 C6.28466296,13.8313955 6.42857143,13.6794921 6.42857143,13.4921097 L6.42857143,3.39285714 C6.42857143,3.20547481 6.28466296,3.05357143 6.10714286,3.05357143 C5.92962276,3.05357143 5.78571429,3.20547481 5.78571429,3.39285714 Z" id="Path-109" fill="#0393CD" fill-rule="nonzero"></path>
                        <g id="Group" transform="translate(9.000000, 3.392857)" stroke="#0393CD" stroke-linejoin="round">
                            <line x1="0.321428571" y1="0" x2="0.321428571" y2="10.0992526" id="Path-109-Copy" stroke-linecap="round"></line>
                            <path d="M0.321428571,0 C1.03150896,-1.30439652e-16 1.60714286,0.575633893 1.60714286,1.28571429 L1.60714286,5.42857143 L1.60714286,5.42857143 L0.321428571,5.42857143 L0.321428571,0 Z" id="Rectangle"></path>
                        </g>
                        <polygon id="Path-110" fill="#0393CD" fill-rule="nonzero" points="4.82142857 6.15561206 7.39285714 6.15561206 7.39285714 5.47704063 4.82142857 5.47704063"></polygon>
                    </g>
                    <rect id="Rectangle" x="0" y="0" width="18" height="19"></rect>
                </g>
            </g>
        </g>
    </g>
</svg>