<?xml version="1.0" encoding="UTF-8"?>
<svg width="18px" height="15px" viewBox="0 0 18 15" version="1.1" xmlns="http://www.w3.org/2000/svg" xmlns:xlink="http://www.w3.org/1999/xlink">
    <!-- Generator: sketchtool 59.1 (101010) - https://sketch.com -->
    <title>3BE7837B-0E7D-42A6-B7B7-B326F120A959</title>
    <desc>Created with sketchtool.</desc>
    <g id="Mobile---Search-Hotel" stroke="none" stroke-width="1" fill="none" fill-rule="evenodd">
        <g id="Design_Hotel_02_Detail_01" transform="translate(-157.000000, -4152.000000)">
            <g id="Icon/Fac/Pool-Copy-9-Icons/Fac/Bed" transform="translate(157.000000, 4150.000000)">
                <g id="Group-2">
                    <g id="Group" transform="translate(1.285714, 2.571429)" fill="#0393CD" fill-rule="nonzero">
                        <path d="M3.53571423,-0.353571436 L12.0214284,-0.353571436 C13.3883331,-0.353571436 14.4964283,0.754523765 14.4964283,2.12142847 L14.4964283,5.65714262 C14.4964283,5.85241472 14.338129,6.01071403 14.1428569,6.01071403 L1.41428569,6.01071403 C1.21901359,6.01071403 1.06071427,5.85241472 1.06071427,5.65714262 L1.06071427,2.12142847 C1.06071427,0.754523765 2.16880949,-0.353571436 3.53571423,-0.353571436 Z M13.7892862,2.12142854 C13.7892862,1.14506802 12.9977896,0.353571436 12.021429,0.353571436 L3.53571436,0.353571436 C2.55935378,0.353571436 1.76785714,1.14506802 1.76785714,2.12142854 L1.76785714,5.30357131 L13.7892862,5.30357131 L13.7892862,2.12142854 Z" id="Rectangle"></path>
                        <path d="M3.63878158,3.7862182 L6.26121817,3.7862182 C7.29450121,3.7862182 8.13214261,4.62385961 8.13214261,5.65714265 C8.13214261,5.85241476 7.9738433,6.01071407 7.7785712,6.01071407 L2.12142856,6.01071407 C1.92615646,6.01071407 1.76785714,5.85241476 1.76785714,5.65714265 C1.76785714,4.62385961 2.60549855,3.7862182 3.63878158,3.7862182 Z M7.33657813,5.21138753 C7.16164225,4.78983886 6.74605337,4.49336107 6.26121838,4.49336107 L3.63878168,4.49336107 C3.11931563,4.49336107 2.67934127,4.83370547 2.5296816,5.30357128 L7.37031846,5.30357128 L7.33657813,5.21138753 Z" id="Rectangle"></path>
                        <path d="M9.29592456,3.7862182 L11.9183612,3.7862182 C12.9516442,3.7862182 13.7892856,4.62385961 13.7892856,5.65714265 C13.7892856,5.85241476 13.6309863,6.01071407 13.4357142,6.01071407 L7.77857154,6.01071407 C7.58329944,6.01071407 7.42500012,5.85241476 7.42500012,5.65714265 C7.42500012,4.62385961 8.26264153,3.7862182 9.29592456,3.7862182 Z M12.9937211,5.21138753 C12.8187852,4.78983886 12.4031963,4.49336107 11.9183614,4.49336107 L9.29592466,4.49336107 C8.77645861,4.49336107 8.33648425,4.83370547 8.18682458,5.30357128 L13.0274614,5.30357128 L12.9937211,5.21138753 Z" id="Rectangle-Copy"></path>
                        <path d="M1.08865725,5.51937918 C1.14399977,5.38856745 1.27224878,5.30357143 1.41428577,5.30357143 L14.1428576,5.30357143 C14.2848946,5.30357143 14.4131436,5.38856745 14.4684861,5.51937918 L15.8827719,8.86229042 C15.9813989,9.09541253 15.8102702,9.3536255 15.5571433,9.3536255 L7.82269932e-09,9.3536255 C-0.253126861,9.3536255 -0.424255505,9.09541253 -0.32562851,8.86229042 L1.08865725,5.51937918 Z M1.64861242,6.0107143 L0.533497657,8.64648278 L15.0236454,8.64648278 L13.9085306,6.0107143 L1.64861242,6.0107143 Z" id="Rectangle"></path>
                        <path d="M-0.353571436,9.00005444 C-0.353571436,8.80478233 -0.19527212,8.64648301 -1.83256516e-08,8.64648301 L15.5571424,8.64648301 C15.7524145,8.64648301 15.9107138,8.80478233 15.9107138,9.00005444 L15.9107138,11.8286259 C15.9107138,12.023898 15.7524145,12.1821973 15.5571424,12.1821973 L-1.83256516e-08,12.1821973 C-0.19527212,12.1821973 -0.353571436,12.023898 -0.353571436,11.8286259 L-0.353571436,9.00005444 Z M0.353571436,11.4750544 L15.2035717,11.4750544 L15.2035717,9.35362589 L0.353571436,9.35362589 L0.353571436,11.4750544 Z" id="Rectangle" transform="translate(7.778571, 10.414340) scale(1, -1) translate(-7.778571, -10.414340) "></path>
                        <path d="M-0.353571436,12.0214283 C-0.353571436,11.8261562 -0.195272118,11.6678569 -1.27724238e-08,11.6678569 L1.41428568,11.6678569 C1.60955779,11.6678569 1.7678571,11.8261562 1.7678571,12.0214283 L1.7678571,13.435714 C1.7678571,13.6309861 1.60955779,13.7892854 1.41428568,13.7892854 L-1.27724238e-08,13.7892854 C-0.195272118,13.7892854 -0.353571436,13.6309861 -0.353571436,13.435714 L-0.353571436,12.0214283 Z M0.353571436,13.0821426 L1.06071431,13.0821426 L1.06071431,12.3749998 L0.353571436,12.3749998 L0.353571436,13.0821426 Z" id="Rectangle" transform="translate(0.707143, 12.728571) scale(1, -1) translate(-0.707143, -12.728571) "></path>
                        <path d="M13.7892862,12.0214283 C13.7892862,11.8261562 13.9475855,11.6678569 14.1428576,11.6678569 L15.5571433,11.6678569 C15.7524154,11.6678569 15.9107147,11.8261562 15.9107147,12.0214283 L15.9107147,13.435714 C15.9107147,13.6309861 15.7524154,13.7892854 15.5571433,13.7892854 L14.1428576,13.7892854 C13.9475855,13.7892854 13.7892862,13.6309861 13.7892862,13.435714 L13.7892862,12.0214283 Z M14.4964291,13.0821426 L15.2035719,13.0821426 L15.2035719,12.3749998 L14.4964291,12.3749998 L14.4964291,13.0821426 Z" id="Rectangle-Copy-2" transform="translate(14.850000, 12.728571) scale(1, -1) translate(-14.850000, -12.728571) "></path>
                    </g>
                    <rect id="Rectangle" x="0" y="0" width="18" height="18"></rect>
                </g>
            </g>
        </g>
    </g>
</svg>