<?xml version="1.0" encoding="UTF-8"?>
<svg width="17px" height="16px" viewBox="0 0 17 16" version="1.1" xmlns="http://www.w3.org/2000/svg" xmlns:xlink="http://www.w3.org/1999/xlink">
    <!-- Generator: sketchtool 59.1 (101010) - https://sketch.com -->
    <title>66924146-3A18-4AEB-B1C1-1F07EDC2C17C</title>
    <desc>Created with sketchtool.</desc>
    <g id="Mobile---Search-Hotel" stroke="none" stroke-width="1" fill="none" fill-rule="evenodd">
        <g id="Design_Hotel_02_Detail_01" transform="translate(-22.000000, -4342.000000)">
            <g id="Icon/Fac/Pool-Copy-15-Icons/Fac/LaundryService" transform="translate(22.000000, 4341.000000)">
                <g id="Group-3">
                    <g id="Group" transform="translate(0.642857, 1.285714)" fill="#0393CD" fill-rule="nonzero">
                        <g id="Group-2" transform="translate(3.857143, 6.428571)">
                            <path d="M7.04571407,1.28196387 L7.04571407,7.98085211 C7.04571407,8.29158329 6.79381668,8.54348068 6.48308551,8.54348068 L0.871199971,8.54348068 C0.5604688,8.54348068 0.308571416,8.29158329 0.308571416,7.98085211 L0.308571416,1.28196387 C0.308571416,0.971232691 0.5604688,0.719335302 0.871199971,0.719335302 L6.48308551,0.719335302 C6.6535048,0.719335302 6.79165693,0.581183169 6.79165693,0.410763876 C6.79165693,0.240344584 6.6535048,0.102192451 6.48308551,0.102192451 L0.871199971,0.102192451 C0.219630222,0.102192451 -0.308571422,0.630394106 -0.308571422,1.28196387 L-0.308571422,7.98085211 C-0.308571422,8.63242188 0.219630222,9.16062353 0.871199971,9.16062353 L6.48308551,9.16062353 C7.13465526,9.16062353 7.6628569,8.63242188 7.6628569,7.98085211 L7.6628569,1.28196387 C7.6628569,1.11154457 7.52470477,0.973392442 7.35428549,0.973392442 C7.1838662,0.973392442 7.04571407,1.11154457 7.04571407,1.28196387 Z" id="Shape-Copy"></path>
                            <path d="M7.04571431,1.64571424 C7.04571431,1.47529494 7.18386645,1.33714281 7.35428574,1.33714281 L8.48571433,1.33714281 C8.65613362,1.33714281 8.79428576,1.47529494 8.79428576,1.64571424 L8.79428576,6.29999997 C8.79428576,7.09529001 8.14957579,7.73999998 7.35428574,7.73999998 C7.18386645,7.73999998 7.04571431,7.60184784 7.04571431,7.43142855 L7.04571431,1.64571424 Z M7.66285718,7.06304379 C7.96441687,6.94097554 8.17714289,6.6453301 8.17714289,6.29999985 L8.17714289,1.95428565 L7.66285718,1.95428565 L7.66285718,7.06304379 Z" id="Rectangle-Copy"></path>
                            <path d="M0.871200034,0.720000001 L7.61451407,0.720000001 C7.91584306,0.720000001 8.17714262,1.01693133 8.17714262,1.40142858 L8.17714262,2.34000001 L8.79428545,2.34000001 L8.79428545,1.40142858 C8.79428545,0.692402017 8.27548598,0.102857141 7.61451407,0.102857141 L0.871200034,0.102857141 L0.871200034,0.720000001 Z" id="Path-Copy-3"></path>
                        </g>
                        <path d="M14.4642853,8.37426884 L11.3903929,8.37426884 C11.1975358,8.37426884 11.0689644,8.24569741 11.0689644,8.05284028 C11.0689644,7.85998314 11.1975358,7.73141171 11.3903929,7.73141171 L14.4642853,7.73141171 C14.6571424,7.73141171 14.7857138,7.57069743 14.7857138,7.40998315 L14.7857138,6.92784031 C14.7857138,6.76712603 14.6892852,6.6385546 14.5607138,6.60641175 L7.71428547,4.77426894 L0.867857115,6.89569745 C0.739285691,6.95998316 0.642857122,7.08855459 0.642857122,7.21712601 L0.642857122,7.40998315 C0.642857122,7.60284029 0.803571403,7.73141171 0.964285684,7.73141171 L3.76997148,7.73141171 C3.96282862,7.73141171 4.09140004,7.85998314 4.09140004,8.05284028 C4.09140004,8.24569741 3.96282862,8.37426884 3.76997148,8.37426884 L0.964285684,8.37426884 C0.41785713,8.37426884 0,7.92426885 0,7.40998315 L0,7.21712601 C0,6.79926888 0.257142849,6.41355461 0.674999979,6.28498318 L7.6178569,4.13141182 C7.68214261,4.09926896 7.74642833,4.09926896 7.81071404,4.13141182 L14.753571,5.96355462 C15.1714281,6.09212605 15.4607138,6.47784032 15.4607138,6.89569745 L15.4607138,7.40998315 C15.4285709,7.92426885 14.978571,8.37426884 14.4642853,8.37426884 Z" id="Path"></path>
                        <path d="M7.71428541,4.7742689 C7.52142827,4.7742689 7.39285684,4.64569747 7.39285684,4.45284034 L7.39285684,3.23141179 C6.9749997,3.13498322 6.62142828,2.90998323 6.39642828,2.58855466 C6.13928542,2.20284039 6.04285685,1.72069754 6.13928542,1.27069755 C6.26785685,0.659983281 6.7499997,0.209983291 7.32857113,0.0492690093 C7.81071399,-0.0793024163 8.3249997,0.0492690093 8.71071398,0.370697573 C9.09642827,0.692126137 9.32142826,1.14212613 9.32142826,1.65641183 C9.32142826,1.84926897 9.19285684,1.97784039 8.99999969,1.97784039 C8.80714255,1.97784039 8.67857112,1.84926897 8.67857112,1.65641183 C8.67857112,1.36712612 8.5499997,1.07784041 8.29285684,0.884983276 C8.06785684,0.692126137 7.74642827,0.627840424 7.45714256,0.692126137 C7.10357113,0.788554706 6.81428542,1.07784041 6.7499997,1.39926898 C6.68571399,1.68855469 6.7499997,1.97784039 6.91071399,2.20284039 C7.07142827,2.42784038 7.32857113,2.58855466 7.58571399,2.62069752 C7.84285684,2.65284038 8.03571398,2.84569752 8.03571398,3.10284037 L8.03571398,4.45284034 C8.03571398,4.64569747 7.90714256,4.7742689 7.71428541,4.7742689 Z" id="Shape"></path>
                    </g>
                    <rect id="Rectangle" x="0" y="0" width="18" height="18"></rect>
                </g>
            </g>
        </g>
    </g>
</svg>