<?xml version="1.0" encoding="UTF-8"?>
<svg width="10px" height="17px" viewBox="0 0 10 17" version="1.1" xmlns="http://www.w3.org/2000/svg" xmlns:xlink="http://www.w3.org/1999/xlink">
    <!-- Generator: sketchtool 59.1 (101010) - https://sketch.com -->
    <title>3BD36792-0DDC-4CC6-A436-BA872DD8B79C</title>
    <desc>Created with sketchtool.</desc>
    <g id="Mobile---Search-Hotel" stroke="none" stroke-width="1" fill="none" fill-rule="evenodd">
        <g id="Design_Hotel_02_Detail_01" transform="translate(-161.000000, -4246.000000)">
            <g id="Icon/Fac/Pool-Copy-16-Icons/Fac/RoomService" transform="translate(157.000000, 4246.000000)">
                <g id="Group">
                    <path d="M8.92988536,0.645358822 C11.202466,0.725823559 13.0500001,2.61188743 13.0500001,4.85503736 L13.0500001,16.4613844 C13.0500001,16.707499 12.8509956,16.9071387 12.6053573,16.9071387 L4.94464286,16.9071387 C4.69900448,16.9071387 4.5,16.707499 4.5,16.4613844 L4.5,9.51499 C4.50035466,8.8631371 4.76161135,8.23870631 5.2247559,7.78223617 C5.71506184,7.29313664 6.37951338,7.02024023 7.07049111,7.02398608 L7.75778882,7.02333346 L8.2877079,7.01513723 C8.47757271,7.01017716 8.62828625,7.00330242 8.73803816,6.99457496 L8.85962886,6.98388889 C9.96422485,6.87346511 10.2288542,6.45814737 10.2455396,5.26298366 L10.2455536,4.82195916 C10.2310782,4.06936789 9.65437131,3.44843581 8.90769444,3.38088615 C8.48462504,3.34419142 8.06532352,3.48519799 7.74948648,3.77054302 C7.46871612,4.02245686 7.30707471,4.38168861 7.30446236,4.75835705 C7.30787688,5.2930873 6.99598765,5.7793869 6.50940298,5.99793153 C6.05555502,6.20222918 5.52922281,6.16063676 5.11300824,5.88767066 C4.73241692,5.63895558 4.502075,5.21496085 4.5,4.75854034 C4.504919,3.6619108 4.95592943,2.61481231 5.74857557,1.85970278 C6.60353484,1.04310301 7.74984578,0.605509604 8.92988536,0.645358822 Z M8.73030926,1.28606795 C7.7864842,1.2990313 6.87949426,1.6685012 6.19198953,2.32515887 C5.52603621,2.95957522 5.1469855,3.8396188 5.14285051,4.75561764 C5.14394396,4.99613432 5.26497455,5.21902588 5.46555822,5.35010761 C5.69813487,5.5026384 5.9920083,5.52584796 6.24601661,5.4115075 C6.47471216,5.30879119 6.62984308,5.09230723 6.65727906,4.83943197 L6.66666461,4.62569739 C6.70333374,4.1152644 6.93659346,3.63620733 7.31852761,3.29353168 C7.7667035,2.88862427 8.3622027,2.68830242 8.96561537,2.74064356 C10.0393489,2.83778107 10.8675218,3.72973068 10.8884109,4.8219794 L10.8883343,5.27195744 C10.8668594,6.81017668 10.348463,7.48111488 8.91590987,7.6242774 L8.78899727,7.63540892 L8.58853342,7.64768658 C8.47481529,7.65307065 8.34084921,7.6573307 8.18655117,7.66050324 L7.75839928,7.66619006 L7.06700622,7.66683352 C6.5474872,7.66401717 6.04772399,7.86931227 5.67601349,8.24009165 C5.33538599,8.57581033 5.14311816,9.03545025 5.14285051,9.51498964 L5.14285051,16.2642809 L12.4071431,16.2642809 L12.4071431,4.85503721 C12.4071431,3.00819263 10.9141447,1.43681306 9.05164277,1.2958357 L8.90766354,1.28783206 L8.73030926,1.28606795 Z" id="Path" fill="#0393CD" fill-rule="nonzero"></path>
                    <rect id="Rectangle" x="0" y="0" width="18" height="18"></rect>
                </g>
            </g>
        </g>
    </g>
</svg>