<?xml version="1.0" encoding="UTF-8"?>
<svg width="17px" height="16px" viewBox="0 0 17 16" version="1.1" xmlns="http://www.w3.org/2000/svg" xmlns:xlink="http://www.w3.org/1999/xlink">
    <!-- Generator: sketchtool 59.1 (101010) - https://sketch.com -->
    <title>87B48413-1CCF-4044-8C32-113C7C1BF221</title>
    <desc>Created with sketchtool.</desc>
    <g id="Mobile---Search-Hotel" stroke="none" stroke-width="1" fill="none" fill-rule="evenodd">
        <g id="Design_Hotel_02_Detail_01" transform="translate(-157.000000, -4775.000000)">
            <g id="Icon/Fac/Pool-Copy-31-Icons/Fac/Wheelchair" transform="translate(157.000000, 4774.000000)">
                <g id="Group">
                    <path d="M5.17499997,16.9223129 C7.51826523,16.9223129 9.41785705,15.0227211 9.41785705,12.6794559 C9.41785705,10.3361906 7.51826523,8.43659878 5.17499997,8.43659878 C2.83173471,8.43659878 0.932142888,10.3361906 0.932142888,12.6794559 C0.932142888,15.0227211 2.83173471,16.9223129 5.17499997,16.9223129 Z M5.17500005,16.2151702 C3.22227897,16.2151702 1.63928576,14.632177 1.63928576,12.6794559 C1.63928576,10.7267349 3.22227897,9.14374165 5.17500005,9.14374165 C7.12772113,9.14374165 8.71071433,10.7267349 8.71071433,12.6794559 C8.71071433,14.632177 7.12772113,16.2151702 5.17500005,16.2151702 Z" id="Oval" fill="#0393CD" fill-rule="nonzero"></path>
                    <path d="M5.17500012,15.5080273 C6.73717702,15.5080273 8.00357161,14.2416328 8.00357161,12.6794559 C8.00357161,11.117279 6.73717702,9.85088437 5.17500012,9.85088437 C3.61282323,9.85088437 2.34642863,11.117279 2.34642863,12.6794559 C2.34642863,14.2416328 3.61282323,15.5080273 5.17500012,15.5080273 Z M5.17500005,14.8008843 C4.00336742,14.8008843 3.05357151,13.8510884 3.05357151,12.6794558 C3.05357151,11.5078232 4.00336742,10.5580272 5.17500005,10.5580272 C6.34663268,10.5580272 7.29642859,11.5078232 7.29642859,12.6794558 C7.29642859,13.8510884 6.34663268,14.8008843 5.17500005,14.8008843 Z" id="Oval" fill="#0393CD" fill-rule="nonzero"></path>
                    <path d="M14.693749,14.5187208 L16.2012023,14.5187208 C16.3964744,14.5187208 16.5547737,14.6770201 16.5547737,14.8722922 C16.5547737,15.0480371 16.4265512,15.193834 16.2585534,15.221236 L16.2012023,15.2258636 L14.693749,15.2258636 C14.4984769,15.2258636 14.3401776,15.0675643 14.3401776,14.8722922 C14.3401776,14.6965473 14.4684,14.5507504 14.6363979,14.5233484 L14.693749,14.5187208 L16.2012023,14.5187208 L14.693749,14.5187208 Z M9.06428584,11.26517 L12.6000001,11.26517 C12.7339163,11.26517 12.8545298,11.3405601 12.9143709,11.4568875 L12.9361579,11.5091481 L13.6313016,13.6413768 C13.6918283,13.8270316 13.590392,14.0266012 13.4047371,14.0871279 C13.2376478,14.1416019 13.0592875,14.0648859 12.9811624,13.9136555 L12.958986,13.8605634 L12.3433835,11.9723128 L9.06428584,11.9723128 C8.86901373,11.9723128 8.71071441,11.8140135 8.71071441,11.6187414 C8.71071441,11.4429965 8.83893686,11.2971996 9.00693471,11.2697976 L9.06428584,11.26517 L12.6000001,11.26517 L9.06428584,11.26517 Z" id="Shape" fill="#0393CD" fill-rule="nonzero"></path>
                    <path d="M13.3071433,16.9223123 C14.2835039,16.9223123 15.0750005,16.1308157 15.0750005,15.1544552 C15.0750005,14.1780946 14.2835039,13.386598 13.3071433,13.386598 C13.225898,13.386598 13.1452329,13.3921021 13.0655567,13.4030106 C12.195146,13.5221782 11.5392862,14.2681307 11.5392862,15.1544552 C11.5392862,16.1308157 12.3307828,16.9223123 13.3071433,16.9223123 Z M13.3071433,16.2151695 C12.721327,16.2151695 12.2464291,15.7402715 12.2464291,15.1544552 C12.2464291,14.6227766 12.6401295,14.1749952 13.1614766,14.1036178 C13.2093873,14.0970583 13.2580054,14.0937409 13.3071433,14.0937409 C13.8929597,14.0937409 14.3678576,14.5686389 14.3678576,15.1544552 C14.3678576,15.7402715 13.8929597,16.2151695 13.3071433,16.2151695 Z" id="Oval" fill="#0393CD" fill-rule="nonzero"></path>
                    <path d="M11.4030961,7.23628147 L11.4030961,11.618741 C11.4030961,11.8140131 11.5613954,11.9723125 11.7566676,11.9723125 C11.9519397,11.9723125 12.110239,11.8140131 12.110239,11.618741 L12.110239,6.88271005 C12.110239,6.68743795 11.9519397,6.52913863 11.7566676,6.52913863 L4.68523876,6.52913863 C4.48996665,6.52913863 4.33166732,6.68743795 4.33166732,6.88271005 C4.33166732,7.07798216 4.48996665,7.23628147 4.68523876,7.23628147 L11.4030961,7.23628147 Z" id="Path-114" fill="#0393CD" fill-rule="nonzero"></path>
                    <path d="M3.58215403,2.28214289 L4.60854054,8.84480371 C4.63871389,9.03773055 4.81957234,9.16966832 5.01249918,9.13949496 C5.20542602,9.1093216 5.33736379,8.92846316 5.30719043,8.73553632 L4.23405068,1.87393777 C4.20713665,1.70185091 4.05890452,1.57500003 3.88472573,1.57500003 L2.31910646,1.57500003 C2.12383435,1.57500003 1.96553503,1.73329935 1.96553503,1.92857146 C1.96553503,2.12384357 2.12383435,2.28214289 2.31910646,2.28214289 L3.58215403,2.28214289 Z" id="Path-115" fill="#0393CD" fill-rule="nonzero"></path>
                    <polygon id="Path-116" fill="#0393CD" fill-rule="nonzero" points="4.95786534 8.82600441 11.7566674 8.82600441 11.7566674 8.11886154 4.95786534 8.11886154"></polygon>
                    <rect id="Rectangle" x="0" y="0" width="18" height="18"></rect>
                </g>
            </g>
        </g>
    </g>
</svg>