<?xml version="1.0" encoding="UTF-8"?>
<svg width="18px" height="17px" viewBox="0 0 18 17" version="1.1" xmlns="http://www.w3.org/2000/svg" xmlns:xlink="http://www.w3.org/1999/xlink">
    <!-- Generator: sketchtool 59.1 (101010) - https://sketch.com -->
    <title>A491F93F-878A-47F1-BC04-2892CEF356D6</title>
    <desc>Created with sketchtool.</desc>
    <g id="Mobile---Search-Hotel" stroke="none" stroke-width="1" fill="none" fill-rule="evenodd">
        <g id="Design_Hotel_02_Detail_01" transform="translate(-157.000000, -4055.000000)">
            <g id="Icon/Fac/Pool-Copy-5-Icons/Fac/24Reception" transform="translate(157.000000, 4054.000000)">
                <g id="Group">
                    <path d="M16.1011959,8.6146947 C16.1011959,4.53173248 12.791301,1.22183763 8.70833874,1.22183763 C4.62537648,1.22183763 1.31548159,4.53173248 1.31548159,8.6146947 C1.31548159,9.00094939 1.33038784,9.24038784 1.37858881,9.57285277 C1.40405948,9.74853609 1.56712702,9.87030751 1.74281034,9.84483683 C1.91849366,9.81936616 2.04026508,9.65629863 2.0147944,9.4806153 C1.97136082,9.18103329 1.95833874,8.97186011 1.95833874,8.6146947 C1.95833874,4.88677268 4.98041668,1.86469477 8.70833874,1.86469477 C12.4362608,1.86469477 15.4583387,4.88677268 15.4583387,8.6146947 C15.4583387,8.7922148 15.6022472,8.93612327 15.7797673,8.93612327 C15.9572874,8.93612327 16.1011959,8.7922148 16.1011959,8.6146947 Z M8.91018926,15.7498849 C11.2801279,15.6863052 13.4405909,14.4980409 14.7751108,12.585577 C14.8766969,12.4399967 14.8410326,12.2396286 14.6954523,12.1380424 C14.5498719,12.0364563 14.3495039,12.0721206 14.2479177,12.217701 C13.0289903,13.9645125 11.0568342,15.0492071 8.89294915,15.107259 C8.71549291,15.1120197 8.57549553,15.2597358 8.58025625,15.437192 C8.58501697,15.6146483 8.73273301,15.7546457 8.91018926,15.7498849 Z" id="Shape" fill="#0393CD" transform="translate(8.708339, 8.485920) scale(-1, -1) rotate(-540.000000) translate(-8.708339, -8.485920) "></path>
                    <path d="M14.4503008,6.88406074 C14.3373081,6.74714455 14.134717,6.72775069 13.9978008,6.84074334 C13.8608846,6.953736 13.8414907,7.15632715 13.9544834,7.29324335 L15.5318589,9.20459115 C15.6604218,9.36037417 15.8991135,9.36037417 16.0276763,9.20459115 L17.6050519,7.29324335 C17.7180445,7.15632715 17.6986506,6.953736 17.5617345,6.84074334 C17.4248183,6.72775069 17.2222271,6.74714455 17.1092345,6.88406074 L15.7797676,8.495011 L14.4503008,6.88406074 Z" id="Path-59" fill="#0393CD" fill-rule="nonzero" transform="translate(15.779768, 8.044321) scale(-1, -1) rotate(-180.000000) translate(-15.779768, -8.044321) "></path>
                    <path d="M7.54714291,6.36428547 C7.83000147,6.36428547 8.07857042,6.42428487 8.29285722,6.54428547 C8.50714401,6.66428607 8.67214236,6.82928441 8.78785723,7.03928546 C8.9035721,7.24928651 8.96142867,7.48714127 8.96142867,7.75285688 C8.96142867,8.01428675 8.8917865,8.28321263 8.75250009,8.55964258 C8.61321367,8.83607253 8.42571554,9.10071274 8.19000007,9.35357114 L7.37357147,10.2214283 L8.69785723,10.2214283 C8.80071489,10.2214283 8.88642832,10.2557136 8.95500009,10.3242854 C9.02357187,10.3928572 9.05785724,10.4785706 9.05785724,10.5814283 C9.05785724,10.6800002 9.02357187,10.7624994 8.95500009,10.8289283 C8.88642832,10.8953572 8.80071489,10.9285711 8.69785723,10.9285711 L6.51214287,10.9285711 C6.40071374,10.9285711 6.31285747,10.8942858 6.24857143,10.825714 C6.1842854,10.7571422 6.15214286,10.6692859 6.15214286,10.5621426 C6.15214286,10.4549992 6.1907139,10.3607144 6.26785715,10.2792854 L7.66928577,8.78142829 C7.82785799,8.60999887 7.95321389,8.43750059 8.04535721,8.2639283 C8.13750053,8.09035601 8.1835715,7.93071475 8.1835715,7.78499974 C8.1835715,7.59214163 8.11500075,7.42500045 7.97785721,7.28357117 C7.84071366,7.14214189 7.68214381,7.07142832 7.5021429,7.07142832 C7.37785656,7.07142832 7.25250067,7.11321361 7.12607146,7.19678546 C6.99964225,7.2803573 6.88500054,7.39071334 6.78214288,7.52785688 C6.70499963,7.63071454 6.60642919,7.68214259 6.48642858,7.68214259 C6.3921424,7.68214259 6.30535755,7.64571439 6.22607143,7.57285688 C6.14678532,7.49999938 6.10714286,7.41857162 6.10714286,7.32857117 C6.10714286,7.26428514 6.12857121,7.19892865 6.17142857,7.13249974 C6.21428593,7.06607084 6.27857101,6.99000017 6.36428572,6.90428546 C6.52714369,6.74142751 6.71571323,6.61071453 6.93000003,6.51214261 C7.14428682,6.41357069 7.34999906,6.36428547 7.54714291,6.36428547 Z M11.475,6.42857118 C11.5821434,6.42857118 11.6721425,6.46607081 11.745,6.54107118 C11.8178575,6.61607156 11.8542857,6.70928491 11.8542857,6.82071404 L11.8542857,8.99999976 L12.1242858,8.99999976 C12.2271434,8.99999976 12.3128568,9.03428513 12.3814286,9.1028569 C12.4500004,9.17142867 12.4842858,9.2571421 12.4842858,9.35999976 C12.4842858,9.45857168 12.4500004,9.54107085 12.3814286,9.60749976 C12.3128568,9.67392866 12.2271434,9.70714261 12.1242858,9.70714261 L11.8542857,9.70714261 L11.8542857,10.5364283 C11.8542857,10.6478575 11.8167861,10.7410708 11.7417857,10.8160712 C11.6667854,10.8910716 11.573572,10.9285712 11.4621429,10.9285712 C11.3549995,10.9285712 11.2650004,10.8910716 11.1921429,10.8160712 C11.1192854,10.7410708 11.0828572,10.6478575 11.0828572,10.5364283 L11.0828572,9.70714261 L9.41142856,9.70714261 C9.31714237,9.70714261 9.2292861,9.66964299 9.14785712,9.59464261 C9.06642814,9.51964224 9.02571426,9.43071456 9.02571426,9.3278569 C9.02571426,9.23357071 9.0578568,9.14785728 9.12214283,9.07071404 L11.1535714,6.5828569 C11.2350004,6.47999924 11.3421422,6.42857118 11.475,6.42857118 Z M11.0828571,7.71428541 L10.0414285,8.99999969 L11.0828571,8.99999969 L11.0828571,7.71428541 Z" id="24" fill="#0393CD" fill-rule="nonzero" transform="translate(9.295714, 8.646428) rotate(-360.000000) translate(-9.295714, -8.646428) "></path>
                    <path d="M3.21282777,9.22929881 L4.10684346,10.1239163 C4.52094914,10.5841149 4.49636359,11.3159607 4.03465919,11.7777944 L3.6136063,12.1989651 C4.23471438,12.9513521 5.04804968,13.7648203 5.80013752,14.3858241 L6.25328894,13.9651611 C6.7051679,13.4754886 7.49402794,13.4754886 7.98171063,13.9633077 L8.7303814,14.7122739 C9.14467323,15.1643551 9.17787156,15.8395767 8.80862337,16.3192371 C8.73172298,16.4423122 8.64381323,16.5412835 8.48532557,16.6910625 L8.21414682,16.9443517 C8.19793594,16.960245 8.18276424,16.975457 8.16833843,16.9903053 L8.08838769,17.0775716 C7.39803326,17.7681192 6.03944862,17.3868269 4.48372097,16.2296763 C3.48121412,15.468941 2.66669385,14.6816756 1.98645241,13.7939965 L1.69144576,13.3964131 C0.589091606,11.875499 0.251321521,10.6141019 0.918299169,9.94713166 L1.17075225,9.68783129 C1.36603923,9.48638522 1.50121303,9.35670784 1.63863124,9.24672622 L1.79116775,9.13021955 C2.22007508,8.83782039 2.82263788,8.87768543 3.21282777,9.22929881 Z M3.62370149,10.4617424 L2.87696204,9.71479386 C2.6570001,9.49477034 2.30305597,9.48520161 2.03905222,9.68315437 C1.98382214,9.72919233 1.92518554,9.78308716 1.85706815,9.85004618 L1.70639254,10.0029261 L1.36773253,10.3550354 C0.940512147,10.7823754 1.29794647,11.8366435 2.26199427,13.1867802 C3.02013323,14.1618032 3.87296662,15.0060808 4.84611067,15.7361466 C6.0881042,16.6861723 7.13258416,17.0711204 7.59312266,16.7097794 L7.64187092,16.6665501 L8.0836575,16.2401825 L8.22871869,16.0927699 C8.27212126,16.0469896 8.31107399,16.0039925 8.34708082,15.9620566 C8.52332524,15.7269982 8.51378459,15.4085183 8.33490483,15.1809556 L8.28193331,15.1212782 L7.53519386,14.3743297 C7.33003784,14.1691163 6.95871905,14.1520151 6.72586924,14.3230264 L6.66602673,14.3743297 L5.88372826,15.1568472 L5.79831136,15.1617589 C4.7895226,14.3614611 3.79622558,13.3932618 3.03695169,12.4536728 L2.83584341,12.1982782 L2.84140302,12.1137212 L3.62370149,11.3312037 C3.82931312,11.1255345 3.84644743,10.7819811 3.6751044,10.5284762 L3.62370149,10.4617424 L2.87696204,9.71479386 L3.62370149,10.4617424 Z" id="Shape" fill="#0393CD" fill-rule="nonzero"></path>
                    <rect id="Rectangle" x="0" y="0" width="18" height="18"></rect>
                </g>
            </g>
        </g>
    </g>
</svg>