<?xml version="1.0" encoding="UTF-8"?>
<svg width="18px" height="17px" viewBox="0 0 18 17" version="1.1" xmlns="http://www.w3.org/2000/svg" xmlns:xlink="http://www.w3.org/1999/xlink">
    <!-- Generator: sketchtool 59.1 (101010) - https://sketch.com -->
    <title>C9919608-2D03-4CE7-ACF0-B4885C328947</title>
    <desc>Created with sketchtool.</desc>
    <g id="Mobile---Search-Hotel" stroke="none" stroke-width="1" fill="none" fill-rule="evenodd">
        <g id="Design_Hotel_02_Detail_01" transform="translate(-22.000000, -4294.000000)">
            <g id="Icon/Fac/Pool-Copy-10-Icons/Fac/SecurePark" transform="translate(22.000000, 4293.000000)">
                <g id="Group">
                    <path d="M0.964285706,17.3571429 L17.1057325,17.3571429 C17.2832526,17.3571429 17.4271611,17.2132344 17.4271611,17.0357143 C17.4271611,16.8581942 17.2832526,16.7142857 17.1057325,16.7142857 L0.964285706,16.7142857 C0.786765613,16.7142857 0.642857143,16.8581942 0.642857143,17.0357143 C0.642857143,17.2132344 0.786765613,17.3571429 0.964285706,17.3571429 Z" id="Path-92" fill="#0393CD" fill-rule="nonzero"></path>
                    <path d="M13.8214286,10.2540048 L13.8214286,16.5726902 C13.8214286,16.7502103 13.965337,16.8941188 14.1428571,16.8941188 C14.3203772,16.8941188 14.4642857,16.7502103 14.4642857,16.5726902 L14.4642857,10.2540048 C14.4642857,10.0764847 14.3203772,9.93257618 14.1428571,9.93257618 C13.965337,9.93257618 13.8214286,10.0764847 13.8214286,10.2540048 Z" id="Path-93" fill="#0393CD" fill-rule="nonzero"></path>
                    <path d="M11.608308,6.6351898 C11.8156667,5.41943043 12.8751824,4.5 14.1428571,4.5 C15.5630179,4.5 16.7142857,5.65126779 16.7142857,7.07142857 C16.7142857,7.32923524 16.6762318,7.58206985 16.6024471,7.82359425 C17.0802719,8.29964225 17.3571429,8.94893029 17.3571429,9.64285714 C17.3571429,11.0630179 16.2058751,12.2142857 14.7857143,12.2142857 C14.1448436,12.2142857 13.5407075,11.9783707 13.0744938,11.5622837 C13.0027636,11.5683731 12.9302064,11.5714286 12.8571429,11.5714286 C11.4369821,11.5714286 10.2857143,10.4201608 10.2857143,9 C10.2857143,8.11001074 10.7420857,7.30237169 11.4667024,6.83643692 L11.5899234,6.76198952 L11.608308,6.6351898 Z M14.1428571,5.14285714 C13.1115574,5.14285714 12.2638265,5.95440874 12.2165063,6.98012217 C12.211027,7.09889184 12.1404327,7.20493598 12.0329741,7.25581733 C11.3640761,7.57253868 10.9285714,8.24684235 10.9285714,9 C10.9285714,10.0651206 11.7920223,10.9285714 12.8571429,10.9285714 C12.9531333,10.9285714 13.0473938,10.9215834 13.1384615,10.9078072 C13.2399914,10.8924482 13.3427488,10.9265231 13.4149849,10.9995036 C13.7751055,11.363335 14.2635042,11.5714286 14.7857143,11.5714286 C15.8508349,11.5714286 16.7142857,10.7079777 16.7142857,9.64285714 C16.7142857,9.06378515 16.4579669,8.5273809 16.0225292,8.16389345 C15.9152508,8.07434143 15.8781245,7.92573584 15.9306809,7.79625212 C16.0232352,7.56822496 16.0714286,7.32344669 16.0714286,7.07142857 C16.0714286,6.00630798 15.2079777,5.14285714 14.1428571,5.14285714 Z" id="Combined-Shape" fill="#0393CD" fill-rule="nonzero"></path>
                    <path d="M2.25,12.2142857 L9.32142857,12.2142857 C9.49894867,12.2142857 9.64285714,12.0703772 9.64285714,11.8928571 C9.64285714,11.715337 9.49894867,11.5714286 9.32142857,11.5714286 L2.25,11.5714286 C2.0724799,11.5714286 1.92857143,11.715337 1.92857143,11.8928571 C1.92857143,12.0703772 2.0724799,12.2142857 2.25,12.2142857 Z" id="Path-94" fill="#0393CD" fill-rule="nonzero"></path>
                    <path d="M1.92857143,15.1071429 C1.92857143,14.9296228 2.0724799,14.7857143 2.25,14.7857143 L9.32142857,14.7857143 C9.49894867,14.7857143 9.64285714,14.9296228 9.64285714,15.1071429 L9.64285714,17.0357143 C9.64285714,17.2132344 9.49894867,17.3571429 9.32142857,17.3571429 L2.25,17.3571429 C2.0724799,17.3571429 1.92857143,17.2132344 1.92857143,17.0357143 L1.92857143,15.1071429 Z M2.57142857,15.4285714 L2.57142857,16.7142857 L9,16.7142857 L9,15.4285714 L2.57142857,15.4285714 Z" id="Rectangle" fill="#0393CD" fill-rule="nonzero"></path>
                    <path d="M2.57142857,11.8928571 C2.57142857,11.715337 2.71533704,11.5714286 2.89285714,11.5714286 L8.67857143,11.5714286 C8.85609153,11.5714286 9,11.715337 9,11.8928571 L9,13.8214286 C9,13.9989487 8.85609153,14.1428571 8.67857143,14.1428571 L2.89285714,14.1428571 C2.71533704,14.1428571 2.57142857,13.9989487 2.57142857,13.8214286 L2.57142857,11.8928571 Z M3.21428571,12.2142857 L3.21428571,13.5 L8.35714286,13.5 L8.35714286,12.2142857 L3.21428571,12.2142857 Z" id="Rectangle" fill="#0393CD" fill-rule="nonzero"></path>
                    <path d="M1.28571429,13.8214286 C1.28571429,13.6439085 1.42962276,13.5 1.60714286,13.5 L9.96428571,13.5 C10.1418058,13.5 10.2857143,13.6439085 10.2857143,13.8214286 L10.2857143,15.1071429 C10.2857143,15.284663 10.1418058,15.4285714 9.96428571,15.4285714 L1.60714286,15.4285714 C1.42962276,15.4285714 1.28571429,15.284663 1.28571429,15.1071429 L1.28571429,13.8214286 Z M1.92857143,14.1428571 L1.92857143,14.7857143 L9.64285714,14.7857143 L9.64285714,14.1428571 L1.92857143,14.1428571 Z" id="Rectangle" fill="#0393CD" fill-rule="nonzero" transform="translate(5.785714, 14.464286) scale(1, -1) translate(-5.785714, -14.464286) "></path>
                    <path d="M5.37058803,7.07142857 C6.25818852,7.07142857 6.97773089,6.35188621 6.97773089,5.46428571 C6.97773089,4.57668522 6.25818852,3.85714286 5.37058803,3.85714286 C4.48298754,3.85714286 3.76344517,4.57668522 3.76344517,5.46428571 C3.76344517,6.35188621 4.48298754,7.07142857 5.37058803,7.07142857 Z M5.37058803,6.42857143 C4.83802774,6.42857143 4.40630232,5.99684601 4.40630232,5.46428571 C4.40630232,4.93172542 4.83802774,4.5 5.37058803,4.5 C5.90314832,4.5 6.33487374,4.93172542 6.33487374,5.46428571 C6.33487374,5.99684601 5.90314832,6.42857143 5.37058803,6.42857143 Z" id="Oval" fill="#0393CD" fill-rule="nonzero"></path>
                    <path d="M5.6920166,2.70546193 L5.6920166,1.60714286 C5.6920166,1.42962276 5.54810813,1.28571429 5.37058803,1.28571429 C5.19306793,1.28571429 5.04915946,1.42962276 5.04915946,1.60714286 L5.04915946,2.70546193 C5.04915946,2.88298203 5.19306793,3.0268905 5.37058803,3.0268905 C5.54810813,3.0268905 5.6920166,2.88298203 5.6920166,2.70546193 Z" id="Path-89" fill="#0393CD" fill-rule="nonzero"></path>
                    <path d="M5.6920166,9.13403336 L5.6920166,8.03571429 C5.6920166,7.85819419 5.54810813,7.71428571 5.37058803,7.71428571 C5.19306793,7.71428571 5.04915946,7.85819419 5.04915946,8.03571429 L5.04915946,9.13403336 C5.04915946,9.31155345 5.19306793,9.45546193 5.37058803,9.45546193 C5.54810813,9.45546193 5.6920166,9.31155345 5.6920166,9.13403336 Z" id="Path-89-Copy" fill="#0393CD" fill-rule="nonzero"></path>
                    <path d="M8.03571429,5.6920166 L9.13403336,5.6920166 C9.31155345,5.6920166 9.45546193,5.54810813 9.45546193,5.37058803 C9.45546193,5.19306793 9.31155345,5.04915946 9.13403336,5.04915946 L8.03571429,5.04915946 C7.85819419,5.04915946 7.71428571,5.19306793 7.71428571,5.37058803 C7.71428571,5.54810813 7.85819419,5.6920166 8.03571429,5.6920166 Z" id="Path-89" fill="#0393CD" fill-rule="nonzero"></path>
                    <path d="M1.60714286,5.6920166 L2.70546193,5.6920166 C2.88298203,5.6920166 3.0268905,5.54810813 3.0268905,5.37058803 C3.0268905,5.19306793 2.88298203,5.04915946 2.70546193,5.04915946 L1.60714286,5.04915946 C1.42962276,5.04915946 1.28571429,5.19306793 1.28571429,5.37058803 C1.28571429,5.54810813 1.42962276,5.6920166 1.60714286,5.6920166 Z" id="Path-89-Copy" fill="#0393CD" fill-rule="nonzero"></path>
                    <path d="M7.02783234,7.48240099 L7.80446121,8.25902986 C7.92998688,8.38455552 8.13350419,8.38455552 8.25902986,8.25902986 C8.38455552,8.13350419 8.38455552,7.92998688 8.25902986,7.80446121 L7.48240099,7.02783234 C7.35687533,6.90230668 7.15335801,6.90230668 7.02783234,7.02783234 C6.90230668,7.15335801 6.90230668,7.35687533 7.02783234,7.48240099 Z" id="Path-89" fill="#0393CD" fill-rule="nonzero"></path>
                    <path d="M2.4821462,2.93671485 L3.25877507,3.71334372 C3.38430073,3.83886938 3.58781805,3.83886938 3.71334372,3.71334372 C3.83886938,3.58781805 3.83886938,3.38430073 3.71334372,3.25877507 L2.93671485,2.4821462 C2.81118918,2.35662054 2.60767187,2.35662054 2.4821462,2.4821462 C2.35662054,2.60767187 2.35662054,2.81118918 2.4821462,2.93671485 Z" id="Path-89-Copy" fill="#0393CD" fill-rule="nonzero"></path>
                    <path d="M3.25877507,7.02783234 L2.4821462,7.80446121 C2.35662054,7.92998688 2.35662054,8.13350419 2.4821462,8.25902986 C2.60767187,8.38455552 2.81118918,8.38455552 2.93671485,8.25902986 L3.71334372,7.48240099 C3.83886938,7.35687533 3.83886938,7.15335801 3.71334372,7.02783234 C3.58781805,6.90230668 3.38430073,6.90230668 3.25877507,7.02783234 Z" id="Path-89" fill="#0393CD" fill-rule="nonzero"></path>
                    <path d="M7.80446121,2.4821462 L7.02783234,3.25877507 C6.90230668,3.38430073 6.90230668,3.58781805 7.02783234,3.71334372 C7.15335801,3.83886938 7.35687533,3.83886938 7.48240099,3.71334372 L8.25902986,2.93671485 C8.38455552,2.81118918 8.38455552,2.60767187 8.25902986,2.4821462 C8.13350419,2.35662054 7.92998688,2.35662054 7.80446121,2.4821462 Z" id="Path-89-Copy" fill="#0393CD" fill-rule="nonzero"></path>
                    <rect id="Rectangle" x="0" y="0" width="18" height="18"></rect>
                </g>
            </g>
        </g>
    </g>
</svg>