<?xml version="1.0" encoding="UTF-8"?>
<svg width="14px" height="16px" viewBox="0 0 14 16" version="1.1" xmlns="http://www.w3.org/2000/svg" xmlns:xlink="http://www.w3.org/1999/xlink">
    <!-- Generator: sketchtool 59.1 (101010) - https://sketch.com -->
    <title>C5BBF415-2F65-4553-899F-4656E86EB69D</title>
    <desc>Created with sketchtool.</desc>
    <g id="Mobile---Search-Hotel" stroke="none" stroke-width="1" fill="none" fill-rule="evenodd">
        <g id="Design_Hotel_02_Detail_01" transform="translate(-159.000000, -4583.000000)">
            <g id="Icon/Fac/Pool-Copy-27-Icons/Fac/BBQ" transform="translate(157.000000, 4582.000000)">
                <g id="Group">
                    <path d="M2.25,5.14285714 C2.25,8.8707792 5.27207794,11.8928571 9,11.8928571 C12.7279221,11.8928571 15.75,8.8707792 15.75,5.14285714 C15.75,4.96533704 15.6060915,4.82142857 15.4285714,4.82142857 L2.57142857,4.82142857 C2.39390847,4.82142857 2.25,4.96533704 2.25,5.14285714 Z M15.0988297,5.46428571 C14.9316827,8.68775294 12.2650639,11.25 9.00000015,11.25 C5.79324116,11.25 3.16374484,8.77844472 2.91250517,5.63632809 L2.90117061,5.46428571 L15.0988297,5.46428571 Z" id="Path" fill="#0393CD" fill-rule="nonzero"></path>
                    <polygon id="Path-104" fill="#0393CD" fill-rule="nonzero" points="6.56400586 11.0914719 5.71846533 13.3889859 6.32176352 13.6110142 7.16730406 11.3135002"></polygon>
                    <path d="M12.9932173,11.0897736 L11.2704102,15.6908059 C11.2081605,15.8570538 11.2924677,16.0422877 11.4587156,16.1045374 C11.6249634,16.1667872 11.8101974,16.08248 11.8724471,15.9162321 L13.5952541,11.3151997 C13.6575038,11.1489519 13.5731967,10.963718 13.4069488,10.9014683 C13.2407009,10.8392185 13.055467,10.9235257 12.9932173,11.0897736 Z" id="Path-104-Copy" fill="#0393CD" fill-rule="nonzero" transform="translate(12.432832, 13.503003) scale(-1, 1) translate(-12.432832, -13.503003) "></path>
                    <path d="M5.78571429,16.3928571 C6.67331478,16.3928571 7.39285714,15.6733148 7.39285714,14.7857143 C7.39285714,13.8981138 6.67331478,13.1785714 5.78571429,13.1785714 C4.89811379,13.1785714 4.17857143,13.8981138 4.17857143,14.7857143 C4.17857143,15.6733148 4.89811379,16.3928571 5.78571429,16.3928571 Z M5.78571429,15.75 C5.25315399,15.75 4.82142857,15.3182746 4.82142857,14.7857143 C4.82142857,14.253154 5.25315399,13.8214286 5.78571429,13.8214286 C6.31827458,13.8214286 6.75,14.253154 6.75,14.7857143 C6.75,15.3182746 6.31827458,15.75 5.78571429,15.75 Z" id="Oval" fill="#0393CD" fill-rule="nonzero"></path>
                    <path d="M12.5193127,13.6862636 L8.58847128,13.6862636 C8.41095118,13.6862636 8.2670427,13.8301721 8.2670427,14.0076922 C8.2670427,14.1852123 8.41095118,14.3291208 8.58847128,14.3291208 L12.5193127,14.3291208 C12.6968328,14.3291208 12.8407412,14.1852123 12.8407412,14.0076922 C12.8407412,13.8301721 12.6968328,13.6862636 12.5193127,13.6862636 Z" id="Path-105" fill="#0393CD" fill-rule="nonzero"></path>
                    <path d="M7.39285714,3.52120429 L7.39285714,1.92857144 C7.39285714,1.75105133 7.24894867,1.60714286 7.07142857,1.60714286 C6.89390847,1.60714286 6.75,1.75105133 6.75,1.92857144 L6.75,3.52120429 C6.75,3.6987244 6.89390847,3.84263287 7.07142857,3.84263287 C7.24894867,3.84263287 7.39285714,3.6987244 7.39285714,3.52120429 Z" id="Path-106" fill="#0393CD" fill-rule="nonzero"></path>
                    <path d="M9.32142857,4.16406144 L9.32142857,2.57142858 C9.32142857,2.39390848 9.1775201,2.25 9,2.25 C8.8224799,2.25 8.67857143,2.39390848 8.67857143,2.57142858 L8.67857143,4.16406144 C8.67857143,4.34158154 8.8224799,4.48549002 9,4.48549002 C9.1775201,4.48549002 9.32142857,4.34158154 9.32142857,4.16406144 Z" id="Path-106-Copy" fill="#0393CD" fill-rule="nonzero"></path>
                    <path d="M11.25,3.52120429 L11.25,1.92857144 C11.25,1.75105133 11.1060915,1.60714286 10.9285714,1.60714286 C10.7510513,1.60714286 10.6071429,1.75105133 10.6071429,1.92857144 L10.6071429,3.52120429 C10.6071429,3.6987244 10.7510513,3.84263287 10.9285714,3.84263287 C11.1060915,3.84263287 11.25,3.6987244 11.25,3.52120429 Z" id="Path-106-Copy-2" fill="#0393CD" fill-rule="nonzero"></path>
                    <rect id="Rectangle" x="0" y="0" width="18" height="18"></rect>
                </g>
            </g>
        </g>
    </g>
</svg>