<?xml version="1.0" encoding="UTF-8"?>
<svg width="16px" height="16px" viewBox="0 0 16 16" version="1.1" xmlns="http://www.w3.org/2000/svg" xmlns:xlink="http://www.w3.org/1999/xlink">
    <!-- Generator: sketchtool 59.1 (101010) - https://sketch.com -->
    <title>4FDDC67F-0A78-4D05-BA78-10EC88CE6981</title>
    <desc>Created with sketchtool.</desc>
    <g id="Mobile---Search-Hotel" stroke="none" stroke-width="1" fill="none" fill-rule="evenodd">
        <g id="Design_Hotel_02_Detail_01" transform="translate(-23.000000, -4246.000000)">
            <g id="Icon/Fac/Pool-Copy-14-Icons/Fac/LuggageRoom" transform="translate(22.000000, 4245.000000)">
                <path d="M1.28571428,13.8214286 L16.4767297,13.8214286 C16.6542498,13.8214286 16.7981582,13.6775201 16.7981582,13.5 C16.7981582,13.3224799 16.6542498,13.1785714 16.4767297,13.1785714 L1.28571428,13.1785714 C1.10819418,13.1785714 0.964285714,13.3224799 0.964285714,13.5 C0.964285714,13.6775201 1.10819418,13.8214286 1.28571428,13.8214286 Z" id="Path-90" fill="#0393CD" fill-rule="nonzero"></path>
                <path d="M7.07142857,2.25 L10.9285714,2.25 C13.2363327,2.25 15.1071429,4.12081015 15.1071429,6.42857143 L15.1071429,13.5 C15.1071429,13.6775201 14.9632344,13.8214286 14.7857143,13.8214286 L3.21428571,13.8214286 C3.03676562,13.8214286 2.89285714,13.6775201 2.89285714,13.5 L2.89285714,6.42857143 C2.89285714,4.12081015 4.7636673,2.25 7.07142857,2.25 Z M14.4642857,13.1785714 L14.4642857,6.42857143 C14.4642857,4.47585035 12.8812925,2.89285714 10.9285714,2.89285714 L7.07142857,2.89285714 C5.11870749,2.89285714 3.53571429,4.47585035 3.53571429,6.42857143 L3.53571429,13.1785714 L14.4642857,13.1785714 Z" id="Rectangle" fill="#0393CD" fill-rule="nonzero"></path>
                <path d="M6.42857143,6.75 L11.5714286,6.75 C12.4590291,6.75 13.1785714,7.46954237 13.1785714,8.35714286 L13.1785714,10.9285714 C13.1785714,11.8161719 12.4590291,12.5357143 11.5714286,12.5357143 L6.42857143,12.5357143 C5.54097094,12.5357143 4.82142857,11.8161719 4.82142857,10.9285714 L4.82142857,8.35714286 C4.82142857,7.46954237 5.54097094,6.75 6.42857143,6.75 Z M6.42857143,7.39285714 C5.89601113,7.39285714 5.46428571,7.82458256 5.46428571,8.35714286 L5.46428571,10.9285714 C5.46428571,11.4611317 5.89601113,11.8928571 6.42857143,11.8928571 L11.5714286,11.8928571 C12.1039889,11.8928571 12.5357143,11.4611317 12.5357143,10.9285714 L12.5357143,8.35714286 C12.5357143,7.82458256 12.1039889,7.39285714 11.5714286,7.39285714 L6.42857143,7.39285714 Z" id="Rectangle" fill="#0393CD" fill-rule="nonzero"></path>
                <path d="M7.39285714,5.78571429 C7.39285714,5.60819419 7.53676562,5.46428571 7.71428571,5.46428571 L10.2857143,5.46428571 C10.4632344,5.46428571 10.6071429,5.60819419 10.6071429,5.78571429 L10.6071429,6.42857143 C10.6071429,6.96113172 10.1754174,7.39285714 9.64285714,7.39285714 L8.35714286,7.39285714 C7.82458256,7.39285714 7.39285714,6.96113172 7.39285714,6.42857143 L7.39285714,5.78571429 Z M8.03571429,6.10714286 L8.03571429,6.42857143 C8.03571429,6.60609153 8.17962276,6.75 8.35714286,6.75 L9.64285714,6.75 C9.82037724,6.75 9.96428571,6.60609153 9.96428571,6.42857143 L9.96428571,6.10714286 L8.03571429,6.10714286 Z" id="Rectangle" fill="#0393CD" fill-rule="nonzero" transform="translate(9.000000, 6.428571) scale(1, -1) translate(-9.000000, -6.428571) "></path>
                <path d="M4.46056264,17.0357143 C5.17064303,17.0357143 5.74627692,16.4600804 5.74627692,15.75 C5.74627692,15.0399196 5.17064303,14.4642857 4.46056264,14.4642857 C3.75048225,14.4642857 3.17484835,15.0399196 3.17484835,15.75 C3.17484835,16.4600804 3.75048225,17.0357143 4.46056264,17.0357143 Z M4.46056264,16.3928571 C4.10552244,16.3928571 3.8177055,16.1050402 3.8177055,15.75 C3.8177055,15.3949598 4.10552244,15.1071429 4.46056264,15.1071429 C4.81560283,15.1071429 5.10341978,15.3949598 5.10341978,15.75 C5.10341978,16.1050402 4.81560283,16.3928571 4.46056264,16.3928571 Z" id="Oval" fill="#0393CD" fill-rule="nonzero"></path>
                <path d="M13.1785714,17.0357143 C13.8886518,17.0357143 14.4642857,16.4600804 14.4642857,15.75 C14.4642857,15.0399196 13.8886518,14.4642857 13.1785714,14.4642857 C12.468491,14.4642857 11.8928571,15.0399196 11.8928571,15.75 C11.8928571,16.4600804 12.468491,17.0357143 13.1785714,17.0357143 Z M13.1785714,16.3928571 C12.8235312,16.3928571 12.5357143,16.1050402 12.5357143,15.75 C12.5357143,15.3949598 12.8235312,15.1071429 13.1785714,15.1071429 C13.5336116,15.1071429 13.8214286,15.3949598 13.8214286,15.75 C13.8214286,16.1050402 13.5336116,16.3928571 13.1785714,16.3928571 Z" id="Oval-Copy" fill="#0393CD" fill-rule="nonzero"></path>
                <path d="M8.67857143,1.28571428 L8.67857143,3.63165492 C8.67857143,3.80917501 8.8224799,3.95308348 9,3.95308348 C9.1775201,3.95308348 9.32142857,3.80917501 9.32142857,3.63165492 L9.32142857,1.28571428 C9.32142857,1.10819418 9.1775201,0.964285714 9,0.964285714 C8.8224799,0.964285714 8.67857143,1.10819418 8.67857143,1.28571428 Z" id="Path-91" fill="#0393CD" fill-rule="nonzero"></path>
                <rect id="Rectangle" x="0" y="0" width="18" height="18"></rect>
            </g>
        </g>
    </g>
</svg>