<?xml version="1.0" encoding="UTF-8"?>
<svg width="18px" height="15px" viewBox="0 0 18 15" version="1.1" xmlns="http://www.w3.org/2000/svg" xmlns:xlink="http://www.w3.org/1999/xlink">
    <!-- Generator: sketchtool 59.1 (101010) - https://sketch.com -->
    <title>5CCA0AC4-66AA-462D-82E2-184AB2D42057</title>
    <desc>Created with sketchtool.</desc>
    <g id="Mobile---Search-Hotel" stroke="none" stroke-width="1" fill="none" fill-rule="evenodd">
        <g id="Design_Hotel_02_Detail_01" transform="translate(-22.000000, -4776.000000)">
            <g id="Icon/Fac/Pool-Copy-21-Icons/Fac/BigPet" transform="translate(22.000000, 4774.000000)">
                <g id="Group">
                    <path d="M5.89734383,9.97268866 C6.05459321,8.36216298 7.41245954,7.10357155 9.06428565,7.10357155 C10.7635312,7.10357155 12.1516972,8.43546171 12.2417803,10.1122388 C13.4975531,10.5522146 14.3678571,11.7463742 14.3678571,13.1142859 C14.3678571,14.8717349 12.9431632,16.2964288 11.1857142,16.2964288 C10.3893132,16.2964288 9.6399285,16.0018782 9.06395087,15.4859669 C8.48872592,16.0018173 7.73933064,16.2964288 6.94285708,16.2964288 C5.18540811,16.2964288 3.76071422,14.8717349 3.76071422,13.1142859 C3.76071422,11.7954027 4.56973249,10.6380726 5.75374829,10.1616785 L5.88682675,10.1115744 L5.89734383,9.97268866 Z M9.06428573,7.81071442 C7.74009673,7.81071442 6.65879439,8.85063587 6.59250615,10.1583513 L6.5892857,10.2857145 L6.59082197,10.3544789 C6.60028247,10.5230614 6.48922403,10.6748078 6.32567323,10.7167687 C5.24054739,10.995171 4.4678571,11.9777515 4.4678571,13.114286 C4.4678571,14.4811908 5.57595236,15.5892861 6.94285713,15.5892861 C7.66306251,15.5892861 8.33233734,15.2804253 8.79836394,14.7510345 C8.93905464,14.5912146 9.1880534,14.5910878 9.32890674,14.7507645 C9.79617745,15.2804801 10.4655806,15.5892861 11.1857143,15.5892861 C12.5526191,15.5892861 13.6607144,14.4811908 13.6607144,13.114286 C13.6607144,11.9777699 12.888062,10.995277 11.8038246,10.7178697 C11.6433674,10.676816 11.5329118,10.5298788 11.5380642,10.3643331 L11.5392858,10.2857145 L11.5360653,10.1583513 C11.4697771,8.85063587 10.3884747,7.81071442 9.06428573,7.81071442 Z" id="Combined-Shape" fill="#0393CD" fill-rule="nonzero"></path>
                    <path d="M2.70000003,9.93214273 C3.67636057,9.93214273 4.46785717,9.14064613 4.46785717,8.16428559 C4.46785717,7.18792505 3.67636057,6.39642845 2.70000003,6.39642845 C1.72363949,6.39642845 0.932142888,7.18792505 0.932142888,8.16428559 C0.932142888,9.14064613 1.72363949,9.93214273 2.70000003,9.93214273 Z M2.70000003,9.22499986 C2.11418372,9.22499986 1.63928576,8.75010191 1.63928576,8.16428559 C1.63928576,7.57846928 2.11418372,7.10357132 2.70000003,7.10357132 C3.28581635,7.10357132 3.7607143,7.57846928 3.7607143,8.16428559 C3.7607143,8.75010191 3.28581635,9.22499986 2.70000003,9.22499986 Z" id="Oval" fill="#0393CD" fill-rule="nonzero"></path>
                    <path d="M15.4285714,9.93214273 C16.404932,9.93214273 17.1964286,9.14064613 17.1964286,8.16428559 C17.1964286,7.18792505 16.404932,6.39642845 15.4285714,6.39642845 C14.4522109,6.39642845 13.6607143,7.18792505 13.6607143,8.16428559 C13.6607143,9.14064613 14.4522109,9.93214273 15.4285714,9.93214273 Z M15.4285714,9.22499986 C14.8427551,9.22499986 14.3678572,8.75010191 14.3678572,8.16428559 C14.3678572,7.57846928 14.8427551,7.10357132 15.4285714,7.10357132 C16.0143877,7.10357132 16.4892857,7.57846928 16.4892857,8.16428559 C16.4892857,8.75010191 16.0143877,9.22499986 15.4285714,9.22499986 Z" id="Oval-Copy-3" fill="#0393CD" fill-rule="nonzero"></path>
                    <path d="M11.8928571,5.75357146 C12.8692177,5.75357146 13.6607143,4.96207486 13.6607143,3.98571432 C13.6607143,3.00935378 12.8692177,2.21785717 11.8928571,2.21785717 C10.9164966,2.21785717 10.125,3.00935378 10.125,3.98571432 C10.125,4.96207486 10.9164966,5.75357146 11.8928571,5.75357146 Z M11.8928571,5.04642859 C11.3070408,5.04642859 10.8321429,4.57153063 10.8321429,3.98571432 C10.8321429,3.399898 11.3070408,2.92500005 11.8928571,2.92500005 C12.4786735,2.92500005 12.9535714,3.399898 12.9535714,3.98571432 C12.9535714,4.57153063 12.4786735,5.04642859 11.8928571,5.04642859 Z" id="Oval-Copy-4" fill="#0393CD" fill-rule="nonzero"></path>
                    <path d="M6.23571416,5.75357146 C7.2120747,5.75357146 8.00357131,4.96207486 8.00357131,3.98571432 C8.00357131,3.00935378 7.2120747,2.21785717 6.23571416,2.21785717 C5.25935362,2.21785717 4.46785702,3.00935378 4.46785702,3.98571432 C4.46785702,4.96207486 5.25935362,5.75357146 6.23571416,5.75357146 Z M6.23571416,5.04642859 C5.64989785,5.04642859 5.17499989,4.57153063 5.17499989,3.98571432 C5.17499989,3.399898 5.64989785,2.92500005 6.23571416,2.92500005 C6.82153048,2.92500005 7.29642843,3.399898 7.29642843,3.98571432 C7.29642843,4.57153063 6.82153048,5.04642859 6.23571416,5.04642859 Z" id="Oval-Copy-5" fill="#0393CD" fill-rule="nonzero"></path>
                    <rect id="Rectangle" x="0" y="0" width="18" height="18"></rect>
                </g>
            </g>
        </g>
    </g>
</svg>