<?xml version="1.0" encoding="UTF-8"?>
<svg width="14px" height="15px" viewBox="0 0 14 15" version="1.1" xmlns="http://www.w3.org/2000/svg" xmlns:xlink="http://www.w3.org/1999/xlink">
    <!-- Generator: sketchtool 59.1 (101010) - https://sketch.com -->
    <title>1F5BD73C-DD03-4C98-9E6A-34152CEB31EA</title>
    <desc>Created with sketchtool.</desc>
    <g id="Mobile---Search-Hotel" stroke="none" stroke-width="1" fill="none" fill-rule="evenodd">
        <g id="Design_Hotel_02_Detail_01" transform="translate(-24.000000, -4583.000000)">
            <g id="Icon/Fac/Pool-Copy-20-Icons/Fac/Grill" transform="translate(22.000000, 4581.000000)">
                <g id="Group-2">
                    <g id="Group" transform="translate(3.214286, 2.571429)" fill="#0393CD" fill-rule="nonzero">
                        <path d="M1.28571429,3.53571429 C2.17331478,3.53571429 2.89285714,2.81617192 2.89285714,1.92857143 C2.89285714,1.04097094 2.17331478,0.321428571 1.28571429,0.321428571 C0.398113795,0.321428571 -0.321428571,1.04097094 -0.321428571,1.92857143 C-0.321428571,2.81617192 0.398113795,3.53571429 1.28571429,3.53571429 Z M1.28571429,2.89285714 C0.753153991,2.89285714 0.321428571,2.46113172 0.321428571,1.92857143 C0.321428571,1.39601113 0.753153991,0.964285714 1.28571429,0.964285714 C1.81827458,0.964285714 2.25,1.39601113 2.25,1.92857143 C2.25,2.46113172 1.81827458,2.89285714 1.28571429,2.89285714 Z" id="Oval"></path>
                        <path d="M5.78571429,8.03571429 C6.67331478,8.03571429 7.39285714,7.31617192 7.39285714,6.42857143 C7.39285714,5.54097094 6.67331478,4.82142857 5.78571429,4.82142857 C4.89811379,4.82142857 4.17857143,5.54097094 4.17857143,6.42857143 C4.17857143,7.31617192 4.89811379,8.03571429 5.78571429,8.03571429 Z M5.78571429,7.39285714 C5.25315399,7.39285714 4.82142857,6.96113172 4.82142857,6.42857143 C4.82142857,5.89601113 5.25315399,5.46428571 5.78571429,5.46428571 C6.31827458,5.46428571 6.75,5.89601113 6.75,6.42857143 C6.75,6.96113172 6.31827458,7.39285714 5.78571429,7.39285714 Z" id="Oval-Copy"></path>
                        <path d="M10.2857143,3.53571429 C11.1733148,3.53571429 11.8928571,2.81617192 11.8928571,1.92857143 C11.8928571,1.04097094 11.1733148,0.321428571 10.2857143,0.321428571 C9.39811379,0.321428571 8.67857143,1.04097094 8.67857143,1.92857143 C8.67857143,2.81617192 9.39811379,3.53571429 10.2857143,3.53571429 Z M10.2857143,2.89285714 C9.75315399,2.89285714 9.32142857,2.46113172 9.32142857,1.92857143 C9.32142857,1.39601113 9.75315399,0.964285714 10.2857143,0.964285714 C10.8182746,0.964285714 11.25,1.39601113 11.25,1.92857143 C11.25,2.46113172 10.8182746,2.89285714 10.2857143,2.89285714 Z" id="Oval-Copy-2"></path>
                        <path d="M1.28571429,2.89285714 C2.17331478,2.89285714 2.89285714,3.61239951 2.89285714,4.5 L2.89285714,6.42857143 C2.89285714,7.31617192 2.17331478,8.03571429 1.28571429,8.03571429 C0.398113795,8.03571429 -0.321428571,7.31617192 -0.321428571,6.42857143 L-0.321428571,4.5 C-0.321428571,3.61239951 0.398113795,2.89285714 1.28571429,2.89285714 Z M1.28571429,3.53571429 C0.753153991,3.53571429 0.321428571,3.96743971 0.321428571,4.5 L0.321428571,6.42857143 C0.321428571,6.96113172 0.753153991,7.39285714 1.28571429,7.39285714 C1.81827458,7.39285714 2.25,6.96113172 2.25,6.42857143 L2.25,4.5 C2.25,3.96743971 1.81827458,3.53571429 1.28571429,3.53571429 Z" id="Rectangle"></path>
                        <path d="M5.78571429,0.321428571 C6.67331478,0.321428571 7.39285714,1.04097094 7.39285714,1.92857143 L7.39285714,3.85714286 C7.39285714,4.74474335 6.67331478,5.46428571 5.78571429,5.46428571 C4.89811379,5.46428571 4.17857143,4.74474335 4.17857143,3.85714286 L4.17857143,1.92857143 C4.17857143,1.04097094 4.89811379,0.321428571 5.78571429,0.321428571 Z M5.78571429,0.964285714 C5.25315399,0.964285714 4.82142857,1.39601113 4.82142857,1.92857143 L4.82142857,3.85714286 C4.82142857,4.38970315 5.25315399,4.82142857 5.78571429,4.82142857 C6.31827458,4.82142857 6.75,4.38970315 6.75,3.85714286 L6.75,1.92857143 C6.75,1.39601113 6.31827458,0.964285714 5.78571429,0.964285714 Z" id="Rectangle-Copy-2"></path>
                        <path d="M10.2857143,4.17857143 C11.1733148,4.17857143 11.8928571,4.89811379 11.8928571,5.78571429 L11.8928571,7.71428571 C11.8928571,8.60188621 11.1733148,9.32142857 10.2857143,9.32142857 C9.39811379,9.32142857 8.67857143,8.60188621 8.67857143,7.71428571 L8.67857143,5.78571429 C8.67857143,4.89811379 9.39811379,4.17857143 10.2857143,4.17857143 Z M10.2857143,4.82142857 C9.75315399,4.82142857 9.32142857,5.25315399 9.32142857,5.78571429 L9.32142857,7.71428571 C9.32142857,8.24684601 9.75315399,8.67857143 10.2857143,8.67857143 C10.8182746,8.67857143 11.25,8.24684601 11.25,7.71428571 L11.25,5.78571429 C11.25,5.25315399 10.8182746,4.82142857 10.2857143,4.82142857 Z" id="Rectangle-Copy-4"></path>
                        <path d="M0.642857143,7.39285714 L1.92857143,7.39285714 C2.46113172,7.39285714 2.89285714,7.82458256 2.89285714,8.35714286 C2.89285714,8.88970315 2.46113172,9.32142857 1.92857143,9.32142857 L0.642857143,9.32142857 C0.110296848,9.32142857 -0.321428571,8.88970315 -0.321428571,8.35714286 C-0.321428571,7.82458256 0.110296848,7.39285714 0.642857143,7.39285714 Z M0.642857143,8.03571429 C0.465337045,8.03571429 0.321428571,8.17962276 0.321428571,8.35714286 C0.321428571,8.53466296 0.465337045,8.67857143 0.642857143,8.67857143 L1.92857143,8.67857143 C2.10609153,8.67857143 2.25,8.53466296 2.25,8.35714286 C2.25,8.17962276 2.10609153,8.03571429 1.92857143,8.03571429 L0.642857143,8.03571429 Z" id="Rectangle-Copy"></path>
                        <path d="M5.14285714,7.39285714 L6.42857143,7.39285714 C6.96113172,7.39285714 7.39285714,7.82458256 7.39285714,8.35714286 C7.39285714,8.88970315 6.96113172,9.32142857 6.42857143,9.32142857 L5.14285714,9.32142857 C4.61029685,9.32142857 4.17857143,8.88970315 4.17857143,8.35714286 C4.17857143,7.82458256 4.61029685,7.39285714 5.14285714,7.39285714 Z M5.14285714,8.03571429 C4.96533704,8.03571429 4.82142857,8.17962276 4.82142857,8.35714286 C4.82142857,8.53466296 4.96533704,8.67857143 5.14285714,8.67857143 L6.42857143,8.67857143 C6.60609153,8.67857143 6.75,8.53466296 6.75,8.35714286 C6.75,8.17962276 6.60609153,8.03571429 6.42857143,8.03571429 L5.14285714,8.03571429 Z" id="Rectangle-Copy-3"></path>
                        <path d="M9.64285714,2.89285714 L10.9285714,2.89285714 C11.4611317,2.89285714 11.8928571,3.32458256 11.8928571,3.85714286 C11.8928571,4.38970315 11.4611317,4.82142857 10.9285714,4.82142857 L9.64285714,4.82142857 C9.11029685,4.82142857 8.67857143,4.38970315 8.67857143,3.85714286 C8.67857143,3.32458256 9.11029685,2.89285714 9.64285714,2.89285714 Z M9.64285714,3.53571429 C9.46533704,3.53571429 9.32142857,3.67962276 9.32142857,3.85714286 C9.32142857,4.03466296 9.46533704,4.17857143 9.64285714,4.17857143 L10.9285714,4.17857143 C11.1060915,4.17857143 11.25,4.03466296 11.25,3.85714286 C11.25,3.67962276 11.1060915,3.53571429 10.9285714,3.53571429 L9.64285714,3.53571429 Z" id="Rectangle-Copy-5"></path>
                        <path d="M1.60714286,13.5536062 L1.60714286,9.03048584 C1.60714286,8.85296574 1.46323438,8.70905726 1.28571429,8.70905726 C1.10819419,8.70905726 0.964285714,8.85296574 0.964285714,9.03048584 L0.964285714,13.5536062 C0.964285714,13.7311263 1.10819419,13.8750347 1.28571429,13.8750347 C1.46323438,13.8750347 1.60714286,13.7311263 1.60714286,13.5536062 Z" id="Path-107"></path>
                        <path d="M6.10714286,13.5536056 L6.10714286,8.99999998 C6.10714286,8.82247989 5.96323438,8.67857143 5.78571429,8.67857143 C5.60819419,8.67857143 5.46428571,8.82247989 5.46428571,8.99999998 L5.46428571,13.5536056 C5.46428571,13.7311257 5.60819419,13.8750341 5.78571429,13.8750341 C5.96323438,13.8750341 6.10714286,13.7311257 6.10714286,13.5536056 Z" id="Path-107-Copy-2"></path>
                        <path d="M10.6071429,13.5536056 L10.6071429,8.99999998 C10.6071429,8.82247989 10.4632344,8.67857143 10.2857143,8.67857143 C10.1081942,8.67857143 9.96428571,8.82247989 9.96428571,8.99999998 L9.96428571,13.5536056 C9.96428571,13.7311257 10.1081942,13.8750341 10.2857143,13.8750341 C10.4632344,13.8750341 10.6071429,13.7311257 10.6071429,13.5536056 Z" id="Path-107-Copy-4"></path>
                        <path d="M1.60714286,0.642857143 L1.60714286,0 C1.60714286,-0.177520098 1.46323438,-0.321428571 1.28571429,-0.321428571 C1.10819419,-0.321428571 0.964285714,-0.177520098 0.964285714,0 L0.964285714,0.642857143 C0.964285714,0.820377241 1.10819419,0.964285714 1.28571429,0.964285714 C1.46323438,0.964285714 1.60714286,0.820377241 1.60714286,0.642857143 Z" id="Path-107-Copy"></path>
                        <path d="M6.10714286,0.642857143 L6.10714286,0 C6.10714286,-0.177520098 5.96323438,-0.321428571 5.78571429,-0.321428571 C5.60819419,-0.321428571 5.46428571,-0.177520098 5.46428571,0 L5.46428571,0.642857143 C5.46428571,0.820377241 5.60819419,0.964285714 5.78571429,0.964285714 C5.96323438,0.964285714 6.10714286,0.820377241 6.10714286,0.642857143 Z" id="Path-107-Copy-3"></path>
                        <path d="M10.6071429,0.642857143 L10.6071429,0 C10.6071429,-0.177520098 10.4632344,-0.321428571 10.2857143,-0.321428571 C10.1081942,-0.321428571 9.96428571,-0.177520098 9.96428571,0 L9.96428571,0.642857143 C9.96428571,0.820377241 10.1081942,0.964285714 10.2857143,0.964285714 C10.4632344,0.964285714 10.6071429,0.820377241 10.6071429,0.642857143 Z" id="Path-107-Copy-5"></path>
                    </g>
                    <rect id="Rectangle" x="0" y="0" width="18" height="18"></rect>
                </g>
            </g>
        </g>
    </g>
</svg>