<?xml version="1.0" encoding="UTF-8"?>
<svg width="16px" height="16px" viewBox="0 0 16 16" version="1.1" xmlns="http://www.w3.org/2000/svg" xmlns:xlink="http://www.w3.org/1999/xlink">
    <!-- Generator: sketchtool 59.1 (101010) - https://sketch.com -->
    <title>1D549C75-95B6-4174-A060-0340E0475C00</title>
    <desc>Created with sketchtool.</desc>
    <g id="Mobile---Search-Hotel" stroke="none" stroke-width="1" fill="none" fill-rule="evenodd">
        <g id="Design_Hotel_02_Detail_01" transform="translate(-23.000000, -4727.000000)">
            <g id="Icon/Fac/Pool-Copy-25-Icons/Fac/Oven" transform="translate(22.000000, 4726.000000)">
                <g id="Group">
                    <path d="M3.21428571,1.60714286 L14.7857143,1.60714286 C15.6733148,1.60714286 16.3928571,2.32668522 16.3928571,3.21428571 L16.3928571,14.7857143 C16.3928571,15.6733148 15.6733148,16.3928571 14.7857143,16.3928571 L3.21428571,16.3928571 C2.32668522,16.3928571 1.60714286,15.6733148 1.60714286,14.7857143 L1.60714286,3.21428571 C1.60714286,2.32668522 2.32668522,1.60714286 3.21428571,1.60714286 Z M3.21428571,2.25 C2.68172542,2.25 2.25,2.68172542 2.25,3.21428571 L2.25,14.7857143 C2.25,15.3182746 2.68172542,15.75 3.21428571,15.75 L14.7857143,15.75 C15.3182746,15.75 15.75,15.3182746 15.75,14.7857143 L15.75,3.21428571 C15.75,2.68172542 15.3182746,2.25 14.7857143,2.25 L3.21428571,2.25 Z" id="Rectangle" fill="#0393CD" fill-rule="nonzero"></path>
                    <path d="M3.85714286,6.10714286 L14.1428571,6.10714286 C14.6754174,6.10714286 15.1071429,6.53886828 15.1071429,7.07142857 L15.1071429,14.1428571 C15.1071429,14.6754174 14.6754174,15.1071429 14.1428571,15.1071429 L3.85714286,15.1071429 C3.32458256,15.1071429 2.89285714,14.6754174 2.89285714,14.1428571 L2.89285714,7.07142857 C2.89285714,6.53886828 3.32458256,6.10714286 3.85714286,6.10714286 Z M3.85714286,6.75 C3.67962276,6.75 3.53571429,6.89390847 3.53571429,7.07142857 L3.53571429,14.1428571 C3.53571429,14.3203772 3.67962276,14.4642857 3.85714286,14.4642857 L14.1428571,14.4642857 C14.3203772,14.4642857 14.4642857,14.3203772 14.4642857,14.1428571 L14.4642857,7.07142857 C14.4642857,6.89390847 14.3203772,6.75 14.1428571,6.75 L3.85714286,6.75 Z" id="Rectangle" fill="#0393CD" fill-rule="nonzero"></path>
                    <path d="M3.21428571,5.46428571 L14.7857143,5.46428571 C14.9632344,5.46428571 15.1071429,5.32037724 15.1071429,5.14285714 C15.1071429,4.96533704 14.9632344,4.82142857 14.7857143,4.82142857 L3.21428571,4.82142857 C3.03676562,4.82142857 2.89285714,4.96533704 2.89285714,5.14285714 C2.89285714,5.32037724 3.03676562,5.46428571 3.21428571,5.46428571 Z" id="Path-113" fill="#0393CD" fill-rule="nonzero"></path>
                    <path d="M4.5,13.8214286 L13.5,13.8214286 C13.6775201,13.8214286 13.8214286,13.6775201 13.8214286,13.5 C13.8214286,13.3224799 13.6775201,13.1785714 13.5,13.1785714 L4.5,13.1785714 C4.3224799,13.1785714 4.17857143,13.3224799 4.17857143,13.5 C4.17857143,13.6775201 4.3224799,13.8214286 4.5,13.8214286 Z" id="Path-113-Copy" fill="#0393CD" fill-rule="nonzero"></path>
                    <circle id="Oval" fill="#0393CD" cx="14.1428571" cy="3.85714286" r="1"></circle>
                    <circle id="Oval-Copy" fill="#0393CD" cx="12.2142857" cy="3.85714286" r="1"></circle>
                    <circle id="Oval-Copy-2" fill="#0393CD" cx="3.85714286" cy="3.85714286" r="1"></circle>
                    <path d="M9,11.23549 L9,9.64285715 C9,9.46533705 8.85609153,9.32142857 8.67857143,9.32142857 C8.50105133,9.32142857 8.35714286,9.46533705 8.35714286,9.64285715 L8.35714286,11.23549 C8.35714286,11.4130101 8.50105133,11.5569186 8.67857143,11.5569186 C8.85609153,11.5569186 9,11.4130101 9,11.23549 Z" id="Path-106-Copy-3" fill="#0393CD" fill-rule="nonzero"></path>
                    <path d="M10.9285714,11.8783471 L10.9285714,10.2857143 C10.9285714,10.1081942 10.784663,9.96428571 10.6071429,9.96428571 C10.4296228,9.96428571 10.2857143,10.1081942 10.2857143,10.2857143 L10.2857143,11.8783471 C10.2857143,12.0558673 10.4296228,12.1997757 10.6071429,12.1997757 C10.784663,12.1997757 10.9285714,12.0558673 10.9285714,11.8783471 Z" id="Path-106-Copy-4" fill="#0393CD" fill-rule="nonzero"></path>
                    <path d="M12.8571429,11.23549 L12.8571429,9.64285715 C12.8571429,9.46533705 12.7132344,9.32142857 12.5357143,9.32142857 C12.3581942,9.32142857 12.2142857,9.46533705 12.2142857,9.64285715 L12.2142857,11.23549 C12.2142857,11.4130101 12.3581942,11.5569186 12.5357143,11.5569186 C12.7132344,11.5569186 12.8571429,11.4130101 12.8571429,11.23549 Z" id="Path-106-Copy-5" fill="#0393CD" fill-rule="nonzero"></path>
                    <rect id="Rectangle" x="0" y="0" width="18" height="18"></rect>
                </g>
            </g>
        </g>
    </g>
</svg>