<?xml version="1.0" encoding="UTF-8"?>
<svg width="27px" height="27px" viewBox="0 0 27 27" version="1.1" xmlns="http://www.w3.org/2000/svg" xmlns:xlink="http://www.w3.org/1999/xlink">
    <!-- Generator: sketchtool 59.1 (101010) - https://sketch.com -->
    <title>C7A216C5-5A2F-47D6-BF18-20F01E4FDB26</title>
    <desc>Created with sketchtool.</desc>
    <g id="Mobile---Search-Hotel" stroke="none" stroke-width="1" fill="none" fill-rule="evenodd">
        <g id="Design_Hotel_02_Detail_01" transform="translate(-219.000000, -582.000000)">
            <g id="Icon/Fac/Pool-Copy-Icons/Fac/PrivatePool" transform="translate(218.000000, 582.000000)">
                <g id="Group-2">
                    <g id="Group" transform="translate(1.850000, 0.500000)" fill="#0393CD" fill-rule="nonzero">
                        <path d="M1.65,24.8888395 L1.65,16.5 C1.65,15.6715729 2.32157288,15 3.15,15 C3.97842712,15 4.65,15.6715729 4.65,16.5 C4.65,16.7761424 4.87385763,17 5.15,17 C5.42614237,17 5.65,16.7761424 5.65,16.5 C5.65,15.1192881 4.53071187,14 3.15,14 C1.76928813,14 0.65,15.1192881 0.65,16.5 L0.65,24.8888395 C0.65,25.1649819 0.873857625,25.3888395 1.15,25.3888395 C1.42614237,25.3888395 1.65,25.1649819 1.65,24.8888395 Z" id="Path" transform="translate(3.150000, 19.694420) scale(-1, 1) translate(-3.150000, -19.694420) "></path>
                        <path d="M10.65,24.8888395 L10.65,16.5 C10.65,15.6715729 11.3215729,15 12.15,15 C12.9784271,15 13.65,15.6715729 13.65,16.5 C13.65,16.7761424 13.8738576,17 14.15,17 C14.4261424,17 14.65,16.7761424 14.65,16.5 C14.65,15.1192881 13.5307119,14 12.15,14 C10.7692881,14 9.65,15.1192881 9.65,16.5 L9.65,24.8888395 C9.65,25.1649819 9.87385763,25.3888395 10.15,25.3888395 C10.4261424,25.3888395 10.65,25.1649819 10.65,24.8888395 Z" id="Path-Copy" transform="translate(12.150000, 19.694420) scale(-1, 1) translate(-12.150000, -19.694420) "></path>
                        <path d="M5.15,19.7273494 L14.15,19.7273494 C14.4261424,19.7273494 14.65,19.5034918 14.65,19.2273494 C14.65,18.951207 14.4261424,18.7273494 14.15,18.7273494 L5.15,18.7273494 C4.87385763,18.7273494 4.65,18.951207 4.65,19.2273494 C4.65,19.5034918 4.87385763,19.7273494 5.15,19.7273494 Z" id="Path-88"></path>
                        <path d="M5.15,23 L14.15,23 C14.4261424,23 14.65,22.7761424 14.65,22.5 C14.65,22.2238576 14.4261424,22 14.15,22 L5.15,22 C4.87385763,22 4.65,22.2238576 4.65,22.5 C4.65,22.7761424 4.87385763,23 5.15,23 Z" id="Path-88-Copy"></path>
                        <path d="M19.15,9 C20.5307119,9 21.65,7.88071187 21.65,6.5 C21.65,5.11928813 20.5307119,4 19.15,4 C17.7692881,4 16.65,5.11928813 16.65,6.5 C16.65,7.88071187 17.7692881,9 19.15,9 Z M19.15,8 C18.3215729,8 17.65,7.32842712 17.65,6.5 C17.65,5.67157288 18.3215729,5 19.15,5 C19.9784271,5 20.65,5.67157288 20.65,6.5 C20.65,7.32842712 19.9784271,8 19.15,8 Z" id="Oval"></path>
                        <path d="M19.65,2.20849633 L19.65,0.5 C19.65,0.223857625 19.4261424,-1.08579812e-13 19.15,-1.08579812e-13 C18.8738576,-1.08579812e-13 18.65,0.223857625 18.65,0.5 L18.65,2.20849633 C18.65,2.48463871 18.8738576,2.70849633 19.15,2.70849633 C19.4261424,2.70849633 19.65,2.48463871 19.65,2.20849633 Z" id="Path-89"></path>
                        <path d="M19.65,12.2084963 L19.65,10.5 C19.65,10.2238576 19.4261424,10 19.15,10 C18.8738576,10 18.65,10.2238576 18.65,10.5 L18.65,12.2084963 C18.65,12.4846387 18.8738576,12.7084963 19.15,12.7084963 C19.4261424,12.7084963 19.65,12.4846387 19.65,12.2084963 Z" id="Path-89-Copy"></path>
                        <path d="M23.2957518,6.85424817 L25.0042482,6.85424817 C25.2803905,6.85424817 25.5042482,6.63039054 25.5042482,6.35424817 C25.5042482,6.07810579 25.2803905,5.85424817 25.0042482,5.85424817 L23.2957518,5.85424817 C23.0196095,5.85424817 22.7957518,6.07810579 22.7957518,6.35424817 C22.7957518,6.63039054 23.0196095,6.85424817 23.2957518,6.85424817 Z" id="Path-89"></path>
                        <path d="M13.2957518,6.85424817 L15.0042482,6.85424817 C15.2803905,6.85424817 15.5042482,6.63039054 15.5042482,6.35424817 C15.5042482,6.07810579 15.2803905,5.85424817 15.0042482,5.85424817 L13.2957518,5.85424817 C13.0196095,5.85424817 12.7957518,6.07810579 12.7957518,6.35424817 C12.7957518,6.63039054 13.0196095,6.85424817 13.2957518,6.85424817 Z" id="Path-89-Copy"></path>
                        <path d="M21.7279358,9.63929079 L22.9360252,10.8473801 C23.1312873,11.0426423 23.4478698,11.0426423 23.643132,10.8473801 C23.8383941,10.652118 23.8383941,10.3355355 23.643132,10.1402734 L22.4350426,8.93218401 C22.2397805,8.73692186 21.923198,8.73692186 21.7279358,8.93218401 C21.5326737,9.12744616 21.5326737,9.44402865 21.7279358,9.63929079 Z" id="Path-89"></path>
                        <path d="M14.656868,2.56822298 L15.8649574,3.77631232 C16.0602195,3.97157447 16.376802,3.97157447 16.5720642,3.77631232 C16.7673263,3.58105018 16.7673263,3.26446769 16.5720642,3.06920554 L15.3639748,1.8611162 C15.1687127,1.66585405 14.8521302,1.66585405 14.656868,1.8611162 C14.4616059,2.05637834 14.4616059,2.37296083 14.656868,2.56822298 Z" id="Path-89-Copy"></path>
                        <path d="M15.8649574,8.93218401 L14.656868,10.1402734 C14.4616059,10.3355355 14.4616059,10.652118 14.656868,10.8473801 C14.8521302,11.0426423 15.1687127,11.0426423 15.3639748,10.8473801 L16.5720642,9.63929079 C16.7673263,9.44402865 16.7673263,9.12744616 16.5720642,8.93218401 C16.376802,8.73692186 16.0602195,8.73692186 15.8649574,8.93218401 Z" id="Path-89"></path>
                        <path d="M22.9360252,1.8611162 L21.7279358,3.06920554 C21.5326737,3.26446769 21.5326737,3.58105018 21.7279358,3.77631232 C21.923198,3.97157447 22.2397805,3.97157447 22.4350426,3.77631232 L23.643132,2.56822298 C23.8383941,2.37296083 23.8383941,2.05637834 23.643132,1.8611162 C23.4478698,1.66585405 23.1312873,1.66585405 22.9360252,1.8611162 Z" id="Path-89-Copy"></path>
                        <path d="M22.1340192,24.35 C21.6806717,24.35 21.3583741,24.4430685 21.0173276,24.6286348 L20.7599143,24.7741068 C20.559473,24.8827567 20.4017271,24.926 20.135616,24.926 C19.8691606,24.926 19.7354885,24.8930449 19.5115695,24.7734247 L19.2537297,24.6285635 C18.9127342,24.4430501 18.5904391,24.35 18.1371264,24.35 C17.6816204,24.35 17.401673,24.4275526 17.0426311,24.6176692 L16.7628688,24.774144 C16.5624564,24.8827645 16.4047027,24.926 16.138608,24.926 C15.8725087,24.926 15.7147682,24.8827705 15.5143775,24.7741617 L15.2567217,24.6285635 C14.9157262,24.4430501 14.5934311,24.35 14.1401184,24.35 C13.6846124,24.35 13.404665,24.4275526 13.0456231,24.6176692 L12.7658732,24.7741372 C12.5654525,24.8827632 12.4076926,24.926 12.1415712,24.926 C11.8751158,24.926 11.7414437,24.8930449 11.5175247,24.7734247 L11.2596657,24.6285606 C10.91864,24.4430485 10.5963432,24.35 10.1430528,24.35 C9.68756045,24.35 9.40763547,24.4275526 9.04858657,24.6176903 L8.76889656,24.7741275 C8.56845616,24.8827619 8.4107052,24.926 8.144592,24.926 C7.87847063,24.926 7.72071071,24.8827632 7.52028998,24.7741372 L7.26267329,24.6285626 C6.92167523,24.443053 6.59935895,24.35 6.1460448,24.35 C5.69273423,24.35 5.37043008,24.4430483 5.02940338,24.6285605 L4.89207306,24.7061344 C4.58846375,24.8811403 4.4583085,24.926 4.14744,24.926 C3.88129439,24.926 3.72351005,24.8827612 3.52306019,24.7741333 L3.26541514,24.6285596 C2.92438484,24.4430511 2.6020522,24.35 2.14872,24.35 C1.76014954,24.35 1.46782366,24.4183641 1.17747239,24.5547183 L0.992958127,24.650083 L0.894690657,24.7061344 C0.591081474,24.8811402 0.460918543,24.926 0.15,24.926 L-8.8817842e-15,25.076 L-8.8817842e-15,25.796 L0.15,25.946 C0.603332202,25.946 0.925664838,25.8529489 1.26669514,25.6674404 L1.40402934,25.5898656 C1.70763853,25.4148598 1.83780146,25.37 2.14872,25.37 C2.41487012,25.37 2.57264131,25.4132329 2.77306949,25.521849 L3.03074486,25.6674404 C3.37177516,25.8529489 3.6941078,25.946 4.14744,25.946 C4.60077433,25.946 4.92309794,25.8529471 5.26409702,25.6674374 L5.52170158,25.5218697 C5.72213063,25.4132381 5.8798968,25.37 6.1460448,25.37 C6.41248464,25.37 6.5461836,25.4029642 6.77009709,25.5225792 L7.02795058,25.6674395 C7.36897728,25.8529517 7.69128143,25.946 8.144592,25.946 C8.59788597,25.946 8.92019492,25.8529469 9.26119197,25.6674373 L9.39851238,25.5898621 C9.70208526,25.4148555 9.83221317,25.37 10.1430528,25.37 C10.4091742,25.37 10.5669341,25.4132368 10.7673548,25.5218628 L11.0249715,25.6674374 C11.3659696,25.852947 11.6882858,25.946 12.1416,25.946 C12.5949142,25.946 12.9172304,25.852947 13.2582285,25.6674374 L13.5158452,25.5218628 C13.7162659,25.4132368 13.8740258,25.37 14.1401472,25.37 C14.4062604,25.37 14.5640114,25.4132381 14.7644518,25.5218725 L14.8846896,25.5898344 C15.326817,25.8447194 15.6180254,25.946 16.138608,25.946 C16.5940936,25.946 16.8740343,25.8684474 17.2330748,25.6783308 L17.5128244,25.5218628 C17.7132451,25.4132368 17.871005,25.37 18.1371264,25.37 C18.4032396,25.37 18.5609906,25.4132381 18.761431,25.5218725 L18.8816688,25.5898344 C19.3237962,25.8447194 19.6150046,25.946 20.1355872,25.946 C20.5889347,25.946 20.9112323,25.8529315 21.2522788,25.6673652 L21.5096921,25.5218932 C21.7101334,25.4132433 21.8678793,25.37 22.1339904,25.37 C22.4004055,25.37 22.5340808,25.402961 22.7579647,25.5225753 L23.01579,25.6674365 C23.3567845,25.8529498 23.6790723,25.946 24.1323648,25.946 L24.2823648,25.796 L24.2823648,25.076 L24.1323648,24.926 C23.8662758,24.926 23.7085493,24.882764 23.508138,24.7741313 L23.3879158,24.7061696 C22.9458602,24.4512978 22.6546081,24.35 22.1340192,24.35 Z" id="Path"></path>
                    </g>
                    <rect id="Rectangle" x="0" y="0" width="28" height="28"></rect>
                </g>
            </g>
        </g>
    </g>
</svg>