<?xml version="1.0" encoding="UTF-8"?>
<svg width="18px" height="17px" viewBox="0 0 18 17" version="1.1" xmlns="http://www.w3.org/2000/svg" xmlns:xlink="http://www.w3.org/1999/xlink">
    <!-- Generator: sketchtool 59.1 (101010) - https://sketch.com -->
    <title>485E3FC8-FA07-407E-B82C-78EE88D0A86E</title>
    <desc>Created with sketchtool.</desc>
    <g id="Mobile---Search-Hotel" stroke="none" stroke-width="1" fill="none" fill-rule="evenodd">
        <g id="Design_Hotel_02_Detail_01" transform="translate(-22.000000, -4534.000000)">
            <g id="Icon/Fac/Pool-Copy-24-Icons/Fac/24Secure" transform="translate(22.000000, 4533.000000)">
                <g id="Group-2">
                    <g id="Group" transform="translate(9.029767, 9.000000) scale(-1, -1) translate(-9.029767, -9.000000) translate(0.994053, 1.928571)">
                        <path d="M15.7202327,7.0714284 C15.7202327,3.16598633 12.5542463,0 8.64880412,0 C4.74336196,0 1.57737555,3.16598633 1.57737555,7.0714284 C1.57737555,8.35124267 1.91736273,9.55164868 2.51194532,10.5872547 M6.70352851,13.8719259 C7.32154712,14.0483772 7.97414212,14.1428574 8.64880417,14.1428574 C11.0513454,14.1428574 13.1740442,12.9447098 14.4519797,11.1133355" id="Shape" stroke="#0393CD" stroke-linecap="round" stroke-linejoin="round" transform="translate(8.648804, 7.071429) rotate(-540.000000) translate(-8.648804, -7.071429) "></path>
                        <circle id="Oval" fill="#0393CD" cx="12.8571429" cy="1.92857143" r="1"></circle>
                        <polyline id="Path-59" stroke="#0393CD" stroke-linecap="round" stroke-linejoin="round" transform="translate(1.577376, 7.384245) rotate(-180.000000) translate(-1.577376, -7.384245) " points="0 6.42857143 1.57737555 8.33991924 3.1547511 6.42857143"></polyline>
                    </g>
                    <path d="M3.21428571,11.8928571 L5.14285714,11.8928571 C6.03045763,11.8928571 6.75,12.6123995 6.75,13.5 L6.75,15.4285714 C6.75,16.3161719 6.03045763,17.0357143 5.14285714,17.0357143 L3.21428571,17.0357143 C2.32668522,17.0357143 1.60714286,16.3161719 1.60714286,15.4285714 L1.60714286,13.5 C1.60714286,12.6123995 2.32668522,11.8928571 3.21428571,11.8928571 Z M3.21428571,12.5357143 C2.68172542,12.5357143 2.25,12.9674397 2.25,13.5 L2.25,15.4285714 C2.25,15.9611317 2.68172542,16.3928571 3.21428571,16.3928571 L5.14285714,16.3928571 C5.67541744,16.3928571 6.10714286,15.9611317 6.10714286,15.4285714 L6.10714286,13.5 C6.10714286,12.9674397 5.67541744,12.5357143 5.14285714,12.5357143 L3.21428571,12.5357143 Z" id="Rectangle" fill="#0393CD" fill-rule="nonzero"></path>
                    <path d="M3.21428571,10.9285714 C3.21428571,10.7510513 3.35819419,10.6071429 3.53571429,10.6071429 L4.82142857,10.6071429 C4.99894867,10.6071429 5.14285714,10.7510513 5.14285714,10.9285714 L5.14285714,11.5714286 C5.14285714,12.1039889 4.71113172,12.5357143 4.17857143,12.5357143 C3.64601113,12.5357143 3.21428571,12.1039889 3.21428571,11.5714286 L3.21428571,10.9285714 Z M3.85714286,11.25 L3.85714286,11.5714286 C3.85714286,11.7489487 4.00105133,11.8928571 4.17857143,11.8928571 C4.35609153,11.8928571 4.5,11.7489487 4.5,11.5714286 L4.5,11.25 L3.85714286,11.25 Z" id="Rectangle" fill="#0393CD" fill-rule="nonzero" transform="translate(4.178571, 11.571429) scale(1, -1) translate(-4.178571, -11.571429) "></path>
                    <path d="M6.90428576,6.36428547 C7.18714433,6.36428547 7.43571328,6.42428487 7.65000007,6.54428547 C7.86428687,6.66428607 8.02928522,6.82928441 8.14500009,7.03928546 C8.26071496,7.24928651 8.31857152,7.48714127 8.31857152,7.75285688 C8.31857152,8.01428675 8.24892936,8.28321263 8.10964295,8.55964258 C7.97035653,8.83607253 7.7828584,9.10071274 7.54714293,9.35357114 L6.73071433,10.2214283 L8.05500009,10.2214283 C8.15785775,10.2214283 8.24357118,10.2557136 8.31214295,10.3242854 C8.38071473,10.3928572 8.4150001,10.4785706 8.4150001,10.5814283 C8.4150001,10.6800002 8.38071473,10.7624994 8.31214295,10.8289283 C8.24357118,10.8953572 8.15785775,10.9285711 8.05500009,10.9285711 L5.86928573,10.9285711 C5.7578566,10.9285711 5.67000033,10.8942858 5.60571429,10.825714 C5.54142825,10.7571422 5.50928572,10.6692859 5.50928572,10.5621426 C5.50928572,10.4549992 5.54785676,10.3607144 5.62500001,10.2792854 L7.02642862,8.78142829 C7.18500085,8.60999887 7.31035674,8.43750059 7.40250006,8.2639283 C7.49464339,8.09035601 7.54071435,7.93071475 7.54071435,7.78499974 C7.54071435,7.59214163 7.47214361,7.42500045 7.33500006,7.28357117 C7.19785651,7.14214189 7.03928667,7.07142832 6.85928576,7.07142832 C6.73499942,7.07142832 6.60964353,7.11321361 6.48321432,7.19678546 C6.35678511,7.2803573 6.2421434,7.39071334 6.13928574,7.52785688 C6.06214249,7.63071454 5.96357205,7.68214259 5.84357144,7.68214259 C5.74928525,7.68214259 5.6625004,7.64571439 5.58321429,7.57285688 C5.50392818,7.49999938 5.46428571,7.41857162 5.46428571,7.32857117 C5.46428571,7.26428514 5.48571407,7.19892865 5.52857143,7.13249974 C5.57142879,7.06607084 5.63571386,6.99000017 5.72142858,6.90428546 C5.88428654,6.74142751 6.07285609,6.61071453 6.28714288,6.51214261 C6.50142968,6.41357069 6.70714191,6.36428547 6.90428576,6.36428547 Z M10.8321429,6.42857118 C10.9392863,6.42857118 11.0292854,6.46607081 11.1021429,6.54107118 C11.1750004,6.61607156 11.2114286,6.70928491 11.2114286,6.82071404 L11.2114286,8.99999976 L11.4814286,8.99999976 C11.5842863,8.99999976 11.6699997,9.03428513 11.7385715,9.1028569 C11.8071432,9.17142867 11.8414286,9.2571421 11.8414286,9.35999976 C11.8414286,9.45857168 11.8071432,9.54107085 11.7385715,9.60749976 C11.6699997,9.67392866 11.5842863,9.70714261 11.4814286,9.70714261 L11.2114286,9.70714261 L11.2114286,10.5364283 C11.2114286,10.6478575 11.173929,10.7410708 11.0989286,10.8160712 C11.0239282,10.8910716 10.9307149,10.9285712 10.8192857,10.9285712 C10.7121423,10.9285712 10.6221432,10.8910716 10.5492857,10.8160712 C10.4764282,10.7410708 10.44,10.6478575 10.44,10.5364283 L10.44,9.70714261 L8.76857141,9.70714261 C8.67428522,9.70714261 8.58642896,9.66964299 8.50499998,9.59464261 C8.423571,9.51964224 8.38285712,9.43071456 8.38285712,9.3278569 C8.38285712,9.23357071 8.41499965,9.14785728 8.47928569,9.07071404 L10.5107143,6.5828569 C10.5921433,6.47999924 10.6992851,6.42857118 10.8321429,6.42857118 Z M10.4399999,7.71428541 L9.39857136,8.99999969 L10.4399999,8.99999969 L10.4399999,7.71428541 Z" id="24" fill="#0393CD" fill-rule="nonzero" transform="translate(8.652857, 8.646428) rotate(-360.000000) translate(-8.652857, -8.646428) "></path>
                    <rect id="Rectangle" x="0" y="0" width="18" height="18"></rect>
                </g>
            </g>
        </g>
    </g>
</svg>