<?xml version="1.0" encoding="UTF-8"?>
<svg width="14px" height="15px" viewBox="0 0 14 15" version="1.1" xmlns="http://www.w3.org/2000/svg" xmlns:xlink="http://www.w3.org/1999/xlink">
    <!-- Generator: sketchtool 59.1 (101010) - https://sketch.com -->
    <title>EEADB0EF-8686-465B-9D77-0AFE009C1738</title>
    <desc>Created with sketchtool.</desc>
    <g id="Mobile---Search-Hotel" stroke="none" stroke-width="1" fill="none" fill-rule="evenodd">
        <g id="Design_Hotel_02_Detail_01" transform="translate(-159.000000, -4632.000000)">
            <g id="Icon/Fac/Pool-Copy-32-Icons/Fac/Staff" transform="translate(157.000000, 4630.000000)">
                <g id="Group">
                    <path d="M8.83928571,2.25 C10.3482065,2.25 11.5714286,3.47322202 11.5714286,4.98214286 L11.5714286,5.94642857 C11.5714286,7.45534941 10.3482065,8.67857143 8.83928571,8.67857143 C7.33036488,8.67857143 6.10714286,7.45534941 6.10714286,5.94642857 L6.10714286,4.98214286 C6.10714286,3.47322202 7.33036488,2.25 8.83928571,2.25 Z M8.83928571,2.89285714 C7.68540508,2.89285714 6.75,3.82826222 6.75,4.98214286 L6.75,5.94642857 C6.75,7.10030921 7.68540508,8.03571429 8.83928571,8.03571429 C9.99316635,8.03571429 10.9285714,7.10030921 10.9285714,5.94642857 L10.9285714,4.98214286 C10.9285714,3.82826222 9.99316635,2.89285714 8.83928571,2.89285714 Z" id="Rectangle" fill="#0393CD" fill-rule="nonzero"></path>
                    <path d="M3.53571429,13.5 C3.53571429,11.5583141 5.37497776,9.96428571 7.66483516,9.96428571 L10.3351648,9.96428571 C12.6250222,9.96428571 14.4642857,11.5583141 14.4642857,13.5 C14.4642857,13.6775201 14.6081942,13.8214286 14.7857143,13.8214286 C14.9632344,13.8214286 15.1071429,13.6775201 15.1071429,13.5 C15.1071429,11.1812036 12.9612486,9.32142857 10.3351648,9.32142857 L7.66483516,9.32142857 C5.03875139,9.32142857 2.89285714,11.1812036 2.89285714,13.5 C2.89285714,13.6775201 3.03676562,13.8214286 3.21428571,13.8214286 C3.39180581,13.8214286 3.53571429,13.6775201 3.53571429,13.5 Z" id="Shape" fill="#0393CD" fill-rule="nonzero"></path>
                    <path d="M8.05615234,10.8822131 L7.42037256,15.2443424 C7.40576112,15.3445925 7.43926797,15.4458642 7.51078833,15.5176166 L8.77234799,16.78327 C8.89672056,16.9080461 9.09835766,16.9094543 9.22446085,16.7864275 L10.5217621,15.5207741 C10.5955675,15.4487692 10.6303485,15.3457276 10.6152786,15.2437235 L9.9708267,10.8815941 C9.94753368,10.7239297 9.8122254,10.6071429 9.65284956,10.6071429 L8.37422031,10.6071429 C8.21460707,10.6071429 8.07917272,10.7242686 8.05615234,10.8822131 Z M9.37541922,11.25 L9.95533058,15.1752709 L9.0031578,16.1042153 L8.07972282,15.1777838 L8.65219679,11.25 L9.37541922,11.25 Z" id="Path-108" fill="#0393CD" fill-rule="nonzero"></path>
                    <rect id="Rectangle" x="0" y="0" width="18" height="18"></rect>
                </g>
            </g>
        </g>
    </g>
</svg>