<?xml version="1.0" encoding="UTF-8"?>
<svg width="12px" height="17px" viewBox="0 0 12 17" version="1.1" xmlns="http://www.w3.org/2000/svg" xmlns:xlink="http://www.w3.org/1999/xlink">
    <!-- Generator: sketchtool 59.1 (101010) - https://sketch.com -->
    <title>F6A7A2B9-0867-4948-A1EC-6258332EC491</title>
    <desc>Created with sketchtool.</desc>
    <g id="Mobile---Search-Hotel" stroke="none" stroke-width="1" fill="none" fill-rule="evenodd">
        <g id="Design_Hotel_02_Detail_01" transform="translate(-25.000000, -4486.000000)">
            <g id="Icon/Fac/Pool-Copy-18-Icons/Fac/Lift" transform="translate(22.000000, 4485.000000)">
                <g id="Group">
                    <path d="M8.96785717,8.03571429 C9.93230488,8.03571429 10.7035715,8.86951601 10.7035715,9.88610039 L10.7035715,10.3638996 C10.7035715,11.380484 9.93230488,12.2142857 8.96785717,12.2142857 C8.00340946,12.2142857 7.23214286,11.380484 7.23214286,10.3638996 L7.23214286,9.88610039 C7.23214286,8.86951601 8.00340946,8.03571429 8.96785717,8.03571429 Z M8.96785717,8.67857143 C8.37012798,8.67857143 7.875,9.21384491 7.875,9.88610039 L7.875,10.3638996 C7.875,11.0361551 8.37012798,11.5714286 8.96785717,11.5714286 C9.56558636,11.5714286 10.0607143,11.0361551 10.0607143,10.3638996 L10.0607143,9.88610039 C10.0607143,9.21384491 9.56558636,8.67857143 8.96785717,8.67857143 Z" id="Rectangle" fill="#0393CD" fill-rule="nonzero"></path>
                    <path d="M6.49285712,14.978572 C6.49285712,14.0022114 7.28435369,13.2107148 8.26071419,13.2107148 L9.67499985,13.2107148 C10.6513604,13.2107148 11.4428569,14.0022114 11.4428569,14.978572 C11.4428569,15.1738441 11.6011562,15.3321434 11.7964283,15.3321434 C11.9917004,15.3321434 12.1499998,15.1738441 12.1499998,14.978572 C12.1499998,13.6116672 11.0419046,12.5035719 9.67499985,12.5035719 L8.26071419,12.5035719 C6.89380949,12.5035719 5.78571429,13.6116672 5.78571429,14.978572 C5.78571429,15.1738441 5.9440136,15.3321434 6.1392857,15.3321434 C6.3345578,15.3321434 6.49285712,15.1738441 6.49285712,14.978572 Z" id="Path" fill="#0393CD" fill-rule="nonzero"></path>
                    <path d="M4.43571429,6.10714286 L13.5642857,6.10714286 C14.2388621,6.10714286 14.7857143,6.65399506 14.7857143,7.32857143 L14.7857143,15.8142857 C14.7857143,16.4888621 14.2388621,17.0357143 13.5642857,17.0357143 L4.43571429,17.0357143 C3.76113791,17.0357143 3.21428571,16.4888621 3.21428571,15.8142857 L3.21428571,7.32857143 C3.21428571,6.65399506 3.76113791,6.10714286 4.43571429,6.10714286 Z M4.43571429,6.75 C4.11617811,6.75 3.85714286,7.00903525 3.85714286,7.32857143 L3.85714286,15.8142857 C3.85714286,16.1338219 4.11617811,16.3928571 4.43571429,16.3928571 L13.5642857,16.3928571 C13.8838219,16.3928571 14.1428571,16.1338219 14.1428571,15.8142857 L14.1428571,7.32857143 C14.1428571,7.00903525 13.8838219,6.75 13.5642857,6.75 L4.43571429,6.75 Z" id="Rectangle" fill="#0393CD" fill-rule="nonzero"></path>
                    <path d="M5.75357707,3.57244202 C5.6280514,3.69796768 5.6280514,3.901485 5.75357707,4.02701066 C5.87910273,4.15253633 6.08262005,4.15253633 6.20814571,4.02701066 L7.88415375,2.35100263 C8.00967942,2.22547696 8.00967942,2.02195965 7.88415375,1.89643398 L6.20814571,0.220425944 C6.08262005,0.0949002794 5.87910273,0.0949002794 5.75357707,0.220425944 C5.6280514,0.34595161 5.6280514,0.549468924 5.75357707,0.674994589 L7.20230078,2.1237183 L5.75357707,3.57244202 Z" id="Path-100" fill="#0393CD" fill-rule="nonzero" transform="translate(6.818865, 2.123718) scale(-1, 1) rotate(-90.000000) translate(-6.818865, -2.123718) "></path>
                    <path d="M11.8400308,3.73086108 L10.3913071,5.1795848 C10.2657815,5.30511047 10.2657815,5.50862778 10.3913071,5.63415344 C10.5168328,5.75967911 10.7203501,5.75967911 10.8458758,5.63415344 L12.5218838,3.95814541 C12.6474095,3.83261974 12.6474095,3.62910243 12.5218838,3.50357676 L10.8458758,1.82756872 C10.7203501,1.70204306 10.5168328,1.70204306 10.3913071,1.82756872 C10.2657815,1.95309439 10.2657815,2.1566117 10.3913071,2.28213737 L11.8400308,3.73086108 Z" id="Path-100-Copy" fill="#0393CD" fill-rule="nonzero" transform="translate(11.456595, 3.730861) rotate(90.000000) translate(-11.456595, -3.730861) "></path>
                    <path d="M9.84945284,3.21428571 L13.0637386,3.21428571 C13.2412586,3.21428571 13.3851671,3.07037724 13.3851671,2.89285714 C13.3851671,2.71533704 13.2412586,2.57142857 13.0637386,2.57142857 L9.84945284,2.57142857 C9.67193274,2.57142857 9.52802426,2.71533704 9.52802426,2.89285714 C9.52802426,3.07037724 9.67193274,3.21428571 9.84945284,3.21428571 Z" id="Path-99-Copy" fill="#0393CD" fill-rule="nonzero" transform="translate(11.456596, 2.892857) scale(1, -1) rotate(90.000000) translate(-11.456596, -2.892857) "></path>
                    <path d="M5.21172248,3.28315105 L8.42600819,3.28315105 C8.60352829,3.28315105 8.74743676,3.13924257 8.74743676,2.96172248 C8.74743676,2.78420238 8.60352829,2.6402939 8.42600819,2.6402939 L5.21172248,2.6402939 C5.03420238,2.6402939 4.8902939,2.78420238 4.8902939,2.96172248 C4.8902939,3.13924257 5.03420238,3.28315105 5.21172248,3.28315105 Z" id="Path-99" fill="#0393CD" fill-rule="nonzero" transform="translate(6.818865, 2.961722) scale(-1, 1) rotate(-90.000000) translate(-6.818865, -2.961722) "></path>
                    <rect id="Rectangle" x="0" y="0" width="18" height="18"></rect>
                </g>
            </g>
        </g>
    </g>
</svg>